<?xml version="1.0" encoding="UTF-8"?>
<svg viewBox="0 0 300 462" xmlns="http://www.w3.org/2000/svg">
<rect width="300" height="462" rx="5" fill="#363636"/>
<path d="m8.625 44.85c-0.28333 0-0.51667-0.0917-0.7-0.275-0.18333-0.1667-0.275-0.4-0.275-0.7 0-0.2833 0.09167-0.5167 0.275-0.7s0.41667-0.275 0.7-0.275c0.76667 0 1.4417-0.1667 2.025-0.5s1.0417-0.7917 1.375-1.375c0.35-0.5833 0.525-1.2583 0.525-2.025v-12.7c0-0.3 0.0833-0.5333 0.25-0.7 0.1833-0.1833 0.4167-0.275 0.7-0.275s0.5167 0.0917 0.7 0.275c0.1833 0.1667 0.275 0.4 0.275 0.7v12.7c0 1.1333-0.25 2.1417-0.75 3.025s-1.1917 1.575-2.075 2.075-1.8917 0.75-3.025 0.75zm4.85-22.125c-0.3667 0-0.6833-0.1333-0.95-0.4s-0.4-0.5917-0.4-0.975c0-0.4167 0.1333-0.7417 0.4-0.975 0.2833-0.25 0.6083-0.375 0.975-0.375 0.35 0 0.6583 0.125 0.925 0.375 0.2833 0.2333 0.425 0.5583 0.425 0.975 0 0.3833-0.1333 0.7083-0.4 0.975s-0.5917 0.4-0.975 0.4zm10.928 16.4c-1.2833 0-2.4333-0.3-3.45-0.9-1.0166-0.6167-1.825-1.45-2.425-2.5-0.5833-1.05-0.875-2.2333-0.875-3.55 0-1.3333 0.3-2.525 0.9-3.575 0.6167-1.05 1.45-1.875 2.5-2.475 1.05-0.6167 2.2334-0.925 3.55-0.925 1.3167 0 2.4917 0.3083 3.525 0.925 1.05 0.6 1.875 1.425 2.475 2.475 0.6167 1.05 0.9334 2.2417 0.95 3.575l-0.775 0.6c0 1.2-0.2833 2.2833-0.85 3.25-0.55 0.95-1.3083 1.7083-2.275 2.275-0.95 0.55-2.0333 0.825-3.25 0.825zm0.2-1.75c0.9667 0 1.825-0.225 2.575-0.675 0.7667-0.45 1.3667-1.0667 1.8-1.85 0.45-0.8 0.675-1.6917 0.675-2.675 0-1-0.225-1.8917-0.675-2.675-0.4333-0.7833-1.0333-1.4-1.8-1.85-0.75-0.4667-1.6083-0.7-2.575-0.7-0.95 0-1.8083 0.2333-2.575 0.7-0.7666 0.45-1.375 1.0667-1.825 1.85s-0.675 1.675-0.675 2.675c0 0.9833 0.225 1.875 0.675 2.675 0.45 0.7833 1.0584 1.4 1.825 1.85 0.7667 0.45 1.625 0.675 2.575 0.675zm5.975 1.625c-0.2833 0-0.5166-0.0833-0.7-0.25-0.1833-0.1833-0.275-0.4167-0.275-0.7v-4.275l0.475-1.975 1.475 0.375v5.875c0 0.2833-0.0916 0.5167-0.275 0.7-0.1833 0.1667-0.4166 0.25-0.7 0.25zm16.444 0c-0.2834 0-0.5167-0.0917-0.7-0.275-0.1834-0.1833-0.275-0.4083-0.275-0.675v-6.5c0-1.0333-0.2-1.8833-0.6-2.55-0.3834-0.6667-0.9167-1.1667-1.6-1.5-0.6667-0.3333-1.425-0.5-2.275-0.5-0.8167 0-1.5584 0.1583-2.225 0.475-0.65 0.3167-1.1667 0.75-1.55 1.3-0.3834 0.55-0.575 1.175-0.575 1.875h-1.375c0.0333-1.05 0.3166-1.9833 0.85-2.8 0.5333-0.8333 1.2416-1.4833 2.125-1.95 0.8833-0.4833 1.8666-0.725 2.95-0.725 1.1833 0 2.2416 0.25 3.175 0.75 0.9333 0.4833 1.6666 1.2 2.2 2.15 0.55 0.95 0.825 2.1083 0.825 3.475v6.5c0 0.2667-0.0917 0.4917-0.275 0.675-0.1834 0.1833-0.4084 0.275-0.675 0.275zm-10.75 0c-0.3 0-0.5417-0.0833-0.725-0.25-0.1667-0.1833-0.25-0.4167-0.25-0.7v-11.75c0-0.3 0.0833-0.5333 0.25-0.7 0.1833-0.1833 0.425-0.275 0.725-0.275 0.2833 0 0.5083 0.0917 0.675 0.275 0.1833 0.1667 0.275 0.4 0.275 0.7v11.75c0 0.2833-0.0917 0.5167-0.275 0.7-0.1667 0.1667-0.3917 0.25-0.675 0.25zm17.519-4.575-1.175-1.275 8.55-7.725c0.2-0.1833 0.4084-0.2667 0.625-0.25 0.2167 0 0.4167 0.1 0.6 0.3 0.1834 0.2 0.2667 0.4167 0.25 0.65 0 0.2167-0.1 0.4083-0.3 0.575l-8.55 7.725zm-0.625 4.575c-0.2833 0-0.5166-0.0833-0.7-0.25-0.1666-0.1833-0.25-0.4167-0.25-0.7v-17.625c0-0.2833 0.0834-0.5083 0.25-0.675 0.1834-0.1833 0.4167-0.275 0.7-0.275 0.2834 0 0.5084 0.0917 0.675 0.275 0.1834 0.1667 0.275 0.3917 0.275 0.675v17.625c0 0.2833-0.0916 0.5167-0.275 0.7-0.1666 0.1667-0.3916 0.25-0.675 0.25zm9.25-0.125c-0.2166 0.1833-0.4416 0.2583-0.675 0.225-0.2333-0.0167-0.4333-0.1333-0.6-0.35l-5.575-6.85 1.35-1.2 5.625 6.925c0.1667 0.2 0.2417 0.4167 0.225 0.65-0.0166 0.2167-0.1333 0.4167-0.35 0.6zm1.8817 2.075c-0.2834 0-0.5167-0.1-0.7-0.3-0.1834-0.1833-0.275-0.4083-0.275-0.675s0.0916-0.5 0.275-0.7c0.1833-0.1833 0.4166-0.275 0.7-0.275h11.975c0.2666 0 0.4916 0.0917 0.675 0.275 0.1833 0.2 0.275 0.4333 0.275 0.7s-0.0917 0.4917-0.275 0.675c-0.1834 0.2-0.4084 0.3-0.675 0.3h-11.975zm18.719-1.825c-0.9833 0-1.9583-0.1667-2.925-0.5s-1.75-0.8333-2.35-1.5c-0.1833-0.2-0.2583-0.425-0.225-0.675s0.1583-0.4667 0.375-0.65c0.2333-0.1667 0.475-0.2333 0.725-0.2s0.4583 0.1417 0.625 0.325c0.4 0.4667 0.925 0.825 1.575 1.075 0.6667 0.25 1.4 0.375 2.2 0.375 1.2333 0 2.125-0.2083 2.675-0.625 0.55-0.4333 0.8333-0.95 0.85-1.55 0-0.6-0.2833-1.0917-0.85-1.475-0.5667-0.4-1.5-0.7083-2.8-0.925-1.6833-0.2667-2.9167-0.7333-3.7-1.4s-1.175-1.4583-1.175-2.375c0-0.85 0.225-1.5583 0.675-2.125s1.05-0.9917 1.8-1.275 1.575-0.425 2.475-0.425c1.1167 0 2.075 0.1917 2.875 0.575 0.8167 0.3833 1.475 0.9 1.975 1.55 0.1667 0.2167 0.2333 0.4417 0.2 0.675s-0.1667 0.425-0.4 0.575c-0.2 0.1167-0.4333 0.1583-0.7 0.125-0.25-0.05-0.4667-0.175-0.65-0.375-0.4167-0.4833-0.9-0.8333-1.45-1.05-0.55-0.2333-1.1833-0.35-1.9-0.35-0.9167 0-1.65 0.1917-2.2 0.575-0.55 0.3667-0.825 0.8333-0.825 1.4 0 0.3833 0.1 0.7167 0.3 1 0.2167 0.2833 0.575 0.5333 1.075 0.75 0.5167 0.2167 1.2333 0.4 2.15 0.55 1.25 0.2 2.2333 0.5 2.95 0.9 0.7333 0.3833 1.25 0.8417 1.55 1.375 0.3167 0.5167 0.475 1.0833 0.475 1.7 0 0.7833-0.2333 1.475-0.7 2.075-0.45 0.5833-1.0833 1.0417-1.9 1.375-0.8 0.3333-1.725 0.5-2.775 0.5zm14.052-0.125c-0.8834 0-1.675-0.2083-2.375-0.625-0.6834-0.4167-1.225-0.9833-1.625-1.7-0.4-0.7333-0.6-1.5667-0.6-2.5v-12.225c0-0.2833 0.0833-0.5167 0.25-0.7 0.1833-0.1833 0.4166-0.275 0.7-0.275 0.2833 0 0.5166 0.0917 0.7 0.275 0.1833 0.1833 0.275 0.4167 0.275 0.7v12.225c0 0.85 0.25 1.55 0.75 2.1 0.5 0.5333 1.1416 0.8 1.925 0.8h0.675c0.2666 0 0.4833 0.0917 0.65 0.275 0.1666 0.1833 0.25 0.4167 0.25 0.7s-0.1 0.5167-0.3 0.7c-0.2 0.1667-0.45 0.25-0.75 0.25h-0.525zm-6.225-11.5c-0.25 0-0.4584-0.075-0.625-0.225-0.1667-0.1667-0.25-0.3667-0.25-0.6 0-0.25 0.0833-0.45 0.25-0.6 0.1666-0.1667 0.375-0.25 0.625-0.25h6.375c0.25 0 0.4583 0.0833 0.625 0.25 0.1666 0.15 0.25 0.35 0.25 0.6 0 0.2333-0.0834 0.4333-0.25 0.6-0.1667 0.15-0.375 0.225-0.625 0.225h-6.375zm11.733 3.075c0.05-1.0333 0.317-1.9583 0.8-2.775 0.5-0.8167 1.142-1.4583 1.925-1.925 0.8-0.4667 1.684-0.7 2.65-0.7 0.767 0 1.359 0.1083 1.775 0.325 0.417 0.2167 0.575 0.5333 0.475 0.95-0.066 0.25-0.183 0.4167-0.35 0.5-0.15 0.0833-0.341 0.1167-0.575 0.1-0.216-0.0167-0.466-0.0333-0.75-0.05-0.933-0.0833-1.766 0.0167-2.5 0.3-0.716 0.2667-1.291 0.6833-1.725 1.25-0.416 0.5667-0.625 1.2417-0.625 2.025h-1.1zm0.15 8.425c-0.3 0-0.533-0.0833-0.7-0.25-0.166-0.1667-0.25-0.4-0.25-0.7v-11.775c0-0.3 0.084-0.5333 0.25-0.7 0.167-0.1667 0.4-0.25 0.7-0.25s0.534 0.0833 0.7 0.25c0.167 0.1667 0.25 0.4 0.25 0.7v11.775c0 0.3-0.083 0.5333-0.25 0.7-0.166 0.1667-0.4 0.25-0.7 0.25zm11.876 0c-0.3 0-0.542-0.0833-0.725-0.25-0.167-0.1833-0.25-0.425-0.25-0.725v-11.725c0-0.3 0.083-0.5333 0.25-0.7 0.183-0.1833 0.425-0.275 0.725-0.275 0.283 0 0.508 0.0917 0.675 0.275 0.183 0.1667 0.275 0.4 0.275 0.7v11.725c0 0.3-0.092 0.5417-0.275 0.725-0.167 0.1667-0.392 0.25-0.675 0.25zm-0.025-16.275c-0.367 0-0.684-0.1333-0.95-0.4-0.267-0.2667-0.4-0.5917-0.4-0.975 0-0.4167 0.133-0.7417 0.4-0.975 0.283-0.25 0.608-0.375 0.975-0.375 0.35 0 0.658 0.125 0.925 0.375 0.283 0.2333 0.425 0.5583 0.425 0.975 0 0.3833-0.134 0.7083-0.4 0.975-0.267 0.2667-0.592 0.4-0.975 0.4zm17.601 16.275c-0.283 0-0.517-0.0917-0.7-0.275s-0.275-0.4083-0.275-0.675v-6.5c0-1.0333-0.2-1.8833-0.6-2.55-0.383-0.6667-0.917-1.1667-1.6-1.5-0.667-0.3333-1.425-0.5-2.275-0.5-0.817 0-1.558 0.1583-2.225 0.475-0.65 0.3167-1.167 0.75-1.55 1.3s-0.575 1.175-0.575 1.875h-1.375c0.033-1.05 0.317-1.9833 0.85-2.8 0.533-0.8333 1.242-1.4833 2.125-1.95 0.883-0.4833 1.867-0.725 2.95-0.725 1.183 0 2.242 0.25 3.175 0.75 0.933 0.4833 1.667 1.2 2.2 2.15 0.55 0.95 0.825 2.1083 0.825 3.475v6.5c0 0.2667-0.092 0.4917-0.275 0.675s-0.408 0.275-0.675 0.275zm-10.75 0c-0.3 0-0.542-0.0833-0.725-0.25-0.167-0.1833-0.25-0.4167-0.25-0.7v-11.75c0-0.3 0.083-0.5333 0.25-0.7 0.183-0.1833 0.425-0.275 0.725-0.275 0.283 0 0.508 0.0917 0.675 0.275 0.183 0.1667 0.275 0.4 0.275 0.7v11.75c0 0.2833-0.092 0.5167-0.275 0.7-0.167 0.1667-0.392 0.25-0.675 0.25zm21.969 0.125c-1.317 0-2.483-0.2917-3.5-0.875-1.017-0.6-1.817-1.425-2.4-2.475-0.567-1.05-0.85-2.25-0.85-3.6 0-1.3667 0.3-2.575 0.9-3.625s1.425-1.8667 2.475-2.45c1.05-0.6 2.242-0.9 3.575-0.9 1.35 0 2.542 0.3 3.575 0.9 1.05 0.5833 1.867 1.4 2.45 2.45 0.6 1.05 0.908 2.2583 0.925 3.625l-1.125 0.6c0 1.2333-0.258 2.3333-0.775 3.3-0.517 0.95-1.233 1.7-2.15 2.25-0.9 0.5333-1.933 0.8-3.1 0.8zm0.25 5.275c-1.317 0-2.475-0.25-3.475-0.75-1-0.4833-1.825-1.15-2.475-2-0.183-0.2-0.267-0.4167-0.25-0.65 0.033-0.2333 0.158-0.425 0.375-0.575s0.458-0.2 0.725-0.15 0.475 0.175 0.625 0.375c0.483 0.6 1.1 1.0833 1.85 1.45 0.767 0.3667 1.65 0.55 2.65 0.55 0.933 0 1.775-0.225 2.525-0.675s1.342-1.0833 1.775-1.9c0.45-0.8167 0.675-1.775 0.675-2.875v-3.8l0.725-1.45 1.175 0.225v5.1c0 1.35-0.3 2.5583-0.9 3.625-0.6 1.0833-1.417 1.9333-2.45 2.55-1.033 0.6333-2.217 0.95-3.55 0.95zm-0.05-7.025c0.983 0 1.85-0.2167 2.6-0.65 0.767-0.45 1.367-1.0667 1.8-1.85s0.65-1.6833 0.65-2.7-0.217-1.9167-0.65-2.7c-0.433-0.8-1.033-1.4167-1.8-1.85-0.75-0.45-1.617-0.675-2.6-0.675s-1.858 0.225-2.625 0.675c-0.767 0.4333-1.367 1.05-1.8 1.85-0.433 0.7833-0.65 1.6833-0.65 2.7s0.217 1.9167 0.65 2.7 1.033 1.4 1.8 1.85c0.767 0.4333 1.642 0.65 2.625 0.65z" fill="#fff"/>
<mask id="a" fill="white">
<path d="M0 62H300V142H0V62Z"/>
</mask>
<path d="M0 62H300V142H0V62Z" fill="#FF3860"/>
<path d="m300 141h-300v2h300v-2z" fill="#363636" mask="url(#a)"/>
<path d="m35.925 110c-0.4 0-0.7-0.217-0.9-0.65l-5.55-11.775c-0.1-0.2167-0.1083-0.4333-0.025-0.65s0.25-0.3833 0.5-0.5c0.2333-0.1167 0.4583-0.1333 0.675-0.05s0.3833 0.2333 0.5 0.45l5.325 11.525h-1.025l5.25-11.525c0.1-0.2333 0.2667-0.3833 0.5-0.45 0.25-0.0833 0.4917-0.075 0.725 0.025 0.2333 0.1167 0.3917 0.2917 0.475 0.525 0.0833 0.2167 0.075 0.425-0.025 0.625l-5.475 11.8c-0.2 0.433-0.5167 0.65-0.95 0.65zm10.118 5.85c-0.3 0-0.5417-0.092-0.725-0.275-0.1667-0.167-0.25-0.4-0.25-0.7v-11.8c0.0166-1.3 0.325-2.467 0.925-3.5 0.6166-1.05 1.4416-1.875 2.475-2.475 1.05-0.6 2.225-0.9 3.525-0.9 1.3333 0 2.525 0.3083 3.575 0.925 1.05 0.6 1.875 1.425 2.475 2.475 0.6166 1.05 0.925 2.242 0.925 3.575 0 1.317-0.3 2.5-0.9 3.55-0.5834 1.05-1.3834 1.883-2.4 2.5-1.0167 0.6-2.1667 0.9-3.45 0.9-1.1167 0-2.1334-0.233-3.05-0.7-0.9-0.483-1.625-1.117-2.175-1.9v7.35c0 0.3-0.0917 0.533-0.275 0.7-0.1667 0.183-0.3917 0.275-0.675 0.275zm5.95-7.475c0.9666 0 1.8333-0.225 2.6-0.675 0.7666-0.45 1.3666-1.067 1.8-1.85 0.45-0.8 0.675-1.692 0.675-2.675 0-1-0.225-1.892-0.675-2.675-0.4334-0.7833-1.0334-1.4-1.8-1.85-0.7667-0.4667-1.6334-0.7-2.6-0.7-0.95 0-1.8084 0.2333-2.575 0.7-0.7667 0.45-1.3667 1.0667-1.8 1.85-0.4334 0.783-0.65 1.675-0.65 2.675 0 0.983 0.2166 1.875 0.65 2.675 0.4333 0.783 1.0333 1.4 1.8 1.85 0.7666 0.45 1.625 0.675 2.575 0.675zm16.101 1.625c-0.8833 0-1.675-0.208-2.375-0.625-0.6833-0.417-1.225-0.983-1.625-1.7-0.4-0.733-0.6-1.567-0.6-2.5v-12.225c0-0.2833 0.0834-0.5167 0.25-0.7 0.1834-0.1833 0.4167-0.275 0.7-0.275 0.2834 0 0.5167 0.0917 0.7 0.275 0.1834 0.1833 0.275 0.4167 0.275 0.7v12.225c0 0.85 0.25 1.55 0.75 2.1 0.5 0.533 1.1417 0.8 1.925 0.8h0.675c0.2667 0 0.4834 0.092 0.65 0.275 0.1667 0.183 0.25 0.417 0.25 0.7s-0.1 0.517-0.3 0.7c-0.2 0.167-0.45 0.25-0.75 0.25h-0.525zm-6.225-11.5c-0.25 0-0.4583-0.075-0.625-0.225-0.1666-0.1667-0.25-0.3667-0.25-0.6 0-0.25 0.0834-0.45 0.25-0.6 0.1667-0.1667 0.375-0.25 0.625-0.25h6.375c0.25 0 0.4584 0.0833 0.625 0.25 0.1667 0.15 0.25 0.35 0.25 0.6 0 0.2333-0.0833 0.4333-0.25 0.6-0.1666 0.15-0.375 0.225-0.625 0.225h-6.375zm11.734 3.075c0.05-1.033 0.3167-1.9583 0.8-2.775 0.5-0.8167 1.1417-1.4583 1.925-1.925 0.8-0.4667 1.6834-0.7 2.65-0.7 0.7667 0 1.3584 0.1083 1.775 0.325 0.4167 0.2167 0.575 0.5333 0.475 0.95-0.0666 0.25-0.1833 0.4167-0.35 0.5-0.15 0.0833-0.3416 0.1167-0.575 0.1-0.2166-0.0167-0.4666-0.0333-0.75-0.05-0.9333-0.0833-1.7666 0.0167-2.5 0.3-0.7166 0.2667-1.2916 0.6833-1.725 1.25-0.4166 0.567-0.625 1.242-0.625 2.025h-1.1zm0.15 8.425c-0.3 0-0.5333-0.083-0.7-0.25-0.1666-0.167-0.25-0.4-0.25-0.7v-11.775c0-0.3 0.0834-0.5333 0.25-0.7 0.1667-0.1667 0.4-0.25 0.7-0.25s0.5334 0.0833 0.7 0.25c0.1667 0.1667 0.25 0.4 0.25 0.7v11.775c0 0.3-0.0833 0.533-0.25 0.7-0.1666 0.167-0.4 0.25-0.7 0.25zm23.174 0c-0.8833 0-1.675-0.208-2.375-0.625-0.6833-0.417-1.225-0.983-1.625-1.7-0.4-0.733-0.6-1.567-0.6-2.5v-12.225c0-0.2833 0.0834-0.5167 0.25-0.7 0.1834-0.1833 0.4167-0.275 0.7-0.275 0.2834 0 0.5167 0.0917 0.7 0.275 0.1834 0.1833 0.275 0.4167 0.275 0.7v12.225c0 0.85 0.25 1.55 0.75 2.1 0.5 0.533 1.1417 0.8 1.925 0.8h0.675c0.2667 0 0.4834 0.092 0.65 0.275 0.1667 0.183 0.25 0.417 0.25 0.7s-0.1 0.517-0.3 0.7c-0.2 0.167-0.45 0.25-0.75 0.25h-0.525zm-6.225-11.5c-0.25 0-0.4583-0.075-0.625-0.225-0.1666-0.1667-0.25-0.3667-0.25-0.6 0-0.25 0.0834-0.45 0.25-0.6 0.1667-0.1667 0.375-0.25 0.625-0.25h6.375c0.25 0 0.4584 0.0833 0.625 0.25 0.1667 0.15 0.25 0.35 0.25 0.6 0 0.2333-0.0833 0.4333-0.25 0.6-0.1666 0.15-0.375 0.225-0.625 0.225h-6.375zm17.159 11.625c-1.334 0-2.525-0.3-3.575-0.9s-1.875-1.425-2.475-2.475-0.9-2.242-0.9-3.575c0-1.35 0.3-2.55 0.9-3.6s1.425-1.875 2.475-2.475 2.241-0.9 3.575-0.9c1.333 0 2.516 0.3 3.55 0.9 1.05 0.6 1.875 1.425 2.475 2.475s0.908 2.25 0.925 3.6c0 1.333-0.309 2.525-0.925 3.575-0.6 1.05-1.425 1.875-2.475 2.475-1.034 0.6-2.217 0.9-3.55 0.9zm0-1.75c0.966 0 1.833-0.225 2.6-0.675 0.766-0.45 1.366-1.067 1.8-1.85 0.433-0.783 0.65-1.675 0.65-2.675s-0.217-1.892-0.65-2.675c-0.434-0.8-1.034-1.425-1.8-1.875-0.767-0.45-1.634-0.675-2.6-0.675-0.967 0-1.834 0.225-2.6 0.675-0.767 0.45-1.375 1.075-1.825 1.875-0.434 0.783-0.65 1.675-0.65 2.675s0.216 1.892 0.65 2.675c0.45 0.783 1.058 1.4 1.825 1.85 0.766 0.45 1.633 0.675 2.6 0.675zm14.393 7.475c-0.283 0-0.517-0.092-0.7-0.275-0.183-0.167-0.275-0.4-0.275-0.7 0-0.283 0.092-0.517 0.275-0.7s0.417-0.275 0.7-0.275c0.767 0 1.442-0.167 2.025-0.5s1.042-0.792 1.375-1.375c0.35-0.583 0.525-1.258 0.525-2.025v-12.7c0-0.3 0.083-0.5333 0.25-0.7 0.183-0.1833 0.417-0.275 0.7-0.275s0.517 0.0917 0.7 0.275c0.183 0.1667 0.275 0.4 0.275 0.7v12.7c0 1.133-0.25 2.142-0.75 3.025s-1.192 1.575-2.075 2.075-1.892 0.75-3.025 0.75zm4.85-22.125c-0.367 0-0.683-0.1333-0.95-0.4s-0.4-0.5917-0.4-0.975c0-0.4167 0.133-0.7417 0.4-0.975 0.283-0.25 0.608-0.375 0.975-0.375 0.35 0 0.658 0.125 0.925 0.375 0.283 0.2333 0.425 0.5583 0.425 0.975 0 0.3833-0.133 0.7083-0.4 0.975s-0.592 0.4-0.975 0.4zm10.928 16.4c-1.283 0-2.433-0.3-3.45-0.9-1.017-0.617-1.825-1.45-2.425-2.5-0.583-1.05-0.875-2.233-0.875-3.55 0-1.333 0.3-2.525 0.9-3.575 0.617-1.05 1.45-1.875 2.5-2.475 1.05-0.6167 2.233-0.925 3.55-0.925s2.492 0.3083 3.525 0.925c1.05 0.6 1.875 1.425 2.475 2.475 0.617 1.05 0.933 2.242 0.95 3.575l-0.775 0.6c0 1.2-0.283 2.283-0.85 3.25-0.55 0.95-1.308 1.708-2.275 2.275-0.95 0.55-2.033 0.825-3.25 0.825zm0.2-1.75c0.967 0 1.825-0.225 2.575-0.675 0.767-0.45 1.367-1.067 1.8-1.85 0.45-0.8 0.675-1.692 0.675-2.675 0-1-0.225-1.892-0.675-2.675-0.433-0.7833-1.033-1.4-1.8-1.85-0.75-0.4667-1.608-0.7-2.575-0.7-0.95 0-1.808 0.2333-2.575 0.7-0.767 0.45-1.375 1.0667-1.825 1.85-0.45 0.783-0.675 1.675-0.675 2.675 0 0.983 0.225 1.875 0.675 2.675 0.45 0.783 1.058 1.4 1.825 1.85s1.625 0.675 2.575 0.675zm5.975 1.625c-0.283 0-0.517-0.083-0.7-0.25-0.183-0.183-0.275-0.417-0.275-0.7v-4.275l0.475-1.975 1.475 0.375v5.875c0 0.283-0.092 0.517-0.275 0.7-0.183 0.167-0.417 0.25-0.7 0.25zm16.444 0c-0.284 0-0.517-0.092-0.7-0.275-0.184-0.183-0.275-0.408-0.275-0.675v-6.5c0-1.033-0.2-1.883-0.6-2.55-0.384-0.6667-0.917-1.1667-1.6-1.5-0.667-0.3333-1.425-0.5-2.275-0.5-0.817 0-1.559 0.1583-2.225 0.475-0.65 0.3167-1.167 0.75-1.55 1.3-0.384 0.55-0.575 1.175-0.575 1.875h-1.375c0.033-1.05 0.316-1.9833 0.85-2.8 0.533-0.8333 1.241-1.4833 2.125-1.95 0.883-0.4833 1.866-0.725 2.95-0.725 1.183 0 2.241 0.25 3.175 0.75 0.933 0.4833 1.666 1.2 2.2 2.15 0.55 0.95 0.825 2.108 0.825 3.475v6.5c0 0.267-0.092 0.492-0.275 0.675-0.184 0.183-0.409 0.275-0.675 0.275zm-10.75 0c-0.3 0-0.542-0.083-0.725-0.25-0.167-0.183-0.25-0.417-0.25-0.7v-11.75c0-0.3 0.083-0.5333 0.25-0.7 0.183-0.1833 0.425-0.275 0.725-0.275 0.283 0 0.508 0.0917 0.675 0.275 0.183 0.1667 0.275 0.4 0.275 0.7v11.75c0 0.283-0.092 0.517-0.275 0.7-0.167 0.167-0.392 0.25-0.675 0.25zm17.519-4.575-1.175-1.275 8.55-7.725c0.2-0.1833 0.408-0.2667 0.625-0.25 0.216 0 0.416 0.1 0.6 0.3 0.183 0.2 0.266 0.4167 0.25 0.65 0 0.2167-0.1 0.4083-0.3 0.575l-8.55 7.725zm-0.625 4.575c-0.284 0-0.517-0.083-0.7-0.25-0.167-0.183-0.25-0.417-0.25-0.7v-17.625c0-0.2833 0.083-0.5083 0.25-0.675 0.183-0.1833 0.416-0.275 0.7-0.275 0.283 0 0.508 0.0917 0.675 0.275 0.183 0.1667 0.275 0.3917 0.275 0.675v17.625c0 0.283-0.092 0.517-0.275 0.7-0.167 0.167-0.392 0.25-0.675 0.25zm9.25-0.125c-0.217 0.183-0.442 0.258-0.675 0.225-0.234-0.017-0.434-0.133-0.6-0.35l-5.575-6.85 1.35-1.2 5.625 6.925c0.166 0.2 0.241 0.417 0.225 0.65-0.017 0.217-0.134 0.417-0.35 0.6zm1.881 2.075c-0.283 0-0.516-0.1-0.7-0.3-0.183-0.183-0.275-0.408-0.275-0.675s0.092-0.5 0.275-0.7c0.184-0.183 0.417-0.275 0.7-0.275h11.975c0.267 0 0.492 0.092 0.675 0.275 0.184 0.2 0.275 0.433 0.275 0.7s-0.091 0.492-0.275 0.675c-0.183 0.2-0.408 0.3-0.675 0.3h-11.975zm20.169-1.825c-1.333 0-2.525-0.3-3.575-0.9s-1.875-1.425-2.475-2.475-0.9-2.242-0.9-3.575c0-1.35 0.3-2.55 0.9-3.6s1.425-1.875 2.475-2.475 2.242-0.9 3.575-0.9 2.517 0.3 3.55 0.9c1.05 0.6 1.875 1.425 2.475 2.475s0.908 2.25 0.925 3.6c0 1.333-0.308 2.525-0.925 3.575-0.6 1.05-1.425 1.875-2.475 2.475-1.033 0.6-2.217 0.9-3.55 0.9zm0-1.75c0.967 0 1.833-0.225 2.6-0.675s1.367-1.067 1.8-1.85 0.65-1.675 0.65-2.675-0.217-1.892-0.65-2.675c-0.433-0.8-1.033-1.425-1.8-1.875s-1.633-0.675-2.6-0.675-1.833 0.225-2.6 0.675-1.375 1.075-1.825 1.875c-0.433 0.783-0.65 1.675-0.65 2.675s0.217 1.892 0.65 2.675c0.45 0.783 1.058 1.4 1.825 1.85s1.633 0.675 2.6 0.675zm17.619 1.75c-1.3 0-2.475-0.3-3.525-0.9-1.033-0.6-1.858-1.417-2.475-2.45-0.6-1.05-0.908-2.225-0.925-3.525v-11.8c0-0.3 0.083-0.5333 0.25-0.7 0.183-0.1833 0.425-0.275 0.725-0.275 0.283 0 0.508 0.0917 0.675 0.275 0.183 0.1667 0.275 0.4 0.275 0.7v7.35c0.55-0.7833 1.275-1.4083 2.175-1.875 0.917-0.4833 1.933-0.725 3.05-0.725 1.283 0 2.433 0.3083 3.45 0.925 1.017 0.6 1.817 1.425 2.4 2.475 0.6 1.05 0.9 2.233 0.9 3.55 0 1.333-0.308 2.525-0.925 3.575-0.6 1.05-1.425 1.883-2.475 2.5-1.05 0.6-2.242 0.9-3.575 0.9zm0-1.75c0.967 0 1.833-0.225 2.6-0.675 0.767-0.467 1.367-1.092 1.8-1.875 0.45-0.783 0.675-1.675 0.675-2.675 0-0.983-0.225-1.867-0.675-2.65-0.433-0.8-1.033-1.425-1.8-1.875s-1.633-0.675-2.6-0.675c-0.95 0-1.808 0.225-2.575 0.675s-1.367 1.075-1.8 1.875c-0.433 0.783-0.65 1.667-0.65 2.65 0 1 0.217 1.892 0.65 2.675s1.033 1.408 1.8 1.875c0.767 0.45 1.625 0.675 2.575 0.675zm7.126 7.475c-0.283 0-0.517-0.092-0.7-0.275-0.183-0.167-0.275-0.4-0.275-0.7 0-0.283 0.092-0.517 0.275-0.7s0.417-0.275 0.7-0.275c0.767 0 1.442-0.167 2.025-0.5s1.042-0.792 1.375-1.375c0.35-0.583 0.525-1.258 0.525-2.025v-12.7c0-0.3 0.083-0.5333 0.25-0.7 0.183-0.1833 0.417-0.275 0.7-0.275s0.517 0.0917 0.7 0.275c0.183 0.1667 0.275 0.4 0.275 0.7v12.7c0 1.133-0.25 2.142-0.75 3.025s-1.192 1.575-2.075 2.075-1.892 0.75-3.025 0.75zm4.85-22.125c-0.367 0-0.683-0.1333-0.95-0.4s-0.4-0.5917-0.4-0.975c0-0.4167 0.133-0.7417 0.4-0.975 0.283-0.25 0.608-0.375 0.975-0.375 0.35 0 0.658 0.125 0.925 0.375 0.283 0.2333 0.425 0.5583 0.425 0.975 0 0.3833-0.133 0.7083-0.4 0.975s-0.592 0.4-0.975 0.4zm11.103 16.4c-1.35 0-2.55-0.292-3.6-0.875-1.034-0.6-1.85-1.425-2.45-2.475-0.584-1.05-0.875-2.25-0.875-3.6 0-1.367 0.275-2.567 0.825-3.6 0.566-1.05 1.341-1.875 2.325-2.475 0.983-0.6 2.116-0.9 3.4-0.9 1.266 0 2.366 0.2917 3.3 0.875 0.95 0.5667 1.683 1.3583 2.2 2.375 0.516 1.017 0.775 2.175 0.775 3.475 0 0.267-0.084 0.483-0.25 0.65-0.167 0.15-0.384 0.225-0.65 0.225h-10.625v-1.6h10.825l-1.075 0.775c0.016-0.967-0.159-1.833-0.525-2.6-0.367-0.7667-0.892-1.3667-1.575-1.8-0.667-0.4333-1.467-0.65-2.4-0.65-0.95 0-1.784 0.225-2.5 0.675-0.717 0.45-1.275 1.075-1.675 1.875-0.384 0.783-0.575 1.683-0.575 2.7s0.216 1.917 0.65 2.7c0.45 0.783 1.058 1.4 1.825 1.85 0.766 0.45 1.65 0.675 2.65 0.675 0.6 0 1.2-0.1 1.8-0.3 0.616-0.217 1.108-0.483 1.475-0.8 0.183-0.15 0.391-0.225 0.625-0.225 0.233-0.017 0.433 0.042 0.6 0.175 0.216 0.2 0.325 0.417 0.325 0.65 0.016 0.233-0.075 0.433-0.275 0.6-0.55 0.467-1.25 0.858-2.1 1.175-0.85 0.3-1.667 0.45-2.45 0.45zm14.768 0c-1.317 0-2.492-0.3-3.525-0.9-1.017-0.617-1.825-1.45-2.425-2.5-0.583-1.05-0.875-2.233-0.875-3.55 0-1.333 0.283-2.525 0.85-3.575s1.342-1.875 2.325-2.475c0.983-0.6167 2.117-0.925 3.4-0.925 1.017 0 1.95 0.2 2.8 0.6 0.867 0.4 1.625 1 2.275 1.8 0.183 0.2 0.25 0.4167 0.2 0.65-0.05 0.2167-0.192 0.4083-0.425 0.575-0.183 0.1333-0.392 0.183-0.625 0.15-0.217-0.05-0.408-0.175-0.575-0.375-0.967-1.1-2.183-1.65-3.65-1.65-0.933 0-1.758 0.225-2.475 0.675-0.7 0.45-1.25 1.0667-1.65 1.85-0.383 0.783-0.575 1.683-0.575 2.7 0 1 0.208 1.892 0.625 2.675s1 1.4 1.75 1.85 1.608 0.675 2.575 0.675c0.65 0 1.242-0.083 1.775-0.25 0.55-0.183 1.033-0.458 1.45-0.825 0.2-0.167 0.408-0.258 0.625-0.275s0.417 0.05 0.6 0.2c0.2 0.183 0.308 0.392 0.325 0.625 0.033 0.233-0.042 0.433-0.225 0.6-1.217 1.117-2.733 1.675-4.55 1.675zm14.118-0.125c-0.883 0-1.675-0.208-2.375-0.625-0.683-0.417-1.225-0.983-1.625-1.7-0.4-0.733-0.6-1.567-0.6-2.5v-12.225c0-0.2833 0.083-0.5167 0.25-0.7 0.183-0.1833 0.417-0.275 0.7-0.275s0.517 0.0917 0.7 0.275 0.275 0.4167 0.275 0.7v12.225c0 0.85 0.25 1.55 0.75 2.1 0.5 0.533 1.142 0.8 1.925 0.8h0.675c0.267 0 0.483 0.092 0.65 0.275s0.25 0.417 0.25 0.7-0.1 0.517-0.3 0.7c-0.2 0.167-0.45 0.25-0.75 0.25h-0.525zm-6.225-11.5c-0.25 0-0.458-0.075-0.625-0.225-0.167-0.1667-0.25-0.3667-0.25-0.6 0-0.25 0.083-0.45 0.25-0.6 0.167-0.1667 0.375-0.25 0.625-0.25h6.375c0.25 0 0.458 0.0833 0.625 0.25 0.167 0.15 0.25 0.35 0.25 0.6 0 0.2333-0.083 0.4333-0.25 0.6-0.167 0.15-0.375 0.225-0.625 0.225h-6.375z" fill="#fff"/>
<path d="m0 142h300v315c0 2.761-2.239 5-5 5h-290c-2.7614 0-5-2.239-5-5v-315z" fill="#00D1B2"/>
<path d="m36.025 310.12c-0.9833 0-1.9583-0.167-2.925-0.5s-1.75-0.833-2.35-1.5c-0.1833-0.2-0.2583-0.425-0.225-0.675s0.1583-0.467 0.375-0.65c0.2333-0.167 0.475-0.233 0.725-0.2s0.4583 0.142 0.625 0.325c0.4 0.467 0.925 0.825 1.575 1.075 0.6667 0.25 1.4 0.375 2.2 0.375 1.2333 0 2.125-0.208 2.675-0.625 0.55-0.433 0.8333-0.95 0.85-1.55 0-0.6-0.2833-1.092-0.85-1.475-0.5667-0.4-1.5-0.708-2.8-0.925-1.6833-0.267-2.9167-0.733-3.7-1.4s-1.175-1.458-1.175-2.375c0-0.85 0.225-1.558 0.675-2.125s1.05-0.992 1.8-1.275 1.575-0.425 2.475-0.425c1.1167 0 2.075 0.192 2.875 0.575 0.8167 0.383 1.475 0.9 1.975 1.55 0.1667 0.217 0.2333 0.442 0.2 0.675s-0.1667 0.425-0.4 0.575c-0.2 0.117-0.4333 0.158-0.7 0.125-0.25-0.05-0.4667-0.175-0.65-0.375-0.4167-0.483-0.9-0.833-1.45-1.05-0.55-0.233-1.1833-0.35-1.9-0.35-0.9167 0-1.65 0.192-2.2 0.575-0.55 0.367-0.825 0.833-0.825 1.4 0 0.383 0.1 0.717 0.3 1 0.2167 0.283 0.575 0.533 1.075 0.75 0.5167 0.217 1.2333 0.4 2.15 0.55 1.25 0.2 2.2333 0.5 2.95 0.9 0.7333 0.383 1.25 0.842 1.55 1.375 0.3167 0.517 0.475 1.083 0.475 1.7 0 0.783-0.2333 1.475-0.7 2.075-0.45 0.583-1.0833 1.042-1.9 1.375-0.8 0.333-1.725 0.5-2.775 0.5zm14.052-0.125c-0.8834 0-1.675-0.208-2.375-0.625-0.6834-0.417-1.225-0.983-1.625-1.7-0.4-0.733-0.6-1.567-0.6-2.5v-12.225c0-0.283 0.0833-0.517 0.25-0.7 0.1833-0.183 0.4166-0.275 0.7-0.275 0.2833 0 0.5166 0.092 0.7 0.275 0.1833 0.183 0.275 0.417 0.275 0.7v12.225c0 0.85 0.25 1.55 0.75 2.1 0.5 0.533 1.1416 0.8 1.925 0.8h0.675c0.2666 0 0.4833 0.092 0.65 0.275 0.1666 0.183 0.25 0.417 0.25 0.7s-0.1 0.517-0.3 0.7c-0.2 0.167-0.45 0.25-0.75 0.25h-0.525zm-6.225-11.5c-0.25 0-0.4584-0.075-0.625-0.225-0.1667-0.167-0.25-0.367-0.25-0.6 0-0.25 0.0833-0.45 0.25-0.6 0.1666-0.167 0.375-0.25 0.625-0.25h6.375c0.25 0 0.4583 0.083 0.625 0.25 0.1666 0.15 0.25 0.35 0.25 0.6 0 0.233-0.0834 0.433-0.25 0.6-0.1667 0.15-0.375 0.225-0.625 0.225h-6.375zm17.159 11.625c-1.3167 0-2.5-0.3-3.55-0.9-1.05-0.617-1.8834-1.45-2.5-2.5-0.6-1.05-0.9-2.242-0.9-3.575 0-1.317 0.2916-2.5 0.875-3.55 0.6-1.05 1.4083-1.875 2.425-2.475 1.0166-0.617 2.1666-0.925 3.45-0.925 1.1166 0 2.125 0.242 3.025 0.725 0.9 0.467 1.625 1.092 2.175 1.875v-7.35c0-0.3 0.0916-0.533 0.275-0.7 0.1833-0.183 0.4166-0.275 0.7-0.275 0.2833 0 0.5166 0.092 0.7 0.275 0.1833 0.167 0.275 0.4 0.275 0.7v11.8c-0.0334 1.3-0.3584 2.475-0.975 3.525-0.6 1.033-1.425 1.85-2.475 2.45-1.0334 0.6-2.2 0.9-3.5 0.9zm0-1.75c0.9666 0 1.825-0.225 2.575-0.675 0.7666-0.467 1.3666-1.092 1.8-1.875 0.45-0.783 0.675-1.675 0.675-2.675 0-0.983-0.225-1.867-0.675-2.65-0.4334-0.8-1.0334-1.425-1.8-1.875-0.75-0.45-1.6084-0.675-2.575-0.675-0.95 0-1.8084 0.225-2.575 0.675-0.7667 0.45-1.375 1.075-1.825 1.875-0.45 0.783-0.675 1.667-0.675 2.65 0 1 0.225 1.892 0.675 2.675s1.0583 1.408 1.825 1.875c0.7666 0.45 1.625 0.675 2.575 0.675zm11.451-8.975c-0.4 0-0.75-0.133-1.05-0.4-0.2833-0.283-0.425-0.633-0.425-1.05s0.1417-0.767 0.425-1.05c0.2834-0.283 0.6334-0.425 1.05-0.425 0.4 0 0.7334 0.15 1 0.45 0.2834 0.283 0.425 0.625 0.425 1.025s-0.1416 0.742-0.425 1.025c-0.2666 0.283-0.6 0.425-1 0.425zm0.05 11c-0.4 0-0.7416-0.142-1.025-0.425-0.2833-0.283-0.425-0.625-0.425-1.025 0-0.417 0.1417-0.767 0.425-1.05 0.3-0.283 0.6417-0.425 1.025-0.425 0.4 0 0.7417 0.15 1.025 0.45 0.2834 0.283 0.425 0.625 0.425 1.025 0 0.383-0.1416 0.725-0.425 1.025-0.2666 0.283-0.6083 0.425-1.025 0.425zm4.8329-11c-0.4 0-0.7501-0.133-1.05-0.4-0.2834-0.283-0.425-0.633-0.425-1.05s0.1416-0.767 0.425-1.05c0.2833-0.283 0.6333-0.425 1.05-0.425 0.4 0 0.7333 0.15 1 0.45 0.2833 0.283 0.4249 0.625 0.4249 1.025s-0.1416 0.742-0.4249 1.025c-0.2667 0.283-0.6 0.425-1 0.425zm0.05 11c-0.4 0-0.7417-0.142-1.025-0.425-0.2834-0.283-0.425-0.625-0.425-1.025 0-0.417 0.1416-0.767 0.425-1.05 0.3-0.283 0.6416-0.425 1.025-0.425 0.4 0 0.7416 0.15 1.025 0.45 0.2833 0.283 0.425 0.625 0.425 1.025 0 0.383-0.1417 0.725-0.425 1.025-0.2667 0.283-0.6084 0.425-1.025 0.425zm9.6078-0.275c-0.9834 0-1.9584-0.167-2.925-0.5-0.9667-0.333-1.75-0.833-2.35-1.5-0.1834-0.2-0.2584-0.425-0.225-0.675 0.0333-0.25 0.1583-0.467 0.375-0.65 0.2333-0.167 0.475-0.233 0.725-0.2s0.4583 0.142 0.625 0.325c0.4 0.467 0.925 0.825 1.575 1.075 0.6666 0.25 1.4 0.375 2.2 0.375 1.2333 0 2.125-0.208 2.675-0.625 0.55-0.433 0.8333-0.95 0.85-1.55 0-0.6-0.2834-1.092-0.85-1.475-0.5667-0.4-1.5-0.708-2.8-0.925-1.6834-0.267-2.9167-0.733-3.7-1.4-0.7834-0.667-1.175-1.458-1.175-2.375 0-0.85 0.225-1.558 0.675-2.125s1.05-0.992 1.8-1.275 1.575-0.425 2.475-0.425c1.1166 0 2.075 0.192 2.875 0.575 0.8166 0.383 1.475 0.9 1.975 1.55 0.1666 0.217 0.2333 0.442 0.2 0.675-0.0334 0.233-0.1667 0.425-0.4 0.575-0.2 0.117-0.4334 0.158-0.7 0.125-0.25-0.05-0.4667-0.175-0.65-0.375-0.4167-0.483-0.9-0.833-1.45-1.05-0.55-0.233-1.1834-0.35-1.9-0.35-0.9167 0-1.65 0.192-2.2 0.575-0.55 0.367-0.825 0.833-0.825 1.4 0 0.383 0.1 0.717 0.3 1 0.2166 0.283 0.575 0.533 1.075 0.75 0.5166 0.217 1.2333 0.4 2.15 0.55 1.25 0.2 2.2333 0.5 2.95 0.9 0.7333 0.383 1.25 0.842 1.55 1.375 0.3166 0.517 0.475 1.083 0.475 1.7 0 0.783-0.2334 1.475-0.7 2.075-0.45 0.583-1.0834 1.042-1.9 1.375-0.8 0.333-1.725 0.5-2.775 0.5zm14.051-0.125c-0.883 0-1.6749-0.208-2.3749-0.625-0.6833-0.417-1.225-0.983-1.625-1.7-0.4-0.733-0.6-1.567-0.6-2.5v-12.225c0-0.283 0.0834-0.517 0.25-0.7 0.1834-0.183 0.4167-0.275 0.7-0.275 0.2834 0 0.5167 0.092 0.7 0.275 0.1834 0.183 0.275 0.417 0.275 0.7v12.225c0 0.85 0.25 1.55 0.75 2.1 0.5 0.533 1.1419 0.8 1.9249 0.8h0.675c0.267 0 0.483 0.092 0.65 0.275s0.25 0.417 0.25 0.7-0.1 0.517-0.3 0.7c-0.2 0.167-0.45 0.25-0.75 0.25h-0.525zm-6.2249-11.5c-0.25 0-0.4583-0.075-0.625-0.225-0.1666-0.167-0.25-0.367-0.25-0.6 0-0.25 0.0834-0.45 0.25-0.6 0.1667-0.167 0.375-0.25 0.625-0.25h6.3749c0.25 0 0.458 0.083 0.625 0.25 0.167 0.15 0.25 0.35 0.25 0.6 0 0.233-0.083 0.433-0.25 0.6-0.167 0.15-0.375 0.225-0.625 0.225h-6.3749zm11.734 3.075c0.05-1.033 0.316-1.958 0.8-2.775 0.5-0.817 1.141-1.458 1.925-1.925 0.8-0.467 1.683-0.7 2.65-0.7 0.766 0 1.358 0.108 1.775 0.325 0.416 0.217 0.575 0.533 0.475 0.95-0.067 0.25-0.184 0.417-0.35 0.5-0.15 0.083-0.342 0.117-0.575 0.1-0.217-0.017-0.467-0.033-0.75-0.05-0.934-0.083-1.767 0.017-2.5 0.3-0.717 0.267-1.292 0.683-1.725 1.25-0.417 0.567-0.625 1.242-0.625 2.025h-1.1zm0.15 8.425c-0.3 0-0.534-0.083-0.7-0.25-0.167-0.167-0.25-0.4-0.25-0.7v-11.775c0-0.3 0.083-0.533 0.25-0.7 0.166-0.167 0.4-0.25 0.7-0.25s0.533 0.083 0.7 0.25c0.166 0.167 0.25 0.4 0.25 0.7v11.775c0 0.3-0.084 0.533-0.25 0.7-0.167 0.167-0.4 0.25-0.7 0.25zm11.875 0c-0.3 0-0.542-0.083-0.725-0.25-0.167-0.183-0.25-0.425-0.25-0.725v-11.725c0-0.3 0.083-0.533 0.25-0.7 0.183-0.183 0.425-0.275 0.725-0.275 0.283 0 0.508 0.092 0.675 0.275 0.183 0.167 0.275 0.4 0.275 0.7v11.725c0 0.3-0.092 0.542-0.275 0.725-0.167 0.167-0.392 0.25-0.675 0.25zm-0.025-16.275c-0.367 0-0.683-0.133-0.95-0.4s-0.4-0.592-0.4-0.975c0-0.417 0.133-0.742 0.4-0.975 0.283-0.25 0.608-0.375 0.975-0.375 0.35 0 0.658 0.125 0.925 0.375 0.283 0.233 0.425 0.558 0.425 0.975 0 0.383-0.133 0.708-0.4 0.975s-0.592 0.4-0.975 0.4zm17.601 16.275c-0.283 0-0.516-0.092-0.7-0.275-0.183-0.183-0.275-0.408-0.275-0.675v-6.5c0-1.033-0.2-1.883-0.6-2.55-0.383-0.667-0.916-1.167-1.6-1.5-0.666-0.333-1.425-0.5-2.275-0.5-0.816 0-1.558 0.158-2.225 0.475-0.65 0.317-1.166 0.75-1.55 1.3-0.383 0.55-0.575 1.175-0.575 1.875h-1.375c0.034-1.05 0.317-1.983 0.85-2.8 0.534-0.833 1.242-1.483 2.125-1.95 0.884-0.483 1.867-0.725 2.95-0.725 1.184 0 2.242 0.25 3.175 0.75 0.934 0.483 1.667 1.2 2.2 2.15 0.55 0.95 0.825 2.108 0.825 3.475v6.5c0 0.267-0.091 0.492-0.275 0.675-0.183 0.183-0.408 0.275-0.675 0.275zm-10.75 0c-0.3 0-0.541-0.083-0.725-0.25-0.166-0.183-0.25-0.417-0.25-0.7v-11.75c0-0.3 0.084-0.533 0.25-0.7 0.184-0.183 0.425-0.275 0.725-0.275 0.284 0 0.509 0.092 0.675 0.275 0.184 0.167 0.275 0.4 0.275 0.7v11.75c0 0.283-0.091 0.517-0.275 0.7-0.166 0.167-0.391 0.25-0.675 0.25zm21.969 0.125c-1.316 0-2.483-0.292-3.5-0.875-1.016-0.6-1.816-1.425-2.4-2.475-0.566-1.05-0.85-2.25-0.85-3.6 0-1.367 0.3-2.575 0.9-3.625s1.425-1.867 2.475-2.45c1.05-0.6 2.242-0.9 3.575-0.9 1.35 0 2.542 0.3 3.575 0.9 1.05 0.583 1.867 1.4 2.45 2.45 0.6 1.05 0.909 2.258 0.925 3.625l-1.125 0.6c0 1.233-0.258 2.333-0.775 3.3-0.516 0.95-1.233 1.7-2.15 2.25-0.9 0.533-1.933 0.8-3.1 0.8zm0.25 5.275c-1.316 0-2.475-0.25-3.475-0.75-1-0.483-1.825-1.15-2.475-2-0.183-0.2-0.266-0.417-0.25-0.65 0.034-0.233 0.159-0.425 0.375-0.575 0.217-0.15 0.459-0.2 0.725-0.15 0.267 0.05 0.475 0.175 0.625 0.375 0.484 0.6 1.1 1.083 1.85 1.45 0.767 0.367 1.65 0.55 2.65 0.55 0.934 0 1.775-0.225 2.525-0.675s1.342-1.083 1.775-1.9c0.45-0.817 0.675-1.775 0.675-2.875v-3.8l0.725-1.45 1.175 0.225v5.1c0 1.35-0.3 2.558-0.9 3.625-0.6 1.083-1.416 1.933-2.45 2.55-1.033 0.633-2.216 0.95-3.55 0.95zm-0.05-7.025c0.984 0 1.85-0.217 2.6-0.65 0.767-0.45 1.367-1.067 1.8-1.85 0.434-0.783 0.65-1.683 0.65-2.7s-0.216-1.917-0.65-2.7c-0.433-0.8-1.033-1.417-1.8-1.85-0.75-0.45-1.616-0.675-2.6-0.675-0.983 0-1.858 0.225-2.625 0.675-0.766 0.433-1.366 1.05-1.8 1.85-0.433 0.783-0.65 1.683-0.65 2.7s0.217 1.917 0.65 2.7c0.434 0.783 1.034 1.4 1.8 1.85 0.767 0.433 1.642 0.65 2.625 0.65zm24.244 1.75c-1.317 0-2.5-0.3-3.55-0.9-1.05-0.617-1.884-1.45-2.5-2.5-0.6-1.05-0.9-2.242-0.9-3.575 0-1.317 0.291-2.5 0.875-3.55 0.6-1.05 1.408-1.875 2.425-2.475 1.016-0.617 2.166-0.925 3.45-0.925 1.116 0 2.125 0.242 3.025 0.725 0.9 0.467 1.625 1.092 2.175 1.875v-7.35c0-0.3 0.091-0.533 0.275-0.7 0.183-0.183 0.416-0.275 0.7-0.275 0.283 0 0.516 0.092 0.7 0.275 0.183 0.167 0.275 0.4 0.275 0.7v11.8c-0.034 1.3-0.359 2.475-0.975 3.525-0.6 1.033-1.425 1.85-2.475 2.45-1.034 0.6-2.2 0.9-3.5 0.9zm0-1.75c0.966 0 1.825-0.225 2.575-0.675 0.766-0.467 1.366-1.092 1.8-1.875 0.45-0.783 0.675-1.675 0.675-2.675 0-0.983-0.225-1.867-0.675-2.65-0.434-0.8-1.034-1.425-1.8-1.875-0.75-0.45-1.609-0.675-2.575-0.675-0.95 0-1.809 0.225-2.575 0.675-0.767 0.45-1.375 1.075-1.825 1.875-0.45 0.783-0.675 1.667-0.675 2.65 0 1 0.225 1.892 0.675 2.675s1.058 1.408 1.825 1.875c0.766 0.45 1.625 0.675 2.575 0.675zm17.475 1.75c-1.283 0-2.433-0.3-3.45-0.9-1.016-0.617-1.825-1.45-2.425-2.5-0.583-1.05-0.875-2.233-0.875-3.55 0-1.333 0.3-2.525 0.9-3.575 0.617-1.05 1.45-1.875 2.5-2.475 1.05-0.617 2.234-0.925 3.55-0.925 1.317 0 2.492 0.308 3.525 0.925 1.05 0.6 1.875 1.425 2.475 2.475 0.617 1.05 0.934 2.242 0.95 3.575l-0.775 0.6c0 1.2-0.283 2.283-0.85 3.25-0.55 0.95-1.308 1.708-2.275 2.275-0.95 0.55-2.033 0.825-3.25 0.825zm0.2-1.75c0.967 0 1.825-0.225 2.575-0.675 0.767-0.45 1.367-1.067 1.8-1.85 0.45-0.8 0.675-1.692 0.675-2.675 0-1-0.225-1.892-0.675-2.675-0.433-0.783-1.033-1.4-1.8-1.85-0.75-0.467-1.608-0.7-2.575-0.7-0.95 0-1.808 0.233-2.575 0.7-0.766 0.45-1.375 1.067-1.825 1.85s-0.675 1.675-0.675 2.675c0 0.983 0.225 1.875 0.675 2.675 0.45 0.783 1.059 1.4 1.825 1.85 0.767 0.45 1.625 0.675 2.575 0.675zm5.975 1.625c-0.283 0-0.516-0.083-0.7-0.25-0.183-0.183-0.275-0.417-0.275-0.7v-4.275l0.475-1.975 1.475 0.375v5.875c0 0.283-0.091 0.517-0.275 0.7-0.183 0.167-0.416 0.25-0.7 0.25zm10.069 0c-0.883 0-1.675-0.208-2.375-0.625-0.683-0.417-1.225-0.983-1.625-1.7-0.4-0.733-0.6-1.567-0.6-2.5v-12.225c0-0.283 0.084-0.517 0.25-0.7 0.184-0.183 0.417-0.275 0.7-0.275 0.284 0 0.517 0.092 0.7 0.275 0.184 0.183 0.275 0.417 0.275 0.7v12.225c0 0.85 0.25 1.55 0.75 2.1 0.5 0.533 1.142 0.8 1.925 0.8h0.675c0.267 0 0.484 0.092 0.65 0.275 0.167 0.183 0.25 0.417 0.25 0.7s-0.1 0.517-0.3 0.7c-0.2 0.167-0.45 0.25-0.75 0.25h-0.525zm-6.225-11.5c-0.25 0-0.458-0.075-0.625-0.225-0.166-0.167-0.25-0.367-0.25-0.6 0-0.25 0.084-0.45 0.25-0.6 0.167-0.167 0.375-0.25 0.625-0.25h6.375c0.25 0 0.459 0.083 0.625 0.25 0.167 0.15 0.25 0.35 0.25 0.6 0 0.233-0.083 0.433-0.25 0.6-0.166 0.15-0.375 0.225-0.625 0.225h-6.375zm16.959 11.625c-1.283 0-2.433-0.3-3.45-0.9-1.017-0.617-1.825-1.45-2.425-2.5-0.583-1.05-0.875-2.233-0.875-3.55 0-1.333 0.3-2.525 0.9-3.575 0.617-1.05 1.45-1.875 2.5-2.475 1.05-0.617 2.233-0.925 3.55-0.925s2.492 0.308 3.525 0.925c1.05 0.6 1.875 1.425 2.475 2.475 0.617 1.05 0.933 2.242 0.95 3.575l-0.775 0.6c0 1.2-0.283 2.283-0.85 3.25-0.55 0.95-1.308 1.708-2.275 2.275-0.95 0.55-2.033 0.825-3.25 0.825zm0.2-1.75c0.967 0 1.825-0.225 2.575-0.675 0.767-0.45 1.367-1.067 1.8-1.85 0.45-0.8 0.675-1.692 0.675-2.675 0-1-0.225-1.892-0.675-2.675-0.433-0.783-1.033-1.4-1.8-1.85-0.75-0.467-1.608-0.7-2.575-0.7-0.95 0-1.808 0.233-2.575 0.7-0.767 0.45-1.375 1.067-1.825 1.85s-0.675 1.675-0.675 2.675c0 0.983 0.225 1.875 0.675 2.675 0.45 0.783 1.058 1.4 1.825 1.85s1.625 0.675 2.575 0.675zm5.975 1.625c-0.283 0-0.517-0.083-0.7-0.25-0.183-0.183-0.275-0.417-0.275-0.7v-4.275l0.475-1.975 1.475 0.375v5.875c0 0.283-0.092 0.517-0.275 0.7-0.183 0.167-0.417 0.25-0.7 0.25zm4.494 4.05c-0.167 0-0.3-0.05-0.4-0.15-0.083-0.083-0.125-0.2-0.125-0.35 0-0.25 0.075-0.483 0.225-0.7 0.15-0.2 0.3-0.417 0.45-0.65 0.167-0.233 0.25-0.517 0.25-0.85 0-0.3-0.058-0.55-0.175-0.75s-0.258-0.383-0.425-0.55c-0.15-0.15-0.283-0.317-0.4-0.5-0.117-0.2-0.175-0.442-0.175-0.725 0-0.417 0.133-0.75 0.4-1 0.283-0.25 0.633-0.375 1.05-0.375 0.5 0 0.908 0.2 1.225 0.6 0.317 0.383 0.475 0.925 0.475 1.625 0 0.467-0.067 0.958-0.2 1.475s-0.317 0.992-0.55 1.425c-0.233 0.45-0.492 0.808-0.775 1.075s-0.567 0.4-0.85 0.4zm0.275-14.65c-0.4 0-0.75-0.133-1.05-0.4-0.283-0.283-0.425-0.633-0.425-1.05s0.142-0.767 0.425-1.05 0.633-0.425 1.05-0.425c0.4 0 0.733 0.15 1 0.45 0.283 0.283 0.425 0.625 0.425 1.025s-0.142 0.742-0.425 1.025c-0.267 0.283-0.6 0.425-1 0.425z" fill="#fff"/>
<path d="m197.07 41.68c-0.16 0-0.3-0.04-0.42-0.12s-0.227-0.2133-0.32-0.4c-0.787-1.6133-1.374-3.22-1.76-4.82-0.387-1.6133-0.58-3.2267-0.58-4.84s0.193-3.22 0.58-4.82c0.386-1.6 0.973-3.2 1.76-4.8 0.16-0.3467 0.406-0.52 0.74-0.52 0.213 0 0.393 0.0733 0.54 0.22 0.146 0.1467 0.22 0.3267 0.22 0.54 0 0.16-0.04 0.3067-0.12 0.44-1.467 2.9733-2.2 5.96-2.2 8.96 0 1.4933 0.186 2.9933 0.56 4.5 0.373 1.5067 0.926 3 1.66 4.48 0.08 0.16 0.12 0.3 0.12 0.42 0 0.2133-0.074 0.3933-0.22 0.54-0.147 0.1467-0.334 0.22-0.56 0.22zm9.937-4.68c-0.2 0-0.373-0.0733-0.52-0.22s-0.22-0.3333-0.22-0.56v-2.96h-7.16c-0.213 0-0.393-0.0667-0.54-0.2-0.133-0.1467-0.213-0.3133-0.24-0.5-0.013-0.1867 0.04-0.36 0.16-0.52l7.92-10.36c0.067-0.0933 0.147-0.1667 0.24-0.22 0.107-0.0667 0.24-0.1 0.4-0.1 0.213 0 0.387 0.08 0.52 0.24 0.147 0.1467 0.22 0.3333 0.22 0.56v9.7h1.58c0.213 0 0.393 0.0533 0.54 0.16s0.22 0.2933 0.22 0.56c0 0.1733-0.073 0.3333-0.22 0.48-0.147 0.1333-0.327 0.2-0.54 0.2h-1.58v2.96c0 0.2267-0.073 0.4133-0.22 0.56s-0.333 0.22-0.56 0.22zm-7.06-4.54-0.28-0.6h6.6v-8.58l0.4 0.42-6.72 8.76zm16.749 4.54c-0.986 0-1.833-0.3133-2.54-0.94-0.706-0.6267-1.246-1.52-1.62-2.68-0.36-1.1733-0.54-2.58-0.54-4.22 0-1.6133 0.18-3.0067 0.54-4.18 0.374-1.1733 0.914-2.0733 1.62-2.7 0.707-0.6267 1.554-0.94 2.54-0.94 1.014 0 1.867 0.32 2.56 0.96 0.707 0.6267 1.24 1.5267 1.6 2.7 0.374 1.1733 0.56 2.56 0.56 4.16 0 1.6267-0.186 3.0267-0.56 4.2-0.36 1.16-0.893 2.06-1.6 2.7-0.693 0.6267-1.546 0.94-2.56 0.94zm0-1.56c0.72 0 1.314-0.2667 1.78-0.8 0.467-0.5467 0.814-1.2933 1.04-2.24 0.227-0.9467 0.34-2.0267 0.34-3.24 0-1.2-0.12-2.2667-0.36-3.2-0.226-0.9467-0.573-1.6933-1.04-2.24-0.466-0.5467-1.053-0.82-1.76-0.82-0.706 0-1.293 0.2733-1.76 0.82-0.453 0.5333-0.8 1.2733-1.04 2.22-0.226 0.9467-0.34 2.02-0.34 3.22 0 1.2267 0.114 2.3133 0.34 3.26 0.24 0.9333 0.587 1.6733 1.04 2.22 0.467 0.5333 1.054 0.8 1.76 0.8zm18.925 1.66c-1.04 0-1.98-0.24-2.82-0.72-0.826-0.48-1.486-1.1333-1.98-1.96-0.48-0.84-0.726-1.78-0.74-2.82v-9.44c0-0.24 0.067-0.4267 0.2-0.56 0.147-0.1467 0.34-0.22 0.58-0.22 0.227 0 0.407 0.0733 0.54 0.22 0.147 0.1333 0.22 0.32 0.22 0.56v5.88c0.44-0.6267 1.02-1.1267 1.74-1.5 0.734-0.3867 1.547-0.58 2.44-0.58 1.027 0 1.947 0.2467 2.76 0.74 0.814 0.48 1.454 1.14 1.92 1.98 0.48 0.84 0.72 1.7867 0.72 2.84 0 1.0667-0.246 2.02-0.74 2.86-0.48 0.84-1.14 1.5067-1.98 2-0.84 0.48-1.793 0.72-2.86 0.72zm0-1.4c0.774 0 1.467-0.18 2.08-0.54 0.614-0.3733 1.094-0.8733 1.44-1.5 0.36-0.6267 0.54-1.34 0.54-2.14 0-0.7867-0.18-1.4933-0.54-2.12-0.346-0.64-0.826-1.14-1.44-1.5-0.613-0.36-1.306-0.54-2.08-0.54-0.76 0-1.446 0.18-2.06 0.54-0.613 0.36-1.093 0.86-1.44 1.5-0.346 0.6267-0.52 1.3333-0.52 2.12 0 0.8 0.174 1.5133 0.52 2.14 0.347 0.6267 0.827 1.1267 1.44 1.5 0.614 0.36 1.3 0.54 2.06 0.54zm9.876 6.06c-0.107 0-0.227-0.0267-0.36-0.08-0.454-0.2-0.581-0.52-0.381-0.96l6.461-14.24c0.2-0.4267 0.52-0.5467 0.96-0.36 0.453 0.1867 0.58 0.5 0.38 0.94l-6.48 14.24c-0.134 0.3067-0.327 0.46-0.58 0.46zm2.22-5.1c-0.2 0.0933-0.387 0.1133-0.56 0.06-0.174-0.0667-0.314-0.2-0.42-0.4l-4.46-9.24c-0.094-0.2-0.107-0.3867-0.04-0.56 0.066-0.1733 0.2-0.3067 0.4-0.4s0.386-0.1067 0.56-0.04c0.173 0.0533 0.306 0.18 0.4 0.38l4.38 9.24c0.106 0.2 0.14 0.3867 0.1 0.56s-0.16 0.3067-0.36 0.4zm11.137 0.34c-0.707 0-1.34-0.1667-1.9-0.5-0.547-0.3333-0.98-0.7867-1.3-1.36-0.32-0.5867-0.48-1.2533-0.48-2v-9.78c0-0.2267 0.066-0.4133 0.2-0.56 0.146-0.1467 0.333-0.22 0.56-0.22 0.226 0 0.413 0.0733 0.56 0.22 0.146 0.1467 0.22 0.3333 0.22 0.56v9.78c0 0.68 0.2 1.24 0.6 1.68 0.4 0.4267 0.913 0.64 1.54 0.64h0.54c0.213 0 0.386 0.0733 0.52 0.22 0.133 0.1467 0.2 0.3333 0.2 0.56s-0.08 0.4133-0.24 0.56c-0.16 0.1333-0.36 0.2-0.6 0.2h-0.42zm-4.98-9.2c-0.2 0-0.367-0.06-0.5-0.18-0.134-0.1333-0.2-0.2933-0.2-0.48 0-0.2 0.066-0.36 0.2-0.48 0.133-0.1333 0.3-0.2 0.5-0.2h5.1c0.2 0 0.366 0.0667 0.5 0.2 0.133 0.12 0.2 0.28 0.2 0.48 0 0.1867-0.067 0.3467-0.2 0.48-0.134 0.12-0.3 0.18-0.5 0.18h-5.1zm13.706 9.3c-1.08 0-2.04-0.2333-2.88-0.7-0.826-0.48-1.48-1.14-1.96-1.98-0.466-0.84-0.7-1.8-0.7-2.88 0-1.0933 0.22-2.0533 0.66-2.88 0.454-0.84 1.074-1.5 1.86-1.98 0.787-0.48 1.694-0.72 2.72-0.72 1.014 0 1.894 0.2333 2.64 0.7 0.76 0.4533 1.347 1.0867 1.76 1.9 0.414 0.8133 0.62 1.74 0.62 2.78 0 0.2133-0.066 0.3867-0.2 0.52-0.133 0.12-0.306 0.18-0.52 0.18h-8.5v-1.28h8.66l-0.86 0.62c0.014-0.7733-0.126-1.4667-0.42-2.08-0.293-0.6133-0.713-1.0933-1.26-1.44-0.533-0.3467-1.173-0.52-1.92-0.52-0.76 0-1.426 0.18-2 0.54-0.573 0.36-1.02 0.86-1.34 1.5-0.306 0.6267-0.46 1.3467-0.46 2.16s0.174 1.5333 0.52 2.16c0.36 0.6267 0.847 1.12 1.46 1.48 0.614 0.36 1.32 0.54 2.12 0.54 0.48 0 0.96-0.08 1.44-0.24 0.494-0.1733 0.887-0.3867 1.18-0.64 0.147-0.12 0.314-0.18 0.5-0.18 0.187-0.0133 0.347 0.0333 0.48 0.14 0.174 0.16 0.26 0.3333 0.26 0.52 0.014 0.1867-0.06 0.3467-0.22 0.48-0.44 0.3733-1 0.6867-1.68 0.94-0.68 0.24-1.333 0.36-1.96 0.36zm11.146 0c-0.787 0-1.567-0.1333-2.34-0.4-0.774-0.2667-1.4-0.6667-1.88-1.2-0.147-0.16-0.207-0.34-0.18-0.54 0.026-0.2 0.126-0.3733 0.3-0.52 0.186-0.1333 0.38-0.1867 0.58-0.16s0.366 0.1133 0.5 0.26c0.32 0.3733 0.74 0.66 1.26 0.86 0.533 0.2 1.12 0.3 1.76 0.3 0.986 0 1.7-0.1667 2.14-0.5 0.44-0.3467 0.666-0.76 0.68-1.24 0-0.48-0.227-0.8733-0.68-1.18-0.454-0.32-1.2-0.5667-2.24-0.74-1.347-0.2133-2.334-0.5867-2.96-1.12-0.627-0.5333-0.94-1.1667-0.94-1.9 0-0.68 0.18-1.2467 0.54-1.7s0.84-0.7933 1.44-1.02 1.26-0.34 1.98-0.34c0.893 0 1.66 0.1533 2.3 0.46 0.653 0.3067 1.18 0.72 1.58 1.24 0.133 0.1733 0.186 0.3533 0.16 0.54-0.027 0.1867-0.134 0.34-0.32 0.46-0.16 0.0933-0.347 0.1267-0.56 0.1-0.2-0.04-0.374-0.14-0.52-0.3-0.334-0.3867-0.72-0.6667-1.16-0.84-0.44-0.1867-0.947-0.28-1.52-0.28-0.734 0-1.32 0.1533-1.76 0.46-0.44 0.2933-0.66 0.6667-0.66 1.12 0 0.3067 0.08 0.5733 0.24 0.8 0.173 0.2267 0.46 0.4267 0.86 0.6 0.413 0.1733 0.986 0.32 1.72 0.44 1 0.16 1.786 0.4 2.36 0.72 0.586 0.3067 1 0.6733 1.24 1.1 0.253 0.4133 0.38 0.8667 0.38 1.36 0 0.6267-0.187 1.18-0.56 1.66-0.36 0.4667-0.867 0.8333-1.52 1.1-0.64 0.2667-1.38 0.4-2.22 0.4zm6.141 4.58c-0.214 0-0.394-0.0733-0.54-0.22-0.147-0.1467-0.22-0.3267-0.22-0.54 0-0.12 0.033-0.26 0.1-0.42 0.733-1.48 1.286-2.9733 1.66-4.48 0.386-1.5067 0.58-3.0067 0.58-4.5 0-3-0.74-5.9867-2.22-8.96-0.067-0.1333-0.107-0.28-0.12-0.44 0-0.2133 0.073-0.3933 0.22-0.54 0.16-0.1467 0.34-0.22 0.54-0.22 0.346 0 0.6 0.1733 0.76 0.52 0.786 1.6 1.373 3.2 1.76 4.8 0.386 1.6 0.58 3.2067 0.58 4.82s-0.2 3.2267-0.6 4.84c-0.387 1.6-0.967 3.2067-1.74 4.82-0.107 0.1867-0.22 0.32-0.34 0.4-0.107 0.08-0.247 0.12-0.42 0.12z" fill="#fff"/>
</svg>
