<svg width="346" height="542" viewBox="0 0 346 542" fill="none" xmlns="http://www.w3.org/2000/svg">
<rect width="346" height="542" rx="5" fill="#363636"/>
<path d="M10.1583 44.85C9.87499 44.85 9.64166 44.7583 9.45833 44.575C9.27499 44.4083 9.18333 44.175 9.18333 43.875C9.18333 43.5917 9.27499 43.3583 9.45833 43.175C9.64166 42.9917 9.87499 42.9 10.1583 42.9C10.925 42.9 11.6 42.7333 12.1833 42.4C12.7667 42.0667 13.225 41.6083 13.5583 41.025C13.9083 40.4417 14.0833 39.7667 14.0833 39V26.3C14.0833 26 14.1667 25.7667 14.3333 25.6C14.5167 25.4167 14.75 25.325 15.0333 25.325C15.3167 25.325 15.55 25.4167 15.7333 25.6C15.9167 25.7667 16.0083 26 16.0083 26.3V39C16.0083 40.1333 15.7583 41.1417 15.2583 42.025C14.7583 42.9083 14.0667 43.6 13.1833 44.1C12.3 44.6 11.2917 44.85 10.1583 44.85ZM15.0083 22.725C14.6417 22.725 14.325 22.5917 14.0583 22.325C13.7917 22.0583 13.6583 21.7333 13.6583 21.35C13.6583 20.9333 13.7917 20.6083 14.0583 20.375C14.3417 20.125 14.6667 20 15.0333 20C15.3833 20 15.6917 20.125 15.9583 20.375C16.2417 20.6083 16.3833 20.9333 16.3833 21.35C16.3833 21.7333 16.25 22.0583 15.9833 22.325C15.7167 22.5917 15.3917 22.725 15.0083 22.725ZM25.9363 39.125C24.6529 39.125 23.5029 38.825 22.4863 38.225C21.4696 37.6083 20.6613 36.775 20.0613 35.725C19.4779 34.675 19.1863 33.4917 19.1863 32.175C19.1863 30.8417 19.4863 29.65 20.0863 28.6C20.7029 27.55 21.5363 26.725 22.5863 26.125C23.6363 25.5083 24.8196 25.2 26.1363 25.2C27.4529 25.2 28.6279 25.5083 29.6613 26.125C30.7113 26.725 31.5363 27.55 32.1363 28.6C32.7529 29.65 33.0696 30.8417 33.0863 32.175L32.3113 32.775C32.3113 33.975 32.0279 35.0583 31.4613 36.025C30.9113 36.975 30.1529 37.7333 29.1863 38.3C28.2363 38.85 27.1529 39.125 25.9363 39.125ZM26.1363 37.375C27.1029 37.375 27.9613 37.15 28.7113 36.7C29.4779 36.25 30.0779 35.6333 30.5113 34.85C30.9613 34.05 31.1863 33.1583 31.1863 32.175C31.1863 31.175 30.9613 30.2833 30.5113 29.5C30.0779 28.7167 29.4779 28.1 28.7113 27.65C27.9613 27.1833 27.1029 26.95 26.1363 26.95C25.1863 26.95 24.3279 27.1833 23.5613 27.65C22.7946 28.1 22.1863 28.7167 21.7363 29.5C21.2863 30.2833 21.0613 31.175 21.0613 32.175C21.0613 33.1583 21.2863 34.05 21.7363 34.85C22.1863 35.6333 22.7946 36.25 23.5613 36.7C24.3279 37.15 25.1863 37.375 26.1363 37.375ZM32.1113 39C31.8279 39 31.5946 38.9167 31.4113 38.75C31.2279 38.5667 31.1363 38.3333 31.1363 38.05V33.775L31.6113 31.8L33.0863 32.175V38.05C33.0863 38.3333 32.9946 38.5667 32.8113 38.75C32.6279 38.9167 32.3946 39 32.1113 39ZM48.5552 39C48.2719 39 48.0385 38.9083 47.8552 38.725C47.6719 38.5417 47.5802 38.3167 47.5802 38.05V31.55C47.5802 30.5167 47.3802 29.6667 46.9802 29C46.5969 28.3333 46.0635 27.8333 45.3802 27.5C44.7135 27.1667 43.9552 27 43.1052 27C42.2885 27 41.5469 27.1583 40.8802 27.475C40.2302 27.7917 39.7135 28.225 39.3302 28.775C38.9469 29.325 38.7552 29.95 38.7552 30.65H37.3802C37.4135 29.6 37.6969 28.6667 38.2302 27.85C38.7635 27.0167 39.4719 26.3667 40.3552 25.9C41.2385 25.4167 42.2219 25.175 43.3052 25.175C44.4885 25.175 45.5469 25.425 46.4802 25.925C47.4135 26.4083 48.1469 27.125 48.6802 28.075C49.2302 29.025 49.5052 30.1833 49.5052 31.55V38.05C49.5052 38.3167 49.4135 38.5417 49.2302 38.725C49.0469 38.9083 48.8219 39 48.5552 39ZM37.8052 39C37.5052 39 37.2635 38.9167 37.0802 38.75C36.9135 38.5667 36.8302 38.3333 36.8302 38.05V26.3C36.8302 26 36.9135 25.7667 37.0802 25.6C37.2635 25.4167 37.5052 25.325 37.8052 25.325C38.0885 25.325 38.3135 25.4167 38.4802 25.6C38.6635 25.7667 38.7552 26 38.7552 26.3V38.05C38.7552 38.3333 38.6635 38.5667 38.4802 38.75C38.3135 38.9167 38.0885 39 37.8052 39ZM55.3241 34.425L54.1491 33.15L62.6991 25.425C62.8991 25.2417 63.1075 25.1583 63.3241 25.175C63.5408 25.175 63.7408 25.275 63.9241 25.475C64.1075 25.675 64.1908 25.8917 64.1741 26.125C64.1741 26.3417 64.0741 26.5333 63.8741 26.7L55.3241 34.425ZM54.6991 39C54.4158 39 54.1825 38.9167 53.9991 38.75C53.8325 38.5667 53.7491 38.3333 53.7491 38.05V20.425C53.7491 20.1417 53.8325 19.9167 53.9991 19.75C54.1825 19.5667 54.4158 19.475 54.6991 19.475C54.9825 19.475 55.2075 19.5667 55.3741 19.75C55.5575 19.9167 55.6491 20.1417 55.6491 20.425V38.05C55.6491 38.3333 55.5575 38.5667 55.3741 38.75C55.2075 38.9167 54.9825 39 54.6991 39ZM63.9491 38.875C63.7325 39.0583 63.5075 39.1333 63.2741 39.1C63.0408 39.0833 62.8408 38.9667 62.6741 38.75L57.0991 31.9L58.4491 30.7L64.0741 37.625C64.2408 37.825 64.3158 38.0417 64.2991 38.275C64.2825 38.4917 64.1658 38.6917 63.9491 38.875ZM65.8308 40.95C65.5475 40.95 65.3141 40.85 65.1308 40.65C64.9475 40.4667 64.8558 40.2417 64.8558 39.975C64.8558 39.7083 64.9475 39.475 65.1308 39.275C65.3141 39.0917 65.5475 39 65.8308 39H77.8058C78.0725 39 78.2975 39.0917 78.4808 39.275C78.6641 39.475 78.7558 39.7083 78.7558 39.975C78.7558 40.2417 78.6641 40.4667 78.4808 40.65C78.2975 40.85 78.0725 40.95 77.8058 40.95H65.8308ZM84.5495 39.125C83.5662 39.125 82.5912 38.9583 81.6245 38.625C80.6579 38.2917 79.8745 37.7917 79.2745 37.125C79.0912 36.925 79.0162 36.7 79.0495 36.45C79.0829 36.2 79.2079 35.9833 79.4245 35.8C79.6579 35.6333 79.8995 35.5667 80.1495 35.6C80.3995 35.6333 80.6079 35.7417 80.7745 35.925C81.1745 36.3917 81.6995 36.75 82.3495 37C83.0162 37.25 83.7495 37.375 84.5495 37.375C85.7829 37.375 86.6745 37.1667 87.2245 36.75C87.7745 36.3167 88.0579 35.8 88.0745 35.2C88.0745 34.6 87.7912 34.1083 87.2245 33.725C86.6579 33.325 85.7245 33.0167 84.4245 32.8C82.7412 32.5333 81.5079 32.0667 80.7245 31.4C79.9412 30.7333 79.5495 29.9417 79.5495 29.025C79.5495 28.175 79.7745 27.4667 80.2245 26.9C80.6745 26.3333 81.2745 25.9083 82.0245 25.625C82.7745 25.3417 83.5995 25.2 84.4995 25.2C85.6162 25.2 86.5745 25.3917 87.3745 25.775C88.1912 26.1583 88.8495 26.675 89.3495 27.325C89.5162 27.5417 89.5829 27.7667 89.5495 28C89.5162 28.2333 89.3829 28.425 89.1495 28.575C88.9495 28.6917 88.7162 28.7333 88.4495 28.7C88.1995 28.65 87.9829 28.525 87.7995 28.325C87.3829 27.8417 86.8995 27.4917 86.3495 27.275C85.7995 27.0417 85.1662 26.925 84.4495 26.925C83.5329 26.925 82.7995 27.1167 82.2495 27.5C81.6995 27.8667 81.4245 28.3333 81.4245 28.9C81.4245 29.2833 81.5245 29.6167 81.7245 29.9C81.9412 30.1833 82.2995 30.4333 82.7995 30.65C83.3162 30.8667 84.0329 31.05 84.9495 31.2C86.1995 31.4 87.1829 31.7 87.8995 32.1C88.6329 32.4833 89.1495 32.9417 89.4495 33.475C89.7662 33.9917 89.9245 34.5583 89.9245 35.175C89.9245 35.9583 89.6912 36.65 89.2245 37.25C88.7745 37.8333 88.1412 38.2917 87.3245 38.625C86.5245 38.9583 85.5995 39.125 84.5495 39.125ZM98.6011 39C97.7178 39 96.9261 38.7917 96.2261 38.375C95.5428 37.9583 95.0011 37.3917 94.6011 36.675C94.2011 35.9417 94.0011 35.1083 94.0011 34.175V21.95C94.0011 21.6667 94.0844 21.4333 94.2511 21.25C94.4344 21.0667 94.6678 20.975 94.9511 20.975C95.2344 20.975 95.4678 21.0667 95.6511 21.25C95.8344 21.4333 95.9261 21.6667 95.9261 21.95V34.175C95.9261 35.025 96.1761 35.725 96.6761 36.275C97.1761 36.8083 97.8178 37.075 98.6011 37.075H99.2761C99.5428 37.075 99.7594 37.1667 99.9261 37.35C100.093 37.5333 100.176 37.7667 100.176 38.05C100.176 38.3333 100.076 38.5667 99.8761 38.75C99.6761 38.9167 99.4261 39 99.1261 39H98.6011ZM92.3761 27.5C92.1261 27.5 91.9178 27.425 91.7511 27.275C91.5844 27.1083 91.5011 26.9083 91.5011 26.675C91.5011 26.425 91.5844 26.225 91.7511 26.075C91.9178 25.9083 92.1261 25.825 92.3761 25.825H98.7511C99.0011 25.825 99.2094 25.9083 99.3761 26.075C99.5428 26.225 99.6261 26.425 99.6261 26.675C99.6261 26.9083 99.5428 27.1083 99.3761 27.275C99.2094 27.425 99.0011 27.5 98.7511 27.5H92.3761ZM104.11 30.575C104.16 29.5417 104.426 28.6167 104.91 27.8C105.41 26.9833 106.051 26.3417 106.835 25.875C107.635 25.4083 108.518 25.175 109.485 25.175C110.251 25.175 110.843 25.2833 111.26 25.5C111.676 25.7167 111.835 26.0333 111.735 26.45C111.668 26.7 111.551 26.8667 111.385 26.95C111.235 27.0333 111.043 27.0667 110.81 27.05C110.593 27.0333 110.343 27.0167 110.06 27C109.126 26.9167 108.293 27.0167 107.56 27.3C106.843 27.5667 106.268 27.9833 105.835 28.55C105.418 29.1167 105.21 29.7917 105.21 30.575H104.11ZM104.26 39C103.96 39 103.726 38.9167 103.56 38.75C103.393 38.5833 103.31 38.35 103.31 38.05V26.275C103.31 25.975 103.393 25.7417 103.56 25.575C103.726 25.4083 103.96 25.325 104.26 25.325C104.56 25.325 104.793 25.4083 104.96 25.575C105.126 25.7417 105.21 25.975 105.21 26.275V38.05C105.21 38.35 105.126 38.5833 104.96 38.75C104.793 38.9167 104.56 39 104.26 39ZM116.135 39C115.835 39 115.593 38.9167 115.41 38.75C115.243 38.5667 115.16 38.325 115.16 38.025V26.3C115.16 26 115.243 25.7667 115.41 25.6C115.593 25.4167 115.835 25.325 116.135 25.325C116.418 25.325 116.643 25.4167 116.81 25.6C116.993 25.7667 117.085 26 117.085 26.3V38.025C117.085 38.325 116.993 38.5667 116.81 38.75C116.643 38.9167 116.418 39 116.135 39ZM116.11 22.725C115.743 22.725 115.427 22.5917 115.16 22.325C114.893 22.0583 114.76 21.7333 114.76 21.35C114.76 20.9333 114.893 20.6083 115.16 20.375C115.443 20.125 115.768 20 116.135 20C116.485 20 116.793 20.125 117.06 20.375C117.343 20.6083 117.485 20.9333 117.485 21.35C117.485 21.7333 117.352 22.0583 117.085 22.325C116.818 22.5917 116.493 22.725 116.11 22.725ZM133.711 39C133.428 39 133.195 38.9083 133.011 38.725C132.828 38.5417 132.736 38.3167 132.736 38.05V31.55C132.736 30.5167 132.536 29.6667 132.136 29C131.753 28.3333 131.22 27.8333 130.536 27.5C129.87 27.1667 129.111 27 128.261 27C127.445 27 126.703 27.1583 126.036 27.475C125.386 27.7917 124.87 28.225 124.486 28.775C124.103 29.325 123.911 29.95 123.911 30.65H122.536C122.57 29.6 122.853 28.6667 123.386 27.85C123.92 27.0167 124.628 26.3667 125.511 25.9C126.395 25.4167 127.378 25.175 128.461 25.175C129.645 25.175 130.703 25.425 131.636 25.925C132.57 26.4083 133.303 27.125 133.836 28.075C134.386 29.025 134.661 30.1833 134.661 31.55V38.05C134.661 38.3167 134.57 38.5417 134.386 38.725C134.203 38.9083 133.978 39 133.711 39ZM122.961 39C122.661 39 122.42 38.9167 122.236 38.75C122.07 38.5667 121.986 38.3333 121.986 38.05V26.3C121.986 26 122.07 25.7667 122.236 25.6C122.42 25.4167 122.661 25.325 122.961 25.325C123.245 25.325 123.47 25.4167 123.636 25.6C123.82 25.7667 123.911 26 123.911 26.3V38.05C123.911 38.3333 123.82 38.5667 123.636 38.75C123.47 38.9167 123.245 39 122.961 39ZM144.93 39.125C143.614 39.125 142.447 38.8333 141.43 38.25C140.414 37.65 139.614 36.825 139.03 35.775C138.464 34.725 138.18 33.525 138.18 32.175C138.18 30.8083 138.48 29.6 139.08 28.55C139.68 27.5 140.505 26.6833 141.555 26.1C142.605 25.5 143.797 25.2 145.13 25.2C146.48 25.2 147.672 25.5 148.705 26.1C149.755 26.6833 150.572 27.5 151.155 28.55C151.755 29.6 152.064 30.8083 152.08 32.175L150.955 32.775C150.955 34.0083 150.697 35.1083 150.18 36.075C149.664 37.025 148.947 37.775 148.03 38.325C147.13 38.8583 146.097 39.125 144.93 39.125ZM145.18 44.4C143.864 44.4 142.705 44.15 141.705 43.65C140.705 43.1667 139.88 42.5 139.23 41.65C139.047 41.45 138.964 41.2333 138.98 41C139.014 40.7667 139.139 40.575 139.355 40.425C139.572 40.275 139.814 40.225 140.08 40.275C140.347 40.325 140.555 40.45 140.705 40.65C141.189 41.25 141.805 41.7333 142.555 42.1C143.322 42.4667 144.205 42.65 145.205 42.65C146.139 42.65 146.98 42.425 147.73 41.975C148.48 41.525 149.072 40.8917 149.505 40.075C149.955 39.2583 150.18 38.3 150.18 37.2V33.4L150.905 31.95L152.08 32.175V37.275C152.08 38.625 151.78 39.8333 151.18 40.9C150.58 41.9833 149.764 42.8333 148.73 43.45C147.697 44.0833 146.514 44.4 145.18 44.4ZM145.13 37.375C146.114 37.375 146.98 37.1583 147.73 36.725C148.497 36.275 149.097 35.6583 149.53 34.875C149.964 34.0917 150.18 33.1917 150.18 32.175C150.18 31.1583 149.964 30.2583 149.53 29.475C149.097 28.675 148.497 28.0583 147.73 27.625C146.98 27.175 146.114 26.95 145.13 26.95C144.147 26.95 143.272 27.175 142.505 27.625C141.739 28.0583 141.139 28.675 140.705 29.475C140.272 30.2583 140.055 31.1583 140.055 32.175C140.055 33.1917 140.272 34.0917 140.705 34.875C141.139 35.6583 141.739 36.275 142.505 36.725C143.272 37.1583 144.147 37.375 145.13 37.375Z" fill="white"/>
<mask id="path-3-inside-1_1_22" fill="white">
<path d="M0 62H346V142H0V62Z"/>
</mask>
<path d="M0 62H346V142H0V62Z" fill="#FF3860"/>
<path d="M346 141H0V143H346V141Z" fill="#363636" mask="url(#path-3-inside-1_1_22)"/>
<path d="M40.3717 110C39.9717 110 39.6717 109.783 39.4717 109.35L33.9217 97.575C33.8217 97.3583 33.8133 97.1417 33.8967 96.925C33.98 96.7083 34.1467 96.5417 34.3967 96.425C34.63 96.3083 34.855 96.2917 35.0717 96.375C35.2883 96.4583 35.455 96.6083 35.5717 96.825L40.8967 108.35H39.8717L45.1217 96.825C45.2217 96.5917 45.3883 96.4417 45.6217 96.375C45.8717 96.2917 46.1133 96.3 46.3467 96.4C46.58 96.5167 46.7383 96.6917 46.8217 96.925C46.905 97.1417 46.8967 97.35 46.7967 97.55L41.3217 109.35C41.1217 109.783 40.805 110 40.3717 110ZM50.49 115.85C50.19 115.85 49.9484 115.758 49.765 115.575C49.5984 115.408 49.515 115.175 49.515 114.875V103.075C49.5317 101.775 49.84 100.608 50.44 99.575C51.0567 98.525 51.8817 97.7 52.915 97.1C53.965 96.5 55.14 96.2 56.44 96.2C57.7734 96.2 58.965 96.5083 60.015 97.125C61.065 97.725 61.89 98.55 62.49 99.6C63.1067 100.65 63.415 101.842 63.415 103.175C63.415 104.492 63.115 105.675 62.515 106.725C61.9317 107.775 61.1317 108.608 60.115 109.225C59.0984 109.825 57.9484 110.125 56.665 110.125C55.5484 110.125 54.5317 109.892 53.615 109.425C52.715 108.942 51.99 108.308 51.44 107.525V114.875C51.44 115.175 51.3484 115.408 51.165 115.575C50.9984 115.758 50.7734 115.85 50.49 115.85ZM56.44 108.375C57.4067 108.375 58.2734 108.15 59.04 107.7C59.8067 107.25 60.4067 106.633 60.84 105.85C61.29 105.05 61.515 104.158 61.515 103.175C61.515 102.175 61.29 101.283 60.84 100.5C60.4067 99.7167 59.8067 99.1 59.04 98.65C58.2734 98.1833 57.4067 97.95 56.44 97.95C55.49 97.95 54.6317 98.1833 53.865 98.65C53.0984 99.1 52.4984 99.7167 52.065 100.5C51.6317 101.283 51.415 102.175 51.415 103.175C51.415 104.158 51.6317 105.05 52.065 105.85C52.4984 106.633 53.0984 107.25 53.865 107.7C54.6317 108.15 55.49 108.375 56.44 108.375ZM72.5408 110C71.6575 110 70.8658 109.792 70.1658 109.375C69.4825 108.958 68.9408 108.392 68.5408 107.675C68.1408 106.942 67.9408 106.108 67.9408 105.175V92.95C67.9408 92.6667 68.0241 92.4333 68.1908 92.25C68.3741 92.0667 68.6075 91.975 68.8908 91.975C69.1741 91.975 69.4075 92.0667 69.5908 92.25C69.7741 92.4333 69.8658 92.6667 69.8658 92.95V105.175C69.8658 106.025 70.1158 106.725 70.6158 107.275C71.1158 107.808 71.7575 108.075 72.5408 108.075H73.2158C73.4825 108.075 73.6991 108.167 73.8658 108.35C74.0325 108.533 74.1158 108.767 74.1158 109.05C74.1158 109.333 74.0158 109.567 73.8158 109.75C73.6158 109.917 73.3658 110 73.0658 110H72.5408ZM66.3158 98.5C66.0658 98.5 65.8575 98.425 65.6908 98.275C65.5241 98.1083 65.4408 97.9083 65.4408 97.675C65.4408 97.425 65.5241 97.225 65.6908 97.075C65.8575 96.9083 66.0658 96.825 66.3158 96.825H72.6908C72.9408 96.825 73.1491 96.9083 73.3158 97.075C73.4825 97.225 73.5658 97.425 73.5658 97.675C73.5658 97.9083 73.4825 98.1083 73.3158 98.275C73.1491 98.425 72.9408 98.5 72.6908 98.5H66.3158ZM78.0494 101.575C78.0994 100.542 78.3661 99.6167 78.8494 98.8C79.3494 97.9833 79.9911 97.3417 80.7744 96.875C81.5744 96.4083 82.4577 96.175 83.4244 96.175C84.1911 96.175 84.7827 96.2833 85.1994 96.5C85.6161 96.7167 85.7744 97.0333 85.6744 97.45C85.6077 97.7 85.4911 97.8667 85.3244 97.95C85.1744 98.0333 84.9827 98.0667 84.7494 98.05C84.5327 98.0333 84.2827 98.0167 83.9994 98C83.0661 97.9167 82.2327 98.0167 81.4994 98.3C80.7827 98.5667 80.2077 98.9833 79.7744 99.55C79.3577 100.117 79.1494 100.792 79.1494 101.575H78.0494ZM78.1994 110C77.8994 110 77.6661 109.917 77.4994 109.75C77.3327 109.583 77.2494 109.35 77.2494 109.05V97.275C77.2494 96.975 77.3327 96.7417 77.4994 96.575C77.6661 96.4083 77.8994 96.325 78.1994 96.325C78.4994 96.325 78.7327 96.4083 78.8994 96.575C79.0661 96.7417 79.1494 96.975 79.1494 97.275V109.05C79.1494 109.35 79.0661 109.583 78.8994 109.75C78.7327 109.917 78.4994 110 78.1994 110ZM101.374 110C100.49 110 99.6988 109.792 98.9988 109.375C98.3155 108.958 97.7738 108.392 97.3738 107.675C96.9738 106.942 96.7738 106.108 96.7738 105.175V92.95C96.7738 92.6667 96.8572 92.4333 97.0238 92.25C97.2072 92.0667 97.4405 91.975 97.7238 91.975C98.0072 91.975 98.2405 92.0667 98.4238 92.25C98.6072 92.4333 98.6988 92.6667 98.6988 92.95V105.175C98.6988 106.025 98.9488 106.725 99.4488 107.275C99.9488 107.808 100.59 108.075 101.374 108.075H102.049C102.315 108.075 102.532 108.167 102.699 108.35C102.865 108.533 102.949 108.767 102.949 109.05C102.949 109.333 102.849 109.567 102.649 109.75C102.449 109.917 102.199 110 101.899 110H101.374ZM95.1488 98.5C94.8988 98.5 94.6905 98.425 94.5238 98.275C94.3572 98.1083 94.2738 97.9083 94.2738 97.675C94.2738 97.425 94.3572 97.225 94.5238 97.075C94.6905 96.9083 94.8988 96.825 95.1488 96.825H101.524C101.774 96.825 101.982 96.9083 102.149 97.075C102.315 97.225 102.399 97.425 102.399 97.675C102.399 97.9083 102.315 98.1083 102.149 98.275C101.982 98.425 101.774 98.5 101.524 98.5H95.1488ZM112.307 110.125C110.974 110.125 109.782 109.825 108.732 109.225C107.682 108.625 106.857 107.8 106.257 106.75C105.657 105.7 105.357 104.508 105.357 103.175C105.357 101.825 105.657 100.625 106.257 99.575C106.857 98.525 107.682 97.7 108.732 97.1C109.782 96.5 110.974 96.2 112.307 96.2C113.641 96.2 114.824 96.5 115.857 97.1C116.907 97.7 117.732 98.525 118.332 99.575C118.932 100.625 119.241 101.825 119.257 103.175C119.257 104.508 118.949 105.7 118.332 106.75C117.732 107.8 116.907 108.625 115.857 109.225C114.824 109.825 113.641 110.125 112.307 110.125ZM112.307 108.375C113.274 108.375 114.141 108.15 114.907 107.7C115.674 107.25 116.274 106.633 116.707 105.85C117.141 105.067 117.357 104.175 117.357 103.175C117.357 102.175 117.141 101.283 116.707 100.5C116.274 99.7 115.674 99.075 114.907 98.625C114.141 98.175 113.274 97.95 112.307 97.95C111.341 97.95 110.474 98.175 109.707 98.625C108.941 99.075 108.332 99.7 107.882 100.5C107.449 101.283 107.232 102.175 107.232 103.175C107.232 104.175 107.449 105.067 107.882 105.85C108.332 106.633 108.941 107.25 109.707 107.7C110.474 108.15 111.341 108.375 112.307 108.375ZM126.701 115.85C126.417 115.85 126.184 115.758 126.001 115.575C125.817 115.408 125.726 115.175 125.726 114.875C125.726 114.592 125.817 114.358 126.001 114.175C126.184 113.992 126.417 113.9 126.701 113.9C127.467 113.9 128.142 113.733 128.726 113.4C129.309 113.067 129.767 112.608 130.101 112.025C130.451 111.442 130.626 110.767 130.626 110V97.3C130.626 97 130.709 96.7667 130.876 96.6C131.059 96.4167 131.292 96.325 131.576 96.325C131.859 96.325 132.092 96.4167 132.276 96.6C132.459 96.7667 132.551 97 132.551 97.3V110C132.551 111.133 132.301 112.142 131.801 113.025C131.301 113.908 130.609 114.6 129.726 115.1C128.842 115.6 127.834 115.85 126.701 115.85ZM131.551 93.725C131.184 93.725 130.867 93.5917 130.601 93.325C130.334 93.0583 130.201 92.7333 130.201 92.35C130.201 91.9333 130.334 91.6083 130.601 91.375C130.884 91.125 131.209 91 131.576 91C131.926 91 132.234 91.125 132.501 91.375C132.784 91.6083 132.926 91.9333 132.926 92.35C132.926 92.7333 132.792 93.0583 132.526 93.325C132.259 93.5917 131.934 93.725 131.551 93.725ZM142.479 110.125C141.195 110.125 140.045 109.825 139.029 109.225C138.012 108.608 137.204 107.775 136.604 106.725C136.02 105.675 135.729 104.492 135.729 103.175C135.729 101.842 136.029 100.65 136.629 99.6C137.245 98.55 138.079 97.725 139.129 97.125C140.179 96.5083 141.362 96.2 142.679 96.2C143.995 96.2 145.17 96.5083 146.204 97.125C147.254 97.725 148.079 98.55 148.679 99.6C149.295 100.65 149.612 101.842 149.629 103.175L148.854 103.775C148.854 104.975 148.57 106.058 148.004 107.025C147.454 107.975 146.695 108.733 145.729 109.3C144.779 109.85 143.695 110.125 142.479 110.125ZM142.679 108.375C143.645 108.375 144.504 108.15 145.254 107.7C146.02 107.25 146.62 106.633 147.054 105.85C147.504 105.05 147.729 104.158 147.729 103.175C147.729 102.175 147.504 101.283 147.054 100.5C146.62 99.7167 146.02 99.1 145.254 98.65C144.504 98.1833 143.645 97.95 142.679 97.95C141.729 97.95 140.87 98.1833 140.104 98.65C139.337 99.1 138.729 99.7167 138.279 100.5C137.829 101.283 137.604 102.175 137.604 103.175C137.604 104.158 137.829 105.05 138.279 105.85C138.729 106.633 139.337 107.25 140.104 107.7C140.87 108.15 141.729 108.375 142.679 108.375ZM148.654 110C148.37 110 148.137 109.917 147.954 109.75C147.77 109.567 147.679 109.333 147.679 109.05V104.775L148.154 102.8L149.629 103.175V109.05C149.629 109.333 149.537 109.567 149.354 109.75C149.17 109.917 148.937 110 148.654 110ZM165.097 110C164.814 110 164.581 109.908 164.397 109.725C164.214 109.542 164.122 109.317 164.122 109.05V102.55C164.122 101.517 163.922 100.667 163.522 100C163.139 99.3333 162.606 98.8333 161.922 98.5C161.256 98.1667 160.497 98 159.647 98C158.831 98 158.089 98.1583 157.422 98.475C156.772 98.7917 156.256 99.225 155.872 99.775C155.489 100.325 155.297 100.95 155.297 101.65H153.922C153.956 100.6 154.239 99.6667 154.772 98.85C155.306 98.0167 156.014 97.3667 156.897 96.9C157.781 96.4167 158.764 96.175 159.847 96.175C161.031 96.175 162.089 96.425 163.022 96.925C163.956 97.4083 164.689 98.125 165.222 99.075C165.772 100.025 166.047 101.183 166.047 102.55V109.05C166.047 109.317 165.956 109.542 165.772 109.725C165.589 109.908 165.364 110 165.097 110ZM154.347 110C154.047 110 153.806 109.917 153.622 109.75C153.456 109.567 153.372 109.333 153.372 109.05V97.3C153.372 97 153.456 96.7667 153.622 96.6C153.806 96.4167 154.047 96.325 154.347 96.325C154.631 96.325 154.856 96.4167 155.022 96.6C155.206 96.7667 155.297 97 155.297 97.3V109.05C155.297 109.333 155.206 109.567 155.022 109.75C154.856 109.917 154.631 110 154.347 110ZM171.866 105.425L170.691 104.15L179.241 96.425C179.441 96.2417 179.65 96.1583 179.866 96.175C180.083 96.175 180.283 96.275 180.466 96.475C180.65 96.675 180.733 96.8917 180.716 97.125C180.716 97.3417 180.616 97.5333 180.416 97.7L171.866 105.425ZM171.241 110C170.958 110 170.725 109.917 170.541 109.75C170.375 109.567 170.291 109.333 170.291 109.05V91.425C170.291 91.1417 170.375 90.9167 170.541 90.75C170.725 90.5667 170.958 90.475 171.241 90.475C171.525 90.475 171.75 90.5667 171.916 90.75C172.1 90.9167 172.191 91.1417 172.191 91.425V109.05C172.191 109.333 172.1 109.567 171.916 109.75C171.75 109.917 171.525 110 171.241 110ZM180.491 109.875C180.275 110.058 180.05 110.133 179.816 110.1C179.583 110.083 179.383 109.967 179.216 109.75L173.641 102.9L174.991 101.7L180.616 108.625C180.783 108.825 180.858 109.042 180.841 109.275C180.825 109.492 180.708 109.692 180.491 109.875ZM182.373 111.95C182.09 111.95 181.856 111.85 181.673 111.65C181.49 111.467 181.398 111.242 181.398 110.975C181.398 110.708 181.49 110.475 181.673 110.275C181.856 110.092 182.09 110 182.373 110H194.348C194.615 110 194.84 110.092 195.023 110.275C195.206 110.475 195.298 110.708 195.298 110.975C195.298 111.242 195.206 111.467 195.023 111.65C194.84 111.85 194.615 111.95 194.348 111.95H182.373ZM202.542 110.125C201.208 110.125 200.017 109.825 198.967 109.225C197.917 108.625 197.092 107.8 196.492 106.75C195.892 105.7 195.592 104.508 195.592 103.175C195.592 101.825 195.892 100.625 196.492 99.575C197.092 98.525 197.917 97.7 198.967 97.1C200.017 96.5 201.208 96.2 202.542 96.2C203.875 96.2 205.058 96.5 206.092 97.1C207.142 97.7 207.967 98.525 208.567 99.575C209.167 100.625 209.475 101.825 209.492 103.175C209.492 104.508 209.183 105.7 208.567 106.75C207.967 107.8 207.142 108.625 206.092 109.225C205.058 109.825 203.875 110.125 202.542 110.125ZM202.542 108.375C203.508 108.375 204.375 108.15 205.142 107.7C205.908 107.25 206.508 106.633 206.942 105.85C207.375 105.067 207.592 104.175 207.592 103.175C207.592 102.175 207.375 101.283 206.942 100.5C206.508 99.7 205.908 99.075 205.142 98.625C204.375 98.175 203.508 97.95 202.542 97.95C201.575 97.95 200.708 98.175 199.942 98.625C199.175 99.075 198.567 99.7 198.117 100.5C197.683 101.283 197.467 102.175 197.467 103.175C197.467 104.175 197.683 105.067 198.117 105.85C198.567 106.633 199.175 107.25 199.942 107.7C200.708 108.15 201.575 108.375 202.542 108.375ZM220.161 110.125C218.861 110.125 217.686 109.825 216.636 109.225C215.602 108.625 214.777 107.808 214.161 106.775C213.561 105.725 213.252 104.55 213.236 103.25V91.45C213.236 91.15 213.319 90.9167 213.486 90.75C213.669 90.5667 213.911 90.475 214.211 90.475C214.494 90.475 214.719 90.5667 214.886 90.75C215.069 90.9167 215.161 91.15 215.161 91.45V98.8C215.711 98.0167 216.436 97.3917 217.336 96.925C218.252 96.4417 219.269 96.2 220.386 96.2C221.669 96.2 222.819 96.5083 223.836 97.125C224.852 97.725 225.652 98.55 226.236 99.6C226.836 100.65 227.136 101.833 227.136 103.15C227.136 104.483 226.827 105.675 226.211 106.725C225.611 107.775 224.786 108.608 223.736 109.225C222.686 109.825 221.494 110.125 220.161 110.125ZM220.161 108.375C221.127 108.375 221.994 108.15 222.761 107.7C223.527 107.233 224.127 106.608 224.561 105.825C225.011 105.042 225.236 104.15 225.236 103.15C225.236 102.167 225.011 101.283 224.561 100.5C224.127 99.7 223.527 99.075 222.761 98.625C221.994 98.175 221.127 97.95 220.161 97.95C219.211 97.95 218.352 98.175 217.586 98.625C216.819 99.075 216.219 99.7 215.786 100.5C215.352 101.283 215.136 102.167 215.136 103.15C215.136 104.15 215.352 105.042 215.786 105.825C216.219 106.608 216.819 107.233 217.586 107.7C218.352 108.15 219.211 108.375 220.161 108.375ZM227.287 115.85C227.003 115.85 226.77 115.758 226.587 115.575C226.403 115.408 226.312 115.175 226.312 114.875C226.312 114.592 226.403 114.358 226.587 114.175C226.77 113.992 227.003 113.9 227.287 113.9C228.053 113.9 228.728 113.733 229.312 113.4C229.895 113.067 230.353 112.608 230.687 112.025C231.037 111.442 231.212 110.767 231.212 110V97.3C231.212 97 231.295 96.7667 231.462 96.6C231.645 96.4167 231.878 96.325 232.162 96.325C232.445 96.325 232.678 96.4167 232.862 96.6C233.045 96.7667 233.137 97 233.137 97.3V110C233.137 111.133 232.887 112.142 232.387 113.025C231.887 113.908 231.195 114.6 230.312 115.1C229.428 115.6 228.42 115.85 227.287 115.85ZM232.137 93.725C231.77 93.725 231.453 93.5917 231.187 93.325C230.92 93.0583 230.787 92.7333 230.787 92.35C230.787 91.9333 230.92 91.6083 231.187 91.375C231.47 91.125 231.795 91 232.162 91C232.512 91 232.82 91.125 233.087 91.375C233.37 91.6083 233.512 91.9333 233.512 92.35C233.512 92.7333 233.378 93.0583 233.112 93.325C232.845 93.5917 232.52 93.725 232.137 93.725ZM243.239 110.125C241.889 110.125 240.689 109.833 239.639 109.25C238.606 108.65 237.789 107.825 237.189 106.775C236.606 105.725 236.314 104.525 236.314 103.175C236.314 101.808 236.589 100.608 237.139 99.575C237.706 98.525 238.481 97.7 239.464 97.1C240.448 96.5 241.581 96.2 242.864 96.2C244.131 96.2 245.231 96.4917 246.164 97.075C247.114 97.6417 247.848 98.4333 248.364 99.45C248.881 100.467 249.139 101.625 249.139 102.925C249.139 103.192 249.056 103.408 248.889 103.575C248.723 103.725 248.506 103.8 248.239 103.8H237.614V102.2H248.439L247.364 102.975C247.381 102.008 247.206 101.142 246.839 100.375C246.473 99.6083 245.948 99.0083 245.264 98.575C244.598 98.1417 243.798 97.925 242.864 97.925C241.914 97.925 241.081 98.15 240.364 98.6C239.648 99.05 239.089 99.675 238.689 100.475C238.306 101.258 238.114 102.158 238.114 103.175C238.114 104.192 238.331 105.092 238.764 105.875C239.214 106.658 239.823 107.275 240.589 107.725C241.356 108.175 242.239 108.4 243.239 108.4C243.839 108.4 244.439 108.3 245.039 108.1C245.656 107.883 246.148 107.617 246.514 107.3C246.698 107.15 246.906 107.075 247.139 107.075C247.373 107.058 247.573 107.117 247.739 107.25C247.956 107.45 248.064 107.667 248.064 107.9C248.081 108.133 247.989 108.333 247.789 108.5C247.239 108.967 246.539 109.358 245.689 109.675C244.839 109.975 244.023 110.125 243.239 110.125ZM258.008 110.125C256.691 110.125 255.516 109.825 254.483 109.225C253.466 108.608 252.658 107.775 252.058 106.725C251.474 105.675 251.183 104.492 251.183 103.175C251.183 101.842 251.466 100.65 252.033 99.6C252.599 98.55 253.374 97.725 254.358 97.125C255.341 96.5083 256.474 96.2 257.758 96.2C258.774 96.2 259.708 96.4 260.558 96.8C261.424 97.2 262.183 97.8 262.833 98.6C263.016 98.8 263.083 99.0167 263.033 99.25C262.983 99.4667 262.841 99.6583 262.608 99.825C262.424 99.9583 262.216 100.008 261.983 99.975C261.766 99.925 261.574 99.8 261.408 99.6C260.441 98.5 259.224 97.95 257.758 97.95C256.824 97.95 255.999 98.175 255.283 98.625C254.583 99.075 254.033 99.6917 253.633 100.475C253.249 101.258 253.058 102.158 253.058 103.175C253.058 104.175 253.266 105.067 253.683 105.85C254.099 106.633 254.683 107.25 255.433 107.7C256.183 108.15 257.041 108.375 258.008 108.375C258.658 108.375 259.249 108.292 259.783 108.125C260.333 107.942 260.816 107.667 261.233 107.3C261.433 107.133 261.641 107.042 261.858 107.025C262.074 107.008 262.274 107.075 262.458 107.225C262.658 107.408 262.766 107.617 262.783 107.85C262.816 108.083 262.741 108.283 262.558 108.45C261.341 109.567 259.824 110.125 258.008 110.125ZM272.126 110C271.242 110 270.451 109.792 269.751 109.375C269.067 108.958 268.526 108.392 268.126 107.675C267.726 106.942 267.526 106.108 267.526 105.175V92.95C267.526 92.6667 267.609 92.4333 267.776 92.25C267.959 92.0667 268.192 91.975 268.476 91.975C268.759 91.975 268.992 92.0667 269.176 92.25C269.359 92.4333 269.451 92.6667 269.451 92.95V105.175C269.451 106.025 269.701 106.725 270.201 107.275C270.701 107.808 271.342 108.075 272.126 108.075H272.801C273.067 108.075 273.284 108.167 273.451 108.35C273.617 108.533 273.701 108.767 273.701 109.05C273.701 109.333 273.601 109.567 273.401 109.75C273.201 109.917 272.951 110 272.651 110H272.126ZM265.901 98.5C265.651 98.5 265.442 98.425 265.276 98.275C265.109 98.1083 265.026 97.9083 265.026 97.675C265.026 97.425 265.109 97.225 265.276 97.075C265.442 96.9083 265.651 96.825 265.901 96.825H272.276C272.526 96.825 272.734 96.9083 272.901 97.075C273.067 97.225 273.151 97.425 273.151 97.675C273.151 97.9083 273.067 98.1083 272.901 98.275C272.734 98.425 272.526 98.5 272.276 98.5H265.901Z" fill="white"/>
<mask id="path-6-inside-2_1_22" fill="white">
<path d="M0 142H346V222H0V142Z"/>
</mask>
<path d="M0 142H346V222H0V142Z" fill="#FF3860"/>
<path d="M346 221H0V223H346V221Z" fill="#363636" mask="url(#path-6-inside-2_1_22)"/>
<path d="M40.3717 190C39.9717 190 39.6717 189.783 39.4717 189.35L33.9217 177.575C33.8217 177.358 33.8133 177.142 33.8967 176.925C33.98 176.708 34.1467 176.542 34.3967 176.425C34.63 176.308 34.855 176.292 35.0717 176.375C35.2883 176.458 35.455 176.608 35.5717 176.825L40.8967 188.35H39.8717L45.1217 176.825C45.2217 176.592 45.3883 176.442 45.6217 176.375C45.8717 176.292 46.1133 176.3 46.3467 176.4C46.58 176.517 46.7383 176.692 46.8217 176.925C46.905 177.142 46.8967 177.35 46.7967 177.55L41.3217 189.35C41.1217 189.783 40.805 190 40.3717 190ZM50.49 195.85C50.19 195.85 49.9484 195.758 49.765 195.575C49.5984 195.408 49.515 195.175 49.515 194.875V183.075C49.5317 181.775 49.84 180.608 50.44 179.575C51.0567 178.525 51.8817 177.7 52.915 177.1C53.965 176.5 55.14 176.2 56.44 176.2C57.7734 176.2 58.965 176.508 60.015 177.125C61.065 177.725 61.89 178.55 62.49 179.6C63.1067 180.65 63.415 181.842 63.415 183.175C63.415 184.492 63.115 185.675 62.515 186.725C61.9317 187.775 61.1317 188.608 60.115 189.225C59.0984 189.825 57.9484 190.125 56.665 190.125C55.5484 190.125 54.5317 189.892 53.615 189.425C52.715 188.942 51.99 188.308 51.44 187.525V194.875C51.44 195.175 51.3484 195.408 51.165 195.575C50.9984 195.758 50.7734 195.85 50.49 195.85ZM56.44 188.375C57.4067 188.375 58.2734 188.15 59.04 187.7C59.8067 187.25 60.4067 186.633 60.84 185.85C61.29 185.05 61.515 184.158 61.515 183.175C61.515 182.175 61.29 181.283 60.84 180.5C60.4067 179.717 59.8067 179.1 59.04 178.65C58.2734 178.183 57.4067 177.95 56.44 177.95C55.49 177.95 54.6317 178.183 53.865 178.65C53.0984 179.1 52.4984 179.717 52.065 180.5C51.6317 181.283 51.415 182.175 51.415 183.175C51.415 184.158 51.6317 185.05 52.065 185.85C52.4984 186.633 53.0984 187.25 53.865 187.7C54.6317 188.15 55.49 188.375 56.44 188.375ZM72.5408 190C71.6575 190 70.8658 189.792 70.1658 189.375C69.4825 188.958 68.9408 188.392 68.5408 187.675C68.1408 186.942 67.9408 186.108 67.9408 185.175V172.95C67.9408 172.667 68.0241 172.433 68.1908 172.25C68.3741 172.067 68.6075 171.975 68.8908 171.975C69.1741 171.975 69.4075 172.067 69.5908 172.25C69.7741 172.433 69.8658 172.667 69.8658 172.95V185.175C69.8658 186.025 70.1158 186.725 70.6158 187.275C71.1158 187.808 71.7575 188.075 72.5408 188.075H73.2158C73.4825 188.075 73.6991 188.167 73.8658 188.35C74.0325 188.533 74.1158 188.767 74.1158 189.05C74.1158 189.333 74.0158 189.567 73.8158 189.75C73.6158 189.917 73.3658 190 73.0658 190H72.5408ZM66.3158 178.5C66.0658 178.5 65.8575 178.425 65.6908 178.275C65.5241 178.108 65.4408 177.908 65.4408 177.675C65.4408 177.425 65.5241 177.225 65.6908 177.075C65.8575 176.908 66.0658 176.825 66.3158 176.825H72.6908C72.9408 176.825 73.1491 176.908 73.3158 177.075C73.4825 177.225 73.5658 177.425 73.5658 177.675C73.5658 177.908 73.4825 178.108 73.3158 178.275C73.1491 178.425 72.9408 178.5 72.6908 178.5H66.3158ZM78.0494 181.575C78.0994 180.542 78.3661 179.617 78.8494 178.8C79.3494 177.983 79.9911 177.342 80.7744 176.875C81.5744 176.408 82.4577 176.175 83.4244 176.175C84.1911 176.175 84.7827 176.283 85.1994 176.5C85.6161 176.717 85.7744 177.033 85.6744 177.45C85.6077 177.7 85.4911 177.867 85.3244 177.95C85.1744 178.033 84.9827 178.067 84.7494 178.05C84.5327 178.033 84.2827 178.017 83.9994 178C83.0661 177.917 82.2327 178.017 81.4994 178.3C80.7827 178.567 80.2077 178.983 79.7744 179.55C79.3577 180.117 79.1494 180.792 79.1494 181.575H78.0494ZM78.1994 190C77.8994 190 77.6661 189.917 77.4994 189.75C77.3327 189.583 77.2494 189.35 77.2494 189.05V177.275C77.2494 176.975 77.3327 176.742 77.4994 176.575C77.6661 176.408 77.8994 176.325 78.1994 176.325C78.4994 176.325 78.7327 176.408 78.8994 176.575C79.0661 176.742 79.1494 176.975 79.1494 177.275V189.05C79.1494 189.35 79.0661 189.583 78.8994 189.75C78.7327 189.917 78.4994 190 78.1994 190ZM101.374 190C100.49 190 99.6988 189.792 98.9988 189.375C98.3155 188.958 97.7738 188.392 97.3738 187.675C96.9738 186.942 96.7738 186.108 96.7738 185.175V172.95C96.7738 172.667 96.8572 172.433 97.0238 172.25C97.2072 172.067 97.4405 171.975 97.7238 171.975C98.0072 171.975 98.2405 172.067 98.4238 172.25C98.6072 172.433 98.6988 172.667 98.6988 172.95V185.175C98.6988 186.025 98.9488 186.725 99.4488 187.275C99.9488 187.808 100.59 188.075 101.374 188.075H102.049C102.315 188.075 102.532 188.167 102.699 188.35C102.865 188.533 102.949 188.767 102.949 189.05C102.949 189.333 102.849 189.567 102.649 189.75C102.449 189.917 102.199 190 101.899 190H101.374ZM95.1488 178.5C94.8988 178.5 94.6905 178.425 94.5238 178.275C94.3572 178.108 94.2738 177.908 94.2738 177.675C94.2738 177.425 94.3572 177.225 94.5238 177.075C94.6905 176.908 94.8988 176.825 95.1488 176.825H101.524C101.774 176.825 101.982 176.908 102.149 177.075C102.315 177.225 102.399 177.425 102.399 177.675C102.399 177.908 102.315 178.108 102.149 178.275C101.982 178.425 101.774 178.5 101.524 178.5H95.1488ZM112.307 190.125C110.974 190.125 109.782 189.825 108.732 189.225C107.682 188.625 106.857 187.8 106.257 186.75C105.657 185.7 105.357 184.508 105.357 183.175C105.357 181.825 105.657 180.625 106.257 179.575C106.857 178.525 107.682 177.7 108.732 177.1C109.782 176.5 110.974 176.2 112.307 176.2C113.641 176.2 114.824 176.5 115.857 177.1C116.907 177.7 117.732 178.525 118.332 179.575C118.932 180.625 119.241 181.825 119.257 183.175C119.257 184.508 118.949 185.7 118.332 186.75C117.732 187.8 116.907 188.625 115.857 189.225C114.824 189.825 113.641 190.125 112.307 190.125ZM112.307 188.375C113.274 188.375 114.141 188.15 114.907 187.7C115.674 187.25 116.274 186.633 116.707 185.85C117.141 185.067 117.357 184.175 117.357 183.175C117.357 182.175 117.141 181.283 116.707 180.5C116.274 179.7 115.674 179.075 114.907 178.625C114.141 178.175 113.274 177.95 112.307 177.95C111.341 177.95 110.474 178.175 109.707 178.625C108.941 179.075 108.332 179.7 107.882 180.5C107.449 181.283 107.232 182.175 107.232 183.175C107.232 184.175 107.449 185.067 107.882 185.85C108.332 186.633 108.941 187.25 109.707 187.7C110.474 188.15 111.341 188.375 112.307 188.375ZM126.701 195.85C126.417 195.85 126.184 195.758 126.001 195.575C125.817 195.408 125.726 195.175 125.726 194.875C125.726 194.592 125.817 194.358 126.001 194.175C126.184 193.992 126.417 193.9 126.701 193.9C127.467 193.9 128.142 193.733 128.726 193.4C129.309 193.067 129.767 192.608 130.101 192.025C130.451 191.442 130.626 190.767 130.626 190V177.3C130.626 177 130.709 176.767 130.876 176.6C131.059 176.417 131.292 176.325 131.576 176.325C131.859 176.325 132.092 176.417 132.276 176.6C132.459 176.767 132.551 177 132.551 177.3V190C132.551 191.133 132.301 192.142 131.801 193.025C131.301 193.908 130.609 194.6 129.726 195.1C128.842 195.6 127.834 195.85 126.701 195.85ZM131.551 173.725C131.184 173.725 130.867 173.592 130.601 173.325C130.334 173.058 130.201 172.733 130.201 172.35C130.201 171.933 130.334 171.608 130.601 171.375C130.884 171.125 131.209 171 131.576 171C131.926 171 132.234 171.125 132.501 171.375C132.784 171.608 132.926 171.933 132.926 172.35C132.926 172.733 132.792 173.058 132.526 173.325C132.259 173.592 131.934 173.725 131.551 173.725ZM142.479 190.125C141.195 190.125 140.045 189.825 139.029 189.225C138.012 188.608 137.204 187.775 136.604 186.725C136.02 185.675 135.729 184.492 135.729 183.175C135.729 181.842 136.029 180.65 136.629 179.6C137.245 178.55 138.079 177.725 139.129 177.125C140.179 176.508 141.362 176.2 142.679 176.2C143.995 176.2 145.17 176.508 146.204 177.125C147.254 177.725 148.079 178.55 148.679 179.6C149.295 180.65 149.612 181.842 149.629 183.175L148.854 183.775C148.854 184.975 148.57 186.058 148.004 187.025C147.454 187.975 146.695 188.733 145.729 189.3C144.779 189.85 143.695 190.125 142.479 190.125ZM142.679 188.375C143.645 188.375 144.504 188.15 145.254 187.7C146.02 187.25 146.62 186.633 147.054 185.85C147.504 185.05 147.729 184.158 147.729 183.175C147.729 182.175 147.504 181.283 147.054 180.5C146.62 179.717 146.02 179.1 145.254 178.65C144.504 178.183 143.645 177.95 142.679 177.95C141.729 177.95 140.87 178.183 140.104 178.65C139.337 179.1 138.729 179.717 138.279 180.5C137.829 181.283 137.604 182.175 137.604 183.175C137.604 184.158 137.829 185.05 138.279 185.85C138.729 186.633 139.337 187.25 140.104 187.7C140.87 188.15 141.729 188.375 142.679 188.375ZM148.654 190C148.37 190 148.137 189.917 147.954 189.75C147.77 189.567 147.679 189.333 147.679 189.05V184.775L148.154 182.8L149.629 183.175V189.05C149.629 189.333 149.537 189.567 149.354 189.75C149.17 189.917 148.937 190 148.654 190ZM165.097 190C164.814 190 164.581 189.908 164.397 189.725C164.214 189.542 164.122 189.317 164.122 189.05V182.55C164.122 181.517 163.922 180.667 163.522 180C163.139 179.333 162.606 178.833 161.922 178.5C161.256 178.167 160.497 178 159.647 178C158.831 178 158.089 178.158 157.422 178.475C156.772 178.792 156.256 179.225 155.872 179.775C155.489 180.325 155.297 180.95 155.297 181.65H153.922C153.956 180.6 154.239 179.667 154.772 178.85C155.306 178.017 156.014 177.367 156.897 176.9C157.781 176.417 158.764 176.175 159.847 176.175C161.031 176.175 162.089 176.425 163.022 176.925C163.956 177.408 164.689 178.125 165.222 179.075C165.772 180.025 166.047 181.183 166.047 182.55V189.05C166.047 189.317 165.956 189.542 165.772 189.725C165.589 189.908 165.364 190 165.097 190ZM154.347 190C154.047 190 153.806 189.917 153.622 189.75C153.456 189.567 153.372 189.333 153.372 189.05V177.3C153.372 177 153.456 176.767 153.622 176.6C153.806 176.417 154.047 176.325 154.347 176.325C154.631 176.325 154.856 176.417 155.022 176.6C155.206 176.767 155.297 177 155.297 177.3V189.05C155.297 189.333 155.206 189.567 155.022 189.75C154.856 189.917 154.631 190 154.347 190ZM171.866 185.425L170.691 184.15L179.241 176.425C179.441 176.242 179.65 176.158 179.866 176.175C180.083 176.175 180.283 176.275 180.466 176.475C180.65 176.675 180.733 176.892 180.716 177.125C180.716 177.342 180.616 177.533 180.416 177.7L171.866 185.425ZM171.241 190C170.958 190 170.725 189.917 170.541 189.75C170.375 189.567 170.291 189.333 170.291 189.05V171.425C170.291 171.142 170.375 170.917 170.541 170.75C170.725 170.567 170.958 170.475 171.241 170.475C171.525 170.475 171.75 170.567 171.916 170.75C172.1 170.917 172.191 171.142 172.191 171.425V189.05C172.191 189.333 172.1 189.567 171.916 189.75C171.75 189.917 171.525 190 171.241 190ZM180.491 189.875C180.275 190.058 180.05 190.133 179.816 190.1C179.583 190.083 179.383 189.967 179.216 189.75L173.641 182.9L174.991 181.7L180.616 188.625C180.783 188.825 180.858 189.042 180.841 189.275C180.825 189.492 180.708 189.692 180.491 189.875ZM182.373 191.95C182.09 191.95 181.856 191.85 181.673 191.65C181.49 191.467 181.398 191.242 181.398 190.975C181.398 190.708 181.49 190.475 181.673 190.275C181.856 190.092 182.09 190 182.373 190H194.348C194.615 190 194.84 190.092 195.023 190.275C195.206 190.475 195.298 190.708 195.298 190.975C195.298 191.242 195.206 191.467 195.023 191.65C194.84 191.85 194.615 191.95 194.348 191.95H182.373ZM202.417 190.125C201.1 190.125 199.925 189.825 198.892 189.225C197.875 188.608 197.067 187.775 196.467 186.725C195.883 185.675 195.592 184.492 195.592 183.175C195.592 181.842 195.875 180.65 196.442 179.6C197.008 178.55 197.783 177.725 198.767 177.125C199.75 176.508 200.883 176.2 202.167 176.2C203.183 176.2 204.117 176.4 204.967 176.8C205.833 177.2 206.592 177.8 207.242 178.6C207.425 178.8 207.492 179.017 207.442 179.25C207.392 179.467 207.25 179.658 207.017 179.825C206.833 179.958 206.625 180.008 206.392 179.975C206.175 179.925 205.983 179.8 205.817 179.6C204.85 178.5 203.633 177.95 202.167 177.95C201.233 177.95 200.408 178.175 199.692 178.625C198.992 179.075 198.442 179.692 198.042 180.475C197.658 181.258 197.467 182.158 197.467 183.175C197.467 184.175 197.675 185.067 198.092 185.85C198.508 186.633 199.092 187.25 199.842 187.7C200.592 188.15 201.45 188.375 202.417 188.375C203.067 188.375 203.658 188.292 204.192 188.125C204.742 187.942 205.225 187.667 205.642 187.3C205.842 187.133 206.05 187.042 206.267 187.025C206.483 187.008 206.683 187.075 206.867 187.225C207.067 187.408 207.175 187.617 207.192 187.85C207.225 188.083 207.15 188.283 206.967 188.45C205.75 189.567 204.233 190.125 202.417 190.125ZM217.41 190.125C216.077 190.125 214.885 189.825 213.835 189.225C212.785 188.625 211.96 187.8 211.36 186.75C210.76 185.7 210.46 184.508 210.46 183.175C210.46 181.825 210.76 180.625 211.36 179.575C211.96 178.525 212.785 177.7 213.835 177.1C214.885 176.5 216.077 176.2 217.41 176.2C218.743 176.2 219.927 176.5 220.96 177.1C222.01 177.7 222.835 178.525 223.435 179.575C224.035 180.625 224.343 181.825 224.36 183.175C224.36 184.508 224.052 185.7 223.435 186.75C222.835 187.8 222.01 188.625 220.96 189.225C219.927 189.825 218.743 190.125 217.41 190.125ZM217.41 188.375C218.377 188.375 219.243 188.15 220.01 187.7C220.777 187.25 221.377 186.633 221.81 185.85C222.243 185.067 222.46 184.175 222.46 183.175C222.46 182.175 222.243 181.283 221.81 180.5C221.377 179.7 220.777 179.075 220.01 178.625C219.243 178.175 218.377 177.95 217.41 177.95C216.443 177.95 215.577 178.175 214.81 178.625C214.043 179.075 213.435 179.7 212.985 180.5C212.552 181.283 212.335 182.175 212.335 183.175C212.335 184.175 212.552 185.067 212.985 185.85C213.435 186.633 214.043 187.25 214.81 187.7C215.577 188.15 216.443 188.375 217.41 188.375ZM234.054 190.15C232.871 190.15 231.812 189.908 230.879 189.425C229.946 188.925 229.204 188.2 228.654 187.25C228.121 186.3 227.854 185.142 227.854 183.775V177.275C227.854 177.008 227.946 176.783 228.129 176.6C228.312 176.417 228.537 176.325 228.804 176.325C229.087 176.325 229.321 176.417 229.504 176.6C229.687 176.783 229.779 177.008 229.779 177.275V183.775C229.779 184.808 229.971 185.658 230.354 186.325C230.754 186.992 231.287 187.492 231.954 187.825C232.637 188.158 233.404 188.325 234.254 188.325C235.071 188.325 235.804 188.167 236.454 187.85C237.121 187.533 237.646 187.1 238.029 186.55C238.412 186 238.604 185.375 238.604 184.675H239.979C239.929 185.725 239.637 186.667 239.104 187.5C238.587 188.317 237.887 188.967 237.004 189.45C236.121 189.917 235.137 190.15 234.054 190.15ZM239.554 190C239.271 190 239.037 189.917 238.854 189.75C238.687 189.567 238.604 189.325 238.604 189.025V177.275C238.604 176.992 238.687 176.767 238.854 176.6C239.037 176.417 239.271 176.325 239.554 176.325C239.837 176.325 240.071 176.417 240.254 176.6C240.437 176.767 240.529 176.992 240.529 177.275V189.025C240.529 189.325 240.437 189.567 240.254 189.75C240.071 189.917 239.837 190 239.554 190ZM256.748 190C256.465 190 256.231 189.908 256.048 189.725C255.865 189.542 255.773 189.317 255.773 189.05V182.55C255.773 181.517 255.573 180.667 255.173 180C254.79 179.333 254.256 178.833 253.573 178.5C252.906 178.167 252.148 178 251.298 178C250.481 178 249.74 178.158 249.073 178.475C248.423 178.792 247.906 179.225 247.523 179.775C247.14 180.325 246.948 180.95 246.948 181.65H245.573C245.606 180.6 245.89 179.667 246.423 178.85C246.956 178.017 247.665 177.367 248.548 176.9C249.431 176.417 250.415 176.175 251.498 176.175C252.681 176.175 253.74 176.425 254.673 176.925C255.606 177.408 256.34 178.125 256.873 179.075C257.423 180.025 257.698 181.183 257.698 182.55V189.05C257.698 189.317 257.606 189.542 257.423 189.725C257.24 189.908 257.015 190 256.748 190ZM245.998 190C245.698 190 245.456 189.917 245.273 189.75C245.106 189.567 245.023 189.333 245.023 189.05V177.3C245.023 177 245.106 176.767 245.273 176.6C245.456 176.417 245.698 176.325 245.998 176.325C246.281 176.325 246.506 176.417 246.673 176.6C246.856 176.767 246.948 177 246.948 177.3V189.05C246.948 189.333 246.856 189.567 246.673 189.75C246.506 189.917 246.281 190 245.998 190ZM267.292 190C266.408 190 265.617 189.792 264.917 189.375C264.233 188.958 263.692 188.392 263.292 187.675C262.892 186.942 262.692 186.108 262.692 185.175V172.95C262.692 172.667 262.775 172.433 262.942 172.25C263.125 172.067 263.358 171.975 263.642 171.975C263.925 171.975 264.158 172.067 264.342 172.25C264.525 172.433 264.617 172.667 264.617 172.95V185.175C264.617 186.025 264.867 186.725 265.367 187.275C265.867 187.808 266.508 188.075 267.292 188.075H267.967C268.233 188.075 268.45 188.167 268.617 188.35C268.783 188.533 268.867 188.767 268.867 189.05C268.867 189.333 268.767 189.567 268.567 189.75C268.367 189.917 268.117 190 267.817 190H267.292ZM261.067 178.5C260.817 178.5 260.608 178.425 260.442 178.275C260.275 178.108 260.192 177.908 260.192 177.675C260.192 177.425 260.275 177.225 260.442 177.075C260.608 176.908 260.817 176.825 261.067 176.825H267.442C267.692 176.825 267.9 176.908 268.067 177.075C268.233 177.225 268.317 177.425 268.317 177.675C268.317 177.908 268.233 178.108 268.067 178.275C267.9 178.425 267.692 178.5 267.442 178.5H261.067ZM278.025 190.125C276.742 190.125 275.592 189.825 274.575 189.225C273.559 188.608 272.75 187.775 272.15 186.725C271.567 185.675 271.275 184.492 271.275 183.175C271.275 181.842 271.575 180.65 272.175 179.6C272.792 178.55 273.625 177.725 274.675 177.125C275.725 176.508 276.909 176.2 278.225 176.2C279.542 176.2 280.717 176.508 281.75 177.125C282.8 177.725 283.625 178.55 284.225 179.6C284.842 180.65 285.159 181.842 285.175 183.175L284.4 183.775C284.4 184.975 284.117 186.058 283.55 187.025C283 187.975 282.242 188.733 281.275 189.3C280.325 189.85 279.242 190.125 278.025 190.125ZM278.225 188.375C279.192 188.375 280.05 188.15 280.8 187.7C281.567 187.25 282.167 186.633 282.6 185.85C283.05 185.05 283.275 184.158 283.275 183.175C283.275 182.175 283.05 181.283 282.6 180.5C282.167 179.717 281.567 179.1 280.8 178.65C280.05 178.183 279.192 177.95 278.225 177.95C277.275 177.95 276.417 178.183 275.65 178.65C274.884 179.1 274.275 179.717 273.825 180.5C273.375 181.283 273.15 182.175 273.15 183.175C273.15 184.158 273.375 185.05 273.825 185.85C274.275 186.633 274.884 187.25 275.65 187.7C276.417 188.15 277.275 188.375 278.225 188.375ZM284.2 190C283.917 190 283.684 189.917 283.5 189.75C283.317 189.567 283.225 189.333 283.225 189.05V184.775L283.7 182.8L285.175 183.175V189.05C285.175 189.333 285.084 189.567 284.9 189.75C284.717 189.917 284.484 190 284.2 190ZM295.844 190.125C294.544 190.125 293.369 189.825 292.319 189.225C291.286 188.625 290.461 187.808 289.844 186.775C289.244 185.725 288.936 184.55 288.919 183.25V171.45C288.919 171.15 289.003 170.917 289.169 170.75C289.353 170.567 289.594 170.475 289.894 170.475C290.178 170.475 290.403 170.567 290.569 170.75C290.753 170.917 290.844 171.15 290.844 171.45V178.8C291.394 178.017 292.119 177.392 293.019 176.925C293.936 176.442 294.953 176.2 296.069 176.2C297.353 176.2 298.503 176.508 299.519 177.125C300.536 177.725 301.336 178.55 301.919 179.6C302.519 180.65 302.819 181.833 302.819 183.15C302.819 184.483 302.511 185.675 301.894 186.725C301.294 187.775 300.469 188.608 299.419 189.225C298.369 189.825 297.178 190.125 295.844 190.125ZM295.844 188.375C296.811 188.375 297.678 188.15 298.444 187.7C299.211 187.233 299.811 186.608 300.244 185.825C300.694 185.042 300.919 184.15 300.919 183.15C300.919 182.167 300.694 181.283 300.244 180.5C299.811 179.7 299.211 179.075 298.444 178.625C297.678 178.175 296.811 177.95 295.844 177.95C294.894 177.95 294.036 178.175 293.269 178.625C292.503 179.075 291.903 179.7 291.469 180.5C291.036 181.283 290.819 182.167 290.819 183.15C290.819 184.15 291.036 185.042 291.469 185.825C291.903 186.608 292.503 187.233 293.269 187.7C294.036 188.15 294.894 188.375 295.844 188.375ZM309.545 190C308.878 190 308.278 189.817 307.745 189.45C307.228 189.083 306.82 188.575 306.52 187.925C306.237 187.275 306.095 186.525 306.095 185.675V171.425C306.095 171.142 306.178 170.917 306.345 170.75C306.528 170.567 306.762 170.475 307.045 170.475C307.328 170.475 307.553 170.567 307.72 170.75C307.903 170.917 307.995 171.142 307.995 171.425V185.675C307.995 186.392 308.137 186.975 308.42 187.425C308.72 187.875 309.095 188.1 309.545 188.1H310.17C310.42 188.1 310.62 188.192 310.77 188.375C310.92 188.542 310.995 188.767 310.995 189.05C310.995 189.333 310.887 189.567 310.67 189.75C310.47 189.917 310.203 190 309.87 190H309.545ZM319.094 190.125C317.744 190.125 316.544 189.833 315.494 189.25C314.461 188.65 313.644 187.825 313.044 186.775C312.461 185.725 312.169 184.525 312.169 183.175C312.169 181.808 312.444 180.608 312.994 179.575C313.561 178.525 314.336 177.7 315.319 177.1C316.302 176.5 317.436 176.2 318.719 176.2C319.986 176.2 321.086 176.492 322.019 177.075C322.969 177.642 323.702 178.433 324.219 179.45C324.736 180.467 324.994 181.625 324.994 182.925C324.994 183.192 324.911 183.408 324.744 183.575C324.577 183.725 324.361 183.8 324.094 183.8H313.469V182.2H324.294L323.219 182.975C323.236 182.008 323.061 181.142 322.694 180.375C322.327 179.608 321.802 179.008 321.119 178.575C320.452 178.142 319.652 177.925 318.719 177.925C317.769 177.925 316.936 178.15 316.219 178.6C315.502 179.05 314.944 179.675 314.544 180.475C314.161 181.258 313.969 182.158 313.969 183.175C313.969 184.192 314.186 185.092 314.619 185.875C315.069 186.658 315.677 187.275 316.444 187.725C317.211 188.175 318.094 188.4 319.094 188.4C319.694 188.4 320.294 188.3 320.894 188.1C321.511 187.883 322.002 187.617 322.369 187.3C322.552 187.15 322.761 187.075 322.994 187.075C323.227 187.058 323.427 187.117 323.594 187.25C323.811 187.45 323.919 187.667 323.919 187.9C323.936 188.133 323.844 188.333 323.644 188.5C323.094 188.967 322.394 189.358 321.544 189.675C320.694 189.975 319.877 190.125 319.094 190.125Z" fill="white"/>
<path d="M0 222H346V537C346 539.761 343.761 542 341 542H4.99999C2.23857 542 0 539.761 0 537V222Z" fill="#00D1B2"/>
<path d="M40.4717 390.125C39.4883 390.125 38.5133 389.958 37.5467 389.625C36.58 389.292 35.7967 388.792 35.1967 388.125C35.0133 387.925 34.9383 387.7 34.9717 387.45C35.005 387.2 35.13 386.983 35.3467 386.8C35.58 386.633 35.8217 386.567 36.0717 386.6C36.3217 386.633 36.53 386.742 36.6967 386.925C37.0967 387.392 37.6217 387.75 38.2717 388C38.9383 388.25 39.6717 388.375 40.4717 388.375C41.705 388.375 42.5967 388.167 43.1467 387.75C43.6967 387.317 43.98 386.8 43.9967 386.2C43.9967 385.6 43.7133 385.108 43.1467 384.725C42.58 384.325 41.6467 384.017 40.3467 383.8C38.6633 383.533 37.43 383.067 36.6467 382.4C35.8633 381.733 35.4717 380.942 35.4717 380.025C35.4717 379.175 35.6967 378.467 36.1467 377.9C36.5967 377.333 37.1967 376.908 37.9467 376.625C38.6967 376.342 39.5217 376.2 40.4217 376.2C41.5383 376.2 42.4967 376.392 43.2967 376.775C44.1133 377.158 44.7717 377.675 45.2717 378.325C45.4383 378.542 45.505 378.767 45.4717 379C45.4383 379.233 45.305 379.425 45.0717 379.575C44.8717 379.692 44.6383 379.733 44.3717 379.7C44.1217 379.65 43.905 379.525 43.7217 379.325C43.305 378.842 42.8217 378.492 42.2717 378.275C41.7217 378.042 41.0883 377.925 40.3717 377.925C39.455 377.925 38.7217 378.117 38.1717 378.5C37.6217 378.867 37.3467 379.333 37.3467 379.9C37.3467 380.283 37.4467 380.617 37.6467 380.9C37.8633 381.183 38.2217 381.433 38.7217 381.65C39.2383 381.867 39.955 382.05 40.8717 382.2C42.1217 382.4 43.105 382.7 43.8217 383.1C44.555 383.483 45.0717 383.942 45.3717 384.475C45.6883 384.992 45.8467 385.558 45.8467 386.175C45.8467 386.958 45.6133 387.65 45.1467 388.25C44.6967 388.833 44.0633 389.292 43.2467 389.625C42.4467 389.958 41.5217 390.125 40.4717 390.125ZM54.5232 390C53.6399 390 52.8482 389.792 52.1482 389.375C51.4649 388.958 50.9232 388.392 50.5232 387.675C50.1232 386.942 49.9232 386.108 49.9232 385.175V372.95C49.9232 372.667 50.0066 372.433 50.1732 372.25C50.3566 372.067 50.5899 371.975 50.8732 371.975C51.1566 371.975 51.3899 372.067 51.5732 372.25C51.7566 372.433 51.8482 372.667 51.8482 372.95V385.175C51.8482 386.025 52.0982 386.725 52.5982 387.275C53.0982 387.808 53.7399 388.075 54.5232 388.075H55.1982C55.4649 388.075 55.6816 388.167 55.8482 388.35C56.0149 388.533 56.0982 388.767 56.0982 389.05C56.0982 389.333 55.9982 389.567 55.7982 389.75C55.5982 389.917 55.3482 390 55.0482 390H54.5232ZM48.2982 378.5C48.0482 378.5 47.8399 378.425 47.6732 378.275C47.5066 378.108 47.4232 377.908 47.4232 377.675C47.4232 377.425 47.5066 377.225 47.6732 377.075C47.8399 376.908 48.0482 376.825 48.2982 376.825H54.6732C54.9232 376.825 55.1316 376.908 55.2982 377.075C55.4649 377.225 55.5482 377.425 55.5482 377.675C55.5482 377.908 55.4649 378.108 55.2982 378.275C55.1316 378.425 54.9232 378.5 54.6732 378.5H48.2982ZM65.4568 390.125C64.1402 390.125 62.9568 389.825 61.9068 389.225C60.8568 388.608 60.0235 387.775 59.4068 386.725C58.8068 385.675 58.5068 384.483 58.5068 383.15C58.5068 381.833 58.7985 380.65 59.3818 379.6C59.9818 378.55 60.7902 377.725 61.8068 377.125C62.8235 376.508 63.9735 376.2 65.2568 376.2C66.3735 376.2 67.3818 376.442 68.2818 376.925C69.1818 377.392 69.9068 378.017 70.4568 378.8V371.45C70.4568 371.15 70.5485 370.917 70.7318 370.75C70.9152 370.567 71.1485 370.475 71.4318 370.475C71.7152 370.475 71.9485 370.567 72.1318 370.75C72.3152 370.917 72.4068 371.15 72.4068 371.45V383.25C72.3735 384.55 72.0485 385.725 71.4318 386.775C70.8318 387.808 70.0068 388.625 68.9568 389.225C67.9235 389.825 66.7568 390.125 65.4568 390.125ZM65.4568 388.375C66.4235 388.375 67.2818 388.15 68.0318 387.7C68.7985 387.233 69.3985 386.608 69.8318 385.825C70.2818 385.042 70.5068 384.15 70.5068 383.15C70.5068 382.167 70.2818 381.283 69.8318 380.5C69.3985 379.7 68.7985 379.075 68.0318 378.625C67.2818 378.175 66.4235 377.95 65.4568 377.95C64.5068 377.95 63.6485 378.175 62.8818 378.625C62.1152 379.075 61.5068 379.7 61.0568 380.5C60.6068 381.283 60.3818 382.167 60.3818 383.15C60.3818 384.15 60.6068 385.042 61.0568 385.825C61.5068 386.608 62.1152 387.233 62.8818 387.7C63.6485 388.15 64.5068 388.375 65.4568 388.375ZM76.9076 379.4C76.5076 379.4 76.1576 379.267 75.8576 379C75.5743 378.717 75.4326 378.367 75.4326 377.95C75.4326 377.533 75.5743 377.183 75.8576 376.9C76.1409 376.617 76.4909 376.475 76.9076 376.475C77.3076 376.475 77.6409 376.625 77.9076 376.925C78.1909 377.208 78.3326 377.55 78.3326 377.95C78.3326 378.35 78.1909 378.692 77.9076 378.975C77.6409 379.258 77.3076 379.4 76.9076 379.4ZM76.9576 390.4C76.5576 390.4 76.2159 390.258 75.9326 389.975C75.6493 389.692 75.5076 389.35 75.5076 388.95C75.5076 388.533 75.6493 388.183 75.9326 387.9C76.2326 387.617 76.5743 387.475 76.9576 387.475C77.3576 387.475 77.6993 387.625 77.9826 387.925C78.2659 388.208 78.4076 388.55 78.4076 388.95C78.4076 389.333 78.2659 389.675 77.9826 389.975C77.7159 390.258 77.3743 390.4 76.9576 390.4ZM81.7904 379.4C81.3904 379.4 81.0404 379.267 80.7404 379C80.4571 378.717 80.3154 378.367 80.3154 377.95C80.3154 377.533 80.4571 377.183 80.7404 376.9C81.0238 376.617 81.3738 376.475 81.7904 376.475C82.1904 376.475 82.5238 376.625 82.7904 376.925C83.0738 377.208 83.2154 377.55 83.2154 377.95C83.2154 378.35 83.0738 378.692 82.7904 378.975C82.5238 379.258 82.1904 379.4 81.7904 379.4ZM81.8404 390.4C81.4404 390.4 81.0988 390.258 80.8154 389.975C80.5321 389.692 80.3904 389.35 80.3904 388.95C80.3904 388.533 80.5321 388.183 80.8154 387.9C81.1154 387.617 81.4571 387.475 81.8404 387.475C82.2404 387.475 82.5821 387.625 82.8654 387.925C83.1488 388.208 83.2904 388.55 83.2904 388.95C83.2904 389.333 83.1488 389.675 82.8654 389.975C82.5988 390.258 82.2571 390.4 81.8404 390.4ZM91.4482 390.125C90.4649 390.125 89.4899 389.958 88.5232 389.625C87.5566 389.292 86.7732 388.792 86.1732 388.125C85.9899 387.925 85.9149 387.7 85.9482 387.45C85.9816 387.2 86.1066 386.983 86.3232 386.8C86.5566 386.633 86.7982 386.567 87.0482 386.6C87.2982 386.633 87.5066 386.742 87.6732 386.925C88.0732 387.392 88.5982 387.75 89.2482 388C89.9149 388.25 90.6482 388.375 91.4482 388.375C92.6816 388.375 93.5732 388.167 94.1232 387.75C94.6732 387.317 94.9566 386.8 94.9732 386.2C94.9732 385.6 94.6899 385.108 94.1232 384.725C93.5566 384.325 92.6232 384.017 91.3232 383.8C89.6399 383.533 88.4066 383.067 87.6232 382.4C86.8399 381.733 86.4482 380.942 86.4482 380.025C86.4482 379.175 86.6732 378.467 87.1232 377.9C87.5732 377.333 88.1732 376.908 88.9232 376.625C89.6732 376.342 90.4982 376.2 91.3982 376.2C92.5149 376.2 93.4732 376.392 94.2732 376.775C95.0899 377.158 95.7482 377.675 96.2482 378.325C96.4149 378.542 96.4816 378.767 96.4482 379C96.4149 379.233 96.2816 379.425 96.0482 379.575C95.8482 379.692 95.6149 379.733 95.3482 379.7C95.0982 379.65 94.8816 379.525 94.6982 379.325C94.2816 378.842 93.7982 378.492 93.2482 378.275C92.6982 378.042 92.0649 377.925 91.3482 377.925C90.4316 377.925 89.6982 378.117 89.1482 378.5C88.5982 378.867 88.3232 379.333 88.3232 379.9C88.3232 380.283 88.4232 380.617 88.6232 380.9C88.8399 381.183 89.1982 381.433 89.6982 381.65C90.2149 381.867 90.9316 382.05 91.8482 382.2C93.0982 382.4 94.0816 382.7 94.7982 383.1C95.5316 383.483 96.0482 383.942 96.3482 384.475C96.6649 384.992 96.8232 385.558 96.8232 386.175C96.8232 386.958 96.5899 387.65 96.1232 388.25C95.6732 388.833 95.0399 389.292 94.2232 389.625C93.4232 389.958 92.4982 390.125 91.4482 390.125ZM105.5 390C104.616 390 103.825 389.792 103.125 389.375C102.441 388.958 101.9 388.392 101.5 387.675C101.1 386.942 100.9 386.108 100.9 385.175V372.95C100.9 372.667 100.983 372.433 101.15 372.25C101.333 372.067 101.566 371.975 101.85 371.975C102.133 371.975 102.366 372.067 102.55 372.25C102.733 372.433 102.825 372.667 102.825 372.95V385.175C102.825 386.025 103.075 386.725 103.575 387.275C104.075 387.808 104.716 388.075 105.5 388.075H106.175C106.441 388.075 106.658 388.167 106.825 388.35C106.991 388.533 107.075 388.767 107.075 389.05C107.075 389.333 106.975 389.567 106.775 389.75C106.575 389.917 106.325 390 106.025 390H105.5ZM99.2748 378.5C99.0248 378.5 98.8165 378.425 98.6498 378.275C98.4831 378.108 98.3998 377.908 98.3998 377.675C98.3998 377.425 98.4831 377.225 98.6498 377.075C98.8165 376.908 99.0248 376.825 99.2748 376.825H105.65C105.9 376.825 106.108 376.908 106.275 377.075C106.441 377.225 106.525 377.425 106.525 377.675C106.525 377.908 106.441 378.108 106.275 378.275C106.108 378.425 105.9 378.5 105.65 378.5H99.2748ZM111.008 381.575C111.058 380.542 111.325 379.617 111.808 378.8C112.308 377.983 112.95 377.342 113.733 376.875C114.533 376.408 115.417 376.175 116.383 376.175C117.15 376.175 117.742 376.283 118.158 376.5C118.575 376.717 118.733 377.033 118.633 377.45C118.567 377.7 118.45 377.867 118.283 377.95C118.133 378.033 117.942 378.067 117.708 378.05C117.492 378.033 117.242 378.017 116.958 378C116.025 377.917 115.192 378.017 114.458 378.3C113.742 378.567 113.167 378.983 112.733 379.55C112.317 380.117 112.108 380.792 112.108 381.575H111.008ZM111.158 390C110.858 390 110.625 389.917 110.458 389.75C110.292 389.583 110.208 389.35 110.208 389.05V377.275C110.208 376.975 110.292 376.742 110.458 376.575C110.625 376.408 110.858 376.325 111.158 376.325C111.458 376.325 111.692 376.408 111.858 376.575C112.025 376.742 112.108 376.975 112.108 377.275V389.05C112.108 389.35 112.025 389.583 111.858 389.75C111.692 389.917 111.458 390 111.158 390ZM123.034 390C122.734 390 122.492 389.917 122.309 389.75C122.142 389.567 122.059 389.325 122.059 389.025V377.3C122.059 377 122.142 376.767 122.309 376.6C122.492 376.417 122.734 376.325 123.034 376.325C123.317 376.325 123.542 376.417 123.709 376.6C123.892 376.767 123.984 377 123.984 377.3V389.025C123.984 389.325 123.892 389.567 123.709 389.75C123.542 389.917 123.317 390 123.034 390ZM123.009 373.725C122.642 373.725 122.325 373.592 122.059 373.325C121.792 373.058 121.659 372.733 121.659 372.35C121.659 371.933 121.792 371.608 122.059 371.375C122.342 371.125 122.667 371 123.034 371C123.384 371 123.692 371.125 123.959 371.375C124.242 371.608 124.384 371.933 124.384 372.35C124.384 372.733 124.25 373.058 123.984 373.325C123.717 373.592 123.392 373.725 123.009 373.725ZM140.61 390C140.327 390 140.093 389.908 139.91 389.725C139.727 389.542 139.635 389.317 139.635 389.05V382.55C139.635 381.517 139.435 380.667 139.035 380C138.652 379.333 138.118 378.833 137.435 378.5C136.768 378.167 136.01 378 135.16 378C134.343 378 133.602 378.158 132.935 378.475C132.285 378.792 131.768 379.225 131.385 379.775C131.002 380.325 130.81 380.95 130.81 381.65H129.435C129.468 380.6 129.752 379.667 130.285 378.85C130.818 378.017 131.527 377.367 132.41 376.9C133.293 376.417 134.277 376.175 135.36 376.175C136.543 376.175 137.602 376.425 138.535 376.925C139.468 377.408 140.202 378.125 140.735 379.075C141.285 380.025 141.56 381.183 141.56 382.55V389.05C141.56 389.317 141.468 389.542 141.285 389.725C141.102 389.908 140.877 390 140.61 390ZM129.86 390C129.56 390 129.318 389.917 129.135 389.75C128.968 389.567 128.885 389.333 128.885 389.05V377.3C128.885 377 128.968 376.767 129.135 376.6C129.318 376.417 129.56 376.325 129.86 376.325C130.143 376.325 130.368 376.417 130.535 376.6C130.718 376.767 130.81 377 130.81 377.3V389.05C130.81 389.333 130.718 389.567 130.535 389.75C130.368 389.917 130.143 390 129.86 390ZM151.829 390.125C150.512 390.125 149.346 389.833 148.329 389.25C147.312 388.65 146.512 387.825 145.929 386.775C145.362 385.725 145.079 384.525 145.079 383.175C145.079 381.808 145.379 380.6 145.979 379.55C146.579 378.5 147.404 377.683 148.454 377.1C149.504 376.5 150.696 376.2 152.029 376.2C153.379 376.2 154.571 376.5 155.604 377.1C156.654 377.683 157.471 378.5 158.054 379.55C158.654 380.6 158.962 381.808 158.979 383.175L157.854 383.775C157.854 385.008 157.596 386.108 157.079 387.075C156.562 388.025 155.846 388.775 154.929 389.325C154.029 389.858 152.996 390.125 151.829 390.125ZM152.079 395.4C150.762 395.4 149.604 395.15 148.604 394.65C147.604 394.167 146.779 393.5 146.129 392.65C145.946 392.45 145.862 392.233 145.879 392C145.912 391.767 146.037 391.575 146.254 391.425C146.471 391.275 146.712 391.225 146.979 391.275C147.246 391.325 147.454 391.45 147.604 391.65C148.087 392.25 148.704 392.733 149.454 393.1C150.221 393.467 151.104 393.65 152.104 393.65C153.037 393.65 153.879 393.425 154.629 392.975C155.379 392.525 155.971 391.892 156.404 391.075C156.854 390.258 157.079 389.3 157.079 388.2V384.4L157.804 382.95L158.979 383.175V388.275C158.979 389.625 158.679 390.833 158.079 391.9C157.479 392.983 156.662 393.833 155.629 394.45C154.596 395.083 153.412 395.4 152.079 395.4ZM152.029 388.375C153.012 388.375 153.879 388.158 154.629 387.725C155.396 387.275 155.996 386.658 156.429 385.875C156.862 385.092 157.079 384.192 157.079 383.175C157.079 382.158 156.862 381.258 156.429 380.475C155.996 379.675 155.396 379.058 154.629 378.625C153.879 378.175 153.012 377.95 152.029 377.95C151.046 377.95 150.171 378.175 149.404 378.625C148.637 379.058 148.037 379.675 147.604 380.475C147.171 381.258 146.954 382.158 146.954 383.175C146.954 384.192 147.171 385.092 147.604 385.875C148.037 386.658 148.637 387.275 149.404 387.725C150.171 388.158 151.046 388.375 152.029 388.375ZM176.272 390.125C174.956 390.125 173.772 389.825 172.722 389.225C171.672 388.608 170.839 387.775 170.222 386.725C169.622 385.675 169.322 384.483 169.322 383.15C169.322 381.833 169.614 380.65 170.197 379.6C170.797 378.55 171.606 377.725 172.622 377.125C173.639 376.508 174.789 376.2 176.072 376.2C177.189 376.2 178.197 376.442 179.097 376.925C179.997 377.392 180.722 378.017 181.272 378.8V371.45C181.272 371.15 181.364 370.917 181.547 370.75C181.731 370.567 181.964 370.475 182.247 370.475C182.531 370.475 182.764 370.567 182.947 370.75C183.131 370.917 183.222 371.15 183.222 371.45V383.25C183.189 384.55 182.864 385.725 182.247 386.775C181.647 387.808 180.822 388.625 179.772 389.225C178.739 389.825 177.572 390.125 176.272 390.125ZM176.272 388.375C177.239 388.375 178.097 388.15 178.847 387.7C179.614 387.233 180.214 386.608 180.647 385.825C181.097 385.042 181.322 384.15 181.322 383.15C181.322 382.167 181.097 381.283 180.647 380.5C180.214 379.7 179.614 379.075 178.847 378.625C178.097 378.175 177.239 377.95 176.272 377.95C175.322 377.95 174.464 378.175 173.697 378.625C172.931 379.075 172.322 379.7 171.872 380.5C171.422 381.283 171.197 382.167 171.197 383.15C171.197 384.15 171.422 385.042 171.872 385.825C172.322 386.608 172.931 387.233 173.697 387.7C174.464 388.15 175.322 388.375 176.272 388.375ZM193.748 390.125C192.465 390.125 191.315 389.825 190.298 389.225C189.281 388.608 188.473 387.775 187.873 386.725C187.29 385.675 186.998 384.492 186.998 383.175C186.998 381.842 187.298 380.65 187.898 379.6C188.515 378.55 189.348 377.725 190.398 377.125C191.448 376.508 192.631 376.2 193.948 376.2C195.265 376.2 196.44 376.508 197.473 377.125C198.523 377.725 199.348 378.55 199.948 379.6C200.565 380.65 200.881 381.842 200.898 383.175L200.123 383.775C200.123 384.975 199.84 386.058 199.273 387.025C198.723 387.975 197.965 388.733 196.998 389.3C196.048 389.85 194.965 390.125 193.748 390.125ZM193.948 388.375C194.915 388.375 195.773 388.15 196.523 387.7C197.29 387.25 197.89 386.633 198.323 385.85C198.773 385.05 198.998 384.158 198.998 383.175C198.998 382.175 198.773 381.283 198.323 380.5C197.89 379.717 197.29 379.1 196.523 378.65C195.773 378.183 194.915 377.95 193.948 377.95C192.998 377.95 192.14 378.183 191.373 378.65C190.606 379.1 189.998 379.717 189.548 380.5C189.098 381.283 188.873 382.175 188.873 383.175C188.873 384.158 189.098 385.05 189.548 385.85C189.998 386.633 190.606 387.25 191.373 387.7C192.14 388.15 192.998 388.375 193.948 388.375ZM199.923 390C199.64 390 199.406 389.917 199.223 389.75C199.04 389.567 198.948 389.333 198.948 389.05V384.775L199.423 382.8L200.898 383.175V389.05C200.898 389.333 200.806 389.567 200.623 389.75C200.44 389.917 200.206 390 199.923 390ZM209.992 390C209.109 390 208.317 389.792 207.617 389.375C206.934 388.958 206.392 388.392 205.992 387.675C205.592 386.942 205.392 386.108 205.392 385.175V372.95C205.392 372.667 205.475 372.433 205.642 372.25C205.825 372.067 206.059 371.975 206.342 371.975C206.625 371.975 206.859 372.067 207.042 372.25C207.225 372.433 207.317 372.667 207.317 372.95V385.175C207.317 386.025 207.567 386.725 208.067 387.275C208.567 387.808 209.209 388.075 209.992 388.075H210.667C210.934 388.075 211.15 388.167 211.317 388.35C211.484 388.533 211.567 388.767 211.567 389.05C211.567 389.333 211.467 389.567 211.267 389.75C211.067 389.917 210.817 390 210.517 390H209.992ZM203.767 378.5C203.517 378.5 203.309 378.425 203.142 378.275C202.975 378.108 202.892 377.908 202.892 377.675C202.892 377.425 202.975 377.225 203.142 377.075C203.309 376.908 203.517 376.825 203.767 376.825H210.142C210.392 376.825 210.6 376.908 210.767 377.075C210.934 377.225 211.017 377.425 211.017 377.675C211.017 377.908 210.934 378.108 210.767 378.275C210.6 378.425 210.392 378.5 210.142 378.5H203.767ZM220.726 390.125C219.442 390.125 218.292 389.825 217.276 389.225C216.259 388.608 215.451 387.775 214.851 386.725C214.267 385.675 213.976 384.492 213.976 383.175C213.976 381.842 214.276 380.65 214.876 379.6C215.492 378.55 216.326 377.725 217.376 377.125C218.426 376.508 219.609 376.2 220.926 376.2C222.242 376.2 223.417 376.508 224.451 377.125C225.501 377.725 226.326 378.55 226.926 379.6C227.542 380.65 227.859 381.842 227.876 383.175L227.101 383.775C227.101 384.975 226.817 386.058 226.251 387.025C225.701 387.975 224.942 388.733 223.976 389.3C223.026 389.85 221.942 390.125 220.726 390.125ZM220.926 388.375C221.892 388.375 222.751 388.15 223.501 387.7C224.267 387.25 224.867 386.633 225.301 385.85C225.751 385.05 225.976 384.158 225.976 383.175C225.976 382.175 225.751 381.283 225.301 380.5C224.867 379.717 224.267 379.1 223.501 378.65C222.751 378.183 221.892 377.95 220.926 377.95C219.976 377.95 219.117 378.183 218.351 378.65C217.584 379.1 216.976 379.717 216.526 380.5C216.076 381.283 215.851 382.175 215.851 383.175C215.851 384.158 216.076 385.05 216.526 385.85C216.976 386.633 217.584 387.25 218.351 387.7C219.117 388.15 219.976 388.375 220.926 388.375ZM226.901 390C226.617 390 226.384 389.917 226.201 389.75C226.017 389.567 225.926 389.333 225.926 389.05V384.775L226.401 382.8L227.876 383.175V389.05C227.876 389.333 227.784 389.567 227.601 389.75C227.417 389.917 227.184 390 226.901 390ZM231.395 394.05C231.228 394.05 231.095 394 230.995 393.9C230.911 393.817 230.87 393.7 230.87 393.55C230.87 393.3 230.945 393.067 231.095 392.85C231.245 392.65 231.395 392.433 231.545 392.2C231.711 391.967 231.795 391.683 231.795 391.35C231.795 391.05 231.736 390.8 231.62 390.6C231.503 390.4 231.361 390.217 231.195 390.05C231.045 389.9 230.911 389.733 230.795 389.55C230.678 389.35 230.62 389.108 230.62 388.825C230.62 388.408 230.753 388.075 231.02 387.825C231.303 387.575 231.653 387.45 232.07 387.45C232.57 387.45 232.978 387.65 233.295 388.05C233.611 388.433 233.77 388.975 233.77 389.675C233.77 390.142 233.703 390.633 233.57 391.15C233.436 391.667 233.253 392.142 233.02 392.575C232.786 393.025 232.528 393.383 232.245 393.65C231.961 393.917 231.678 394.05 231.395 394.05ZM231.67 379.4C231.27 379.4 230.92 379.267 230.62 379C230.336 378.717 230.195 378.367 230.195 377.95C230.195 377.533 230.336 377.183 230.62 376.9C230.903 376.617 231.253 376.475 231.67 376.475C232.07 376.475 232.403 376.625 232.67 376.925C232.953 377.208 233.095 377.55 233.095 377.95C233.095 378.35 232.953 378.692 232.67 378.975C232.403 379.258 232.07 379.4 231.67 379.4Z" fill="white"/>
<path d="M242.636 41.68C242.476 41.68 242.336 41.64 242.216 41.56C242.096 41.48 241.989 41.3467 241.896 41.16C241.109 39.5467 240.523 37.94 240.136 36.34C239.749 34.7267 239.556 33.1133 239.556 31.5C239.556 29.8867 239.749 28.28 240.136 26.68C240.523 25.08 241.109 23.48 241.896 21.88C242.056 21.5333 242.303 21.36 242.636 21.36C242.849 21.36 243.029 21.4333 243.176 21.58C243.323 21.7267 243.396 21.9067 243.396 22.12C243.396 22.28 243.356 22.4267 243.276 22.56C241.809 25.5333 241.076 28.52 241.076 31.52C241.076 33.0133 241.263 34.5133 241.636 36.02C242.009 37.5267 242.563 39.02 243.296 40.5C243.376 40.66 243.416 40.8 243.416 40.92C243.416 41.1333 243.343 41.3133 243.196 41.46C243.049 41.6067 242.863 41.68 242.636 41.68ZM252.573 37C252.373 37 252.2 36.9267 252.053 36.78C251.907 36.6333 251.833 36.4467 251.833 36.22V33.26H244.673C244.46 33.26 244.28 33.1933 244.133 33.06C244 32.9133 243.92 32.7467 243.893 32.56C243.88 32.3733 243.933 32.2 244.053 32.04L251.973 21.68C252.04 21.5867 252.12 21.5133 252.213 21.46C252.32 21.3933 252.453 21.36 252.613 21.36C252.827 21.36 253 21.44 253.133 21.6C253.28 21.7467 253.353 21.9333 253.353 22.16V31.86H254.933C255.147 31.86 255.327 31.9133 255.473 32.02C255.62 32.1267 255.693 32.3133 255.693 32.58C255.693 32.7533 255.62 32.9133 255.473 33.06C255.327 33.1933 255.147 33.26 254.933 33.26H253.353V36.22C253.353 36.4467 253.28 36.6333 253.133 36.78C252.987 36.9267 252.8 37 252.573 37ZM245.513 32.46L245.233 31.86H251.833V23.28L252.233 23.7L245.513 32.46ZM262.503 37.08C261.609 37.08 260.809 36.8733 260.103 36.46C259.396 36.0333 258.836 35.46 258.423 34.74C258.023 34.02 257.823 33.2067 257.823 32.3C257.823 31.42 258.023 30.6333 258.423 29.94C258.836 29.2467 259.396 28.7 260.103 28.3C260.809 27.9 261.609 27.7 262.503 27.7C263.396 27.7 264.196 27.9 264.903 28.3C265.609 28.7 266.163 29.2467 266.562 29.94C266.963 30.6333 267.163 31.42 267.163 32.3C267.149 33.2067 266.936 34.02 266.523 34.74C266.123 35.46 265.569 36.0333 264.863 36.46C264.169 36.8733 263.383 37.08 262.503 37.08ZM262.503 35.68C263.089 35.68 263.616 35.5333 264.083 35.24C264.549 34.9333 264.916 34.5267 265.183 34.02C265.463 33.5133 265.603 32.94 265.603 32.3C265.603 31.6867 265.469 31.14 265.203 30.66C264.936 30.1667 264.569 29.78 264.103 29.5C263.636 29.22 263.103 29.08 262.503 29.08C261.903 29.08 261.369 29.22 260.903 29.5C260.436 29.78 260.063 30.1667 259.783 30.66C259.516 31.14 259.383 31.6867 259.383 32.3C259.383 32.94 259.516 33.5133 259.783 34.02C260.049 34.5267 260.416 34.9333 260.883 35.24C261.363 35.5333 261.903 35.68 262.503 35.68ZM262.503 28.94C261.769 28.94 261.109 28.7733 260.523 28.44C259.936 28.1067 259.476 27.6533 259.143 27.08C258.809 26.5067 258.643 25.8533 258.643 25.12C258.643 24.4133 258.809 23.7733 259.143 23.2C259.476 22.6267 259.936 22.1733 260.523 21.84C261.109 21.5067 261.769 21.34 262.503 21.34C263.236 21.3267 263.896 21.4867 264.483 21.82C265.069 22.14 265.529 22.5933 265.863 23.18C266.196 23.7533 266.356 24.4 266.343 25.12C266.343 25.8533 266.169 26.5067 265.823 27.08C265.489 27.6533 265.029 28.1067 264.443 28.44C263.869 28.7733 263.223 28.94 262.503 28.94ZM262.503 27.6C262.943 27.6 263.336 27.4933 263.683 27.28C264.043 27.0533 264.329 26.7533 264.543 26.38C264.756 25.9933 264.863 25.5667 264.863 25.1C264.876 24.6467 264.776 24.2467 264.563 23.9C264.363 23.54 264.083 23.26 263.723 23.06C263.363 22.86 262.956 22.76 262.503 22.76C261.823 22.76 261.256 22.9867 260.803 23.44C260.363 23.88 260.136 24.4333 260.123 25.1C260.109 25.8067 260.329 26.4 260.783 26.88C261.236 27.36 261.809 27.6 262.503 27.6ZM281.617 37.1C280.577 37.1 279.637 36.86 278.797 36.38C277.971 35.9 277.311 35.2467 276.817 34.42C276.337 33.58 276.091 32.64 276.077 31.6V22.16C276.077 21.92 276.144 21.7333 276.277 21.6C276.424 21.4533 276.617 21.38 276.857 21.38C277.084 21.38 277.264 21.4533 277.397 21.6C277.544 21.7333 277.617 21.92 277.617 22.16V28.04C278.057 27.4133 278.637 26.9133 279.357 26.54C280.091 26.1533 280.904 25.96 281.797 25.96C282.824 25.96 283.744 26.2067 284.557 26.7C285.371 27.18 286.011 27.84 286.477 28.68C286.957 29.52 287.197 30.4667 287.197 31.52C287.197 32.5867 286.951 33.54 286.457 34.38C285.977 35.22 285.317 35.8867 284.477 36.38C283.637 36.86 282.684 37.1 281.617 37.1ZM281.617 35.7C282.391 35.7 283.084 35.52 283.697 35.16C284.311 34.7867 284.791 34.2867 285.137 33.66C285.497 33.0333 285.677 32.32 285.677 31.52C285.677 30.7333 285.497 30.0267 285.137 29.4C284.791 28.76 284.311 28.26 283.697 27.9C283.084 27.54 282.391 27.36 281.617 27.36C280.857 27.36 280.171 27.54 279.557 27.9C278.944 28.26 278.464 28.76 278.117 29.4C277.771 30.0267 277.597 30.7333 277.597 31.52C277.597 32.32 277.771 33.0333 278.117 33.66C278.464 34.2867 278.944 34.7867 279.557 35.16C280.171 35.52 280.857 35.7 281.617 35.7ZM291.493 41.76C291.386 41.76 291.266 41.7333 291.133 41.68C290.679 41.48 290.552 41.16 290.752 40.72L297.213 26.48C297.413 26.0533 297.733 25.9333 298.173 26.12C298.626 26.3067 298.753 26.62 298.553 27.06L292.073 41.3C291.939 41.6067 291.746 41.76 291.493 41.76ZM293.713 36.66C293.513 36.7533 293.326 36.7733 293.153 36.72C292.979 36.6533 292.839 36.52 292.733 36.32L288.273 27.08C288.179 26.88 288.166 26.6933 288.233 26.52C288.299 26.3467 288.433 26.2133 288.633 26.12C288.833 26.0267 289.019 26.0133 289.193 26.08C289.366 26.1333 289.499 26.26 289.593 26.46L293.973 35.7C294.079 35.9 294.113 36.0867 294.073 36.26C294.033 36.4333 293.913 36.5667 293.713 36.66ZM304.85 37C304.143 37 303.51 36.8333 302.95 36.5C302.403 36.1667 301.97 35.7133 301.65 35.14C301.33 34.5533 301.17 33.8867 301.17 33.14V23.36C301.17 23.1333 301.236 22.9467 301.37 22.8C301.516 22.6533 301.703 22.58 301.93 22.58C302.156 22.58 302.343 22.6533 302.49 22.8C302.636 22.9467 302.71 23.1333 302.71 23.36V33.14C302.71 33.82 302.91 34.38 303.31 34.82C303.71 35.2467 304.223 35.46 304.85 35.46H305.39C305.603 35.46 305.776 35.5333 305.91 35.68C306.043 35.8267 306.11 36.0133 306.11 36.24C306.11 36.4667 306.03 36.6533 305.87 36.8C305.71 36.9333 305.51 37 305.27 37H304.85ZM299.87 27.8C299.67 27.8 299.503 27.74 299.37 27.62C299.236 27.4867 299.17 27.3267 299.17 27.14C299.17 26.94 299.236 26.78 299.37 26.66C299.503 26.5267 299.67 26.46 299.87 26.46H304.97C305.17 26.46 305.336 26.5267 305.47 26.66C305.603 26.78 305.67 26.94 305.67 27.14C305.67 27.3267 305.603 27.4867 305.47 27.62C305.336 27.74 305.17 27.8 304.97 27.8H299.87ZM313.576 37.1C312.496 37.1 311.536 36.8667 310.696 36.4C309.87 35.92 309.216 35.26 308.736 34.42C308.27 33.58 308.036 32.62 308.036 31.54C308.036 30.4467 308.256 29.4867 308.696 28.66C309.15 27.82 309.77 27.16 310.556 26.68C311.343 26.2 312.25 25.96 313.276 25.96C314.29 25.96 315.17 26.1933 315.916 26.66C316.676 27.1133 317.263 27.7467 317.676 28.56C318.09 29.3733 318.296 30.3 318.296 31.34C318.296 31.5533 318.23 31.7267 318.096 31.86C317.963 31.98 317.79 32.04 317.576 32.04H309.076V30.76H317.736L316.876 31.38C316.89 30.6067 316.75 29.9133 316.456 29.3C316.163 28.6867 315.743 28.2067 315.196 27.86C314.663 27.5133 314.023 27.34 313.276 27.34C312.516 27.34 311.85 27.52 311.276 27.88C310.703 28.24 310.256 28.74 309.936 29.38C309.63 30.0067 309.476 30.7267 309.476 31.54C309.476 32.3533 309.65 33.0733 309.996 33.7C310.356 34.3267 310.843 34.82 311.456 35.18C312.07 35.54 312.776 35.72 313.576 35.72C314.056 35.72 314.536 35.64 315.016 35.48C315.51 35.3067 315.903 35.0933 316.196 34.84C316.343 34.72 316.51 34.66 316.696 34.66C316.883 34.6467 317.043 34.6933 317.176 34.8C317.35 34.96 317.436 35.1333 317.436 35.32C317.45 35.5067 317.376 35.6667 317.216 35.8C316.776 36.1733 316.216 36.4867 315.536 36.74C314.856 36.98 314.203 37.1 313.576 37.1ZM324.722 37.1C323.935 37.1 323.155 36.9667 322.382 36.7C321.608 36.4333 320.982 36.0333 320.502 35.5C320.355 35.34 320.295 35.16 320.322 34.96C320.348 34.76 320.448 34.5867 320.622 34.44C320.808 34.3067 321.002 34.2533 321.202 34.28C321.402 34.3067 321.568 34.3933 321.702 34.54C322.022 34.9133 322.442 35.2 322.962 35.4C323.495 35.6 324.082 35.7 324.722 35.7C325.708 35.7 326.422 35.5333 326.862 35.2C327.302 34.8533 327.528 34.44 327.542 33.96C327.542 33.48 327.315 33.0867 326.862 32.78C326.408 32.46 325.662 32.2133 324.622 32.04C323.275 31.8267 322.288 31.4533 321.662 30.92C321.035 30.3867 320.722 29.7533 320.722 29.02C320.722 28.34 320.902 27.7733 321.262 27.32C321.622 26.8667 322.102 26.5267 322.702 26.3C323.302 26.0733 323.962 25.96 324.682 25.96C325.575 25.96 326.342 26.1133 326.982 26.42C327.635 26.7267 328.162 27.14 328.562 27.66C328.695 27.8333 328.748 28.0133 328.722 28.2C328.695 28.3867 328.588 28.54 328.402 28.66C328.242 28.7533 328.055 28.7867 327.842 28.76C327.642 28.72 327.468 28.62 327.322 28.46C326.988 28.0733 326.602 27.7933 326.162 27.62C325.722 27.4333 325.215 27.34 324.642 27.34C323.908 27.34 323.322 27.4933 322.882 27.8C322.442 28.0933 322.222 28.4667 322.222 28.92C322.222 29.2267 322.302 29.4933 322.462 29.72C322.635 29.9467 322.922 30.1467 323.322 30.32C323.735 30.4933 324.308 30.64 325.042 30.76C326.042 30.92 326.828 31.16 327.402 31.48C327.988 31.7867 328.402 32.1533 328.642 32.58C328.895 32.9933 329.022 33.4467 329.022 33.94C329.022 34.5667 328.835 35.12 328.462 35.6C328.102 36.0667 327.595 36.4333 326.942 36.7C326.302 36.9667 325.562 37.1 324.722 37.1ZM330.863 41.68C330.649 41.68 330.469 41.6067 330.323 41.46C330.176 41.3133 330.103 41.1333 330.103 40.92C330.103 40.8 330.136 40.66 330.203 40.5C330.936 39.02 331.489 37.5267 331.863 36.02C332.249 34.5133 332.443 33.0133 332.443 31.52C332.443 28.52 331.703 25.5333 330.223 22.56C330.156 22.4267 330.116 22.28 330.103 22.12C330.103 21.9067 330.176 21.7267 330.323 21.58C330.483 21.4333 330.663 21.36 330.863 21.36C331.209 21.36 331.463 21.5333 331.623 21.88C332.409 23.48 332.996 25.08 333.383 26.68C333.769 28.28 333.963 29.8867 333.963 31.5C333.963 33.1133 333.763 34.7267 333.363 36.34C332.976 37.94 332.396 39.5467 331.623 41.16C331.516 41.3467 331.403 41.48 331.283 41.56C331.176 41.64 331.036 41.68 330.863 41.68Z" fill="white"/>
</svg>
