<svg width="300" height="462" viewBox="0 0 300 462" fill="none" xmlns="http://www.w3.org/2000/svg">
<rect width="300" height="462" rx="5" fill="#363636"/>
<path d="M8.625 44.85C8.34167 44.85 8.10833 44.7583 7.925 44.575C7.74167 44.4083 7.65 44.175 7.65 43.875C7.65 43.5917 7.74167 43.3583 7.925 43.175C8.10833 42.9917 8.34167 42.9 8.625 42.9C9.39167 42.9 10.0667 42.7333 10.65 42.4C11.2333 42.0667 11.6917 41.6083 12.025 41.025C12.375 40.4417 12.55 39.7667 12.55 39V26.3C12.55 26 12.6333 25.7667 12.8 25.6C12.9833 25.4167 13.2167 25.325 13.5 25.325C13.7833 25.325 14.0167 25.4167 14.2 25.6C14.3833 25.7667 14.475 26 14.475 26.3V39C14.475 40.1333 14.225 41.1417 13.725 42.025C13.225 42.9083 12.5333 43.6 11.65 44.1C10.7667 44.6 9.75833 44.85 8.625 44.85ZM13.475 22.725C13.1083 22.725 12.7917 22.5917 12.525 22.325C12.2583 22.0583 12.125 21.7333 12.125 21.35C12.125 20.9333 12.2583 20.6083 12.525 20.375C12.8083 20.125 13.1333 20 13.5 20C13.85 20 14.1583 20.125 14.425 20.375C14.7083 20.6083 14.85 20.9333 14.85 21.35C14.85 21.7333 14.7167 22.0583 14.45 22.325C14.1833 22.5917 13.8583 22.725 13.475 22.725ZM24.4029 39.125C23.1196 39.125 21.9696 38.825 20.9529 38.225C19.9363 37.6083 19.1279 36.775 18.5279 35.725C17.9446 34.675 17.6529 33.4917 17.6529 32.175C17.6529 30.8417 17.9529 29.65 18.5529 28.6C19.1696 27.55 20.0029 26.725 21.0529 26.125C22.1029 25.5083 23.2863 25.2 24.6029 25.2C25.9196 25.2 27.0946 25.5083 28.1279 26.125C29.1779 26.725 30.0029 27.55 30.6029 28.6C31.2196 29.65 31.5363 30.8417 31.5529 32.175L30.7779 32.775C30.7779 33.975 30.4946 35.0583 29.9279 36.025C29.3779 36.975 28.6196 37.7333 27.6529 38.3C26.7029 38.85 25.6196 39.125 24.4029 39.125ZM24.6029 37.375C25.5696 37.375 26.4279 37.15 27.1779 36.7C27.9446 36.25 28.5446 35.6333 28.9779 34.85C29.4279 34.05 29.6529 33.1583 29.6529 32.175C29.6529 31.175 29.4279 30.2833 28.9779 29.5C28.5446 28.7167 27.9446 28.1 27.1779 27.65C26.4279 27.1833 25.5696 26.95 24.6029 26.95C23.6529 26.95 22.7946 27.1833 22.0279 27.65C21.2613 28.1 20.6529 28.7167 20.2029 29.5C19.7529 30.2833 19.5279 31.175 19.5279 32.175C19.5279 33.1583 19.7529 34.05 20.2029 34.85C20.6529 35.6333 21.2613 36.25 22.0279 36.7C22.7946 37.15 23.6529 37.375 24.6029 37.375ZM30.5779 39C30.2946 39 30.0613 38.9167 29.8779 38.75C29.6946 38.5667 29.6029 38.3333 29.6029 38.05V33.775L30.0779 31.8L31.5529 32.175V38.05C31.5529 38.3333 31.4613 38.5667 31.2779 38.75C31.0946 38.9167 30.8613 39 30.5779 39ZM47.0219 39C46.7385 39 46.5052 38.9083 46.3219 38.725C46.1385 38.5417 46.0469 38.3167 46.0469 38.05V31.55C46.0469 30.5167 45.8469 29.6667 45.4469 29C45.0635 28.3333 44.5302 27.8333 43.8469 27.5C43.1802 27.1667 42.4219 27 41.5719 27C40.7552 27 40.0135 27.1583 39.3469 27.475C38.6969 27.7917 38.1802 28.225 37.7969 28.775C37.4135 29.325 37.2219 29.95 37.2219 30.65H35.8469C35.8802 29.6 36.1635 28.6667 36.6969 27.85C37.2302 27.0167 37.9385 26.3667 38.8219 25.9C39.7052 25.4167 40.6885 25.175 41.7719 25.175C42.9552 25.175 44.0135 25.425 44.9469 25.925C45.8802 26.4083 46.6135 27.125 47.1469 28.075C47.6969 29.025 47.9719 30.1833 47.9719 31.55V38.05C47.9719 38.3167 47.8802 38.5417 47.6969 38.725C47.5135 38.9083 47.2885 39 47.0219 39ZM36.2719 39C35.9719 39 35.7302 38.9167 35.5469 38.75C35.3802 38.5667 35.2969 38.3333 35.2969 38.05V26.3C35.2969 26 35.3802 25.7667 35.5469 25.6C35.7302 25.4167 35.9719 25.325 36.2719 25.325C36.5552 25.325 36.7802 25.4167 36.9469 25.6C37.1302 25.7667 37.2219 26 37.2219 26.3V38.05C37.2219 38.3333 37.1302 38.5667 36.9469 38.75C36.7802 38.9167 36.5552 39 36.2719 39ZM53.7908 34.425L52.6158 33.15L61.1658 25.425C61.3658 25.2417 61.5742 25.1583 61.7908 25.175C62.0075 25.175 62.2075 25.275 62.3908 25.475C62.5742 25.675 62.6575 25.8917 62.6408 26.125C62.6408 26.3417 62.5408 26.5333 62.3408 26.7L53.7908 34.425ZM53.1658 39C52.8825 39 52.6492 38.9167 52.4658 38.75C52.2992 38.5667 52.2158 38.3333 52.2158 38.05V20.425C52.2158 20.1417 52.2992 19.9167 52.4658 19.75C52.6492 19.5667 52.8825 19.475 53.1658 19.475C53.4492 19.475 53.6742 19.5667 53.8408 19.75C54.0242 19.9167 54.1158 20.1417 54.1158 20.425V38.05C54.1158 38.3333 54.0242 38.5667 53.8408 38.75C53.6742 38.9167 53.4492 39 53.1658 39ZM62.4158 38.875C62.1992 39.0583 61.9742 39.1333 61.7408 39.1C61.5075 39.0833 61.3075 38.9667 61.1408 38.75L55.5658 31.9L56.9158 30.7L62.5408 37.625C62.7075 37.825 62.7825 38.0417 62.7658 38.275C62.7492 38.4917 62.6325 38.6917 62.4158 38.875ZM64.2975 40.95C64.0141 40.95 63.7808 40.85 63.5975 40.65C63.4141 40.4667 63.3225 40.2417 63.3225 39.975C63.3225 39.7083 63.4141 39.475 63.5975 39.275C63.7808 39.0917 64.0141 39 64.2975 39H76.2725C76.5391 39 76.7641 39.0917 76.9475 39.275C77.1308 39.475 77.2225 39.7083 77.2225 39.975C77.2225 40.2417 77.1308 40.4667 76.9475 40.65C76.7641 40.85 76.5391 40.95 76.2725 40.95H64.2975ZM83.0162 39.125C82.0329 39.125 81.0579 38.9583 80.0912 38.625C79.1245 38.2917 78.3412 37.7917 77.7412 37.125C77.5579 36.925 77.4829 36.7 77.5162 36.45C77.5495 36.2 77.6745 35.9833 77.8912 35.8C78.1245 35.6333 78.3662 35.5667 78.6162 35.6C78.8662 35.6333 79.0745 35.7417 79.2412 35.925C79.6412 36.3917 80.1662 36.75 80.8162 37C81.4829 37.25 82.2162 37.375 83.0162 37.375C84.2495 37.375 85.1412 37.1667 85.6912 36.75C86.2412 36.3167 86.5245 35.8 86.5412 35.2C86.5412 34.6 86.2579 34.1083 85.6912 33.725C85.1245 33.325 84.1912 33.0167 82.8912 32.8C81.2079 32.5333 79.9745 32.0667 79.1912 31.4C78.4079 30.7333 78.0162 29.9417 78.0162 29.025C78.0162 28.175 78.2412 27.4667 78.6912 26.9C79.1412 26.3333 79.7412 25.9083 80.4912 25.625C81.2412 25.3417 82.0662 25.2 82.9662 25.2C84.0829 25.2 85.0412 25.3917 85.8412 25.775C86.6579 26.1583 87.3162 26.675 87.8162 27.325C87.9829 27.5417 88.0495 27.7667 88.0162 28C87.9829 28.2333 87.8495 28.425 87.6162 28.575C87.4162 28.6917 87.1829 28.7333 86.9162 28.7C86.6662 28.65 86.4495 28.525 86.2662 28.325C85.8495 27.8417 85.3662 27.4917 84.8162 27.275C84.2662 27.0417 83.6329 26.925 82.9162 26.925C81.9995 26.925 81.2662 27.1167 80.7162 27.5C80.1662 27.8667 79.8912 28.3333 79.8912 28.9C79.8912 29.2833 79.9912 29.6167 80.1912 29.9C80.4079 30.1833 80.7662 30.4333 81.2662 30.65C81.7829 30.8667 82.4995 31.05 83.4162 31.2C84.6662 31.4 85.6495 31.7 86.3662 32.1C87.0995 32.4833 87.6162 32.9417 87.9162 33.475C88.2329 33.9917 88.3912 34.5583 88.3912 35.175C88.3912 35.9583 88.1579 36.65 87.6912 37.25C87.2412 37.8333 86.6079 38.2917 85.7912 38.625C84.9912 38.9583 84.0662 39.125 83.0162 39.125ZM97.0678 39C96.1844 39 95.3928 38.7917 94.6928 38.375C94.0094 37.9583 93.4678 37.3917 93.0678 36.675C92.6678 35.9417 92.4678 35.1083 92.4678 34.175V21.95C92.4678 21.6667 92.5511 21.4333 92.7178 21.25C92.9011 21.0667 93.1344 20.975 93.4178 20.975C93.7011 20.975 93.9344 21.0667 94.1178 21.25C94.3011 21.4333 94.3928 21.6667 94.3928 21.95V34.175C94.3928 35.025 94.6428 35.725 95.1428 36.275C95.6428 36.8083 96.2844 37.075 97.0678 37.075H97.7428C98.0094 37.075 98.2261 37.1667 98.3928 37.35C98.5594 37.5333 98.6428 37.7667 98.6428 38.05C98.6428 38.3333 98.5428 38.5667 98.3428 38.75C98.1428 38.9167 97.8928 39 97.5928 39H97.0678ZM90.8428 27.5C90.5928 27.5 90.3844 27.425 90.2178 27.275C90.0511 27.1083 89.9678 26.9083 89.9678 26.675C89.9678 26.425 90.0511 26.225 90.2178 26.075C90.3844 25.9083 90.5928 25.825 90.8428 25.825H97.2178C97.4678 25.825 97.6761 25.9083 97.8428 26.075C98.0094 26.225 98.0928 26.425 98.0928 26.675C98.0928 26.9083 98.0094 27.1083 97.8428 27.275C97.6761 27.425 97.4678 27.5 97.2178 27.5H90.8428ZM102.576 30.575C102.626 29.5417 102.893 28.6167 103.376 27.8C103.876 26.9833 104.518 26.3417 105.301 25.875C106.101 25.4083 106.985 25.175 107.951 25.175C108.718 25.175 109.31 25.2833 109.726 25.5C110.143 25.7167 110.301 26.0333 110.201 26.45C110.135 26.7 110.018 26.8667 109.851 26.95C109.701 27.0333 109.51 27.0667 109.276 27.05C109.06 27.0333 108.81 27.0167 108.526 27C107.593 26.9167 106.76 27.0167 106.026 27.3C105.31 27.5667 104.735 27.9833 104.301 28.55C103.885 29.1167 103.676 29.7917 103.676 30.575H102.576ZM102.726 39C102.426 39 102.193 38.9167 102.026 38.75C101.86 38.5833 101.776 38.35 101.776 38.05V26.275C101.776 25.975 101.86 25.7417 102.026 25.575C102.193 25.4083 102.426 25.325 102.726 25.325C103.026 25.325 103.26 25.4083 103.426 25.575C103.593 25.7417 103.676 25.975 103.676 26.275V38.05C103.676 38.35 103.593 38.5833 103.426 38.75C103.26 38.9167 103.026 39 102.726 39ZM114.602 39C114.302 39 114.06 38.9167 113.877 38.75C113.71 38.5667 113.627 38.325 113.627 38.025V26.3C113.627 26 113.71 25.7667 113.877 25.6C114.06 25.4167 114.302 25.325 114.602 25.325C114.885 25.325 115.11 25.4167 115.277 25.6C115.46 25.7667 115.552 26 115.552 26.3V38.025C115.552 38.325 115.46 38.5667 115.277 38.75C115.11 38.9167 114.885 39 114.602 39ZM114.577 22.725C114.21 22.725 113.893 22.5917 113.627 22.325C113.36 22.0583 113.227 21.7333 113.227 21.35C113.227 20.9333 113.36 20.6083 113.627 20.375C113.91 20.125 114.235 20 114.602 20C114.952 20 115.26 20.125 115.527 20.375C115.81 20.6083 115.952 20.9333 115.952 21.35C115.952 21.7333 115.818 22.0583 115.552 22.325C115.285 22.5917 114.96 22.725 114.577 22.725ZM132.178 39C131.895 39 131.661 38.9083 131.478 38.725C131.295 38.5417 131.203 38.3167 131.203 38.05V31.55C131.203 30.5167 131.003 29.6667 130.603 29C130.22 28.3333 129.686 27.8333 129.003 27.5C128.336 27.1667 127.578 27 126.728 27C125.911 27 125.17 27.1583 124.503 27.475C123.853 27.7917 123.336 28.225 122.953 28.775C122.57 29.325 122.378 29.95 122.378 30.65H121.003C121.036 29.6 121.32 28.6667 121.853 27.85C122.386 27.0167 123.095 26.3667 123.978 25.9C124.861 25.4167 125.845 25.175 126.928 25.175C128.111 25.175 129.17 25.425 130.103 25.925C131.036 26.4083 131.77 27.125 132.303 28.075C132.853 29.025 133.128 30.1833 133.128 31.55V38.05C133.128 38.3167 133.036 38.5417 132.853 38.725C132.67 38.9083 132.445 39 132.178 39ZM121.428 39C121.128 39 120.886 38.9167 120.703 38.75C120.536 38.5667 120.453 38.3333 120.453 38.05V26.3C120.453 26 120.536 25.7667 120.703 25.6C120.886 25.4167 121.128 25.325 121.428 25.325C121.711 25.325 121.936 25.4167 122.103 25.6C122.286 25.7667 122.378 26 122.378 26.3V38.05C122.378 38.3333 122.286 38.5667 122.103 38.75C121.936 38.9167 121.711 39 121.428 39ZM143.397 39.125C142.08 39.125 140.914 38.8333 139.897 38.25C138.88 37.65 138.08 36.825 137.497 35.775C136.93 34.725 136.647 33.525 136.647 32.175C136.647 30.8083 136.947 29.6 137.547 28.55C138.147 27.5 138.972 26.6833 140.022 26.1C141.072 25.5 142.264 25.2 143.597 25.2C144.947 25.2 146.139 25.5 147.172 26.1C148.222 26.6833 149.039 27.5 149.622 28.55C150.222 29.6 150.53 30.8083 150.547 32.175L149.422 32.775C149.422 34.0083 149.164 35.1083 148.647 36.075C148.13 37.025 147.414 37.775 146.497 38.325C145.597 38.8583 144.564 39.125 143.397 39.125ZM143.647 44.4C142.33 44.4 141.172 44.15 140.172 43.65C139.172 43.1667 138.347 42.5 137.697 41.65C137.514 41.45 137.43 41.2333 137.447 41C137.48 40.7667 137.605 40.575 137.822 40.425C138.039 40.275 138.28 40.225 138.547 40.275C138.814 40.325 139.022 40.45 139.172 40.65C139.655 41.25 140.272 41.7333 141.022 42.1C141.789 42.4667 142.672 42.65 143.672 42.65C144.605 42.65 145.447 42.425 146.197 41.975C146.947 41.525 147.539 40.8917 147.972 40.075C148.422 39.2583 148.647 38.3 148.647 37.2V33.4L149.372 31.95L150.547 32.175V37.275C150.547 38.625 150.247 39.8333 149.647 40.9C149.047 41.9833 148.23 42.8333 147.197 43.45C146.164 44.0833 144.98 44.4 143.647 44.4ZM143.597 37.375C144.58 37.375 145.447 37.1583 146.197 36.725C146.964 36.275 147.564 35.6583 147.997 34.875C148.43 34.0917 148.647 33.1917 148.647 32.175C148.647 31.1583 148.43 30.2583 147.997 29.475C147.564 28.675 146.964 28.0583 146.197 27.625C145.447 27.175 144.58 26.95 143.597 26.95C142.614 26.95 141.739 27.175 140.972 27.625C140.205 28.0583 139.605 28.675 139.172 29.475C138.739 30.2583 138.522 31.1583 138.522 32.175C138.522 33.1917 138.739 34.0917 139.172 34.875C139.605 35.6583 140.205 36.275 140.972 36.725C141.739 37.1583 142.614 37.375 143.597 37.375Z" fill="white"/>
<mask id="path-3-inside-1_1_21" fill="white">
<path d="M0 62H300V142H0V62Z"/>
</mask>
<path d="M0 62H300V142H0V62Z" fill="#FF3860"/>
<path d="M300 141H0V143H300V141Z" fill="#363636" mask="url(#path-3-inside-1_1_21)"/>
<path d="M35.925 110C35.525 110 35.225 109.783 35.025 109.35L29.475 97.575C29.375 97.3583 29.3667 97.1417 29.45 96.925C29.5333 96.7083 29.7 96.5417 29.95 96.425C30.1833 96.3083 30.4083 96.2917 30.625 96.375C30.8417 96.4583 31.0083 96.6083 31.125 96.825L36.45 108.35H35.425L40.675 96.825C40.775 96.5917 40.9417 96.4417 41.175 96.375C41.425 96.2917 41.6667 96.3 41.9 96.4C42.1333 96.5167 42.2917 96.6917 42.375 96.925C42.4583 97.1417 42.45 97.35 42.35 97.55L36.875 109.35C36.675 109.783 36.3583 110 35.925 110ZM46.0434 115.85C45.7434 115.85 45.5017 115.758 45.3184 115.575C45.1517 115.408 45.0684 115.175 45.0684 114.875V103.075C45.085 101.775 45.3934 100.608 45.9934 99.575C46.61 98.525 47.435 97.7 48.4684 97.1C49.5184 96.5 50.6934 96.2 51.9934 96.2C53.3267 96.2 54.5184 96.5083 55.5684 97.125C56.6184 97.725 57.4434 98.55 58.0434 99.6C58.66 100.65 58.9684 101.842 58.9684 103.175C58.9684 104.492 58.6684 105.675 58.0684 106.725C57.485 107.775 56.685 108.608 55.6684 109.225C54.6517 109.825 53.5017 110.125 52.2184 110.125C51.1017 110.125 50.085 109.892 49.1684 109.425C48.2684 108.942 47.5434 108.308 46.9934 107.525V114.875C46.9934 115.175 46.9017 115.408 46.7184 115.575C46.5517 115.758 46.3267 115.85 46.0434 115.85ZM51.9934 108.375C52.96 108.375 53.8267 108.15 54.5934 107.7C55.36 107.25 55.96 106.633 56.3934 105.85C56.8434 105.05 57.0684 104.158 57.0684 103.175C57.0684 102.175 56.8434 101.283 56.3934 100.5C55.96 99.7167 55.36 99.1 54.5934 98.65C53.8267 98.1833 52.96 97.95 51.9934 97.95C51.0434 97.95 50.185 98.1833 49.4184 98.65C48.6517 99.1 48.0517 99.7167 47.6184 100.5C47.185 101.283 46.9684 102.175 46.9684 103.175C46.9684 104.158 47.185 105.05 47.6184 105.85C48.0517 106.633 48.6517 107.25 49.4184 107.7C50.185 108.15 51.0434 108.375 51.9934 108.375ZM68.0941 110C67.2108 110 66.4191 109.792 65.7191 109.375C65.0358 108.958 64.4941 108.392 64.0941 107.675C63.6941 106.942 63.4941 106.108 63.4941 105.175V92.95C63.4941 92.6667 63.5775 92.4333 63.7441 92.25C63.9275 92.0667 64.1608 91.975 64.4441 91.975C64.7275 91.975 64.9608 92.0667 65.1441 92.25C65.3275 92.4333 65.4191 92.6667 65.4191 92.95V105.175C65.4191 106.025 65.6691 106.725 66.1691 107.275C66.6691 107.808 67.3108 108.075 68.0941 108.075H68.7691C69.0358 108.075 69.2525 108.167 69.4191 108.35C69.5858 108.533 69.6691 108.767 69.6691 109.05C69.6691 109.333 69.5691 109.567 69.3691 109.75C69.1691 109.917 68.9191 110 68.6191 110H68.0941ZM61.8691 98.5C61.6191 98.5 61.4108 98.425 61.2441 98.275C61.0775 98.1083 60.9941 97.9083 60.9941 97.675C60.9941 97.425 61.0775 97.225 61.2441 97.075C61.4108 96.9083 61.6191 96.825 61.8691 96.825H68.2441C68.4941 96.825 68.7025 96.9083 68.8691 97.075C69.0358 97.225 69.1191 97.425 69.1191 97.675C69.1191 97.9083 69.0358 98.1083 68.8691 98.275C68.7025 98.425 68.4941 98.5 68.2441 98.5H61.8691ZM73.6027 101.575C73.6527 100.542 73.9194 99.6167 74.4027 98.8C74.9027 97.9833 75.5444 97.3417 76.3277 96.875C77.1277 96.4083 78.0111 96.175 78.9777 96.175C79.7444 96.175 80.3361 96.2833 80.7527 96.5C81.1694 96.7167 81.3277 97.0333 81.2277 97.45C81.1611 97.7 81.0444 97.8667 80.8777 97.95C80.7277 98.0333 80.5361 98.0667 80.3027 98.05C80.0861 98.0333 79.8361 98.0167 79.5527 98C78.6194 97.9167 77.7861 98.0167 77.0527 98.3C76.3361 98.5667 75.7611 98.9833 75.3277 99.55C74.9111 100.117 74.7027 100.792 74.7027 101.575H73.6027ZM73.7527 110C73.4527 110 73.2194 109.917 73.0527 109.75C72.8861 109.583 72.8027 109.35 72.8027 109.05V97.275C72.8027 96.975 72.8861 96.7417 73.0527 96.575C73.2194 96.4083 73.4527 96.325 73.7527 96.325C74.0527 96.325 74.2861 96.4083 74.4527 96.575C74.6194 96.7417 74.7027 96.975 74.7027 97.275V109.05C74.7027 109.35 74.6194 109.583 74.4527 109.75C74.2861 109.917 74.0527 110 73.7527 110ZM96.9271 110C96.0438 110 95.2521 109.792 94.5521 109.375C93.8688 108.958 93.3271 108.392 92.9271 107.675C92.5271 106.942 92.3271 106.108 92.3271 105.175V92.95C92.3271 92.6667 92.4105 92.4333 92.5771 92.25C92.7605 92.0667 92.9938 91.975 93.2771 91.975C93.5605 91.975 93.7938 92.0667 93.9771 92.25C94.1605 92.4333 94.2521 92.6667 94.2521 92.95V105.175C94.2521 106.025 94.5021 106.725 95.0021 107.275C95.5021 107.808 96.1438 108.075 96.9271 108.075H97.6021C97.8688 108.075 98.0855 108.167 98.2521 108.35C98.4188 108.533 98.5021 108.767 98.5021 109.05C98.5021 109.333 98.4021 109.567 98.2021 109.75C98.0021 109.917 97.7521 110 97.4521 110H96.9271ZM90.7021 98.5C90.4521 98.5 90.2438 98.425 90.0771 98.275C89.9105 98.1083 89.8271 97.9083 89.8271 97.675C89.8271 97.425 89.9105 97.225 90.0771 97.075C90.2438 96.9083 90.4521 96.825 90.7021 96.825H97.0771C97.3271 96.825 97.5355 96.9083 97.7021 97.075C97.8688 97.225 97.9521 97.425 97.9521 97.675C97.9521 97.9083 97.8688 98.1083 97.7021 98.275C97.5355 98.425 97.3271 98.5 97.0771 98.5H90.7021ZM107.861 110.125C106.527 110.125 105.336 109.825 104.286 109.225C103.236 108.625 102.411 107.8 101.811 106.75C101.211 105.7 100.911 104.508 100.911 103.175C100.911 101.825 101.211 100.625 101.811 99.575C102.411 98.525 103.236 97.7 104.286 97.1C105.336 96.5 106.527 96.2 107.861 96.2C109.194 96.2 110.377 96.5 111.411 97.1C112.461 97.7 113.286 98.525 113.886 99.575C114.486 100.625 114.794 101.825 114.811 103.175C114.811 104.508 114.502 105.7 113.886 106.75C113.286 107.8 112.461 108.625 111.411 109.225C110.377 109.825 109.194 110.125 107.861 110.125ZM107.861 108.375C108.827 108.375 109.694 108.15 110.461 107.7C111.227 107.25 111.827 106.633 112.261 105.85C112.694 105.067 112.911 104.175 112.911 103.175C112.911 102.175 112.694 101.283 112.261 100.5C111.827 99.7 111.227 99.075 110.461 98.625C109.694 98.175 108.827 97.95 107.861 97.95C106.894 97.95 106.027 98.175 105.261 98.625C104.494 99.075 103.886 99.7 103.436 100.5C103.002 101.283 102.786 102.175 102.786 103.175C102.786 104.175 103.002 105.067 103.436 105.85C103.886 106.633 104.494 107.25 105.261 107.7C106.027 108.15 106.894 108.375 107.861 108.375ZM122.254 115.85C121.971 115.85 121.737 115.758 121.554 115.575C121.371 115.408 121.279 115.175 121.279 114.875C121.279 114.592 121.371 114.358 121.554 114.175C121.737 113.992 121.971 113.9 122.254 113.9C123.021 113.9 123.696 113.733 124.279 113.4C124.862 113.067 125.321 112.608 125.654 112.025C126.004 111.442 126.179 110.767 126.179 110V97.3C126.179 97 126.262 96.7667 126.429 96.6C126.612 96.4167 126.846 96.325 127.129 96.325C127.412 96.325 127.646 96.4167 127.829 96.6C128.012 96.7667 128.104 97 128.104 97.3V110C128.104 111.133 127.854 112.142 127.354 113.025C126.854 113.908 126.162 114.6 125.279 115.1C124.396 115.6 123.387 115.85 122.254 115.85ZM127.104 93.725C126.737 93.725 126.421 93.5917 126.154 93.325C125.887 93.0583 125.754 92.7333 125.754 92.35C125.754 91.9333 125.887 91.6083 126.154 91.375C126.437 91.125 126.762 91 127.129 91C127.479 91 127.787 91.125 128.054 91.375C128.337 91.6083 128.479 91.9333 128.479 92.35C128.479 92.7333 128.346 93.0583 128.079 93.325C127.812 93.5917 127.487 93.725 127.104 93.725ZM138.032 110.125C136.749 110.125 135.599 109.825 134.582 109.225C133.565 108.608 132.757 107.775 132.157 106.725C131.574 105.675 131.282 104.492 131.282 103.175C131.282 101.842 131.582 100.65 132.182 99.6C132.799 98.55 133.632 97.725 134.682 97.125C135.732 96.5083 136.915 96.2 138.232 96.2C139.549 96.2 140.724 96.5083 141.757 97.125C142.807 97.725 143.632 98.55 144.232 99.6C144.849 100.65 145.165 101.842 145.182 103.175L144.407 103.775C144.407 104.975 144.124 106.058 143.557 107.025C143.007 107.975 142.249 108.733 141.282 109.3C140.332 109.85 139.249 110.125 138.032 110.125ZM138.232 108.375C139.199 108.375 140.057 108.15 140.807 107.7C141.574 107.25 142.174 106.633 142.607 105.85C143.057 105.05 143.282 104.158 143.282 103.175C143.282 102.175 143.057 101.283 142.607 100.5C142.174 99.7167 141.574 99.1 140.807 98.65C140.057 98.1833 139.199 97.95 138.232 97.95C137.282 97.95 136.424 98.1833 135.657 98.65C134.89 99.1 134.282 99.7167 133.832 100.5C133.382 101.283 133.157 102.175 133.157 103.175C133.157 104.158 133.382 105.05 133.832 105.85C134.282 106.633 134.89 107.25 135.657 107.7C136.424 108.15 137.282 108.375 138.232 108.375ZM144.207 110C143.924 110 143.69 109.917 143.507 109.75C143.324 109.567 143.232 109.333 143.232 109.05V104.775L143.707 102.8L145.182 103.175V109.05C145.182 109.333 145.09 109.567 144.907 109.75C144.724 109.917 144.49 110 144.207 110ZM160.651 110C160.367 110 160.134 109.908 159.951 109.725C159.767 109.542 159.676 109.317 159.676 109.05V102.55C159.676 101.517 159.476 100.667 159.076 100C158.692 99.3333 158.159 98.8333 157.476 98.5C156.809 98.1667 156.051 98 155.201 98C154.384 98 153.642 98.1583 152.976 98.475C152.326 98.7917 151.809 99.225 151.426 99.775C151.042 100.325 150.851 100.95 150.851 101.65H149.476C149.509 100.6 149.792 99.6667 150.326 98.85C150.859 98.0167 151.567 97.3667 152.451 96.9C153.334 96.4167 154.317 96.175 155.401 96.175C156.584 96.175 157.642 96.425 158.576 96.925C159.509 97.4083 160.242 98.125 160.776 99.075C161.326 100.025 161.601 101.183 161.601 102.55V109.05C161.601 109.317 161.509 109.542 161.326 109.725C161.142 109.908 160.917 110 160.651 110ZM149.901 110C149.601 110 149.359 109.917 149.176 109.75C149.009 109.567 148.926 109.333 148.926 109.05V97.3C148.926 97 149.009 96.7667 149.176 96.6C149.359 96.4167 149.601 96.325 149.901 96.325C150.184 96.325 150.409 96.4167 150.576 96.6C150.759 96.7667 150.851 97 150.851 97.3V109.05C150.851 109.333 150.759 109.567 150.576 109.75C150.409 109.917 150.184 110 149.901 110ZM167.42 105.425L166.245 104.15L174.795 96.425C174.995 96.2417 175.203 96.1583 175.42 96.175C175.636 96.175 175.836 96.275 176.02 96.475C176.203 96.675 176.286 96.8917 176.27 97.125C176.27 97.3417 176.17 97.5333 175.97 97.7L167.42 105.425ZM166.795 110C166.511 110 166.278 109.917 166.095 109.75C165.928 109.567 165.845 109.333 165.845 109.05V91.425C165.845 91.1417 165.928 90.9167 166.095 90.75C166.278 90.5667 166.511 90.475 166.795 90.475C167.078 90.475 167.303 90.5667 167.47 90.75C167.653 90.9167 167.745 91.1417 167.745 91.425V109.05C167.745 109.333 167.653 109.567 167.47 109.75C167.303 109.917 167.078 110 166.795 110ZM176.045 109.875C175.828 110.058 175.603 110.133 175.37 110.1C175.136 110.083 174.936 109.967 174.77 109.75L169.195 102.9L170.545 101.7L176.17 108.625C176.336 108.825 176.411 109.042 176.395 109.275C176.378 109.492 176.261 109.692 176.045 109.875ZM177.926 111.95C177.643 111.95 177.41 111.85 177.226 111.65C177.043 111.467 176.951 111.242 176.951 110.975C176.951 110.708 177.043 110.475 177.226 110.275C177.41 110.092 177.643 110 177.926 110H189.901C190.168 110 190.393 110.092 190.576 110.275C190.76 110.475 190.851 110.708 190.851 110.975C190.851 111.242 190.76 111.467 190.576 111.65C190.393 111.85 190.168 111.95 189.901 111.95H177.926ZM198.095 110.125C196.762 110.125 195.57 109.825 194.52 109.225C193.47 108.625 192.645 107.8 192.045 106.75C191.445 105.7 191.145 104.508 191.145 103.175C191.145 101.825 191.445 100.625 192.045 99.575C192.645 98.525 193.47 97.7 194.52 97.1C195.57 96.5 196.762 96.2 198.095 96.2C199.428 96.2 200.612 96.5 201.645 97.1C202.695 97.7 203.52 98.525 204.12 99.575C204.72 100.625 205.028 101.825 205.045 103.175C205.045 104.508 204.737 105.7 204.12 106.75C203.52 107.8 202.695 108.625 201.645 109.225C200.612 109.825 199.428 110.125 198.095 110.125ZM198.095 108.375C199.062 108.375 199.928 108.15 200.695 107.7C201.462 107.25 202.062 106.633 202.495 105.85C202.928 105.067 203.145 104.175 203.145 103.175C203.145 102.175 202.928 101.283 202.495 100.5C202.062 99.7 201.462 99.075 200.695 98.625C199.928 98.175 199.062 97.95 198.095 97.95C197.128 97.95 196.262 98.175 195.495 98.625C194.728 99.075 194.12 99.7 193.67 100.5C193.237 101.283 193.02 102.175 193.02 103.175C193.02 104.175 193.237 105.067 193.67 105.85C194.12 106.633 194.728 107.25 195.495 107.7C196.262 108.15 197.128 108.375 198.095 108.375ZM215.714 110.125C214.414 110.125 213.239 109.825 212.189 109.225C211.156 108.625 210.331 107.808 209.714 106.775C209.114 105.725 208.806 104.55 208.789 103.25V91.45C208.789 91.15 208.872 90.9167 209.039 90.75C209.222 90.5667 209.464 90.475 209.764 90.475C210.047 90.475 210.272 90.5667 210.439 90.75C210.622 90.9167 210.714 91.15 210.714 91.45V98.8C211.264 98.0167 211.989 97.3917 212.889 96.925C213.806 96.4417 214.822 96.2 215.939 96.2C217.222 96.2 218.372 96.5083 219.389 97.125C220.406 97.725 221.206 98.55 221.789 99.6C222.389 100.65 222.689 101.833 222.689 103.15C222.689 104.483 222.381 105.675 221.764 106.725C221.164 107.775 220.339 108.608 219.289 109.225C218.239 109.825 217.047 110.125 215.714 110.125ZM215.714 108.375C216.681 108.375 217.547 108.15 218.314 107.7C219.081 107.233 219.681 106.608 220.114 105.825C220.564 105.042 220.789 104.15 220.789 103.15C220.789 102.167 220.564 101.283 220.114 100.5C219.681 99.7 219.081 99.075 218.314 98.625C217.547 98.175 216.681 97.95 215.714 97.95C214.764 97.95 213.906 98.175 213.139 98.625C212.372 99.075 211.772 99.7 211.339 100.5C210.906 101.283 210.689 102.167 210.689 103.15C210.689 104.15 210.906 105.042 211.339 105.825C211.772 106.608 212.372 107.233 213.139 107.7C213.906 108.15 214.764 108.375 215.714 108.375ZM222.84 115.85C222.557 115.85 222.323 115.758 222.14 115.575C221.957 115.408 221.865 115.175 221.865 114.875C221.865 114.592 221.957 114.358 222.14 114.175C222.323 113.992 222.557 113.9 222.84 113.9C223.607 113.9 224.282 113.733 224.865 113.4C225.448 113.067 225.907 112.608 226.24 112.025C226.59 111.442 226.765 110.767 226.765 110V97.3C226.765 97 226.848 96.7667 227.015 96.6C227.198 96.4167 227.432 96.325 227.715 96.325C227.998 96.325 228.232 96.4167 228.415 96.6C228.598 96.7667 228.69 97 228.69 97.3V110C228.69 111.133 228.44 112.142 227.94 113.025C227.44 113.908 226.748 114.6 225.865 115.1C224.982 115.6 223.973 115.85 222.84 115.85ZM227.69 93.725C227.323 93.725 227.007 93.5917 226.74 93.325C226.473 93.0583 226.34 92.7333 226.34 92.35C226.34 91.9333 226.473 91.6083 226.74 91.375C227.023 91.125 227.348 91 227.715 91C228.065 91 228.373 91.125 228.64 91.375C228.923 91.6083 229.065 91.9333 229.065 92.35C229.065 92.7333 228.932 93.0583 228.665 93.325C228.398 93.5917 228.073 93.725 227.69 93.725ZM238.793 110.125C237.443 110.125 236.243 109.833 235.193 109.25C234.159 108.65 233.343 107.825 232.743 106.775C232.159 105.725 231.868 104.525 231.868 103.175C231.868 101.808 232.143 100.608 232.693 99.575C233.259 98.525 234.034 97.7 235.018 97.1C236.001 96.5 237.134 96.2 238.418 96.2C239.684 96.2 240.784 96.4917 241.718 97.075C242.668 97.6417 243.401 98.4333 243.918 99.45C244.434 100.467 244.693 101.625 244.693 102.925C244.693 103.192 244.609 103.408 244.443 103.575C244.276 103.725 244.059 103.8 243.793 103.8H233.168V102.2H243.993L242.918 102.975C242.934 102.008 242.759 101.142 242.393 100.375C242.026 99.6083 241.501 99.0083 240.818 98.575C240.151 98.1417 239.351 97.925 238.418 97.925C237.468 97.925 236.634 98.15 235.918 98.6C235.201 99.05 234.643 99.675 234.243 100.475C233.859 101.258 233.668 102.158 233.668 103.175C233.668 104.192 233.884 105.092 234.318 105.875C234.768 106.658 235.376 107.275 236.143 107.725C236.909 108.175 237.793 108.4 238.793 108.4C239.393 108.4 239.993 108.3 240.593 108.1C241.209 107.883 241.701 107.617 242.068 107.3C242.251 107.15 242.459 107.075 242.693 107.075C242.926 107.058 243.126 107.117 243.293 107.25C243.509 107.45 243.618 107.667 243.618 107.9C243.634 108.133 243.543 108.333 243.343 108.5C242.793 108.967 242.093 109.358 241.243 109.675C240.393 109.975 239.576 110.125 238.793 110.125ZM253.561 110.125C252.244 110.125 251.069 109.825 250.036 109.225C249.019 108.608 248.211 107.775 247.611 106.725C247.028 105.675 246.736 104.492 246.736 103.175C246.736 101.842 247.019 100.65 247.586 99.6C248.153 98.55 248.928 97.725 249.911 97.125C250.894 96.5083 252.028 96.2 253.311 96.2C254.328 96.2 255.261 96.4 256.111 96.8C256.978 97.2 257.736 97.8 258.386 98.6C258.569 98.8 258.636 99.0167 258.586 99.25C258.536 99.4667 258.394 99.6583 258.161 99.825C257.978 99.9583 257.769 100.008 257.536 99.975C257.319 99.925 257.128 99.8 256.961 99.6C255.994 98.5 254.778 97.95 253.311 97.95C252.378 97.95 251.553 98.175 250.836 98.625C250.136 99.075 249.586 99.6917 249.186 100.475C248.803 101.258 248.611 102.158 248.611 103.175C248.611 104.175 248.819 105.067 249.236 105.85C249.653 106.633 250.236 107.25 250.986 107.7C251.736 108.15 252.594 108.375 253.561 108.375C254.211 108.375 254.803 108.292 255.336 108.125C255.886 107.942 256.369 107.667 256.786 107.3C256.986 107.133 257.194 107.042 257.411 107.025C257.628 107.008 257.828 107.075 258.011 107.225C258.211 107.408 258.319 107.617 258.336 107.85C258.369 108.083 258.294 108.283 258.111 108.45C256.894 109.567 255.378 110.125 253.561 110.125ZM267.679 110C266.796 110 266.004 109.792 265.304 109.375C264.621 108.958 264.079 108.392 263.679 107.675C263.279 106.942 263.079 106.108 263.079 105.175V92.95C263.079 92.6667 263.162 92.4333 263.329 92.25C263.512 92.0667 263.746 91.975 264.029 91.975C264.312 91.975 264.546 92.0667 264.729 92.25C264.912 92.4333 265.004 92.6667 265.004 92.95V105.175C265.004 106.025 265.254 106.725 265.754 107.275C266.254 107.808 266.896 108.075 267.679 108.075H268.354C268.621 108.075 268.837 108.167 269.004 108.35C269.171 108.533 269.254 108.767 269.254 109.05C269.254 109.333 269.154 109.567 268.954 109.75C268.754 109.917 268.504 110 268.204 110H267.679ZM261.454 98.5C261.204 98.5 260.996 98.425 260.829 98.275C260.662 98.1083 260.579 97.9083 260.579 97.675C260.579 97.425 260.662 97.225 260.829 97.075C260.996 96.9083 261.204 96.825 261.454 96.825H267.829C268.079 96.825 268.287 96.9083 268.454 97.075C268.621 97.225 268.704 97.425 268.704 97.675C268.704 97.9083 268.621 98.1083 268.454 98.275C268.287 98.425 268.079 98.5 267.829 98.5H261.454Z" fill="white"/>
<path d="M0 142H300V457C300 459.761 297.761 462 295 462H5C2.23857 462 0 459.761 0 457V142Z" fill="#00D1B2"/>
<path d="M36.025 310.125C35.0417 310.125 34.0667 309.958 33.1 309.625C32.1333 309.292 31.35 308.792 30.75 308.125C30.5667 307.925 30.4917 307.7 30.525 307.45C30.5583 307.2 30.6833 306.983 30.9 306.8C31.1333 306.633 31.375 306.567 31.625 306.6C31.875 306.633 32.0833 306.742 32.25 306.925C32.65 307.392 33.175 307.75 33.825 308C34.4917 308.25 35.225 308.375 36.025 308.375C37.2583 308.375 38.15 308.167 38.7 307.75C39.25 307.317 39.5333 306.8 39.55 306.2C39.55 305.6 39.2667 305.108 38.7 304.725C38.1333 304.325 37.2 304.017 35.9 303.8C34.2167 303.533 32.9833 303.067 32.2 302.4C31.4167 301.733 31.025 300.942 31.025 300.025C31.025 299.175 31.25 298.467 31.7 297.9C32.15 297.333 32.75 296.908 33.5 296.625C34.25 296.342 35.075 296.2 35.975 296.2C37.0917 296.2 38.05 296.392 38.85 296.775C39.6667 297.158 40.325 297.675 40.825 298.325C40.9917 298.542 41.0583 298.767 41.025 299C40.9917 299.233 40.8583 299.425 40.625 299.575C40.425 299.692 40.1917 299.733 39.925 299.7C39.675 299.65 39.4583 299.525 39.275 299.325C38.8583 298.842 38.375 298.492 37.825 298.275C37.275 298.042 36.6417 297.925 35.925 297.925C35.0083 297.925 34.275 298.117 33.725 298.5C33.175 298.867 32.9 299.333 32.9 299.9C32.9 300.283 33 300.617 33.2 300.9C33.4167 301.183 33.775 301.433 34.275 301.65C34.7917 301.867 35.5083 302.05 36.425 302.2C37.675 302.4 38.6583 302.7 39.375 303.1C40.1083 303.483 40.625 303.942 40.925 304.475C41.2417 304.992 41.4 305.558 41.4 306.175C41.4 306.958 41.1667 307.65 40.7 308.25C40.25 308.833 39.6167 309.292 38.8 309.625C38 309.958 37.075 310.125 36.025 310.125ZM50.0766 310C49.1932 310 48.4016 309.792 47.7016 309.375C47.0182 308.958 46.4766 308.392 46.0766 307.675C45.6766 306.942 45.4766 306.108 45.4766 305.175V292.95C45.4766 292.667 45.5599 292.433 45.7266 292.25C45.9099 292.067 46.1432 291.975 46.4266 291.975C46.7099 291.975 46.9432 292.067 47.1266 292.25C47.3099 292.433 47.4016 292.667 47.4016 292.95V305.175C47.4016 306.025 47.6516 306.725 48.1516 307.275C48.6516 307.808 49.2932 308.075 50.0766 308.075H50.7516C51.0182 308.075 51.2349 308.167 51.4016 308.35C51.5682 308.533 51.6516 308.767 51.6516 309.05C51.6516 309.333 51.5516 309.567 51.3516 309.75C51.1516 309.917 50.9016 310 50.6016 310H50.0766ZM43.8516 298.5C43.6016 298.5 43.3932 298.425 43.2266 298.275C43.0599 298.108 42.9766 297.908 42.9766 297.675C42.9766 297.425 43.0599 297.225 43.2266 297.075C43.3932 296.908 43.6016 296.825 43.8516 296.825H50.2266C50.4766 296.825 50.6849 296.908 50.8516 297.075C51.0182 297.225 51.1016 297.425 51.1016 297.675C51.1016 297.908 51.0182 298.108 50.8516 298.275C50.6849 298.425 50.4766 298.5 50.2266 298.5H43.8516ZM61.0102 310.125C59.6935 310.125 58.5102 309.825 57.4602 309.225C56.4102 308.608 55.5768 307.775 54.9602 306.725C54.3602 305.675 54.0602 304.483 54.0602 303.15C54.0602 301.833 54.3518 300.65 54.9352 299.6C55.5352 298.55 56.3435 297.725 57.3602 297.125C58.3768 296.508 59.5268 296.2 60.8102 296.2C61.9268 296.2 62.9352 296.442 63.8352 296.925C64.7352 297.392 65.4602 298.017 66.0102 298.8V291.45C66.0102 291.15 66.1018 290.917 66.2852 290.75C66.4685 290.567 66.7018 290.475 66.9852 290.475C67.2685 290.475 67.5018 290.567 67.6852 290.75C67.8685 290.917 67.9602 291.15 67.9602 291.45V303.25C67.9268 304.55 67.6018 305.725 66.9852 306.775C66.3852 307.808 65.5602 308.625 64.5102 309.225C63.4768 309.825 62.3102 310.125 61.0102 310.125ZM61.0102 308.375C61.9768 308.375 62.8352 308.15 63.5852 307.7C64.3518 307.233 64.9518 306.608 65.3852 305.825C65.8352 305.042 66.0602 304.15 66.0602 303.15C66.0602 302.167 65.8352 301.283 65.3852 300.5C64.9518 299.7 64.3518 299.075 63.5852 298.625C62.8352 298.175 61.9768 297.95 61.0102 297.95C60.0602 297.95 59.2018 298.175 58.4352 298.625C57.6685 299.075 57.0602 299.7 56.6102 300.5C56.1602 301.283 55.9352 302.167 55.9352 303.15C55.9352 304.15 56.1602 305.042 56.6102 305.825C57.0602 306.608 57.6685 307.233 58.4352 307.7C59.2018 308.15 60.0602 308.375 61.0102 308.375ZM72.4609 299.4C72.0609 299.4 71.7109 299.267 71.4109 299C71.1276 298.717 70.9859 298.367 70.9859 297.95C70.9859 297.533 71.1276 297.183 71.4109 296.9C71.6943 296.617 72.0443 296.475 72.4609 296.475C72.8609 296.475 73.1943 296.625 73.4609 296.925C73.7443 297.208 73.8859 297.55 73.8859 297.95C73.8859 298.35 73.7443 298.692 73.4609 298.975C73.1943 299.258 72.8609 299.4 72.4609 299.4ZM72.5109 310.4C72.1109 310.4 71.7693 310.258 71.4859 309.975C71.2026 309.692 71.0609 309.35 71.0609 308.95C71.0609 308.533 71.2026 308.183 71.4859 307.9C71.7859 307.617 72.1276 307.475 72.5109 307.475C72.9109 307.475 73.2526 307.625 73.5359 307.925C73.8193 308.208 73.9609 308.55 73.9609 308.95C73.9609 309.333 73.8193 309.675 73.5359 309.975C73.2693 310.258 72.9276 310.4 72.5109 310.4ZM77.3438 299.4C76.9438 299.4 76.5937 299.267 76.2938 299C76.0104 298.717 75.8688 298.367 75.8688 297.95C75.8688 297.533 76.0104 297.183 76.2938 296.9C76.5771 296.617 76.9271 296.475 77.3438 296.475C77.7438 296.475 78.0771 296.625 78.3438 296.925C78.6271 297.208 78.7687 297.55 78.7687 297.95C78.7687 298.35 78.6271 298.692 78.3438 298.975C78.0771 299.258 77.7438 299.4 77.3438 299.4ZM77.3938 310.4C76.9938 310.4 76.6521 310.258 76.3688 309.975C76.0854 309.692 75.9438 309.35 75.9438 308.95C75.9438 308.533 76.0854 308.183 76.3688 307.9C76.6688 307.617 77.0104 307.475 77.3938 307.475C77.7938 307.475 78.1354 307.625 78.4188 307.925C78.7021 308.208 78.8438 308.55 78.8438 308.95C78.8438 309.333 78.7021 309.675 78.4188 309.975C78.1521 310.258 77.8104 310.4 77.3938 310.4ZM87.0016 310.125C86.0182 310.125 85.0432 309.958 84.0766 309.625C83.1099 309.292 82.3266 308.792 81.7266 308.125C81.5432 307.925 81.4682 307.7 81.5016 307.45C81.5349 307.2 81.6599 306.983 81.8766 306.8C82.1099 306.633 82.3516 306.567 82.6016 306.6C82.8516 306.633 83.0599 306.742 83.2266 306.925C83.6266 307.392 84.1516 307.75 84.8016 308C85.4682 308.25 86.2016 308.375 87.0016 308.375C88.2349 308.375 89.1266 308.167 89.6766 307.75C90.2266 307.317 90.5099 306.8 90.5266 306.2C90.5266 305.6 90.2432 305.108 89.6766 304.725C89.1099 304.325 88.1766 304.017 86.8766 303.8C85.1932 303.533 83.9599 303.067 83.1766 302.4C82.3932 301.733 82.0016 300.942 82.0016 300.025C82.0016 299.175 82.2266 298.467 82.6766 297.9C83.1266 297.333 83.7266 296.908 84.4766 296.625C85.2266 296.342 86.0516 296.2 86.9516 296.2C88.0682 296.2 89.0266 296.392 89.8266 296.775C90.6432 297.158 91.3016 297.675 91.8016 298.325C91.9682 298.542 92.0349 298.767 92.0016 299C91.9682 299.233 91.8349 299.425 91.6016 299.575C91.4016 299.692 91.1682 299.733 90.9016 299.7C90.6516 299.65 90.4349 299.525 90.2516 299.325C89.8349 298.842 89.3516 298.492 88.8016 298.275C88.2516 298.042 87.6182 297.925 86.9016 297.925C85.9849 297.925 85.2516 298.117 84.7016 298.5C84.1516 298.867 83.8766 299.333 83.8766 299.9C83.8766 300.283 83.9766 300.617 84.1766 300.9C84.3932 301.183 84.7516 301.433 85.2516 301.65C85.7682 301.867 86.4849 302.05 87.4016 302.2C88.6516 302.4 89.6349 302.7 90.3516 303.1C91.0849 303.483 91.6016 303.942 91.9016 304.475C92.2182 304.992 92.3766 305.558 92.3766 306.175C92.3766 306.958 92.1432 307.65 91.6766 308.25C91.2266 308.833 90.5932 309.292 89.7766 309.625C88.9766 309.958 88.0516 310.125 87.0016 310.125ZM101.053 310C100.17 310 99.3781 309.792 98.6781 309.375C97.9948 308.958 97.4531 308.392 97.0531 307.675C96.6531 306.942 96.4531 306.108 96.4531 305.175V292.95C96.4531 292.667 96.5365 292.433 96.7031 292.25C96.8865 292.067 97.1198 291.975 97.4031 291.975C97.6865 291.975 97.9198 292.067 98.1031 292.25C98.2865 292.433 98.3781 292.667 98.3781 292.95V305.175C98.3781 306.025 98.6281 306.725 99.1281 307.275C99.6281 307.808 100.27 308.075 101.053 308.075H101.728C101.995 308.075 102.211 308.167 102.378 308.35C102.545 308.533 102.628 308.767 102.628 309.05C102.628 309.333 102.528 309.567 102.328 309.75C102.128 309.917 101.878 310 101.578 310H101.053ZM94.8281 298.5C94.5781 298.5 94.3698 298.425 94.2031 298.275C94.0365 298.108 93.9531 297.908 93.9531 297.675C93.9531 297.425 94.0365 297.225 94.2031 297.075C94.3698 296.908 94.5781 296.825 94.8281 296.825H101.203C101.453 296.825 101.661 296.908 101.828 297.075C101.995 297.225 102.078 297.425 102.078 297.675C102.078 297.908 101.995 298.108 101.828 298.275C101.661 298.425 101.453 298.5 101.203 298.5H94.8281ZM106.562 301.575C106.612 300.542 106.878 299.617 107.362 298.8C107.862 297.983 108.503 297.342 109.287 296.875C110.087 296.408 110.97 296.175 111.937 296.175C112.703 296.175 113.295 296.283 113.712 296.5C114.128 296.717 114.287 297.033 114.187 297.45C114.12 297.7 114.003 297.867 113.837 297.95C113.687 298.033 113.495 298.067 113.262 298.05C113.045 298.033 112.795 298.017 112.512 298C111.578 297.917 110.745 298.017 110.012 298.3C109.295 298.567 108.72 298.983 108.287 299.55C107.87 300.117 107.662 300.792 107.662 301.575H106.562ZM106.712 310C106.412 310 106.178 309.917 106.012 309.75C105.845 309.583 105.762 309.35 105.762 309.05V297.275C105.762 296.975 105.845 296.742 106.012 296.575C106.178 296.408 106.412 296.325 106.712 296.325C107.012 296.325 107.245 296.408 107.412 296.575C107.578 296.742 107.662 296.975 107.662 297.275V309.05C107.662 309.35 107.578 309.583 107.412 309.75C107.245 309.917 107.012 310 106.712 310ZM118.587 310C118.287 310 118.045 309.917 117.862 309.75C117.695 309.567 117.612 309.325 117.612 309.025V297.3C117.612 297 117.695 296.767 117.862 296.6C118.045 296.417 118.287 296.325 118.587 296.325C118.87 296.325 119.095 296.417 119.262 296.6C119.445 296.767 119.537 297 119.537 297.3V309.025C119.537 309.325 119.445 309.567 119.262 309.75C119.095 309.917 118.87 310 118.587 310ZM118.562 293.725C118.195 293.725 117.879 293.592 117.612 293.325C117.345 293.058 117.212 292.733 117.212 292.35C117.212 291.933 117.345 291.608 117.612 291.375C117.895 291.125 118.22 291 118.587 291C118.937 291 119.245 291.125 119.512 291.375C119.795 291.608 119.937 291.933 119.937 292.35C119.937 292.733 119.804 293.058 119.537 293.325C119.27 293.592 118.945 293.725 118.562 293.725ZM136.163 310C135.88 310 135.647 309.908 135.463 309.725C135.28 309.542 135.188 309.317 135.188 309.05V302.55C135.188 301.517 134.988 300.667 134.588 300C134.205 299.333 133.672 298.833 132.988 298.5C132.322 298.167 131.563 298 130.713 298C129.897 298 129.155 298.158 128.488 298.475C127.838 298.792 127.322 299.225 126.938 299.775C126.555 300.325 126.363 300.95 126.363 301.65H124.988C125.022 300.6 125.305 299.667 125.838 298.85C126.372 298.017 127.08 297.367 127.963 296.9C128.847 296.417 129.83 296.175 130.913 296.175C132.097 296.175 133.155 296.425 134.088 296.925C135.022 297.408 135.755 298.125 136.288 299.075C136.838 300.025 137.113 301.183 137.113 302.55V309.05C137.113 309.317 137.022 309.542 136.838 309.725C136.655 309.908 136.43 310 136.163 310ZM125.413 310C125.113 310 124.872 309.917 124.688 309.75C124.522 309.567 124.438 309.333 124.438 309.05V297.3C124.438 297 124.522 296.767 124.688 296.6C124.872 296.417 125.113 296.325 125.413 296.325C125.697 296.325 125.922 296.417 126.088 296.6C126.272 296.767 126.363 297 126.363 297.3V309.05C126.363 309.333 126.272 309.567 126.088 309.75C125.922 309.917 125.697 310 125.413 310ZM147.382 310.125C146.066 310.125 144.899 309.833 143.882 309.25C142.866 308.65 142.066 307.825 141.482 306.775C140.916 305.725 140.632 304.525 140.632 303.175C140.632 301.808 140.932 300.6 141.532 299.55C142.132 298.5 142.957 297.683 144.007 297.1C145.057 296.5 146.249 296.2 147.582 296.2C148.932 296.2 150.124 296.5 151.157 297.1C152.207 297.683 153.024 298.5 153.607 299.55C154.207 300.6 154.516 301.808 154.532 303.175L153.407 303.775C153.407 305.008 153.149 306.108 152.632 307.075C152.116 308.025 151.399 308.775 150.482 309.325C149.582 309.858 148.549 310.125 147.382 310.125ZM147.632 315.4C146.316 315.4 145.157 315.15 144.157 314.65C143.157 314.167 142.332 313.5 141.682 312.65C141.499 312.45 141.416 312.233 141.432 312C141.466 311.767 141.591 311.575 141.807 311.425C142.024 311.275 142.266 311.225 142.532 311.275C142.799 311.325 143.007 311.45 143.157 311.65C143.641 312.25 144.257 312.733 145.007 313.1C145.774 313.467 146.657 313.65 147.657 313.65C148.591 313.65 149.432 313.425 150.182 312.975C150.932 312.525 151.524 311.892 151.957 311.075C152.407 310.258 152.632 309.3 152.632 308.2V304.4L153.357 302.95L154.532 303.175V308.275C154.532 309.625 154.232 310.833 153.632 311.9C153.032 312.983 152.216 313.833 151.182 314.45C150.149 315.083 148.966 315.4 147.632 315.4ZM147.582 308.375C148.566 308.375 149.432 308.158 150.182 307.725C150.949 307.275 151.549 306.658 151.982 305.875C152.416 305.092 152.632 304.192 152.632 303.175C152.632 302.158 152.416 301.258 151.982 300.475C151.549 299.675 150.949 299.058 150.182 298.625C149.432 298.175 148.566 297.95 147.582 297.95C146.599 297.95 145.724 298.175 144.957 298.625C144.191 299.058 143.591 299.675 143.157 300.475C142.724 301.258 142.507 302.158 142.507 303.175C142.507 304.192 142.724 305.092 143.157 305.875C143.591 306.658 144.191 307.275 144.957 307.725C145.724 308.158 146.599 308.375 147.582 308.375ZM171.826 310.125C170.509 310.125 169.326 309.825 168.276 309.225C167.226 308.608 166.392 307.775 165.776 306.725C165.176 305.675 164.876 304.483 164.876 303.15C164.876 301.833 165.167 300.65 165.751 299.6C166.351 298.55 167.159 297.725 168.176 297.125C169.192 296.508 170.342 296.2 171.626 296.2C172.742 296.2 173.751 296.442 174.651 296.925C175.551 297.392 176.276 298.017 176.826 298.8V291.45C176.826 291.15 176.917 290.917 177.101 290.75C177.284 290.567 177.517 290.475 177.801 290.475C178.084 290.475 178.317 290.567 178.501 290.75C178.684 290.917 178.776 291.15 178.776 291.45V303.25C178.742 304.55 178.417 305.725 177.801 306.775C177.201 307.808 176.376 308.625 175.326 309.225C174.292 309.825 173.126 310.125 171.826 310.125ZM171.826 308.375C172.792 308.375 173.651 308.15 174.401 307.7C175.167 307.233 175.767 306.608 176.201 305.825C176.651 305.042 176.876 304.15 176.876 303.15C176.876 302.167 176.651 301.283 176.201 300.5C175.767 299.7 175.167 299.075 174.401 298.625C173.651 298.175 172.792 297.95 171.826 297.95C170.876 297.95 170.017 298.175 169.251 298.625C168.484 299.075 167.876 299.7 167.426 300.5C166.976 301.283 166.751 302.167 166.751 303.15C166.751 304.15 166.976 305.042 167.426 305.825C167.876 306.608 168.484 307.233 169.251 307.7C170.017 308.15 170.876 308.375 171.826 308.375ZM189.301 310.125C188.018 310.125 186.868 309.825 185.851 309.225C184.835 308.608 184.026 307.775 183.426 306.725C182.843 305.675 182.551 304.492 182.551 303.175C182.551 301.842 182.851 300.65 183.451 299.6C184.068 298.55 184.901 297.725 185.951 297.125C187.001 296.508 188.185 296.2 189.501 296.2C190.818 296.2 191.993 296.508 193.026 297.125C194.076 297.725 194.901 298.55 195.501 299.6C196.118 300.65 196.435 301.842 196.451 303.175L195.676 303.775C195.676 304.975 195.393 306.058 194.826 307.025C194.276 307.975 193.518 308.733 192.551 309.3C191.601 309.85 190.518 310.125 189.301 310.125ZM189.501 308.375C190.468 308.375 191.326 308.15 192.076 307.7C192.843 307.25 193.443 306.633 193.876 305.85C194.326 305.05 194.551 304.158 194.551 303.175C194.551 302.175 194.326 301.283 193.876 300.5C193.443 299.717 192.843 299.1 192.076 298.65C191.326 298.183 190.468 297.95 189.501 297.95C188.551 297.95 187.693 298.183 186.926 298.65C186.16 299.1 185.551 299.717 185.101 300.5C184.651 301.283 184.426 302.175 184.426 303.175C184.426 304.158 184.651 305.05 185.101 305.85C185.551 306.633 186.16 307.25 186.926 307.7C187.693 308.15 188.551 308.375 189.501 308.375ZM195.476 310C195.193 310 194.96 309.917 194.776 309.75C194.593 309.567 194.501 309.333 194.501 309.05V304.775L194.976 302.8L196.451 303.175V309.05C196.451 309.333 196.36 309.567 196.176 309.75C195.993 309.917 195.76 310 195.476 310ZM205.545 310C204.662 310 203.87 309.792 203.17 309.375C202.487 308.958 201.945 308.392 201.545 307.675C201.145 306.942 200.945 306.108 200.945 305.175V292.95C200.945 292.667 201.029 292.433 201.195 292.25C201.379 292.067 201.612 291.975 201.895 291.975C202.179 291.975 202.412 292.067 202.595 292.25C202.779 292.433 202.87 292.667 202.87 292.95V305.175C202.87 306.025 203.12 306.725 203.62 307.275C204.12 307.808 204.762 308.075 205.545 308.075H206.22C206.487 308.075 206.704 308.167 206.87 308.35C207.037 308.533 207.12 308.767 207.12 309.05C207.12 309.333 207.02 309.567 206.82 309.75C206.62 309.917 206.37 310 206.07 310H205.545ZM199.32 298.5C199.07 298.5 198.862 298.425 198.695 298.275C198.529 298.108 198.445 297.908 198.445 297.675C198.445 297.425 198.529 297.225 198.695 297.075C198.862 296.908 199.07 296.825 199.32 296.825H205.695C205.945 296.825 206.154 296.908 206.32 297.075C206.487 297.225 206.57 297.425 206.57 297.675C206.57 297.908 206.487 298.108 206.32 298.275C206.154 298.425 205.945 298.5 205.695 298.5H199.32ZM216.279 310.125C214.996 310.125 213.846 309.825 212.829 309.225C211.812 308.608 211.004 307.775 210.404 306.725C209.821 305.675 209.529 304.492 209.529 303.175C209.529 301.842 209.829 300.65 210.429 299.6C211.046 298.55 211.879 297.725 212.929 297.125C213.979 296.508 215.162 296.2 216.479 296.2C217.796 296.2 218.971 296.508 220.004 297.125C221.054 297.725 221.879 298.55 222.479 299.6C223.096 300.65 223.412 301.842 223.429 303.175L222.654 303.775C222.654 304.975 222.371 306.058 221.804 307.025C221.254 307.975 220.496 308.733 219.529 309.3C218.579 309.85 217.496 310.125 216.279 310.125ZM216.479 308.375C217.446 308.375 218.304 308.15 219.054 307.7C219.821 307.25 220.421 306.633 220.854 305.85C221.304 305.05 221.529 304.158 221.529 303.175C221.529 302.175 221.304 301.283 220.854 300.5C220.421 299.717 219.821 299.1 219.054 298.65C218.304 298.183 217.446 297.95 216.479 297.95C215.529 297.95 214.671 298.183 213.904 298.65C213.137 299.1 212.529 299.717 212.079 300.5C211.629 301.283 211.404 302.175 211.404 303.175C211.404 304.158 211.629 305.05 212.079 305.85C212.529 306.633 213.137 307.25 213.904 307.7C214.671 308.15 215.529 308.375 216.479 308.375ZM222.454 310C222.171 310 221.937 309.917 221.754 309.75C221.571 309.567 221.479 309.333 221.479 309.05V304.775L221.954 302.8L223.429 303.175V309.05C223.429 309.333 223.337 309.567 223.154 309.75C222.971 309.917 222.737 310 222.454 310ZM226.948 314.05C226.781 314.05 226.648 314 226.548 313.9C226.465 313.817 226.423 313.7 226.423 313.55C226.423 313.3 226.498 313.067 226.648 312.85C226.798 312.65 226.948 312.433 227.098 312.2C227.265 311.967 227.348 311.683 227.348 311.35C227.348 311.05 227.29 310.8 227.173 310.6C227.056 310.4 226.915 310.217 226.748 310.05C226.598 309.9 226.465 309.733 226.348 309.55C226.231 309.35 226.173 309.108 226.173 308.825C226.173 308.408 226.306 308.075 226.573 307.825C226.856 307.575 227.206 307.45 227.623 307.45C228.123 307.45 228.531 307.65 228.848 308.05C229.165 308.433 229.323 308.975 229.323 309.675C229.323 310.142 229.256 310.633 229.123 311.15C228.99 311.667 228.806 312.142 228.573 312.575C228.34 313.025 228.081 313.383 227.798 313.65C227.515 313.917 227.231 314.05 226.948 314.05ZM227.223 299.4C226.823 299.4 226.473 299.267 226.173 299C225.89 298.717 225.748 298.367 225.748 297.95C225.748 297.533 225.89 297.183 226.173 296.9C226.456 296.617 226.806 296.475 227.223 296.475C227.623 296.475 227.956 296.625 228.223 296.925C228.506 297.208 228.648 297.55 228.648 297.95C228.648 298.35 228.506 298.692 228.223 298.975C227.956 299.258 227.623 299.4 227.223 299.4Z" fill="white"/>
<path d="M197.066 41.68C196.906 41.68 196.766 41.64 196.646 41.56C196.526 41.48 196.419 41.3467 196.326 41.16C195.539 39.5467 194.952 37.94 194.566 36.34C194.179 34.7267 193.986 33.1133 193.986 31.5C193.986 29.8867 194.179 28.28 194.566 26.68C194.952 25.08 195.539 23.48 196.326 21.88C196.486 21.5333 196.732 21.36 197.066 21.36C197.279 21.36 197.459 21.4333 197.606 21.58C197.752 21.7267 197.826 21.9067 197.826 22.12C197.826 22.28 197.786 22.4267 197.706 22.56C196.239 25.5333 195.506 28.52 195.506 31.52C195.506 33.0133 195.692 34.5133 196.066 36.02C196.439 37.5267 196.992 39.02 197.726 40.5C197.806 40.66 197.846 40.8 197.846 40.92C197.846 41.1333 197.772 41.3133 197.626 41.46C197.479 41.6067 197.292 41.68 197.066 41.68ZM207.003 37C206.803 37 206.63 36.9267 206.483 36.78C206.336 36.6333 206.263 36.4467 206.263 36.22V33.26H199.103C198.89 33.26 198.71 33.1933 198.563 33.06C198.43 32.9133 198.35 32.7467 198.323 32.56C198.31 32.3733 198.363 32.2 198.483 32.04L206.403 21.68C206.47 21.5867 206.55 21.5133 206.643 21.46C206.75 21.3933 206.883 21.36 207.043 21.36C207.256 21.36 207.43 21.44 207.563 21.6C207.71 21.7467 207.783 21.9333 207.783 22.16V31.86H209.363C209.576 31.86 209.756 31.9133 209.903 32.02C210.05 32.1267 210.123 32.3133 210.123 32.58C210.123 32.7533 210.05 32.9133 209.903 33.06C209.756 33.1933 209.576 33.26 209.363 33.26H207.783V36.22C207.783 36.4467 207.71 36.6333 207.563 36.78C207.416 36.9267 207.23 37 207.003 37ZM199.943 32.46L199.663 31.86H206.263V23.28L206.663 23.7L199.943 32.46ZM216.692 37C215.706 37 214.859 36.6867 214.152 36.06C213.446 35.4333 212.906 34.54 212.532 33.38C212.172 32.2067 211.992 30.8 211.992 29.16C211.992 27.5467 212.172 26.1533 212.532 24.98C212.906 23.8067 213.446 22.9067 214.152 22.28C214.859 21.6533 215.706 21.34 216.692 21.34C217.706 21.34 218.559 21.66 219.252 22.3C219.959 22.9267 220.492 23.8267 220.852 25C221.226 26.1733 221.412 27.56 221.412 29.16C221.412 30.7867 221.226 32.1867 220.852 33.36C220.492 34.52 219.959 35.42 219.252 36.06C218.559 36.6867 217.706 37 216.692 37ZM216.692 35.44C217.412 35.44 218.006 35.1733 218.472 34.64C218.939 34.0933 219.286 33.3467 219.512 32.4C219.739 31.4533 219.852 30.3733 219.852 29.16C219.852 27.96 219.732 26.8933 219.492 25.96C219.266 25.0133 218.919 24.2667 218.452 23.72C217.986 23.1733 217.399 22.9 216.692 22.9C215.986 22.9 215.399 23.1733 214.932 23.72C214.479 24.2533 214.132 24.9933 213.892 25.94C213.666 26.8867 213.552 27.96 213.552 29.16C213.552 30.3867 213.666 31.4733 213.892 32.42C214.132 33.3533 214.479 34.0933 214.932 34.64C215.399 35.1733 215.986 35.44 216.692 35.44ZM235.617 37.1C234.577 37.1 233.637 36.86 232.797 36.38C231.971 35.9 231.311 35.2467 230.817 34.42C230.337 33.58 230.091 32.64 230.077 31.6V22.16C230.077 21.92 230.144 21.7333 230.277 21.6C230.424 21.4533 230.617 21.38 230.857 21.38C231.084 21.38 231.264 21.4533 231.397 21.6C231.544 21.7333 231.617 21.92 231.617 22.16V28.04C232.057 27.4133 232.637 26.9133 233.357 26.54C234.091 26.1533 234.904 25.96 235.797 25.96C236.824 25.96 237.744 26.2067 238.557 26.7C239.371 27.18 240.011 27.84 240.477 28.68C240.957 29.52 241.197 30.4667 241.197 31.52C241.197 32.5867 240.951 33.54 240.457 34.38C239.977 35.22 239.317 35.8867 238.477 36.38C237.637 36.86 236.684 37.1 235.617 37.1ZM235.617 35.7C236.391 35.7 237.084 35.52 237.697 35.16C238.311 34.7867 238.791 34.2867 239.137 33.66C239.497 33.0333 239.677 32.32 239.677 31.52C239.677 30.7333 239.497 30.0267 239.137 29.4C238.791 28.76 238.311 28.26 237.697 27.9C237.084 27.54 236.391 27.36 235.617 27.36C234.857 27.36 234.171 27.54 233.557 27.9C232.944 28.26 232.464 28.76 232.117 29.4C231.771 30.0267 231.597 30.7333 231.597 31.52C231.597 32.32 231.771 33.0333 232.117 33.66C232.464 34.2867 232.944 34.7867 233.557 35.16C234.171 35.52 234.857 35.7 235.617 35.7ZM245.493 41.76C245.386 41.76 245.266 41.7333 245.133 41.68C244.679 41.48 244.552 41.16 244.752 40.72L251.213 26.48C251.413 26.0533 251.733 25.9333 252.173 26.12C252.626 26.3067 252.753 26.62 252.553 27.06L246.073 41.3C245.939 41.6067 245.746 41.76 245.493 41.76ZM247.713 36.66C247.513 36.7533 247.326 36.7733 247.153 36.72C246.979 36.6533 246.839 36.52 246.733 36.32L242.273 27.08C242.179 26.88 242.166 26.6933 242.233 26.52C242.299 26.3467 242.433 26.2133 242.633 26.12C242.833 26.0267 243.019 26.0133 243.193 26.08C243.366 26.1333 243.499 26.26 243.593 26.46L247.973 35.7C248.079 35.9 248.113 36.0867 248.073 36.26C248.033 36.4333 247.913 36.5667 247.713 36.66ZM258.85 37C258.143 37 257.51 36.8333 256.95 36.5C256.403 36.1667 255.97 35.7133 255.65 35.14C255.33 34.5533 255.17 33.8867 255.17 33.14V23.36C255.17 23.1333 255.236 22.9467 255.37 22.8C255.516 22.6533 255.703 22.58 255.93 22.58C256.156 22.58 256.343 22.6533 256.49 22.8C256.636 22.9467 256.71 23.1333 256.71 23.36V33.14C256.71 33.82 256.91 34.38 257.31 34.82C257.71 35.2467 258.223 35.46 258.85 35.46H259.39C259.603 35.46 259.776 35.5333 259.91 35.68C260.043 35.8267 260.11 36.0133 260.11 36.24C260.11 36.4667 260.03 36.6533 259.87 36.8C259.71 36.9333 259.51 37 259.27 37H258.85ZM253.87 27.8C253.67 27.8 253.503 27.74 253.37 27.62C253.236 27.4867 253.17 27.3267 253.17 27.14C253.17 26.94 253.236 26.78 253.37 26.66C253.503 26.5267 253.67 26.46 253.87 26.46H258.97C259.17 26.46 259.336 26.5267 259.47 26.66C259.603 26.78 259.67 26.94 259.67 27.14C259.67 27.3267 259.603 27.4867 259.47 27.62C259.336 27.74 259.17 27.8 258.97 27.8H253.87ZM267.576 37.1C266.496 37.1 265.536 36.8667 264.696 36.4C263.87 35.92 263.216 35.26 262.736 34.42C262.27 33.58 262.036 32.62 262.036 31.54C262.036 30.4467 262.256 29.4867 262.696 28.66C263.15 27.82 263.77 27.16 264.556 26.68C265.343 26.2 266.25 25.96 267.276 25.96C268.29 25.96 269.17 26.1933 269.916 26.66C270.676 27.1133 271.263 27.7467 271.676 28.56C272.09 29.3733 272.296 30.3 272.296 31.34C272.296 31.5533 272.23 31.7267 272.096 31.86C271.963 31.98 271.79 32.04 271.576 32.04H263.076V30.76H271.736L270.876 31.38C270.89 30.6067 270.75 29.9133 270.456 29.3C270.163 28.6867 269.743 28.2067 269.196 27.86C268.663 27.5133 268.023 27.34 267.276 27.34C266.516 27.34 265.85 27.52 265.276 27.88C264.703 28.24 264.256 28.74 263.936 29.38C263.63 30.0067 263.476 30.7267 263.476 31.54C263.476 32.3533 263.65 33.0733 263.996 33.7C264.356 34.3267 264.843 34.82 265.456 35.18C266.07 35.54 266.776 35.72 267.576 35.72C268.056 35.72 268.536 35.64 269.016 35.48C269.51 35.3067 269.903 35.0933 270.196 34.84C270.343 34.72 270.51 34.66 270.696 34.66C270.883 34.6467 271.043 34.6933 271.176 34.8C271.35 34.96 271.436 35.1333 271.436 35.32C271.45 35.5067 271.376 35.6667 271.216 35.8C270.776 36.1733 270.216 36.4867 269.536 36.74C268.856 36.98 268.203 37.1 267.576 37.1ZM278.722 37.1C277.935 37.1 277.155 36.9667 276.382 36.7C275.608 36.4333 274.982 36.0333 274.502 35.5C274.355 35.34 274.295 35.16 274.322 34.96C274.348 34.76 274.448 34.5867 274.622 34.44C274.808 34.3067 275.002 34.2533 275.202 34.28C275.402 34.3067 275.568 34.3933 275.702 34.54C276.022 34.9133 276.442 35.2 276.962 35.4C277.495 35.6 278.082 35.7 278.722 35.7C279.708 35.7 280.422 35.5333 280.862 35.2C281.302 34.8533 281.528 34.44 281.542 33.96C281.542 33.48 281.315 33.0867 280.862 32.78C280.408 32.46 279.662 32.2133 278.622 32.04C277.275 31.8267 276.288 31.4533 275.662 30.92C275.035 30.3867 274.722 29.7533 274.722 29.02C274.722 28.34 274.902 27.7733 275.262 27.32C275.622 26.8667 276.102 26.5267 276.702 26.3C277.302 26.0733 277.962 25.96 278.682 25.96C279.575 25.96 280.342 26.1133 280.982 26.42C281.635 26.7267 282.162 27.14 282.562 27.66C282.695 27.8333 282.748 28.0133 282.722 28.2C282.695 28.3867 282.588 28.54 282.402 28.66C282.242 28.7533 282.055 28.7867 281.842 28.76C281.642 28.72 281.468 28.62 281.322 28.46C280.988 28.0733 280.602 27.7933 280.162 27.62C279.722 27.4333 279.215 27.34 278.642 27.34C277.908 27.34 277.322 27.4933 276.882 27.8C276.442 28.0933 276.222 28.4667 276.222 28.92C276.222 29.2267 276.302 29.4933 276.462 29.72C276.635 29.9467 276.922 30.1467 277.322 30.32C277.735 30.4933 278.308 30.64 279.042 30.76C280.042 30.92 280.828 31.16 281.402 31.48C281.988 31.7867 282.402 32.1533 282.642 32.58C282.895 32.9933 283.022 33.4467 283.022 33.94C283.022 34.5667 282.835 35.12 282.462 35.6C282.102 36.0667 281.595 36.4333 280.942 36.7C280.302 36.9667 279.562 37.1 278.722 37.1ZM284.863 41.68C284.649 41.68 284.469 41.6067 284.323 41.46C284.176 41.3133 284.103 41.1333 284.103 40.92C284.103 40.8 284.136 40.66 284.203 40.5C284.936 39.02 285.489 37.5267 285.863 36.02C286.249 34.5133 286.443 33.0133 286.443 31.52C286.443 28.52 285.703 25.5333 284.223 22.56C284.156 22.4267 284.116 22.28 284.103 22.12C284.103 21.9067 284.176 21.7267 284.323 21.58C284.483 21.4333 284.663 21.36 284.863 21.36C285.209 21.36 285.463 21.5333 285.623 21.88C286.409 23.48 286.996 25.08 287.383 26.68C287.769 28.28 287.963 29.8867 287.963 31.5C287.963 33.1133 287.763 34.7267 287.363 36.34C286.976 37.94 286.396 39.5467 285.623 41.16C285.516 41.3467 285.403 41.48 285.283 41.56C285.176 41.64 285.036 41.68 284.863 41.68Z" fill="white"/>
</svg>
