<?xml version="1.0" encoding="UTF-8"?>
<svg fill="none" viewBox="0 0 500 313" xmlns="http://www.w3.org/2000/svg">
<defs>
<mask>
<rect width="100%" height="100%" fill="#fff"/>
<rect width="499" height="312" fill="#000"/>
</mask>
</defs>
<g fill="#fff" fill-rule="evenodd" stroke="#000" stroke-linecap="round" stroke-linejoin="round"></g>
<g fill="#2D2A2E" fill-rule="evenodd" stroke="#2D2A2E" stroke-linecap="round" stroke-linejoin="round">
<path d="m64 68q0-4 4-4h363.8q4 0 4 4v176.6q0 4-4 4h-363.8q-4 0-4-4z"/>
</g>
<g fill="#FF5F56" fill-rule="evenodd" stroke="#FF5F56" stroke-linecap="round" stroke-linejoin="round">
<path d="m92 85a7 7 0 1 0 0 0.01z"/>
</g>
<g fill="#FFBD2E" fill-rule="evenodd" stroke="#FFBD2E" stroke-linecap="round" stroke-linejoin="round">
<path d="m115.1 85a7 7 0 1 0 0 0.01z"/>
</g>
<g fill="#27C93F" fill-rule="evenodd" stroke="#27C93F" stroke-linecap="round" stroke-linejoin="round">
<path d="m138.2 85a7 7 0 1 0 0 0.01z"/>
</g>
<g fill="#aaa" fill-rule="evenodd">
<path d="m96.719 121.8h-1.5v-9.891l-3.094 1.172v-1.375l4.469-1.718h0.125v11.812"/>
</g>
<g fill="#fff" fill-rule="evenodd">
<path d="m123.86 118.75q0-0.734-0.547-1.258-0.546-0.523-1.734-0.914-0.75-0.234-1.359-0.547-0.61-0.312-1.047-0.734-0.438-0.422-0.672-0.977-0.234-0.554-0.234-1.273 0-0.687 0.211-1.234t0.585-0.961q0.376-0.414 0.915-0.664t1.195-0.328v-1.782h1.203v1.782q1.375 0.187 2.125 1.148t0.766 2.617h-1.5q0-0.547-0.133-1.008t-0.391-0.789-0.633-0.515q-0.375-0.188-0.843-0.188-0.985 0-1.485 0.516-0.5 0.515-0.515 1.375 0 0.406 0.132 0.726 0.133 0.321 0.414 0.578 0.282 0.258 0.719 0.485 0.438 0.226 1.063 0.43 0.765 0.25 1.375 0.562 0.609 0.313 1.031 0.727t0.641 0.953q0.218 0.539 0.218 1.258 0 0.703-0.218 1.265-0.219 0.563-0.625 0.961-0.407 0.399-0.985 0.649t-1.297 0.312v1.563h-1.203v-1.547q-0.625-0.063-1.211-0.289-0.586-0.227-1.031-0.664-0.445-0.438-0.711-1.094t-0.266-1.578h1.5q0 0.687 0.204 1.14 0.203 0.453 0.523 0.719t0.727 0.375q0.406 0.109 0.812 0.109 0.531 0 0.953-0.125t0.719-0.375 0.453-0.601q0.156-0.352 0.156-0.805"/>
<path d="m142.27 110.89v2.125h3.344v1.172h-3.344v4.765q0 0.516 0.125 0.844t0.351 0.531q0.227 0.203 0.524 0.282 0.297 0.078 0.64 0.078 0.235 0 0.493-0.032 0.257-0.031 0.507-0.07t0.461-0.086 0.352-0.078l0.219 1.063q-0.188 0.125-0.453 0.203-0.266 0.078-0.586 0.14-0.321 0.063-0.672 0.094-0.352 0.031-0.696 0.031-0.593 0-1.101-0.164t-0.875-0.523q-0.367-0.36-0.586-0.93t-0.219-1.383v-4.765h-2.297v-1.172h2.297v-2.125h1.516"/>
<path d="m149.34 113.02h4.484v7.484h2.875v1.297h-7.359v-1.297h2.984v-6.172h-2.984v-1.312m2.796-2.297q0-0.375 0.219-0.633t0.688-0.258q0.437 0 0.664 0.258 0.226 0.258 0.226 0.633 0 0.359-0.226 0.601-0.227 0.243-0.664 0.243-0.469 0-0.688-0.243-0.219-0.242-0.219-0.601"/>
<path d="m160.19 113.02 0.047 0.828q0.265-0.453 0.703-0.711 0.437-0.258 1.047-0.273 1.203 0 1.609 0.937 0.266-0.422 0.695-0.672 0.43-0.25 1.024-0.265 0.968 0 1.492 0.593 0.523 0.594 0.523 1.797v6.547h-1.437v-6.562q0-1.11-1.016-1.094-0.265 0-0.461 0.07-0.195 0.07-0.32 0.195t-0.203 0.289q-0.078 0.165-0.094 0.352v6.75h-1.422v-6.578q0-0.531-0.242-0.813-0.242-0.281-0.742-0.265-0.469 0-0.735 0.179-0.265 0.18-0.375 0.493v6.984h-1.437v-8.781h1.344"/>
<path d="m173.78 121.96q-0.922 0-1.695-0.312-0.774-0.313-1.32-0.883-0.547-0.57-0.86-1.344-0.312-0.773-0.312-1.695v-0.344q0-1.062 0.344-1.898 0.343-0.836 0.906-1.422 0.562-0.586 1.281-0.891 0.719-0.304 1.469-0.304 0.953 0 1.664 0.328t1.18 0.906q0.468 0.578 0.695 1.367 0.226 0.789 0.226 1.711v0.672h-6.265q0.031 0.594 0.234 1.125t0.563 0.922q0.359 0.39 0.867 0.617t1.117 0.227q0.797 0 1.422-0.329 0.625-0.328 1.031-0.859l0.922 0.719q-0.219 0.328-0.547 0.633-0.328 0.304-0.758 0.539-0.429 0.234-0.976 0.375-0.547 0.14-1.188 0.14m-0.187-7.859q-0.453 0-0.86 0.164-0.406 0.164-0.734 0.484-0.328 0.321-0.547 0.789-0.219 0.469-0.312 1.079h4.718v-0.11q-0.015-0.437-0.156-0.875-0.141-0.437-0.422-0.773t-0.695-0.547-0.992-0.211"/>
<path d="m194.46 120.75q0.407 0 0.789-0.133 0.383-0.132 0.68-0.367 0.297-0.234 0.484-0.547 0.188-0.312 0.188-0.672h1.422q-0.016 0.579-0.305 1.11t-0.789 0.937q-0.5 0.407-1.141 0.641-0.64 0.234-1.328 0.234-1 0-1.75-0.351-0.75-0.352-1.25-0.961-0.5-0.61-0.75-1.399t-0.25-1.664v-0.343q0-0.86 0.25-1.657t0.75-1.398q0.5-0.602 1.25-0.961t1.75-0.359q0.766 0 1.422 0.25t1.133 0.671q0.477 0.422 0.742 1.008 0.266 0.586 0.266 1.242h-1.422q0-0.39-0.172-0.742-0.172-0.351-0.453-0.617t-0.672-0.422-0.844-0.156q-0.703 0-1.179 0.281-0.477 0.281-0.766 0.727-0.289 0.445-0.414 1.008-0.125 0.562-0.125 1.125v0.343q0 0.578 0.125 1.141 0.125 0.562 0.414 1.016 0.289 0.453 0.758 0.734t1.187 0.281"/>
<path d="m201.34 109.35h4.484v11.156h2.875v1.297h-7.359v-1.297h2.984v-9.859h-2.984v-1.297"/>
<path d="m212.52 113.02h4.437v8.844q0 0.843-0.234 1.492-0.234 0.648-0.68 1.086-0.445 0.437-1.078 0.672-0.633 0.234-1.445 0.234-0.469 0-0.867-0.031-0.399-0.032-0.836-0.11l0.094-1.234q0.14 0.031 0.351 0.047 0.211 0.015 0.43 0.031t0.414 0.016 0.305 0q0.421 0 0.796-0.11 0.375-0.109 0.649-0.367 0.273-0.258 0.437-0.68 0.164-0.421 0.164-1.046v-7.532h-2.937v-1.312m2.719-2.313q0-0.359 0.218-0.617 0.219-0.258 0.672-0.258t0.68 0.258 0.227 0.617q0 0.375-0.227 0.617-0.227 0.243-0.68 0.243t-0.672-0.243q-0.218-0.242-0.218-0.617"/>
<path d="m233.81 114.33q0.469-0.687 1.164-1.07 0.696-0.383 1.555-0.398 0.688 0 1.25 0.195 0.563 0.195 0.961 0.617t0.609 1.07q0.211 0.649 0.211 1.539v5.516h-1.5v-5.547q0-1.078-0.515-1.601-0.516-0.524-1.469-0.508-0.719 0-1.305 0.351-0.586 0.352-0.961 0.93v6.375h-1.5v-12.453h1.5v4.984"/>
<path d="m246.58 121.96q-0.922 0-1.695-0.312-0.773-0.313-1.32-0.883t-0.86-1.344q-0.312-0.773-0.312-1.695v-0.344q0-1.062 0.344-1.898 0.343-0.836 0.906-1.422 0.562-0.586 1.281-0.891 0.719-0.304 1.469-0.304 0.953 0 1.664 0.328t1.18 0.906q0.468 0.578 0.695 1.367 0.226 0.789 0.226 1.711v0.672h-6.265q0.031 0.594 0.234 1.125t0.563 0.922q0.359 0.39 0.867 0.617t1.117 0.227q0.797 0 1.422-0.329 0.625-0.328 1.031-0.859l0.922 0.719q-0.219 0.328-0.547 0.633-0.328 0.304-0.758 0.539-0.429 0.234-0.976 0.375-0.547 0.14-1.188 0.14m-0.187-7.859q-0.453 0-0.86 0.164-0.406 0.164-0.734 0.484-0.328 0.321-0.547 0.789-0.219 0.469-0.312 1.079h4.718v-0.11q-0.015-0.437-0.156-0.875-0.14-0.437-0.422-0.773-0.281-0.336-0.695-0.547t-0.992-0.211"/>
<path d="m253.34 109.35h4.484v11.156h2.875v1.297h-7.359v-1.297h2.984v-9.859h-2.984v-1.297"/>
<path d="m263.74 109.35h4.484v11.156h2.875v1.297h-7.359v-1.297h2.984v-9.859h-2.984v-1.297"/>
<path d="m273.48 117.33q0-0.953 0.282-1.765 0.281-0.813 0.796-1.414 0.516-0.602 1.25-0.946 0.735-0.343 1.657-0.343 0.937 0 1.679 0.343 0.743 0.344 1.258 0.946 0.516 0.601 0.789 1.414 0.274 0.812 0.274 1.765v0.172q0 0.953-0.274 1.766-0.273 0.812-0.789 1.414-0.515 0.601-1.258 0.937-0.742 0.336-1.664 0.336t-1.664-0.336-1.258-0.937q-0.515-0.602-0.796-1.414-0.282-0.813-0.282-1.766v-0.172m1.5 0.172q0 0.656 0.157 1.242 0.156 0.586 0.468 1.032 0.313 0.445 0.782 0.711 0.468 0.265 1.093 0.265t1.086-0.265q0.461-0.266 0.774-0.711 0.312-0.446 0.468-1.032 0.157-0.586 0.157-1.242v-0.172q0-0.64-0.157-1.226-0.156-0.586-0.468-1.032-0.313-0.445-0.782-0.71-0.468-0.266-1.093-0.266t-1.086 0.266q-0.461 0.265-0.774 0.71-0.312 0.446-0.468 1.032-0.157 0.586-0.157 1.226v0.172"/>
<path d="m290.87 117.25h-6.203v-1.234h6.203v1.234"/>
<path d="m296.03 118.63 0.188 1.25 0.219-1.25 1.406-5.609h0.953l1.406 5.609 0.235 1.375 0.218-1.375 0.969-5.609h1.328l-1.859 8.781h-1.188l-1.375-5.375-0.218-1.359-0.219 1.359-1.359 5.375h-1.188l-1.859-8.781h1.328l1.015 5.609"/>
<path d="m304.68 117.33q0-0.953 0.282-1.765 0.281-0.813 0.797-1.414 0.515-0.602 1.25-0.946 0.734-0.343 1.656-0.343 0.937 0 1.679 0.343 0.743 0.344 1.258 0.946 0.516 0.601 0.789 1.414 0.274 0.812 0.274 1.765v0.172q0 0.953-0.274 1.766-0.273 0.812-0.789 1.414-0.515 0.601-1.258 0.937-0.742 0.336-1.664 0.336-0.921 0-1.664-0.336-0.742-0.336-1.257-0.937-0.516-0.602-0.797-1.414-0.282-0.813-0.282-1.766v-0.172m1.5 0.172q0 0.656 0.157 1.242 0.156 0.586 0.468 1.032 0.313 0.445 0.782 0.711 0.468 0.265 1.093 0.265t1.086-0.265q0.461-0.266 0.774-0.711 0.312-0.446 0.469-1.032 0.156-0.586 0.156-1.242v-0.172q0-0.64-0.156-1.226-0.157-0.586-0.469-1.032-0.313-0.445-0.781-0.71-0.469-0.266-1.094-0.266t-1.086 0.266q-0.461 0.265-0.774 0.71-0.312 0.446-0.468 1.032-0.157 0.586-0.157 1.226v0.172"/>
<path d="m321.26 112.86q0.219 0 0.446 0.015 0.226 0.016 0.429 0.039 0.203 0.024 0.383 0.063t0.289 0.101l-0.203 1.453q-0.437-0.093-0.828-0.132t-0.828-0.039q-1.047 0-1.703 0.476-0.657 0.477-0.969 1.336v5.625h-1.5v-8.781h1.422l0.078 1.406q0.531-0.734 1.281-1.148t1.703-0.414"/>
<path d="m326.14 109.35h4.484v11.156h2.875v1.297h-7.359v-1.297h2.984v-9.859h-2.984v-1.297"/>
<path d="m336.02 117.35q0-0.984 0.25-1.813 0.25-0.828 0.703-1.414t1.109-0.922q0.657-0.335 1.454-0.335 0.781 0 1.375 0.265 0.593 0.266 1.015 0.766v-4.547h1.5v12.453h-1.375l-0.062-0.922q-0.438 0.531-1.047 0.805-0.61 0.273-1.422 0.273-0.797 0-1.445-0.336-0.649-0.336-1.102-0.937-0.453-0.602-0.703-1.414-0.25-0.813-0.25-1.766v-0.156m1.5 0.156q0 0.641 0.141 1.219 0.14 0.578 0.429 1.016 0.289 0.437 0.735 0.695 0.445 0.258 1.07 0.258 0.375 0 0.687-0.094 0.313-0.094 0.563-0.258t0.445-0.391q0.196-0.226 0.336-0.523v-4.062q-0.297-0.532-0.789-0.875-0.492-0.344-1.226-0.344-0.641 0-1.086 0.258-0.446 0.257-0.735 0.695-0.289 0.437-0.429 1.023-0.141 0.586-0.141 1.227v0.156"/>
<path d="m349.32 120.83q0-0.25 0.078-0.461t0.226-0.367q0.149-0.156 0.368-0.25 0.218-0.094 0.515-0.094 0.281 0 0.508 0.094t0.375 0.25 0.227 0.367q0.078 0.211 0.078 0.461 0 0.235-0.078 0.438-0.079 0.203-0.227 0.359t-0.375 0.242-0.508 0.086q-0.297 0-0.515-0.086-0.219-0.086-0.368-0.242-0.148-0.156-0.226-0.359t-0.078-0.438"/>
<path d="m360.86 120.75q0.407 0 0.789-0.133 0.383-0.132 0.68-0.367 0.297-0.234 0.484-0.547 0.188-0.312 0.188-0.672h1.422q-0.016 0.579-0.305 1.11t-0.789 0.937q-0.5 0.407-1.141 0.641-0.64 0.234-1.328 0.234-1 0-1.75-0.351-0.75-0.352-1.25-0.961-0.5-0.61-0.75-1.399t-0.25-1.664v-0.343q0-0.86 0.25-1.657t0.75-1.398q0.5-0.602 1.25-0.961t1.75-0.359q0.766 0 1.422 0.25t1.133 0.671q0.477 0.422 0.742 1.008 0.266 0.586 0.266 1.242h-1.422q0-0.39-0.172-0.742-0.172-0.351-0.453-0.617t-0.672-0.422-0.844-0.156q-0.703 0-1.179 0.281-0.477 0.281-0.766 0.727-0.289 0.445-0.414 1.008-0.125 0.562-0.125 1.125v0.343q0 0.578 0.125 1.141 0.125 0.562 0.414 1.016 0.289 0.453 0.758 0.734t1.187 0.281"/>
<path d="m367.74 109.35h4.484v11.156h2.875v1.297h-7.359v-1.297h2.984v-9.859h-2.984v-1.297"/>
<path d="m378.92 113.02h4.437v8.844q0 0.843-0.234 1.492-0.234 0.648-0.68 1.086-0.445 0.437-1.078 0.672-0.633 0.234-1.445 0.234-0.469 0-0.867-0.031-0.399-0.032-0.836-0.11l0.093-1.234q0.141 0.031 0.352 0.047 0.211 0.015 0.43 0.031 0.218 0.016 0.414 0.016 0.195 0 0.304 0 0.422 0 0.797-0.11 0.375-0.109 0.649-0.367 0.273-0.258 0.437-0.68 0.164-0.421 0.164-1.046v-7.532h-2.937v-1.312m2.719-2.313q0-0.359 0.218-0.617 0.219-0.258 0.672-0.258t0.68 0.258 0.227 0.617q0 0.375-0.227 0.617-0.227 0.243-0.68 0.243t-0.672-0.243q-0.218-0.242-0.218-0.617"/>
</g>
<g fill="#aaa" fill-rule="evenodd">
<path d="m99.094 143.9h-7.735v-1.078l3.86-4.297q0.515-0.578 0.867-1.023 0.352-0.446 0.562-0.821 0.211-0.375 0.305-0.711t0.094-0.695q0-0.437-0.149-0.828-0.148-0.391-0.414-0.672-0.265-0.281-0.656-0.445-0.39-0.164-0.875-0.164-0.594 0-1.023 0.172-0.43 0.171-0.719 0.484-0.289 0.312-0.43 0.758-0.14 0.445-0.14 0.992h-1.516q0-0.75 0.258-1.406 0.258-0.657 0.75-1.157t1.203-0.789 1.617-0.289q0.844 0 1.508 0.25t1.125 0.688q0.461 0.437 0.711 1.031t0.25 1.313q0 0.515-0.18 1.031-0.179 0.515-0.484 1.023t-0.703 0.992q-0.399 0.485-0.852 0.985l-3.172 3.437h5.938v1.219"/>
</g>
<g fill="#fff" fill-rule="evenodd">
<path d="m119.41 136.43q0.469-0.687 1.164-1.07 0.696-0.383 1.555-0.398 0.687 0 1.25 0.195t0.961 0.617 0.609 1.07q0.211 0.649 0.211 1.539v5.516h-1.5v-5.547q0-1.078-0.515-1.601-0.516-0.524-1.469-0.508-0.719 0-1.305 0.351-0.586 0.352-0.961 0.93v6.375h-1.5v-12.453h1.5v4.984"/>
<path d="m132.18 144.06q-0.922 0-1.695-0.312-0.773-0.313-1.32-0.883t-0.86-1.344q-0.312-0.773-0.312-1.695v-0.344q0-1.062 0.344-1.898 0.343-0.836 0.906-1.422 0.562-0.586 1.281-0.891 0.719-0.304 1.469-0.304 0.953 0 1.664 0.328t1.18 0.906q0.468 0.578 0.695 1.367 0.226 0.789 0.226 1.711v0.672h-6.265q0.031 0.594 0.234 1.125t0.563 0.922q0.359 0.39 0.867 0.617t1.117 0.227q0.797 0 1.422-0.329 0.625-0.328 1.031-0.859l0.922 0.719q-0.219 0.328-0.547 0.633-0.328 0.304-0.758 0.539-0.429 0.234-0.976 0.375-0.547 0.14-1.188 0.14m-0.187-7.859q-0.453 0-0.86 0.164-0.406 0.164-0.734 0.484-0.328 0.321-0.547 0.789-0.219 0.469-0.312 1.079h4.718v-0.11q-0.015-0.437-0.156-0.875-0.14-0.437-0.422-0.773-0.281-0.336-0.695-0.547t-0.992-0.211"/>
<path d="m138.94 131.45h4.484v11.156h2.875v1.297h-7.359v-1.297h2.984v-9.859h-2.984v-1.297"/>
<path d="m149.34 131.45h4.484v11.156h2.875v1.297h-7.359v-1.297h2.984v-9.859h-2.984v-1.297"/>
<path d="m159.08 139.43q0-0.953 0.282-1.765 0.281-0.813 0.796-1.414 0.516-0.602 1.25-0.946 0.735-0.343 1.657-0.343 0.937 0 1.679 0.343 0.743 0.344 1.258 0.946 0.516 0.601 0.789 1.414 0.274 0.812 0.274 1.765v0.172q0 0.953-0.274 1.766-0.273 0.812-0.789 1.414-0.515 0.601-1.258 0.937-0.742 0.336-1.664 0.336t-1.664-0.336-1.258-0.937q-0.515-0.602-0.796-1.414-0.282-0.813-0.282-1.766v-0.172m1.5 0.172q0 0.656 0.157 1.242 0.156 0.586 0.468 1.032 0.313 0.445 0.782 0.711 0.468 0.265 1.093 0.265t1.086-0.265q0.461-0.266 0.774-0.711 0.312-0.446 0.468-1.032 0.157-0.586 0.157-1.242v-0.172q0-0.64-0.157-1.226-0.156-0.586-0.468-1.032-0.313-0.445-0.782-0.71-0.468-0.266-1.093-0.266t-1.086 0.266q-0.461 0.265-0.774 0.71-0.312 0.446-0.468 1.032-0.157 0.586-0.157 1.226v0.172"/>
<path d="m181.63 140.73 0.188 1.25 0.219-1.25 1.406-5.609h0.953l1.406 5.609 0.235 1.375 0.218-1.375 0.969-5.609h1.328l-1.859 8.781h-1.188l-1.375-5.375-0.218-1.359-0.219 1.359-1.359 5.375h-1.188l-1.859-8.781h1.328l1.015 5.609"/>
<path d="m190.28 139.43q0-0.953 0.282-1.765 0.281-0.813 0.797-1.414 0.515-0.602 1.25-0.946 0.734-0.343 1.656-0.343 0.937 0 1.679 0.343 0.743 0.344 1.258 0.946 0.516 0.601 0.789 1.414 0.274 0.812 0.274 1.765v0.172q0 0.953-0.274 1.766-0.273 0.812-0.789 1.414-0.515 0.601-1.258 0.937-0.742 0.336-1.664 0.336-0.921 0-1.664-0.336-0.742-0.336-1.257-0.937-0.516-0.602-0.797-1.414-0.282-0.813-0.282-1.766v-0.172m1.5 0.172q0 0.656 0.157 1.242 0.156 0.586 0.468 1.032 0.313 0.445 0.782 0.711 0.468 0.265 1.093 0.265t1.086-0.265q0.461-0.266 0.774-0.711 0.312-0.446 0.469-1.032 0.156-0.586 0.156-1.242v-0.172q0-0.64-0.156-1.226-0.157-0.586-0.469-1.032-0.313-0.445-0.781-0.71-0.469-0.266-1.094-0.266t-1.086 0.266q-0.461 0.265-0.774 0.71-0.312 0.446-0.468 1.032-0.157 0.586-0.157 1.226v0.172"/>
<path d="m206.86 134.96q0.219 0 0.446 0.015 0.226 0.016 0.429 0.039 0.203 0.024 0.383 0.063t0.289 0.101l-0.203 1.453q-0.438-0.093-0.828-0.132-0.391-0.039-0.828-0.039-1.047 0-1.703 0.476-0.657 0.477-0.969 1.336v5.625h-1.5v-8.781h1.422l0.078 1.406q0.531-0.734 1.281-1.148t1.703-0.414"/>
<path d="m211.74 131.45h4.484v11.156h2.875v1.297h-7.359v-1.297h2.984v-9.859h-2.984v-1.297"/>
<path d="m221.62 139.45q0-0.984 0.25-1.813 0.25-0.828 0.703-1.414t1.11-0.922q0.656-0.335 1.453-0.335 0.781 0 1.375 0.265 0.593 0.266 1.015 0.766v-4.547h1.5v12.453h-1.375l-0.062-0.922q-0.438 0.531-1.047 0.805-0.609 0.273-1.422 0.273-0.797 0-1.445-0.336-0.649-0.336-1.102-0.937-0.453-0.602-0.703-1.414-0.25-0.813-0.25-1.766v-0.156m1.5 0.156q0 0.641 0.141 1.219 0.14 0.578 0.429 1.016 0.289 0.437 0.735 0.695 0.445 0.258 1.07 0.258 0.375 0 0.688-0.094 0.312-0.094 0.562-0.258t0.445-0.391q0.196-0.226 0.336-0.523v-4.062q-0.297-0.532-0.789-0.875-0.492-0.344-1.226-0.344-0.641 0-1.086 0.258-0.446 0.257-0.735 0.695-0.289 0.437-0.429 1.023-0.141 0.586-0.141 1.227v0.156"/>
</g>
<g fill="#aaa" fill-rule="evenodd">
<path d="m93.594 159.38h1.078q0.562 0 1-0.156 0.437-0.157 0.734-0.422 0.297-0.266 0.446-0.641 0.148-0.375 0.148-0.812 0-1.032-0.523-1.555-0.524-0.523-1.539-0.523-0.485 0-0.876 0.14-0.39 0.141-0.671 0.406-0.282 0.266-0.43 0.641-0.149 0.375-0.149 0.844h-1.515q0-0.688 0.265-1.281 0.266-0.594 0.743-1.032 0.476-0.437 1.148-0.695t1.485-0.258q0.796 0 1.453 0.211 0.656 0.211 1.125 0.633 0.468 0.422 0.726 1.047t0.258 1.453q0 0.344-0.102 0.703-0.101 0.36-0.32 0.703-0.219 0.344-0.562 0.649-0.344 0.304-0.828 0.508 0.578 0.187 0.96 0.492 0.383 0.304 0.618 0.672 0.234 0.367 0.328 0.781t0.094 0.82q0 0.828-0.282 1.469-0.281 0.64-0.789 1.086-0.508 0.445-1.195 0.672-0.688 0.226-1.469 0.226t-1.469-0.218q-0.687-0.219-1.187-0.641t-0.797-1.024q-0.297-0.601-0.297-1.382h1.5q0 0.453 0.156 0.836 0.157 0.382 0.446 0.648t0.711 0.414q0.422 0.149 0.937 0.149 0.5 0 0.914-0.133t0.711-0.407q0.297-0.273 0.453-0.687 0.157-0.414 0.157-0.977 0-0.546-0.188-0.945-0.188-0.398-0.516-0.672-0.328-0.273-0.789-0.398t-1.023-0.125h-1.078v-1.219"/>
<path d="m97.938 184.13h1.64v1.235h-1.64v2.734h-1.5v-2.734h-5.391v-0.891l5.281-8.188h1.61v7.844m-5.235 0h3.735v-5.844l-0.25 0.454-3.485 5.39"/>
</g>
<g fill="#fff" fill-rule="evenodd">
<path d="m123.66 179.16q0.219 0 0.446 0.016 0.226 0.016 0.429 0.039 0.203 0.024 0.383 0.063t0.289 0.101l-0.203 1.453q-0.438-0.093-0.828-0.132-0.391-0.04-0.828-0.04-1.047 0-1.703 0.477-0.657 0.477-0.969 1.336v5.625h-1.5v-8.781h1.422l0.078 1.406q0.531-0.734 1.281-1.148 0.75-0.415 1.703-0.415"/>
<path d="m132.18 188.26q-0.922 0-1.695-0.312-0.773-0.313-1.32-0.883t-0.86-1.344q-0.312-0.773-0.312-1.695v-0.344q0-1.062 0.344-1.898 0.343-0.836 0.906-1.422 0.562-0.586 1.281-0.891t1.469-0.305q0.953 0 1.664 0.329 0.711 0.328 1.18 0.906 0.468 0.578 0.695 1.367 0.226 0.789 0.226 1.711v0.672h-6.265q0.031 0.594 0.234 1.125t0.563 0.922q0.359 0.39 0.867 0.617 0.508 0.226 1.117 0.226 0.797 0 1.422-0.328t1.031-0.859l0.922 0.719q-0.219 0.328-0.547 0.633-0.328 0.304-0.758 0.539-0.429 0.234-0.976 0.375-0.547 0.14-1.188 0.14m-0.187-7.859q-0.453 0-0.86 0.164-0.406 0.164-0.734 0.484-0.328 0.321-0.547 0.789-0.219 0.469-0.312 1.078h4.718v-0.109q-0.015-0.437-0.156-0.875-0.14-0.437-0.422-0.773-0.281-0.336-0.695-0.547t-0.992-0.211"/>
<path d="m144.47 188.1q-0.078-0.172-0.133-0.43t-0.086-0.523q-0.219 0.219-0.5 0.422t-0.617 0.359-0.719 0.242-0.804 0.086q-0.704 0-1.266-0.203-0.563-0.203-0.961-0.547t-0.609-0.812q-0.211-0.469-0.211-1.032 0-0.718 0.289-1.257t0.812-0.907q0.524-0.367 1.266-0.539t1.664-0.172h1.641v-0.703q0-0.39-0.149-0.711-0.148-0.32-0.414-0.539-0.266-0.218-0.648-0.343-0.383-0.125-0.868-0.125-0.453 0-0.804 0.117-0.352 0.117-0.594 0.304-0.242 0.188-0.375 0.438t-0.133 0.531h-1.515q0.015-0.484 0.257-0.945 0.243-0.461 0.688-0.828t1.094-0.594q0.648-0.227 1.461-0.227 0.75 0 1.39 0.18 0.641 0.18 1.11 0.555 0.468 0.375 0.734 0.922t0.266 1.281v4.094q0 0.437 0.078 0.922 0.078 0.484 0.234 0.859v0.125h-1.578m-2.641-1.141q0.438 0 0.813-0.117t0.687-0.305q0.313-0.187 0.539-0.421 0.227-0.235 0.368-0.5v-1.766h-1.391q-1.328 0-2.055 0.383-0.726 0.383-0.726 1.226 0 0.328 0.109 0.602 0.109 0.273 0.328 0.469 0.219 0.195 0.555 0.312t0.773 0.117"/>
<path d="m149.34 175.65h4.484v11.156h2.875v1.297h-7.359v-1.297h2.984v-9.859h-2.984v-1.297"/>
<path d="m187.73 183.58q0 1.125-0.258 2-0.257 0.875-0.75 1.469-0.492 0.594-1.195 0.899-0.703 0.304-1.609 0.304-0.907 0-1.618-0.304-0.71-0.305-1.203-0.899-0.492-0.594-0.757-1.469-0.266-0.875-0.266-2v-2.765q0-1.125 0.258-2t0.75-1.477q0.492-0.601 1.203-0.914 0.711-0.312 1.617-0.312t1.617 0.312q0.711 0.313 1.203 0.914 0.493 0.602 0.75 1.477 0.258 0.875 0.258 2v2.765m-6.14-0.297 4.593-3.531q-0.125-1.172-0.679-1.789-0.555-0.617-1.602-0.617-1.187 0-1.75 0.805-0.562 0.804-0.562 2.336v2.796m4.625-2.093-4.594 3.515q0.14 1.141 0.711 1.743 0.57 0.601 1.586 0.601 1.187 0 1.742-0.812 0.555-0.813 0.555-2.344v-2.703"/>
<path d="m191.39 179.32 0.047 0.828q0.265-0.453 0.703-0.711 0.437-0.258 1.047-0.274 1.203 0 1.609 0.938 0.266-0.422 0.695-0.672 0.43-0.25 1.024-0.266 0.969 0 1.492 0.594t0.523 1.797v6.547h-1.437v-6.563q0-1.109-1.016-1.093-0.265 0-0.461 0.07-0.195 0.07-0.32 0.195t-0.203 0.289-0.094 0.352v6.75h-1.422v-6.578q0-0.531-0.242-0.813-0.242-0.281-0.742-0.265-0.469 0-0.734 0.179-0.266 0.18-0.375 0.493v6.984h-1.438v-8.781h1.344"/>
<path d="m208.53 183.58q0 1.125-0.258 2t-0.75 1.469-1.195 0.899q-0.703 0.304-1.609 0.304-0.907 0-1.618-0.304-0.711-0.305-1.203-0.899t-0.758-1.469q-0.265-0.875-0.265-2v-2.765q0-1.125 0.258-2 0.257-0.875 0.75-1.477 0.492-0.601 1.203-0.914 0.711-0.312 1.617-0.312t1.617 0.312q0.711 0.313 1.203 0.914 0.492 0.602 0.75 1.477t0.258 2v2.765m-6.141-0.297 4.594-3.531q-0.125-1.172-0.679-1.789-0.555-0.617-1.602-0.617-1.188 0-1.75 0.805-0.563 0.804-0.563 2.336v2.796m4.625-2.093-4.593 3.515q0.14 1.141 0.711 1.743 0.57 0.601 1.586 0.601 1.187 0 1.742-0.812 0.554-0.813 0.554-2.344v-2.703"/>
<path d="m214.12 187.13q0-0.25 0.078-0.461t0.226-0.367q0.149-0.156 0.368-0.25 0.218-0.094 0.515-0.094 0.281 0 0.508 0.094t0.375 0.25 0.227 0.367q0.078 0.211 0.078 0.461 0 0.235-0.078 0.438-0.079 0.203-0.227 0.359t-0.375 0.242-0.508 0.086q-0.297 0-0.515-0.086-0.219-0.086-0.368-0.242-0.148-0.156-0.226-0.359t-0.078-0.438"/>
<path d="m229.39 177.13-4.891 10.969h-1.578l4.875-10.5h-6.391v-1.313h7.985v0.844"/>
<path d="m239.73 183.58q0 1.125-0.258 2-0.257 0.875-0.75 1.469-0.492 0.594-1.195 0.899-0.703 0.304-1.609 0.304-0.907 0-1.618-0.304-0.71-0.305-1.203-0.899-0.492-0.594-0.757-1.469-0.266-0.875-0.266-2v-2.765q0-1.125 0.258-2t0.75-1.477q0.492-0.601 1.203-0.914 0.711-0.312 1.617-0.312t1.617 0.312q0.711 0.313 1.203 0.914 0.493 0.602 0.75 1.477 0.258 0.875 0.258 2v2.765m-6.14-0.297 4.593-3.531q-0.125-1.172-0.679-1.789-0.555-0.617-1.602-0.617-1.187 0-1.75 0.805-0.562 0.804-0.562 2.336v2.796m4.625-2.093-4.594 3.515q0.14 1.141 0.711 1.743 0.57 0.601 1.586 0.601 1.187 0 1.742-0.812 0.555-0.813 0.555-2.344v-2.703"/>
<path d="m244.46 181.48h1.078q0.563 0 1-0.156 0.438-0.157 0.735-0.422 0.297-0.266 0.445-0.641 0.149-0.375 0.149-0.812 0-1.032-0.524-1.555-0.523-0.523-1.539-0.523-0.484 0-0.875 0.14-0.391 0.141-0.672 0.406-0.281 0.266-0.43 0.641-0.148 0.375-0.148 0.844h-1.516q0-0.688 0.266-1.281 0.266-0.594 0.742-1.032 0.477-0.437 1.149-0.695t1.484-0.258q0.797 0 1.453 0.211t1.125 0.633 0.727 1.047 0.258 1.453q0 0.344-0.102 0.703t-0.32 0.703q-0.219 0.344-0.563 0.649-0.344 0.304-0.828 0.507 0.578 0.188 0.961 0.493 0.383 0.304 0.617 0.672 0.235 0.367 0.328 0.781 0.094 0.414 0.094 0.82 0 0.828-0.281 1.469-0.281 0.64-0.789 1.086-0.508 0.445-1.196 0.672-0.687 0.226-1.468 0.226-0.782 0-1.469-0.219-0.688-0.218-1.188-0.64t-0.796-1.024q-0.297-0.601-0.297-1.382h1.5q0 0.453 0.156 0.836 0.156 0.382 0.445 0.648t0.711 0.414 0.938 0.148q0.5 0 0.914-0.132 0.414-0.133 0.711-0.407 0.297-0.273 0.453-0.687t0.156-0.977q0-0.547-0.187-0.945-0.188-0.398-0.516-0.672-0.328-0.273-0.789-0.398t-1.024-0.125h-1.078v-1.219"/>
<path d="m258.95 185.77q0-0.266-0.109-0.485-0.11-0.218-0.36-0.39t-0.664-0.328q-0.414-0.157-1.039-0.266-0.75-0.156-1.367-0.375t-1.063-0.523q-0.445-0.305-0.687-0.719t-0.242-0.945q0-0.547 0.25-1.008t0.703-0.813q0.453-0.351 1.086-0.554 0.633-0.204 1.383-0.204 0.812 0 1.461 0.211 0.648 0.211 1.101 0.586t0.703 0.875 0.25 1.063h-1.5q0-0.281-0.148-0.547-0.149-0.266-0.406-0.477-0.258-0.211-0.625-0.343-0.368-0.133-0.836-0.133-0.485 0-0.844 0.101-0.359 0.102-0.594 0.282-0.234 0.179-0.359 0.414-0.125 0.234-0.125 0.484 0 0.266 0.101 0.469 0.102 0.203 0.336 0.367 0.235 0.164 0.641 0.289t1.016 0.25q0.812 0.172 1.453 0.399 0.64 0.226 1.078 0.539 0.437 0.312 0.672 0.726 0.234 0.414 0.234 0.945 0 0.594-0.266 1.071-0.265 0.476-0.734 0.82t-1.133 0.524q-0.664 0.179-1.429 0.179-0.891 0-1.594-0.234-0.703-0.235-1.18-0.633-0.476-0.398-0.734-0.914t-0.258-1.078h1.5q0.031 0.469 0.242 0.781 0.211 0.313 0.531 0.508 0.321 0.195 0.711 0.281 0.391 0.086 0.782 0.086 0.937 0 1.492-0.351 0.554-0.352 0.57-0.93"/>
</g>
<g fill="#aaa" fill-rule="evenodd">
<path d="m92.391 204.28 0.578-5.891h6.062v1.469h-4.797l-0.328 3.141q0.344-0.203 0.836-0.36 0.492-0.156 1.133-0.156 0.813 0 1.461 0.289t1.102 0.805q0.453 0.516 0.703 1.242 0.25 0.727 0.25 1.617 0 0.844-0.235 1.571-0.234 0.726-0.687 1.242-0.453 0.515-1.149 0.812-0.695 0.297-1.648 0.297-0.719 0-1.36-0.203-0.64-0.203-1.14-0.601-0.5-0.399-0.82-1.016-0.321-0.617-0.399-1.445h1.422q0.141 1.015 0.75 1.531 0.609 0.515 1.547 0.515 0.547 0 0.961-0.187 0.414-0.188 0.687-0.547 0.274-0.359 0.414-0.851 0.141-0.493 0.141-1.102 0-0.547-0.156-1.023-0.157-0.477-0.453-0.829-0.297-0.351-0.735-0.554-0.437-0.203-1.015-0.203-0.36 0-0.633 0.046-0.274 0.047-0.492 0.149-0.219 0.101-0.414 0.234-0.196 0.133-0.399 0.321l-1.187-0.313"/>
</g>
<g fill="#fff" fill-rule="evenodd">
<path d="m123.61 209q-0.437 0.64-1.093 1-0.657 0.359-1.516 0.359-0.703 0-1.258-0.211-0.554-0.211-0.953-0.664-0.398-0.453-0.617-1.156t-0.219-1.688v-5.218h1.5v5.234q0 0.719 0.117 1.188 0.118 0.468 0.344 0.75 0.227 0.281 0.555 0.39 0.328 0.11 0.765 0.11 0.907 0 1.469-0.368 0.563-0.367 0.844-1.007v-6.297h1.515v8.781h-1.374l-0.079-1.203"/>
<path d="m134.15 207.87q0-0.266-0.109-0.485-0.11-0.218-0.36-0.39t-0.664-0.328q-0.414-0.157-1.039-0.266-0.75-0.156-1.367-0.375t-1.063-0.523q-0.445-0.305-0.687-0.719t-0.242-0.945q0-0.547 0.25-1.008t0.703-0.813q0.453-0.351 1.086-0.554 0.633-0.204 1.383-0.204 0.812 0 1.461 0.211 0.648 0.211 1.101 0.586t0.703 0.875 0.25 1.063h-1.5q0-0.281-0.148-0.547-0.149-0.266-0.406-0.477-0.258-0.211-0.625-0.343-0.368-0.133-0.836-0.133-0.485 0-0.844 0.101-0.359 0.102-0.594 0.282-0.234 0.179-0.359 0.414-0.125 0.234-0.125 0.484 0 0.266 0.101 0.469 0.102 0.203 0.336 0.367 0.235 0.164 0.641 0.289t1.016 0.25q0.812 0.172 1.453 0.399 0.64 0.226 1.078 0.539 0.437 0.312 0.672 0.726 0.234 0.414 0.234 0.945 0 0.594-0.266 1.071-0.265 0.476-0.734 0.82t-1.133 0.524q-0.664 0.179-1.429 0.179-0.891 0-1.594-0.234-0.703-0.235-1.18-0.633-0.476-0.398-0.734-0.914t-0.258-1.078h1.5q0.031 0.469 0.242 0.781 0.211 0.313 0.531 0.508 0.321 0.195 0.711 0.281 0.391 0.086 0.782 0.086 0.937 0 1.492-0.351 0.554-0.352 0.57-0.93"/>
<path d="m142.58 210.36q-0.922 0-1.695-0.312-0.773-0.313-1.32-0.883t-0.86-1.344q-0.312-0.773-0.312-1.695v-0.344q0-1.062 0.344-1.898 0.343-0.836 0.906-1.422 0.562-0.586 1.281-0.891t1.469-0.305q0.953 0 1.664 0.329 0.711 0.328 1.18 0.906 0.468 0.578 0.695 1.367 0.226 0.789 0.226 1.711v0.672h-6.265q0.031 0.594 0.234 1.125t0.563 0.922q0.359 0.39 0.867 0.617 0.508 0.226 1.117 0.226 0.797 0 1.422-0.328t1.031-0.859l0.922 0.719q-0.219 0.328-0.547 0.633-0.328 0.304-0.758 0.539-0.429 0.234-0.976 0.375-0.547 0.14-1.188 0.14m-0.187-7.859q-0.453 0-0.86 0.164-0.406 0.164-0.734 0.484-0.328 0.321-0.547 0.789-0.219 0.469-0.312 1.078h4.718v-0.109q-0.015-0.437-0.156-0.875-0.14-0.437-0.422-0.773-0.281-0.336-0.695-0.547t-0.992-0.211"/>
<path d="m154.86 201.26q0.219 0 0.446 0.016 0.226 0.016 0.429 0.039 0.203 0.024 0.383 0.063t0.289 0.101l-0.203 1.453q-0.438-0.093-0.828-0.132-0.391-0.04-0.828-0.04-1.047 0-1.703 0.477-0.657 0.477-0.969 1.336v5.625h-1.5v-8.781h1.422l0.078 1.406q0.531-0.734 1.281-1.148 0.75-0.415 1.703-0.415"/>
<path d="m187.73 205.68q0 1.125-0.258 2-0.257 0.875-0.75 1.469-0.492 0.594-1.195 0.899-0.703 0.304-1.609 0.304-0.907 0-1.618-0.304-0.71-0.305-1.203-0.899-0.492-0.594-0.757-1.469-0.266-0.875-0.266-2v-2.765q0-1.125 0.258-2t0.75-1.477q0.492-0.601 1.203-0.914 0.711-0.312 1.617-0.312t1.617 0.312q0.711 0.313 1.203 0.914 0.493 0.602 0.75 1.477 0.258 0.875 0.258 2v2.765m-6.14-0.297 4.593-3.531q-0.125-1.172-0.679-1.789-0.555-0.617-1.602-0.617-1.187 0-1.75 0.805-0.562 0.804-0.562 2.336v2.796m4.625-2.093-4.594 3.515q0.14 1.141 0.711 1.743 0.57 0.601 1.586 0.601 1.187 0 1.742-0.812 0.555-0.813 0.555-2.344v-2.703"/>
<path d="m191.39 201.42 0.047 0.828q0.265-0.453 0.703-0.711 0.437-0.258 1.047-0.274 1.203 0 1.609 0.938 0.266-0.422 0.695-0.672 0.43-0.25 1.024-0.266 0.969 0 1.492 0.594t0.523 1.797v6.547h-1.437v-6.563q0-1.109-1.016-1.093-0.265 0-0.461 0.07-0.195 0.07-0.32 0.195t-0.203 0.289-0.094 0.352v6.75h-1.422v-6.578q0-0.531-0.242-0.813-0.242-0.281-0.742-0.265-0.469 0-0.734 0.179-0.266 0.18-0.375 0.493v6.984h-1.438v-8.781h1.344"/>
<path d="m205.98 210.2h-1.5v-9.891l-3.094 1.172v-1.375l4.469-1.719h0.125v11.813"/>
<path d="m214.12 209.23q0-0.25 0.078-0.461t0.226-0.367q0.149-0.156 0.368-0.25 0.218-0.094 0.515-0.094 0.281 0 0.508 0.094t0.375 0.25 0.227 0.367q0.078 0.211 0.078 0.461 0 0.235-0.078 0.438-0.079 0.203-0.227 0.359t-0.375 0.242-0.508 0.086q-0.297 0-0.515-0.086-0.219-0.086-0.368-0.242-0.148-0.156-0.226-0.359t-0.078-0.438"/>
<path d="m223.53 208.87q0.797 0 1.407-0.141 0.609-0.14 1.054-0.406 0.446-0.266 0.75-0.617 0.305-0.352 0.492-0.774 0.188-0.422 0.282-0.898 0.093-0.477 0.109-0.977-0.187 0.25-0.437 0.469t-0.571 0.375q-0.32 0.156-0.703 0.25t-0.836 0.094q-0.875 0-1.516-0.344-0.64-0.344-1.054-0.906-0.414-0.563-0.61-1.266-0.195-0.703-0.195-1.422 0-0.828 0.235-1.57 0.234-0.742 0.695-1.297t1.14-0.883q0.68-0.328 1.586-0.328 0.688 0 1.235 0.188 0.547 0.187 0.968 0.523 0.422 0.336 0.719 0.797t0.485 0.992q0.187 0.531 0.281 1.11 0.094 0.578 0.094 1.171v0.532q0 0.765-0.079 1.554-0.078 0.789-0.289 1.524-0.211 0.734-0.601 1.39-0.391 0.657-1.016 1.141t-1.515 0.774q-0.891 0.289-2.11 0.289h-0.156v-1.344h0.156m1.781-3.86q0.391 0 0.75-0.125 0.36-0.125 0.665-0.359 0.304-0.234 0.539-0.547 0.234-0.312 0.375-0.687v-0.485q0-0.797-0.18-1.414t-0.492-1.039q-0.313-0.422-0.719-0.648-0.406-0.227-0.875-0.227-0.531 0-0.937 0.211-0.407 0.211-0.688 0.578t-0.422 0.875q-0.14 0.508-0.14 1.086 0 0.531 0.124 1.024 0.126 0.492 0.391 0.882 0.266 0.391 0.672 0.633t0.937 0.242"/>
<path d="m232.85 204.28 0.578-5.891h6.063v1.469h-4.797l-0.328 3.141q0.344-0.203 0.836-0.36 0.492-0.156 1.133-0.156 0.812 0 1.46 0.289 0.649 0.289 1.102 0.805t0.703 1.242q0.25 0.727 0.25 1.617 0 0.844-0.234 1.571-0.235 0.726-0.688 1.242-0.453 0.515-1.148 0.812t-1.649 0.297q-0.718 0-1.359-0.203t-1.141-0.601q-0.5-0.399-0.82-1.016t-0.398-1.445h1.422q0.14 1.015 0.75 1.531 0.609 0.515 1.546 0.515 0.547 0 0.961-0.187 0.414-0.188 0.688-0.547 0.273-0.359 0.414-0.851 0.141-0.493 0.141-1.102 0-0.547-0.157-1.023-0.156-0.477-0.453-0.829-0.297-0.351-0.734-0.554-0.438-0.203-1.016-0.203-0.359 0-0.633 0.046-0.273 0.047-0.492 0.149-0.219 0.101-0.414 0.234t-0.398 0.321l-1.188-0.313"/>
<path d="m250.19 199.23-4.891 10.969h-1.578l4.875-10.5h-6.391v-1.313h7.985v0.844"/>
<path d="m258.95 207.87q0-0.266-0.109-0.485-0.11-0.218-0.36-0.39t-0.664-0.328q-0.414-0.157-1.039-0.266-0.75-0.156-1.367-0.375t-1.063-0.523q-0.445-0.305-0.687-0.719t-0.242-0.945q0-0.547 0.25-1.008t0.703-0.813q0.453-0.351 1.086-0.554 0.633-0.204 1.383-0.204 0.812 0 1.461 0.211 0.648 0.211 1.101 0.586t0.703 0.875 0.25 1.063h-1.5q0-0.281-0.148-0.547-0.149-0.266-0.406-0.477-0.258-0.211-0.625-0.343-0.368-0.133-0.836-0.133-0.485 0-0.844 0.101-0.359 0.102-0.594 0.282-0.234 0.179-0.359 0.414-0.125 0.234-0.125 0.484 0 0.266 0.101 0.469 0.102 0.203 0.336 0.367 0.235 0.164 0.641 0.289t1.016 0.25q0.812 0.172 1.453 0.399 0.64 0.226 1.078 0.539 0.437 0.312 0.672 0.726 0.234 0.414 0.234 0.945 0 0.594-0.266 1.071-0.265 0.476-0.734 0.82t-1.133 0.524q-0.664 0.179-1.429 0.179-0.891 0-1.594-0.234-0.703-0.235-1.18-0.633-0.476-0.398-0.734-0.914t-0.258-1.078h1.5q0.031 0.469 0.242 0.781 0.211 0.313 0.531 0.508 0.321 0.195 0.711 0.281 0.391 0.086 0.782 0.086 0.937 0 1.492-0.351 0.554-0.352 0.57-0.93"/>
</g>
<g fill="#aaa" fill-rule="evenodd">
<path d="m97.375 220.49v1.344h-0.125q-0.75 0-1.336 0.156-0.586 0.157-1.031 0.422-0.445 0.266-0.766 0.633-0.32 0.367-0.531 0.805-0.211 0.437-0.328 0.914-0.117 0.476-0.149 0.976 0.219-0.25 0.493-0.468 0.273-0.219 0.593-0.375 0.321-0.157 0.688-0.25 0.367-0.094 0.773-0.094 0.891 0 1.532 0.336 0.64 0.336 1.054 0.891 0.414 0.554 0.61 1.25 0.195 0.695 0.195 1.414 0 0.828-0.235 1.562-0.234 0.734-0.695 1.281t-1.148 0.86q-0.688 0.312-1.578 0.312-0.641 0-1.172-0.179-0.531-0.18-0.953-0.5-0.422-0.321-0.743-0.766-0.32-0.445-0.523-0.945t-0.312-1.039q-0.11-0.54-0.11-1.086v-0.704q0-0.812 0.102-1.632 0.101-0.821 0.343-1.563 0.243-0.742 0.657-1.398 0.414-0.657 1.047-1.133 0.632-0.477 1.5-0.75 0.867-0.274 2.023-0.274h0.125m-1.953 5.313q-0.391 0-0.742 0.125-0.352 0.125-0.664 0.344-0.313 0.218-0.547 0.523-0.235 0.305-0.375 0.68v0.5q0 0.781 0.187 1.39 0.188 0.61 0.508 1.016t0.734 0.625q0.415 0.219 0.868 0.219 0.515 0 0.921-0.203 0.407-0.203 0.688-0.563 0.281-0.359 0.422-0.859 0.14-0.5 0.14-1.078 0-0.516-0.124-1.008-0.126-0.492-0.399-0.875t-0.68-0.609q-0.406-0.227-0.937-0.227"/>
</g>
<g fill="#fff" fill-rule="evenodd">
<path d="m123.75 229.97q0-0.266-0.109-0.485-0.11-0.218-0.36-0.39t-0.664-0.328q-0.414-0.157-1.039-0.266-0.75-0.156-1.367-0.375t-1.063-0.523q-0.445-0.305-0.687-0.719t-0.242-0.945q0-0.547 0.25-1.008t0.703-0.813q0.453-0.351 1.086-0.554 0.633-0.204 1.383-0.204 0.812 0 1.461 0.211 0.648 0.211 1.101 0.586t0.703 0.875 0.25 1.063h-1.5q0-0.281-0.148-0.547-0.149-0.266-0.406-0.477-0.258-0.211-0.625-0.343-0.368-0.133-0.836-0.133-0.485 0-0.844 0.101-0.359 0.102-0.594 0.282-0.234 0.179-0.359 0.414-0.125 0.234-0.125 0.484 0 0.266 0.101 0.469 0.102 0.203 0.336 0.367 0.235 0.164 0.641 0.289t1.015 0.25q0.813 0.172 1.454 0.399 0.64 0.226 1.078 0.539 0.437 0.312 0.672 0.726 0.234 0.414 0.234 0.945 0 0.594-0.266 1.071-0.265 0.476-0.734 0.82t-1.133 0.524q-0.664 0.179-1.429 0.179-0.891 0-1.594-0.234-0.703-0.235-1.18-0.633-0.476-0.398-0.734-0.914t-0.258-1.078h1.5q0.031 0.469 0.242 0.781 0.211 0.313 0.531 0.508 0.321 0.195 0.711 0.281 0.391 0.086 0.782 0.086 0.937 0 1.492-0.351 0.554-0.352 0.57-0.93"/>
<path d="m131.54 229.19 0.39 1.062 2.672-6.734h1.688l-4.453 10.14q-0.157 0.328-0.399 0.711t-0.586 0.711-0.797 0.547-1.047 0.219q-0.093 0-0.226-0.016-0.133-0.015-0.258-0.031t-0.242-0.039q-0.117-0.024-0.195-0.039l0.25-1.235q0.062 0 0.156 8e-3t0.195 0.016q0.102 8e-3 0.203 0.016 0.102 7e-3 0.164 7e-3 0.297 0 0.555-0.172 0.258-0.171 0.453-0.406 0.195-0.234 0.344-0.484 0.148-0.25 0.226-0.422l0.594-1.156-3.781-8.375h1.687l2.407 5.672"/>
<path d="m144.55 229.97q0-0.266-0.109-0.485-0.11-0.218-0.36-0.39t-0.664-0.328q-0.414-0.157-1.039-0.266-0.75-0.156-1.367-0.375t-1.063-0.523q-0.445-0.305-0.687-0.719t-0.242-0.945q0-0.547 0.25-1.008t0.703-0.813q0.453-0.351 1.086-0.554 0.633-0.204 1.383-0.204 0.812 0 1.461 0.211 0.648 0.211 1.101 0.586t0.703 0.875 0.25 1.063h-1.5q0-0.281-0.148-0.547-0.149-0.266-0.406-0.477-0.258-0.211-0.625-0.343-0.368-0.133-0.836-0.133-0.485 0-0.844 0.101-0.359 0.102-0.594 0.282-0.234 0.179-0.359 0.414-0.125 0.234-0.125 0.484 0 0.266 0.101 0.469 0.102 0.203 0.336 0.367 0.235 0.164 0.641 0.289t1.016 0.25q0.812 0.172 1.453 0.399 0.64 0.226 1.078 0.539 0.437 0.312 0.672 0.726 0.234 0.414 0.234 0.945 0 0.594-0.266 1.071-0.265 0.476-0.734 0.82t-1.133 0.524q-0.664 0.179-1.429 0.179-0.891 0-1.594-0.234-0.703-0.235-1.18-0.633-0.476-0.398-0.734-0.914t-0.258-1.078h1.5q0.031 0.469 0.242 0.781 0.211 0.313 0.531 0.508 0.321 0.195 0.711 0.281 0.391 0.086 0.782 0.086 0.937 0 1.492-0.351 0.554-0.352 0.57-0.93"/>
<path d="m187.73 227.78q0 1.125-0.258 2-0.257 0.875-0.75 1.469-0.492 0.594-1.195 0.899-0.703 0.304-1.609 0.304-0.907 0-1.618-0.304-0.71-0.305-1.203-0.899-0.492-0.594-0.757-1.469-0.266-0.875-0.266-2v-2.765q0-1.125 0.258-2t0.75-1.477q0.492-0.601 1.203-0.914 0.711-0.312 1.617-0.312t1.617 0.312q0.711 0.313 1.203 0.914 0.493 0.602 0.75 1.477 0.258 0.875 0.258 2v2.765m-6.14-0.297 4.593-3.531q-0.125-1.172-0.679-1.789-0.555-0.617-1.602-0.617-1.187 0-1.75 0.805-0.562 0.804-0.562 2.336v2.796m4.625-2.093-4.594 3.515q0.14 1.141 0.711 1.743 0.57 0.601 1.586 0.601 1.187 0 1.742-0.812 0.555-0.813 0.555-2.344v-2.703"/>
<path d="m191.39 223.52 0.047 0.828q0.265-0.453 0.703-0.711 0.437-0.258 1.047-0.274 1.203 0 1.609 0.938 0.266-0.422 0.695-0.672 0.43-0.25 1.024-0.266 0.969 0 1.492 0.594t0.523 1.797v6.547h-1.437v-6.563q0-1.109-1.016-1.093-0.265 0-0.461 0.07-0.195 0.07-0.32 0.195t-0.203 0.289-0.094 0.352v6.75h-1.422v-6.578q0-0.531-0.242-0.813-0.242-0.281-0.742-0.265-0.469 0-0.734 0.179-0.266 0.18-0.375 0.493v6.984h-1.438v-8.781h1.344"/>
<path d="m208.53 227.78q0 1.125-0.258 2t-0.75 1.469-1.195 0.899q-0.703 0.304-1.609 0.304-0.907 0-1.618-0.304-0.711-0.305-1.203-0.899t-0.758-1.469q-0.265-0.875-0.265-2v-2.765q0-1.125 0.258-2 0.257-0.875 0.75-1.477 0.492-0.601 1.203-0.914 0.711-0.312 1.617-0.312t1.617 0.312q0.711 0.313 1.203 0.914 0.492 0.602 0.75 1.477t0.258 2v2.765m-6.141-0.297 4.594-3.531q-0.125-1.172-0.679-1.789-0.555-0.617-1.602-0.617-1.188 0-1.75 0.805-0.563 0.804-0.563 2.336v2.796m4.625-2.093-4.593 3.515q0.14 1.141 0.711 1.743 0.57 0.601 1.586 0.601 1.187 0 1.742-0.812 0.554-0.813 0.554-2.344v-2.703"/>
<path d="m214.12 231.33q0-0.25 0.078-0.461t0.226-0.367q0.149-0.156 0.368-0.25 0.218-0.094 0.515-0.094 0.281 0 0.508 0.094t0.375 0.25 0.227 0.367q0.078 0.211 0.078 0.461 0 0.235-0.078 0.438-0.079 0.203-0.227 0.359t-0.375 0.242-0.508 0.086q-0.297 0-0.515-0.086-0.219-0.086-0.368-0.242-0.148-0.156-0.226-0.359t-0.078-0.438"/>
<path d="m226.78 232.3h-1.5v-9.891l-3.093 1.172v-1.375l4.468-1.719h0.125v11.813"/>
<path d="m239.73 227.78q0 1.125-0.258 2-0.257 0.875-0.75 1.469-0.492 0.594-1.195 0.899-0.703 0.304-1.609 0.304-0.907 0-1.618-0.304-0.71-0.305-1.203-0.899-0.492-0.594-0.757-1.469-0.266-0.875-0.266-2v-2.765q0-1.125 0.258-2t0.75-1.477q0.492-0.601 1.203-0.914 0.711-0.312 1.617-0.312t1.617 0.312q0.711 0.313 1.203 0.914 0.493 0.602 0.75 1.477 0.258 0.875 0.258 2v2.765m-6.14-0.297 4.593-3.531q-0.125-1.172-0.679-1.789-0.555-0.617-1.602-0.617-1.187 0-1.75 0.805-0.562 0.804-0.562 2.336v2.796m4.625-2.093-4.594 3.515q0.14 1.141 0.711 1.743 0.57 0.601 1.586 0.601 1.187 0 1.742-0.812 0.555-0.813 0.555-2.344v-2.703"/>
<path d="m244.33 230.97q0.797 0 1.407-0.141 0.609-0.14 1.054-0.406 0.446-0.266 0.75-0.617 0.305-0.352 0.492-0.774 0.188-0.422 0.282-0.898 0.093-0.477 0.109-0.977-0.187 0.25-0.437 0.469t-0.571 0.375q-0.32 0.156-0.703 0.25t-0.836 0.094q-0.875 0-1.515-0.344-0.641-0.344-1.055-0.906-0.414-0.563-0.61-1.266-0.195-0.703-0.195-1.422 0-0.828 0.235-1.57 0.234-0.742 0.695-1.297t1.14-0.883q0.68-0.328 1.586-0.328 0.688 0 1.235 0.188 0.547 0.187 0.969 0.523 0.421 0.336 0.718 0.797t0.485 0.992q0.187 0.531 0.281 1.11 0.094 0.578 0.094 1.171v0.532q0 0.765-0.078 1.554-0.079 0.789-0.29 1.524-0.21 0.734-0.601 1.39-0.391 0.657-1.016 1.141t-1.515 0.774q-0.891 0.289-2.11 0.289h-0.156v-1.344h0.156m1.782-3.86q0.39 0 0.75-0.125 0.359-0.125 0.664-0.359 0.304-0.234 0.539-0.547 0.234-0.312 0.375-0.687v-0.485q0-0.797-0.18-1.414t-0.492-1.039q-0.313-0.422-0.719-0.648-0.406-0.227-0.875-0.227-0.531 0-0.937 0.211-0.407 0.211-0.688 0.578t-0.422 0.875q-0.14 0.508-0.14 1.086 0 0.531 0.125 1.024 0.125 0.492 0.39 0.882 0.266 0.391 0.672 0.633t0.938 0.242"/>
<path d="m258.95 229.97q0-0.266-0.109-0.485-0.11-0.218-0.36-0.39t-0.664-0.328q-0.414-0.157-1.039-0.266-0.75-0.156-1.367-0.375t-1.063-0.523q-0.445-0.305-0.687-0.719t-0.242-0.945q0-0.547 0.25-1.008t0.703-0.813q0.453-0.351 1.086-0.554 0.633-0.204 1.383-0.204 0.812 0 1.461 0.211 0.648 0.211 1.101 0.586t0.703 0.875 0.25 1.063h-1.5q0-0.281-0.148-0.547-0.149-0.266-0.406-0.477-0.258-0.211-0.625-0.343-0.368-0.133-0.836-0.133-0.485 0-0.844 0.101-0.359 0.102-0.594 0.282-0.234 0.179-0.359 0.414-0.125 0.234-0.125 0.484 0 0.266 0.101 0.469 0.102 0.203 0.336 0.367 0.235 0.164 0.641 0.289t1.016 0.25q0.812 0.172 1.453 0.399 0.64 0.226 1.078 0.539 0.437 0.312 0.672 0.726 0.234 0.414 0.234 0.945 0 0.594-0.266 1.071-0.265 0.476-0.734 0.82t-1.133 0.524q-0.664 0.179-1.429 0.179-0.891 0-1.594-0.234-0.703-0.235-1.18-0.633-0.476-0.398-0.734-0.914t-0.258-1.078h1.5q0.031 0.469 0.242 0.781 0.211 0.313 0.531 0.508 0.321 0.195 0.711 0.281 0.391 0.086 0.782 0.086 0.937 0 1.492-0.351 0.554-0.352 0.57-0.93"/>
</g>
</svg>
