<?xml version="1.0" encoding="UTF-8"?>
<svg fill="none" viewBox="0 0 901 291" xmlns="http://www.w3.org/2000/svg">
<defs>
<mask>
<rect width="100%" height="100%" fill="#fff"/>
<rect width="900" height="290" fill="#000"/>
</mask>
</defs>
<g fill="#fff" fill-rule="evenodd" stroke="#000" stroke-linecap="round" stroke-linejoin="round"></g>
<g fill="#2D2A2E" fill-rule="evenodd" stroke="#2D2A2E" stroke-linecap="round" stroke-linejoin="round">
<path d="m64 68q0-4 4-4h764.2q4 0 4 4v154.5q0 4-4 4h-764.2q-4 0-4-4z"/>
</g>
<g fill="#FF5F56" fill-rule="evenodd" stroke="#FF5F56" stroke-linecap="round" stroke-linejoin="round">
<path d="m92 85a7 7 0 1 0 0 0.01z"/>
</g>
<g fill="#FFBD2E" fill-rule="evenodd" stroke="#FFBD2E" stroke-linecap="round" stroke-linejoin="round">
<path d="m115.1 85a7 7 0 1 0 0 0.01z"/>
</g>
<g fill="#27C93F" fill-rule="evenodd" stroke="#27C93F" stroke-linecap="round" stroke-linejoin="round">
<path d="m138.2 85a7 7 0 1 0 0 0.01z"/>
</g>
<g fill="#aaa" fill-rule="evenodd">
<path d="m96.719 121.8h-1.5v-9.891l-3.094 1.172v-1.375l4.469-1.718h0.125v11.812"/>
</g>
<g fill="#fff" fill-rule="evenodd">
<path d="m119.39 117q0-1.156 0.187-2.18 0.188-1.023 0.492-1.89 0.305-0.867 0.703-1.594 0.399-0.726 0.844-1.281t0.891-0.953q0.445-0.399 0.851-0.633l0.313 1q-0.5 0.375-1 1.031t-0.891 1.594q-0.39 0.937-0.64 2.156t-0.25 2.735v0.109q0 1.531 0.25 2.75t0.64 2.164q0.391 0.945 0.891 1.609t1 1.071l-0.313 0.922q-0.406-0.235-0.851-0.625-0.446-0.391-0.891-0.954-0.445-0.562-0.844-1.281-0.398-0.719-0.703-1.594-0.304-0.875-0.492-1.89-0.187-1.016-0.187-2.188v-0.078"/>
<path d="m128.02 117.35q0-0.984 0.25-1.813 0.25-0.828 0.703-1.414t1.11-0.922q0.656-0.335 1.453-0.335 0.781 0 1.375 0.265 0.593 0.266 1.015 0.766v-4.547h1.5v12.453h-1.375l-0.062-0.922q-0.438 0.531-1.047 0.805-0.609 0.273-1.422 0.273-0.797 0-1.445-0.336-0.649-0.336-1.102-0.937-0.453-0.602-0.703-1.414-0.25-0.813-0.25-1.766v-0.156m1.5 0.156q0 0.641 0.141 1.219 0.14 0.578 0.429 1.016 0.289 0.437 0.735 0.695 0.445 0.258 1.07 0.258 0.375 0 0.688-0.094 0.312-0.094 0.562-0.258t0.445-0.391q0.196-0.226 0.336-0.523v-4.062q-0.297-0.532-0.789-0.875-0.492-0.344-1.226-0.344-0.641 0-1.086 0.258-0.446 0.257-0.735 0.695-0.289 0.437-0.429 1.023-0.141 0.586-0.141 1.227v0.156"/>
<path d="m142.58 121.96q-0.922 0-1.695-0.312-0.773-0.313-1.32-0.883t-0.86-1.344q-0.312-0.773-0.312-1.695v-0.344q0-1.062 0.344-1.898 0.343-0.836 0.906-1.422 0.562-0.586 1.281-0.891 0.719-0.304 1.469-0.304 0.953 0 1.664 0.328t1.18 0.906q0.468 0.578 0.695 1.367 0.226 0.789 0.226 1.711v0.672h-6.265q0.031 0.594 0.234 1.125t0.563 0.922q0.359 0.39 0.867 0.617t1.117 0.227q0.797 0 1.422-0.329 0.625-0.328 1.031-0.859l0.922 0.719q-0.219 0.328-0.547 0.633-0.328 0.304-0.758 0.539-0.429 0.234-0.976 0.375-0.547 0.14-1.188 0.14m-0.187-7.859q-0.453 0-0.86 0.164-0.406 0.164-0.734 0.484-0.328 0.321-0.547 0.789-0.219 0.469-0.312 1.079h4.718v-0.11q-0.015-0.437-0.156-0.875-0.14-0.437-0.422-0.773-0.281-0.336-0.695-0.547t-0.992-0.211"/>
<path d="m151.36 121.8v-7.609h-2.422v-1.172h2.422v-0.61q0-0.843 0.242-1.484 0.243-0.641 0.696-1.07 0.453-0.43 1.086-0.649 0.632-0.218 1.414-0.218 0.531 0 1.039 0.093 0.508 0.094 1.039 0.235l-0.172 1.234q-0.344-0.109-0.781-0.195-0.438-0.086-0.938-0.086-1.062 0-1.594 0.531-0.531 0.531-0.531 1.609v0.61h3.391v1.172h-3.391v7.609h-1.5"/>
<path d="m160.85 113.02 0.109 1.297q0.485-0.672 1.18-1.055t1.555-0.398q0.687 0 1.25 0.195 0.562 0.195 0.961 0.609 0.398 0.414 0.617 1.047t0.219 1.508v5.578h-1.5v-5.547q0-0.578-0.133-0.984t-0.391-0.656-0.625-0.36q-0.367-0.109-0.836-0.109-0.765 0-1.336 0.375-0.57 0.375-0.914 0.984v6.297h-1.5v-8.781h1.344"/>
<path d="m186.01 120.6q-0.437 0.641-1.093 1-0.657 0.359-1.516 0.359-0.703 0-1.258-0.211-0.554-0.211-0.953-0.664-0.398-0.453-0.617-1.156t-0.219-1.687v-5.219h1.5v5.234q0 0.719 0.117 1.188 0.118 0.468 0.344 0.75 0.227 0.281 0.555 0.39 0.328 0.11 0.765 0.11 0.907 0 1.469-0.368 0.563-0.367 0.844-1.007v-6.297h1.516v8.781h-1.375l-0.079-1.203"/>
<path d="m192.05 113.02 0.109 1.297q0.485-0.672 1.18-1.055t1.555-0.398q0.687 0 1.25 0.195 0.562 0.195 0.961 0.609 0.398 0.414 0.617 1.047t0.219 1.508v5.578h-1.5v-5.547q0-0.578-0.133-0.984t-0.391-0.656-0.625-0.36q-0.367-0.109-0.836-0.109-0.765 0-1.336 0.375-0.57 0.375-0.914 0.984v6.297h-1.5v-8.781h1.344"/>
<path d="m200.84 117.35q0-0.984 0.234-1.813 0.234-0.828 0.687-1.414 0.454-0.586 1.118-0.922 0.664-0.335 1.492-0.335 0.781 0 1.383 0.265 0.601 0.266 1.039 0.766l0.062-0.875h1.375v12.156h-1.5v-4.172q-0.437 0.469-1.023 0.711t-1.352 0.242q-0.828 0-1.484-0.336t-1.11-0.937q-0.453-0.602-0.687-1.414-0.234-0.813-0.234-1.766v-0.156m1.5 0.156q0 0.641 0.14 1.227 0.141 0.586 0.43 1.031t0.742 0.711 1.078 0.266q0.719 0 1.203-0.329 0.485-0.328 0.797-0.843v-4.328q-0.156-0.25-0.351-0.454-0.196-0.203-0.446-0.359t-0.547-0.242q-0.296-0.086-0.64-0.086-0.625 0-1.078 0.266-0.453 0.265-0.75 0.718t-0.438 1.039q-0.14 0.586-0.14 1.227v0.156"/>
<path d="m217.21 120.6q-0.437 0.641-1.093 1-0.657 0.359-1.516 0.359-0.703 0-1.258-0.211-0.554-0.211-0.953-0.664-0.398-0.453-0.617-1.156t-0.219-1.687v-5.219h1.5v5.234q0 0.719 0.117 1.188 0.118 0.468 0.344 0.75 0.227 0.281 0.555 0.39 0.328 0.11 0.765 0.11 0.907 0 1.469-0.368 0.563-0.367 0.844-1.007v-6.297h1.516v8.781h-1.375l-0.079-1.203"/>
<path d="m227.67 121.8q-0.078-0.172-0.133-0.43-0.055-0.257-0.086-0.523-0.219 0.219-0.5 0.422t-0.617 0.359-0.719 0.242-0.805 0.086q-0.703 0-1.265-0.203-0.563-0.203-0.961-0.547-0.398-0.343-0.609-0.812t-0.211-1.031q0-0.719 0.289-1.258t0.812-0.907q0.524-0.367 1.266-0.539 0.742-0.171 1.664-0.171h1.641v-0.704q0-0.39-0.149-0.711-0.148-0.32-0.414-0.539-0.266-0.218-0.648-0.343-0.383-0.125-0.868-0.125-0.453 0-0.804 0.117-0.352 0.117-0.594 0.305-0.242 0.187-0.375 0.437t-0.133 0.531h-1.515q0.015-0.484 0.257-0.945 0.243-0.461 0.688-0.828t1.094-0.594q0.648-0.226 1.461-0.226 0.75 0 1.39 0.179 0.641 0.18 1.11 0.555 0.468 0.375 0.734 0.922t0.266 1.281v4.094q0 0.437 0.078 0.922 0.078 0.484 0.234 0.859v0.125h-1.578m-2.641-1.141q0.438 0 0.813-0.117t0.687-0.304q0.313-0.188 0.539-0.422 0.227-0.235 0.368-0.5v-1.766h-1.391q-1.328 0-2.055 0.383-0.726 0.383-0.726 1.226 0 0.329 0.109 0.602t0.328 0.469q0.219 0.195 0.555 0.312t0.773 0.117"/>
<path d="m232.54 109.35h4.484v11.156h2.875v1.297h-7.359v-1.297h2.984v-9.859h-2.984v-1.297"/>
<path d="m242.94 113.02h4.484v7.484h2.875v1.297h-7.359v-1.297h2.984v-6.172h-2.984v-1.312m2.797-2.297q0-0.375 0.218-0.633 0.219-0.258 0.688-0.258 0.437 0 0.664 0.258 0.226 0.258 0.226 0.633 0 0.359-0.226 0.601-0.227 0.243-0.664 0.243-0.469 0-0.688-0.243-0.218-0.242-0.218-0.601"/>
<path d="m255.36 121.8v-7.609h-2.422v-1.172h2.422v-0.61q0-0.843 0.242-1.484 0.243-0.641 0.696-1.07 0.453-0.43 1.086-0.649 0.633-0.218 1.414-0.218 0.531 0 1.039 0.093 0.508 0.094 1.039 0.235l-0.172 1.234q-0.344-0.109-0.781-0.195-0.438-0.086-0.938-0.086-1.062 0-1.593 0.531-0.532 0.531-0.532 1.609v0.61h3.391v1.172h-3.391v7.609h-1.5"/>
<path d="m266.74 118.69 0.39 1.062 2.672-6.734h1.688l-4.453 10.14q-0.157 0.329-0.399 0.711-0.242 0.383-0.586 0.711t-0.797 0.547-1.047 0.219q-0.093 0-0.226-0.016-0.133-0.015-0.258-0.031t-0.242-0.039-0.195-0.039l0.25-1.234q0.062 0 0.156 7e-3 0.094 8e-3 0.195 0.016 0.102 8e-3 0.203 0.016 0.102 7e-3 0.164 7e-3 0.297 0 0.555-0.171 0.258-0.172 0.453-0.407 0.195-0.234 0.344-0.484 0.148-0.25 0.226-0.422l0.594-1.156-3.781-8.375h1.687l2.407 5.672"/>
</g>
<g fill="#aaa" fill-rule="evenodd">
<path d="m99.094 143.9h-7.735v-1.078l3.86-4.297q0.515-0.578 0.867-1.023 0.352-0.446 0.562-0.821 0.211-0.375 0.305-0.711t0.094-0.695q0-0.437-0.149-0.828-0.148-0.391-0.414-0.672-0.265-0.281-0.656-0.445-0.39-0.164-0.875-0.164-0.594 0-1.023 0.172-0.43 0.171-0.719 0.484-0.289 0.312-0.43 0.758-0.14 0.445-0.14 0.992h-1.516q0-0.75 0.258-1.406 0.258-0.657 0.75-1.157t1.203-0.789 1.617-0.289q0.844 0 1.508 0.25t1.125 0.688q0.461 0.437 0.711 1.031t0.25 1.313q0 0.515-0.18 1.031-0.179 0.515-0.484 1.023t-0.703 0.992q-0.399 0.485-0.852 0.985l-3.172 3.437h5.938v1.219"/>
</g>
<g fill="#fff" fill-rule="evenodd"></g>
<g fill="#A9DC7C" fill-rule="evenodd">
<path d="m141.39 132.32-0.172 3h-1.047v-2.859-1.016h1.219v0.875m2.89 0-0.156 3h-1.047v-2.859-1.016h1.219l-0.016 0.875"/>
<path d="m155.29 140.92q0-0.547-0.25-0.922t-0.641-0.625-0.851-0.422q-0.461-0.172-0.899-0.313-0.625-0.203-1.266-0.484-0.64-0.281-1.171-0.695-0.532-0.414-0.868-0.977-0.336-0.562-0.336-1.328t0.336-1.367q0.336-0.602 0.875-1.016t1.227-0.625q0.687-0.211 1.391-0.211 0.765 0 1.484 0.258t1.266 0.719q0.546 0.461 0.882 1.117t0.352 1.469h-1.547q-0.062-0.516-0.25-0.93-0.187-0.414-0.492-0.719-0.305-0.304-0.734-0.468-0.43-0.164-0.961-0.164-0.422 0-0.836 0.117t-0.735 0.367q-0.32 0.25-0.508 0.601-0.187 0.352-0.187 0.821 0 0.515 0.25 0.867t0.641 0.594q0.39 0.242 0.836 0.406 0.445 0.164 0.851 0.289 0.438 0.141 0.883 0.313 0.445 0.171 0.859 0.398t0.774 0.508q0.359 0.281 0.625 0.648 0.265 0.367 0.414 0.797 0.148 0.43 0.148 0.961 0 0.797-0.351 1.391-0.352 0.593-0.914 0.984-0.563 0.391-1.266 0.586t-1.406 0.195q-0.797 0-1.547-0.242t-1.344-0.695-0.969-1.117-0.406-1.508h1.531q0.078 0.547 0.305 0.976 0.227 0.43 0.586 0.727t0.82 0.445q0.461 0.149 1.024 0.149 0.437 0 0.859-0.11 0.422-0.109 0.758-0.343 0.336-0.235 0.547-0.586 0.211-0.352 0.211-0.836"/>
<path d="m163.07 132.99v2.125h3.343v1.172h-3.343v4.765q0 0.516 0.125 0.844t0.351 0.531q0.227 0.203 0.524 0.282 0.297 0.078 0.64 0.078 0.235 0 0.493-0.032 0.257-0.031 0.507-0.07t0.461-0.086 0.352-0.078l0.219 1.063q-0.188 0.125-0.454 0.203-0.265 0.078-0.585 0.14-0.321 0.063-0.672 0.094-0.352 0.031-0.696 0.031-0.593 0-1.101-0.164t-0.875-0.523q-0.367-0.36-0.586-0.93t-0.219-1.383v-4.765h-2.297v-1.172h2.297v-2.125h1.516"/>
<path d="m175.66 134.96q0.219 0 0.446 0.015 0.226 0.016 0.429 0.039 0.203 0.024 0.383 0.063t0.289 0.101l-0.203 1.453q-0.438-0.093-0.828-0.132-0.391-0.039-0.828-0.039-1.047 0-1.703 0.476-0.657 0.477-0.969 1.336v5.625h-1.5v-8.781h1.422l0.078 1.406q0.531-0.734 1.281-1.148t1.703-0.414"/>
<path d="m180.54 135.12h4.484v7.484h2.875v1.297h-7.359v-1.297h2.984v-6.172h-2.984v-1.312m2.797-2.297q0-0.375 0.218-0.633 0.219-0.258 0.688-0.258 0.437 0 0.664 0.258 0.226 0.258 0.226 0.633 0 0.359-0.226 0.601-0.227 0.243-0.664 0.243-0.469 0-0.688-0.243-0.218-0.242-0.218-0.601"/>
<path d="m198.11 139.6q0 0.953-0.227 1.766-0.227 0.812-0.664 1.414-0.438 0.601-1.078 0.937-0.641 0.336-1.469 0.336-0.812 0-1.422-0.258-0.609-0.257-1.047-0.742v4.219h-1.5v-12.156h1.375l0.063 0.969q0.437-0.547 1.062-0.836t1.438-0.289q0.844 0 1.492 0.335 0.648 0.336 1.086 0.922 0.437 0.586 0.664 1.414 0.227 0.829 0.227 1.813v0.156m-1.5-0.156q0-0.641-0.141-1.227t-0.438-1.023q-0.296-0.438-0.75-0.695-0.453-0.258-1.078-0.258-0.734 0-1.218 0.336-0.485 0.336-0.782 0.851v4.235q0.297 0.515 0.782 0.843 0.484 0.329 1.234 0.329 0.625 0 1.078-0.266t0.742-0.711 0.43-1.031 0.141-1.227v-0.156"/>
<path d="m215.07 132.99v2.125h3.344v1.172h-3.344v4.765q0 0.516 0.125 0.844t0.351 0.531q0.227 0.203 0.524 0.282 0.297 0.078 0.64 0.078 0.235 0 0.493-0.032 0.257-0.031 0.507-0.07t0.461-0.086 0.352-0.078l0.219 1.063q-0.188 0.125-0.453 0.203-0.266 0.078-0.586 0.14-0.321 0.063-0.672 0.094-0.352 0.031-0.696 0.031-0.593 0-1.101-0.164t-0.875-0.523q-0.367-0.36-0.586-0.93t-0.219-1.383v-4.765h-2.297v-1.172h2.297v-2.125h1.516"/>
<path d="m223.41 136.43q0.469-0.687 1.164-1.07 0.696-0.383 1.555-0.398 0.687 0 1.25 0.195t0.961 0.617 0.609 1.07q0.211 0.649 0.211 1.539v5.516h-1.5v-5.547q0-1.078-0.515-1.601-0.516-0.524-1.469-0.508-0.719 0-1.305 0.351-0.586 0.352-0.961 0.93v6.375h-1.5v-12.453h1.5v4.984"/>
<path d="m236.18 144.06q-0.922 0-1.695-0.312-0.773-0.313-1.32-0.883t-0.86-1.344q-0.312-0.773-0.312-1.695v-0.344q0-1.062 0.344-1.898 0.343-0.836 0.906-1.422 0.562-0.586 1.281-0.891 0.719-0.304 1.469-0.304 0.953 0 1.664 0.328t1.18 0.906q0.468 0.578 0.695 1.367 0.226 0.789 0.226 1.711v0.672h-6.265q0.031 0.594 0.234 1.125t0.563 0.922q0.359 0.39 0.867 0.617t1.117 0.227q0.797 0 1.422-0.329 0.625-0.328 1.031-0.859l0.922 0.719q-0.219 0.328-0.547 0.633-0.328 0.304-0.758 0.539-0.429 0.234-0.976 0.375-0.547 0.14-1.188 0.14m-0.187-7.859q-0.453 0-0.86 0.164-0.406 0.164-0.734 0.484-0.328 0.321-0.547 0.789-0.219 0.469-0.312 1.079h4.718v-0.11q-0.015-0.437-0.156-0.875-0.14-0.437-0.422-0.773-0.281-0.336-0.695-0.547t-0.992-0.211"/>
<path d="m254.45 135.12 0.109 1.297q0.485-0.672 1.18-1.055t1.555-0.398q0.687 0 1.25 0.195 0.562 0.195 0.961 0.609 0.398 0.414 0.617 1.047t0.219 1.508v5.578h-1.5v-5.547q0-0.578-0.133-0.984t-0.391-0.656-0.625-0.36q-0.367-0.109-0.836-0.109-0.765 0-1.336 0.375-0.57 0.375-0.914 0.984v6.297h-1.5v-8.781h1.344"/>
<path d="m269.27 143.9q-0.078-0.172-0.133-0.43-0.055-0.257-0.086-0.523-0.219 0.219-0.5 0.422t-0.617 0.359-0.719 0.242-0.804 0.086q-0.704 0-1.266-0.203-0.563-0.203-0.961-0.547-0.398-0.343-0.609-0.812t-0.211-1.031q0-0.719 0.289-1.258t0.812-0.907q0.524-0.367 1.266-0.539 0.742-0.171 1.664-0.171h1.641v-0.704q0-0.39-0.149-0.711-0.148-0.32-0.414-0.539-0.266-0.218-0.648-0.343-0.383-0.125-0.868-0.125-0.453 0-0.804 0.117-0.352 0.117-0.594 0.305-0.242 0.187-0.375 0.437t-0.133 0.531h-1.515q0.015-0.484 0.257-0.945 0.243-0.461 0.688-0.828t1.094-0.594q0.648-0.226 1.461-0.226 0.75 0 1.39 0.179 0.641 0.18 1.11 0.555 0.468 0.375 0.734 0.922t0.266 1.281v4.094q0 0.437 0.078 0.922 0.078 0.484 0.234 0.859v0.125h-1.578m-2.641-1.141q0.438 0 0.813-0.117t0.687-0.304q0.313-0.188 0.539-0.422 0.227-0.235 0.368-0.5v-1.766h-1.391q-1.328 0-2.055 0.383-0.726 0.383-0.726 1.226 0 0.329 0.109 0.602t0.328 0.469q0.219 0.195 0.555 0.312t0.773 0.117"/>
<path d="m274.59 135.12 0.047 0.828q0.265-0.453 0.703-0.711 0.437-0.258 1.047-0.273 1.203 0 1.609 0.937 0.266-0.422 0.695-0.672 0.43-0.25 1.024-0.265 0.969 0 1.492 0.593 0.523 0.594 0.523 1.797v6.547h-1.437v-6.562q0-1.11-1.016-1.094-0.265 0-0.461 0.07-0.195 0.07-0.32 0.195t-0.203 0.289q-0.078 0.165-0.094 0.352v6.75h-1.422v-6.578q0-0.531-0.242-0.813-0.242-0.281-0.742-0.265-0.469 0-0.735 0.179-0.265 0.18-0.374 0.493v6.984h-1.438v-8.781h1.344"/>
<path d="m288.18 144.06q-0.922 0-1.695-0.312-0.774-0.313-1.32-0.883-0.547-0.57-0.86-1.344-0.312-0.773-0.312-1.695v-0.344q0-1.062 0.343-1.898 0.344-0.836 0.907-1.422 0.562-0.586 1.281-0.891 0.719-0.304 1.469-0.304 0.953 0 1.664 0.328t1.179 0.906q0.469 0.578 0.696 1.367 0.226 0.789 0.226 1.711v0.672h-6.265q0.031 0.594 0.234 1.125t0.563 0.922q0.359 0.39 0.867 0.617t1.117 0.227q0.797 0 1.422-0.329 0.625-0.328 1.031-0.859l0.922 0.719q-0.219 0.328-0.547 0.633-0.328 0.304-0.758 0.539-0.429 0.234-0.976 0.375-0.547 0.14-1.188 0.14m-0.187-7.859q-0.453 0-0.86 0.164-0.406 0.164-0.734 0.484-0.328 0.321-0.547 0.789-0.219 0.469-0.312 1.079h4.718v-0.11q-0.015-0.437-0.156-0.875-0.141-0.437-0.422-0.773t-0.695-0.547-0.992-0.211"/>
<path d="m300.55 141.57q0-0.266-0.109-0.484-0.11-0.219-0.36-0.391t-0.664-0.328-1.039-0.266q-0.75-0.156-1.367-0.375t-1.063-0.523q-0.445-0.305-0.687-0.719t-0.242-0.945q0-0.547 0.25-1.008t0.703-0.813q0.453-0.351 1.086-0.554t1.383-0.203q0.812 0 1.461 0.21 0.648 0.211 1.101 0.586t0.703 0.875 0.25 1.063h-1.5q0-0.281-0.148-0.547-0.149-0.266-0.406-0.477-0.258-0.21-0.625-0.343-0.368-0.133-0.836-0.133-0.485 0-0.844 0.101-0.359 0.102-0.594 0.282-0.234 0.179-0.359 0.414-0.125 0.234-0.125 0.484 0 0.266 0.101 0.469 0.102 0.203 0.336 0.367 0.235 0.164 0.641 0.289t1.016 0.25q0.812 0.172 1.453 0.399 0.64 0.226 1.078 0.539 0.437 0.312 0.672 0.726 0.234 0.414 0.234 0.946 0 0.593-0.266 1.07-0.265 0.476-0.734 0.82t-1.133 0.524q-0.664 0.179-1.429 0.179-0.891 0-1.594-0.234t-1.18-0.633q-0.476-0.398-0.734-0.914t-0.258-1.078h1.5q0.031 0.469 0.242 0.781 0.211 0.313 0.531 0.508 0.321 0.195 0.711 0.281 0.391 0.086 0.782 0.086 0.937 0 1.492-0.351 0.554-0.352 0.57-0.93"/>
<path d="m312.51 139.6q0 0.953-0.227 1.766-0.227 0.812-0.664 1.414-0.438 0.601-1.078 0.937-0.641 0.336-1.469 0.336-0.812 0-1.422-0.258-0.609-0.257-1.047-0.742v4.219h-1.5v-12.156h1.375l0.063 0.969q0.437-0.547 1.062-0.836t1.438-0.289q0.844 0 1.492 0.335 0.648 0.336 1.086 0.922 0.437 0.586 0.664 1.414 0.227 0.829 0.227 1.813v0.156m-1.5-0.156q0-0.641-0.141-1.227t-0.438-1.023q-0.296-0.438-0.75-0.695-0.453-0.258-1.078-0.258-0.734 0-1.218 0.336-0.485 0.336-0.782 0.851v4.235q0.297 0.515 0.782 0.843 0.484 0.329 1.234 0.329 0.625 0 1.078-0.266t0.742-0.711 0.43-1.031 0.141-1.227v-0.156"/>
<path d="m321.27 143.9q-0.078-0.172-0.133-0.43-0.055-0.257-0.086-0.523-0.219 0.219-0.5 0.422t-0.617 0.359-0.719 0.242-0.804 0.086q-0.704 0-1.266-0.203-0.563-0.203-0.961-0.547-0.398-0.343-0.609-0.812t-0.211-1.031q0-0.719 0.289-1.258t0.812-0.907q0.524-0.367 1.266-0.539 0.742-0.171 1.664-0.171h1.641v-0.704q0-0.39-0.149-0.711-0.148-0.32-0.414-0.539-0.266-0.218-0.648-0.343-0.383-0.125-0.868-0.125-0.453 0-0.804 0.117-0.352 0.117-0.594 0.305-0.242 0.187-0.375 0.437t-0.133 0.531h-1.515q0.015-0.484 0.257-0.945 0.243-0.461 0.688-0.828t1.094-0.594q0.648-0.226 1.461-0.226 0.75 0 1.39 0.179 0.641 0.18 1.11 0.555 0.468 0.375 0.734 0.922t0.266 1.281v4.094q0 0.437 0.078 0.922 0.078 0.484 0.234 0.859v0.125h-1.578m-2.641-1.141q0.438 0 0.813-0.117t0.687-0.304q0.313-0.188 0.539-0.422 0.227-0.235 0.368-0.5v-1.766h-1.391q-1.328 0-2.055 0.383-0.726 0.383-0.726 1.226 0 0.329 0.109 0.602t0.328 0.469q0.219 0.195 0.555 0.312t0.773 0.117"/>
<path d="m329.66 142.85q0.406 0 0.789-0.133 0.383-0.132 0.68-0.367 0.297-0.234 0.484-0.547 0.188-0.312 0.188-0.672h1.422q-0.016 0.579-0.305 1.11t-0.789 0.937q-0.5 0.407-1.141 0.641-0.64 0.234-1.328 0.234-1 0-1.75-0.351-0.75-0.352-1.25-0.961-0.5-0.61-0.75-1.399t-0.25-1.664v-0.343q0-0.86 0.25-1.657t0.75-1.398q0.5-0.602 1.25-0.961t1.75-0.359q0.766 0 1.422 0.25t1.133 0.671q0.477 0.422 0.742 1.008 0.266 0.586 0.266 1.242h-1.422q0-0.39-0.172-0.742-0.172-0.351-0.453-0.617t-0.672-0.422-0.844-0.156q-0.703 0-1.179 0.281-0.477 0.281-0.766 0.727-0.289 0.445-0.414 1.008-0.125 0.562-0.125 1.125v0.343q0 0.578 0.125 1.141 0.125 0.562 0.414 1.016 0.289 0.453 0.758 0.734t1.187 0.281"/>
<path d="m340.18 144.06q-0.922 0-1.695-0.312-0.774-0.313-1.32-0.883-0.547-0.57-0.86-1.344-0.312-0.773-0.312-1.695v-0.344q0-1.062 0.343-1.898 0.344-0.836 0.907-1.422 0.562-0.586 1.281-0.891 0.719-0.304 1.469-0.304 0.953 0 1.664 0.328t1.179 0.906q0.469 0.578 0.696 1.367 0.226 0.789 0.226 1.711v0.672h-6.265q0.031 0.594 0.234 1.125t0.563 0.922q0.359 0.39 0.867 0.617t1.117 0.227q0.797 0 1.422-0.329 0.625-0.328 1.031-0.859l0.922 0.719q-0.219 0.328-0.547 0.633-0.328 0.304-0.758 0.539-0.429 0.234-0.976 0.375-0.547 0.14-1.188 0.14m-0.187-7.859q-0.453 0-0.86 0.164-0.406 0.164-0.734 0.484-0.328 0.321-0.547 0.789-0.219 0.469-0.312 1.079h4.718v-0.11q-0.015-0.437-0.156-0.875-0.141-0.437-0.422-0.773t-0.695-0.547-0.992-0.211"/>
<path d="m359.36 143.9v-7.609h-2.422v-1.172h2.422v-0.61q0-0.843 0.242-1.484 0.243-0.641 0.696-1.07 0.453-0.43 1.086-0.649 0.633-0.218 1.414-0.218 0.531 0 1.039 0.093 0.508 0.094 1.039 0.235l-0.172 1.234q-0.344-0.109-0.781-0.195-0.438-0.086-0.938-0.086-1.062 0-1.593 0.531-0.532 0.531-0.532 1.609v0.61h3.391v1.172h-3.391v7.609h-1.5"/>
<path d="m373.26 134.96q0.219 0 0.446 0.015 0.226 0.016 0.429 0.039 0.203 0.024 0.383 0.063t0.289 0.101l-0.203 1.453q-0.437-0.093-0.828-0.132t-0.828-0.039q-1.047 0-1.703 0.476-0.657 0.477-0.969 1.336v5.625h-1.5v-8.781h1.422l0.078 1.406q0.531-0.734 1.281-1.148t1.703-0.414"/>
<path d="m377.48 139.43q0-0.953 0.282-1.765 0.281-0.813 0.796-1.414 0.516-0.602 1.25-0.946 0.735-0.343 1.657-0.343 0.937 0 1.679 0.343 0.743 0.344 1.258 0.946 0.516 0.601 0.789 1.414 0.274 0.812 0.274 1.765v0.172q0 0.953-0.274 1.766-0.273 0.812-0.789 1.414-0.515 0.601-1.258 0.937-0.742 0.336-1.664 0.336t-1.664-0.336-1.258-0.937q-0.515-0.602-0.796-1.414-0.282-0.813-0.282-1.766v-0.172m1.5 0.172q0 0.656 0.157 1.242 0.156 0.586 0.468 1.032 0.313 0.445 0.782 0.711 0.468 0.265 1.093 0.265t1.086-0.265q0.461-0.266 0.774-0.711 0.312-0.446 0.468-1.032 0.157-0.586 0.157-1.242v-0.172q0-0.64-0.157-1.226-0.156-0.586-0.468-1.032-0.313-0.445-0.782-0.71-0.468-0.266-1.093-0.266t-1.086 0.266q-0.461 0.265-0.774 0.71-0.312 0.446-0.468 1.032-0.157 0.586-0.157 1.226v0.172"/>
<path d="m388.99 135.12 0.047 0.828q0.265-0.453 0.703-0.711 0.437-0.258 1.047-0.273 1.203 0 1.609 0.937 0.266-0.422 0.695-0.672 0.43-0.25 1.024-0.265 0.969 0 1.492 0.593 0.523 0.594 0.523 1.797v6.547h-1.437v-6.562q0-1.11-1.016-1.094-0.265 0-0.461 0.07-0.195 0.07-0.32 0.195t-0.203 0.289q-0.078 0.165-0.094 0.352v6.75h-1.422v-6.578q0-0.531-0.242-0.813-0.242-0.281-0.742-0.265-0.469 0-0.734 0.179-0.266 0.18-0.375 0.493v6.984h-1.438v-8.781h1.344"/>
<path d="m414.87 143.9q-0.078-0.172-0.133-0.43-0.055-0.257-0.086-0.523-0.219 0.219-0.5 0.422t-0.617 0.359-0.719 0.242-0.805 0.086q-0.703 0-1.265-0.203-0.563-0.203-0.961-0.547-0.399-0.343-0.609-0.812-0.211-0.469-0.211-1.031 0-0.719 0.289-1.258t0.812-0.907q0.524-0.367 1.266-0.539 0.742-0.171 1.664-0.171h1.64v-0.704q0-0.39-0.148-0.711-0.148-0.32-0.414-0.539-0.266-0.218-0.648-0.343-0.383-0.125-0.868-0.125-0.453 0-0.804 0.117-0.352 0.117-0.594 0.305-0.242 0.187-0.375 0.437t-0.133 0.531h-1.516q0.016-0.484 0.258-0.945t0.688-0.828q0.445-0.367 1.094-0.594 0.648-0.226 1.46-0.226 0.75 0 1.391 0.179 0.641 0.18 1.109 0.555 0.469 0.375 0.735 0.922 0.265 0.547 0.265 1.281v4.094q0 0.437 0.079 0.922 0.078 0.484 0.234 0.859v0.125h-1.578m-2.641-1.141q0.438 0 0.813-0.117t0.687-0.304q0.313-0.188 0.539-0.422 0.227-0.235 0.367-0.5v-1.766h-1.39q-1.328 0-2.055 0.383-0.726 0.383-0.726 1.226 0 0.329 0.109 0.602t0.328 0.469q0.219 0.195 0.555 0.312t0.773 0.117"/>
<path d="m432.53 139.81-1.093 1.063v3.031h-1.516v-12.453h1.516v7.625l0.984-1.063 2.875-2.89h1.828l-3.563 3.656 4.11 5.125h-1.906l-3.235-4.094"/>
<path d="m444.18 144.06q-0.922 0-1.695-0.312-0.773-0.313-1.32-0.883t-0.86-1.344q-0.312-0.773-0.312-1.695v-0.344q0-1.062 0.344-1.898 0.343-0.836 0.906-1.422 0.562-0.586 1.281-0.891 0.719-0.304 1.469-0.304 0.953 0 1.664 0.328t1.18 0.906q0.468 0.578 0.695 1.367 0.226 0.789 0.226 1.711v0.672h-6.265q0.031 0.594 0.234 1.125t0.563 0.922q0.359 0.39 0.867 0.617t1.117 0.227q0.797 0 1.422-0.329 0.625-0.328 1.031-0.859l0.922 0.719q-0.219 0.328-0.547 0.633-0.328 0.304-0.758 0.539-0.429 0.234-0.976 0.375-0.547 0.14-1.188 0.14m-0.187-7.859q-0.453 0-0.86 0.164-0.406 0.164-0.734 0.484-0.328 0.321-0.547 0.789-0.219 0.469-0.312 1.079h4.718v-0.11q-0.015-0.437-0.156-0.875-0.14-0.437-0.422-0.773-0.281-0.336-0.695-0.547t-0.992-0.211"/>
<path d="m453.94 140.79 0.39 1.062 2.672-6.734h1.688l-4.453 10.14q-0.157 0.329-0.399 0.711-0.242 0.383-0.586 0.711t-0.797 0.547-1.047 0.219q-0.093 0-0.226-0.016-0.133-0.015-0.258-0.031t-0.242-0.039-0.195-0.039l0.25-1.234q0.062 0 0.156 7e-3 0.094 8e-3 0.195 0.016 0.102 8e-3 0.203 0.016 0.102 7e-3 0.164 7e-3 0.297 0 0.555-0.171 0.258-0.172 0.453-0.407 0.195-0.234 0.344-0.484 0.148-0.25 0.226-0.422l0.594-1.156-3.781-8.375h1.687l2.407 5.672"/>
<path d="m462.43 140.73 0.188 1.25 0.219-1.25 1.406-5.609h0.953l1.406 5.609 0.235 1.375 0.218-1.375 0.969-5.609h1.328l-1.859 8.781h-1.188l-1.375-5.375-0.218-1.359-0.219 1.359-1.359 5.375h-1.188l-1.859-8.781h1.328l1.015 5.609"/>
<path d="m471.08 139.43q0-0.953 0.282-1.765 0.281-0.813 0.797-1.414 0.515-0.602 1.25-0.946 0.734-0.343 1.656-0.343 0.937 0 1.679 0.343 0.743 0.344 1.258 0.946 0.516 0.601 0.789 1.414 0.274 0.812 0.274 1.765v0.172q0 0.953-0.274 1.766-0.273 0.812-0.789 1.414-0.515 0.601-1.258 0.937-0.742 0.336-1.664 0.336-0.921 0-1.664-0.336-0.742-0.336-1.257-0.937-0.516-0.602-0.797-1.414-0.282-0.813-0.282-1.766v-0.172m1.5 0.172q0 0.656 0.157 1.242 0.156 0.586 0.468 1.032 0.313 0.445 0.782 0.711 0.468 0.265 1.093 0.265t1.086-0.265q0.461-0.266 0.774-0.711 0.312-0.446 0.469-1.032 0.156-0.586 0.156-1.242v-0.172q0-0.64-0.156-1.226-0.157-0.586-0.469-1.032-0.313-0.445-0.781-0.71-0.469-0.266-1.094-0.266t-1.086 0.266q-0.461 0.265-0.774 0.71-0.312 0.446-0.468 1.032-0.157 0.586-0.157 1.226v0.172"/>
<path d="m487.66 134.96q0.219 0 0.446 0.015 0.226 0.016 0.429 0.039 0.203 0.024 0.383 0.063t0.289 0.101l-0.203 1.453q-0.438-0.093-0.828-0.132-0.391-0.039-0.828-0.039-1.047 0-1.703 0.476-0.657 0.477-0.969 1.336v5.625h-1.5v-8.781h1.422l0.078 1.406q0.531-0.734 1.281-1.148t1.703-0.414"/>
<path d="m492.02 139.45q0-0.984 0.25-1.813 0.25-0.828 0.703-1.414t1.11-0.922q0.656-0.335 1.453-0.335 0.781 0 1.375 0.265 0.593 0.266 1.015 0.766v-4.547h1.5v12.453h-1.375l-0.062-0.922q-0.438 0.531-1.047 0.805-0.609 0.273-1.422 0.273-0.797 0-1.445-0.336-0.649-0.336-1.102-0.937-0.453-0.602-0.703-1.414-0.25-0.813-0.25-1.766v-0.156m1.5 0.156q0 0.641 0.141 1.219 0.14 0.578 0.429 1.016 0.289 0.437 0.735 0.695 0.445 0.258 1.07 0.258 0.375 0 0.688-0.094 0.312-0.094 0.562-0.258t0.445-0.391q0.196-0.226 0.336-0.523v-4.062q-0.297-0.532-0.789-0.875-0.492-0.344-1.226-0.344-0.641 0-1.086 0.258-0.446 0.257-0.735 0.695-0.289 0.437-0.429 1.023-0.141 0.586-0.141 1.227v0.156"/>
<path d="m505.32 142.93q0-0.25 0.078-0.461t0.226-0.367q0.149-0.156 0.368-0.25 0.218-0.094 0.515-0.094 0.281 0 0.508 0.094t0.375 0.25 0.227 0.367q0.078 0.211 0.078 0.461 0 0.235-0.078 0.438-0.079 0.203-0.227 0.359t-0.375 0.242-0.508 0.086q-0.297 0-0.515-0.086-0.219-0.086-0.368-0.242-0.148-0.156-0.226-0.359t-0.078-0.438"/>
<path d="m515.79 132.32-0.172 3h-1.047v-2.859-1.016h1.219v0.875m2.89 0-0.156 3h-1.047v-2.859-1.016h1.219l-0.016 0.875"/>
</g>
<g fill="#aaa" fill-rule="evenodd">
<path d="m93.594 159.38h1.078q0.562 0 1-0.156 0.437-0.157 0.734-0.422 0.297-0.266 0.446-0.641 0.148-0.375 0.148-0.812 0-1.032-0.523-1.555-0.524-0.523-1.539-0.523-0.485 0-0.876 0.14-0.39 0.141-0.671 0.406-0.282 0.266-0.43 0.641-0.149 0.375-0.149 0.844h-1.515q0-0.688 0.265-1.281 0.266-0.594 0.743-1.032 0.476-0.437 1.148-0.695t1.485-0.258q0.796 0 1.453 0.211 0.656 0.211 1.125 0.633 0.468 0.422 0.726 1.047t0.258 1.453q0 0.344-0.102 0.703-0.101 0.36-0.32 0.703-0.219 0.344-0.562 0.649-0.344 0.304-0.828 0.508 0.578 0.187 0.96 0.492 0.383 0.304 0.618 0.672 0.234 0.367 0.328 0.781t0.094 0.82q0 0.828-0.282 1.469-0.281 0.64-0.789 1.086-0.508 0.445-1.195 0.672-0.688 0.226-1.469 0.226t-1.469-0.218q-0.687-0.219-1.187-0.641t-0.797-1.024q-0.297-0.601-0.297-1.382h1.5q0 0.453 0.156 0.836 0.157 0.382 0.446 0.648t0.711 0.414q0.422 0.149 0.937 0.149 0.5 0 0.914-0.133t0.711-0.407q0.297-0.273 0.453-0.687 0.157-0.414 0.157-0.977 0-0.546-0.188-0.945-0.188-0.398-0.516-0.672-0.328-0.273-0.789-0.398t-1.023-0.125h-1.078v-1.219"/>
</g>
<g fill="#fff" fill-rule="evenodd">
<path d="m143.97 153.73h-1.797v13.563h1.797v1.234h-3.219v-16.031h3.219v1.234"/>
<path d="m151.73 161.91-1.094 1.063v3.031h-1.515v-12.453h1.515v7.625l0.985-1.063 2.875-2.89h1.828l-3.563 3.656 4.11 5.125h-1.906l-3.235-4.094"/>
<path d="m160.83 162.83 0.188 1.25 0.219-1.25 1.406-5.609h0.953l1.406 5.609 0.235 1.375 0.218-1.375 0.969-5.609h1.328l-1.859 8.781h-1.188l-1.375-5.375-0.218-1.359-0.219 1.359-1.36 5.375h-1.187l-1.859-8.781h1.328l1.015 5.609"/>
<path d="m171.78 152.5h3.219v16.031h-3.219v-1.234h1.797v-13.563h-1.797v-1.234"/>
</g>
<g fill="#aaa" fill-rule="evenodd">
<path d="m97.938 184.13h1.64v1.235h-1.64v2.734h-1.5v-2.734h-5.391v-0.891l5.281-8.188h1.61v7.844m-5.235 0h3.735v-5.844l-0.25 0.454-3.485 5.39"/>
</g>
<g fill="#fff" fill-rule="evenodd">
<path d="m140.19 183.3q0-1.156 0.187-2.18 0.188-1.023 0.492-1.89 0.305-0.867 0.703-1.594 0.399-0.727 0.844-1.281 0.446-0.555 0.891-0.953 0.445-0.399 0.851-0.633l0.313 1q-0.5 0.375-1 1.031t-0.891 1.594q-0.39 0.937-0.64 2.156t-0.25 2.734v0.11q0 1.531 0.25 2.75t0.64 2.164q0.391 0.945 0.891 1.609t1 1.071l-0.313 0.921q-0.406-0.234-0.851-0.625-0.445-0.39-0.891-0.953-0.445-0.562-0.844-1.281-0.398-0.719-0.703-1.594-0.304-0.875-0.492-1.89-0.187-1.016-0.187-2.188v-0.078"/>
<path d="m155.67 183.55h-6.203v-1.234h6.203v1.234"/>
<path d="m159.54 180.72v-1.547l7.172 3.063v1.187l-7.172 3.078v-1.562l5.25-1.985 0.485-0.125-0.485-0.156-5.25-1.953"/>
<path d="m182.93 184.01-1.093 1.063v3.031h-1.516v-12.453h1.516v7.625l0.984-1.063 2.875-2.89h1.828l-3.562 3.656 4.109 5.125h-1.906l-3.235-4.094"/>
<path d="m192.03 184.93 0.188 1.25 0.219-1.25 1.406-5.609h0.953l1.406 5.609 0.235 1.375 0.218-1.375 0.969-5.609h1.328l-1.859 8.781h-1.188l-1.375-5.375-0.218-1.359-0.219 1.359-1.359 5.375h-1.188l-1.859-8.781h1.328l1.015 5.609"/>
<path d="m212.85 179.32 0.109 1.297q0.485-0.672 1.18-1.055t1.555-0.399q0.687 0 1.25 0.196 0.562 0.195 0.961 0.609 0.398 0.414 0.617 1.047t0.219 1.508v5.578h-1.5v-5.547q0-0.578-0.133-0.984-0.133-0.407-0.391-0.657t-0.625-0.359-0.836-0.109q-0.765 0-1.336 0.375-0.57 0.375-0.914 0.984v6.297h-1.5v-8.781h1.344"/>
<path d="m227.67 188.1q-0.078-0.172-0.133-0.43t-0.086-0.523q-0.219 0.219-0.5 0.422t-0.617 0.359-0.719 0.242-0.805 0.086q-0.703 0-1.265-0.203-0.563-0.203-0.961-0.547t-0.609-0.812q-0.211-0.469-0.211-1.032 0-0.718 0.289-1.257t0.812-0.907q0.524-0.367 1.266-0.539t1.664-0.172h1.641v-0.703q0-0.39-0.149-0.711-0.148-0.32-0.414-0.539-0.266-0.218-0.648-0.343-0.383-0.125-0.868-0.125-0.453 0-0.804 0.117-0.352 0.117-0.594 0.304-0.242 0.188-0.375 0.438t-0.133 0.531h-1.515q0.015-0.484 0.257-0.945 0.243-0.461 0.688-0.828t1.094-0.594q0.648-0.227 1.461-0.227 0.75 0 1.39 0.18 0.641 0.18 1.11 0.555 0.468 0.375 0.734 0.922t0.266 1.281v4.094q0 0.437 0.078 0.922 0.078 0.484 0.234 0.859v0.125h-1.578m-2.641-1.141q0.438 0 0.813-0.117t0.687-0.305q0.313-0.187 0.539-0.421 0.227-0.235 0.368-0.5v-1.766h-1.391q-1.328 0-2.055 0.383-0.726 0.383-0.726 1.226 0 0.328 0.109 0.602 0.109 0.273 0.328 0.469 0.219 0.195 0.555 0.312t0.773 0.117"/>
<path d="m232.99 179.32 0.047 0.828q0.265-0.453 0.703-0.711 0.437-0.258 1.047-0.274 1.203 0 1.609 0.938 0.266-0.422 0.695-0.672 0.43-0.25 1.024-0.266 0.969 0 1.492 0.594t0.523 1.797v6.547h-1.437v-6.563q0-1.109-1.016-1.093-0.265 0-0.461 0.07-0.195 0.07-0.32 0.195t-0.203 0.289-0.094 0.352v6.75h-1.422v-6.578q0-0.531-0.242-0.813-0.242-0.281-0.742-0.265-0.469 0-0.734 0.179-0.266 0.18-0.375 0.493v6.984h-1.438v-8.781h1.344"/>
<path d="m246.58 188.26q-0.922 0-1.695-0.312-0.773-0.313-1.32-0.883t-0.86-1.344q-0.312-0.773-0.312-1.695v-0.344q0-1.062 0.344-1.898 0.343-0.836 0.906-1.422 0.562-0.586 1.281-0.891t1.469-0.305q0.953 0 1.664 0.329 0.711 0.328 1.18 0.906 0.468 0.578 0.695 1.367 0.226 0.789 0.226 1.711v0.672h-6.265q0.031 0.594 0.234 1.125t0.563 0.922q0.359 0.39 0.867 0.617 0.508 0.226 1.117 0.226 0.797 0 1.422-0.328t1.031-0.859l0.922 0.719q-0.219 0.328-0.547 0.633-0.328 0.304-0.758 0.539-0.429 0.234-0.976 0.375-0.547 0.14-1.188 0.14m-0.187-7.859q-0.453 0-0.86 0.164-0.406 0.164-0.734 0.484-0.328 0.321-0.547 0.789-0.219 0.469-0.312 1.078h4.718v-0.109q-0.015-0.437-0.156-0.875-0.14-0.437-0.422-0.773-0.281-0.336-0.695-0.547t-0.992-0.211"/>
<path d="m266.13 184.01-1.093 1.063v3.031h-1.516v-12.453h1.516v7.625l0.984-1.063 2.875-2.89h1.828l-3.562 3.656 4.109 5.125h-1.906l-3.235-4.094"/>
<path d="m277.78 188.26q-0.922 0-1.695-0.312-0.774-0.313-1.32-0.883-0.547-0.57-0.86-1.344-0.312-0.773-0.312-1.695v-0.344q0-1.062 0.344-1.898 0.343-0.836 0.906-1.422 0.562-0.586 1.281-0.891t1.469-0.305q0.953 0 1.664 0.329 0.711 0.328 1.18 0.906 0.468 0.578 0.695 1.367 0.226 0.789 0.226 1.711v0.672h-6.265q0.031 0.594 0.234 1.125t0.563 0.922q0.359 0.39 0.867 0.617 0.508 0.226 1.117 0.226 0.797 0 1.422-0.328t1.031-0.859l0.922 0.719q-0.219 0.328-0.547 0.633-0.328 0.304-0.758 0.539-0.429 0.234-0.976 0.375-0.547 0.14-1.188 0.14m-0.187-7.859q-0.453 0-0.86 0.164-0.406 0.164-0.734 0.484-0.328 0.321-0.547 0.789-0.219 0.469-0.312 1.078h4.718v-0.109q-0.015-0.437-0.156-0.875-0.141-0.437-0.422-0.773t-0.695-0.547-0.992-0.211"/>
<path d="m287.54 184.99 0.39 1.062 2.672-6.734h1.688l-4.454 10.14q-0.156 0.328-0.398 0.711t-0.586 0.711-0.797 0.547-1.047 0.219q-0.093 0-0.226-0.016-0.133-0.015-0.258-0.031t-0.242-0.039q-0.117-0.024-0.196-0.039l0.25-1.235q0.063 0 0.157 8e-3 0.093 8e-3 0.195 0.016t0.203 0.016q0.102 7e-3 0.164 7e-3 0.297 0 0.555-0.172 0.258-0.171 0.453-0.406 0.195-0.234 0.344-0.484 0.148-0.25 0.226-0.422l0.594-1.156-3.781-8.375h1.687l2.407 5.672"/>
<path d="m296.03 184.93 0.188 1.25 0.219-1.25 1.406-5.609h0.953l1.406 5.609 0.235 1.375 0.218-1.375 0.969-5.609h1.328l-1.859 8.781h-1.188l-1.375-5.375-0.218-1.359-0.219 1.359-1.359 5.375h-1.188l-1.859-8.781h1.328l1.015 5.609"/>
<path d="m304.68 183.63q0-0.953 0.282-1.765 0.281-0.813 0.797-1.414 0.515-0.602 1.25-0.946 0.734-0.344 1.656-0.344 0.937 0 1.679 0.344 0.743 0.344 1.258 0.946 0.516 0.601 0.789 1.414 0.274 0.812 0.274 1.765v0.172q0 0.953-0.274 1.766-0.273 0.812-0.789 1.414-0.515 0.601-1.258 0.937-0.742 0.336-1.664 0.336-0.921 0-1.664-0.336-0.742-0.336-1.257-0.937-0.516-0.602-0.797-1.414-0.282-0.813-0.282-1.766v-0.172m1.5 0.172q0 0.656 0.157 1.242 0.156 0.586 0.468 1.032 0.313 0.445 0.782 0.71 0.468 0.266 1.093 0.266t1.086-0.266q0.461-0.265 0.774-0.71 0.312-0.446 0.469-1.032 0.156-0.586 0.156-1.242v-0.172q0-0.64-0.156-1.226-0.157-0.586-0.469-1.032-0.313-0.445-0.781-0.711-0.469-0.265-1.094-0.265t-1.086 0.265q-0.461 0.266-0.774 0.711-0.312 0.446-0.468 1.032-0.157 0.586-0.157 1.226v0.172"/>
<path d="m321.26 179.16q0.219 0 0.446 0.016 0.226 0.016 0.429 0.039 0.203 0.024 0.383 0.063t0.289 0.101l-0.203 1.453q-0.437-0.093-0.828-0.132-0.391-0.04-0.828-0.04-1.047 0-1.703 0.477-0.657 0.477-0.969 1.336v5.625h-1.5v-8.781h1.422l0.078 1.406q0.531-0.734 1.281-1.148 0.75-0.415 1.703-0.415"/>
<path d="m325.62 183.65q0-0.985 0.25-1.813t0.703-1.414 1.11-0.922q0.656-0.336 1.453-0.336 0.781 0 1.375 0.266 0.593 0.266 1.015 0.766v-4.547h1.5v12.453h-1.375l-0.062-0.922q-0.438 0.531-1.047 0.805-0.609 0.273-1.422 0.273-0.797 0-1.445-0.336-0.649-0.336-1.102-0.937-0.453-0.602-0.703-1.414-0.25-0.813-0.25-1.766v-0.156m1.5 0.156q0 0.641 0.141 1.219 0.14 0.578 0.429 1.015 0.289 0.438 0.735 0.696 0.445 0.258 1.07 0.258 0.375 0 0.688-0.094 0.312-0.094 0.562-0.258t0.445-0.391q0.196-0.226 0.336-0.523v-4.063q-0.297-0.531-0.789-0.875-0.492-0.343-1.226-0.343-0.641 0-1.086 0.258-0.446 0.257-0.735 0.695-0.289 0.437-0.429 1.023-0.141 0.586-0.141 1.227v0.156"/>
<path d="m341.79 183.38q0 1.172-0.188 2.188-0.187 1.015-0.492 1.89t-0.711 1.594-0.844 1.281q-0.437 0.563-0.89 0.953-0.454 0.391-0.86 0.625l-0.312-0.921q0.5-0.375 1-1.039 0.5-0.665 0.89-1.618 0.391-0.953 0.641-2.179 0.25-1.227 0.25-2.758v-0.11q0-1.515-0.258-2.75-0.258-1.234-0.672-2.187t-0.898-1.617q-0.485-0.664-0.953-1.039l0.312-0.922q0.406 0.234 0.86 0.633 0.453 0.398 0.89 0.953 0.438 0.554 0.844 1.281t0.711 1.594 0.492 1.89q0.188 1.024 0.188 2.18v0.078"/>
<path d="m352.19 183.38q0 1.172-0.188 2.188-0.187 1.015-0.492 1.89t-0.711 1.594-0.844 1.281q-0.437 0.563-0.89 0.953-0.453 0.391-0.86 0.625l-0.312-0.921q0.5-0.375 1-1.039 0.5-0.665 0.89-1.618 0.391-0.953 0.641-2.179 0.25-1.227 0.25-2.758v-0.11q0-1.515-0.258-2.75-0.258-1.234-0.672-2.187t-0.898-1.617-0.953-1.039l0.312-0.922q0.407 0.234 0.86 0.633 0.453 0.398 0.89 0.953 0.438 0.554 0.844 1.281t0.711 1.594 0.492 1.89q0.188 1.024 0.188 2.18v0.078"/>
</g>
<g fill="#aaa" fill-rule="evenodd">
<path d="m92.391 204.28 0.578-5.891h6.062v1.469h-4.797l-0.328 3.141q0.344-0.203 0.836-0.36 0.492-0.156 1.133-0.156 0.813 0 1.461 0.289t1.102 0.805q0.453 0.516 0.703 1.242 0.25 0.727 0.25 1.617 0 0.844-0.235 1.571-0.234 0.726-0.687 1.242-0.453 0.515-1.149 0.812-0.695 0.297-1.648 0.297-0.719 0-1.36-0.203-0.64-0.203-1.14-0.601-0.5-0.399-0.82-1.016-0.321-0.617-0.399-1.445h1.422q0.141 1.015 0.75 1.531 0.609 0.515 1.547 0.515 0.547 0 0.961-0.187 0.414-0.188 0.687-0.547 0.274-0.359 0.414-0.851 0.141-0.493 0.141-1.102 0-0.547-0.156-1.023-0.157-0.477-0.453-0.829-0.297-0.351-0.735-0.554-0.437-0.203-1.015-0.203-0.36 0-0.633 0.046-0.274 0.047-0.492 0.149-0.219 0.101-0.414 0.234-0.196 0.133-0.399 0.321l-1.187-0.313"/>
</g>
<g fill="#fff" fill-rule="evenodd">
<path d="m119.39 205.4q0-1.156 0.187-2.18 0.188-1.023 0.492-1.89 0.305-0.867 0.703-1.594 0.399-0.727 0.844-1.281 0.445-0.555 0.891-0.953 0.445-0.399 0.851-0.633l0.313 1q-0.5 0.375-1 1.031t-0.891 1.594q-0.39 0.937-0.64 2.156t-0.25 2.734v0.11q0 1.531 0.25 2.75t0.64 2.164q0.391 0.945 0.891 1.609t1 1.071l-0.313 0.921q-0.406-0.234-0.851-0.625-0.446-0.39-0.891-0.953-0.445-0.562-0.844-1.281-0.398-0.719-0.703-1.594-0.304-0.875-0.492-1.89-0.187-1.016-0.187-2.188v-0.078"/>
</g>
<g fill="#FFD866" fill-rule="evenodd">
<path d="m131.87 199.29v2.125h3.344v1.172h-3.344v4.765q0 0.516 0.125 0.844t0.351 0.531q0.227 0.203 0.524 0.281 0.297 0.079 0.64 0.079 0.235 0 0.493-0.032 0.257-0.031 0.507-0.07t0.461-0.086 0.352-0.078l0.219 1.062q-0.188 0.125-0.453 0.204-0.266 0.078-0.586 0.14-0.321 0.063-0.672 0.094-0.352 0.031-0.696 0.031-0.593 0-1.101-0.164t-0.875-0.523q-0.367-0.36-0.586-0.93t-0.219-1.383v-4.765h-2.297v-1.172h2.297v-2.125h1.516"/>
<path d="m141.94 207.09 0.39 1.062 2.672-6.734h1.688l-4.453 10.14q-0.157 0.328-0.399 0.711t-0.586 0.711-0.797 0.547-1.047 0.219q-0.093 0-0.226-0.016-0.133-0.015-0.258-0.031t-0.242-0.039q-0.117-0.024-0.195-0.039l0.25-1.235q0.062 0 0.156 8e-3t0.195 0.016q0.102 8e-3 0.203 0.016 0.102 7e-3 0.164 7e-3 0.297 0 0.555-0.172 0.258-0.171 0.453-0.406 0.195-0.234 0.344-0.484 0.148-0.25 0.226-0.422l0.594-1.156-3.781-8.375h1.687l2.407 5.672"/>
<path d="m156.51 205.9q0 0.953-0.226 1.766-0.227 0.812-0.664 1.414-0.438 0.601-1.078 0.937-0.641 0.336-1.469 0.336-0.813 0-1.422-0.258-0.609-0.257-1.047-0.742v4.219h-1.5v-12.156h1.375l0.063 0.968q0.437-0.546 1.062-0.835 0.625-0.29 1.438-0.29 0.843 0 1.492 0.336 0.648 0.336 1.086 0.922 0.437 0.586 0.664 1.414 0.226 0.828 0.226 1.813v0.156m-1.5-0.156q0-0.641-0.14-1.227-0.141-0.586-0.438-1.023-0.297-0.438-0.75-0.695-0.453-0.258-1.078-0.258-0.734 0-1.219 0.336-0.484 0.336-0.781 0.851v4.235q0.297 0.515 0.781 0.843 0.485 0.328 1.235 0.328 0.625 0 1.078-0.265 0.453-0.266 0.742-0.711t0.43-1.031q0.14-0.586 0.14-1.227v-0.156"/>
<path d="m163.38 210.36q-0.922 0-1.695-0.312-0.774-0.313-1.32-0.883-0.547-0.57-0.86-1.344-0.312-0.773-0.312-1.695v-0.344q0-1.062 0.343-1.898 0.344-0.836 0.907-1.422 0.562-0.586 1.281-0.891t1.469-0.305q0.953 0 1.664 0.329 0.711 0.328 1.179 0.906 0.469 0.578 0.696 1.367 0.226 0.789 0.226 1.711v0.672h-6.265q0.031 0.594 0.234 1.125t0.563 0.922q0.359 0.39 0.867 0.617 0.508 0.226 1.117 0.226 0.797 0 1.422-0.328t1.031-0.859l0.922 0.719q-0.219 0.328-0.547 0.633-0.328 0.304-0.758 0.539-0.429 0.234-0.976 0.375-0.547 0.14-1.188 0.14m-0.187-7.859q-0.453 0-0.86 0.164-0.406 0.164-0.734 0.484-0.328 0.321-0.547 0.789-0.219 0.469-0.312 1.078h4.718v-0.109q-0.015-0.437-0.156-0.875-0.141-0.437-0.422-0.773t-0.695-0.547-0.992-0.211"/>
</g>
<g fill="#fff" fill-rule="evenodd">
<path d="m186.01 209q-0.437 0.64-1.093 1-0.657 0.359-1.516 0.359-0.703 0-1.258-0.211-0.554-0.211-0.953-0.664-0.398-0.453-0.617-1.156t-0.219-1.688v-5.218h1.5v5.234q0 0.719 0.117 1.188 0.118 0.468 0.344 0.75 0.227 0.281 0.555 0.39 0.328 0.11 0.765 0.11 0.907 0 1.469-0.368 0.563-0.367 0.844-1.007v-6.297h1.516v8.781h-1.375l-0.079-1.203"/>
<path d="m192.05 201.42 0.109 1.297q0.485-0.672 1.18-1.055t1.555-0.399q0.687 0 1.25 0.196 0.562 0.195 0.961 0.609 0.398 0.414 0.617 1.047t0.219 1.508v5.578h-1.5v-5.547q0-0.578-0.133-0.984-0.133-0.407-0.391-0.657t-0.625-0.359-0.836-0.109q-0.765 0-1.336 0.375-0.57 0.375-0.914 0.984v6.297h-1.5v-8.781h1.344"/>
<path d="m200.84 205.75q0-0.985 0.234-1.813t0.687-1.414q0.454-0.586 1.118-0.922t1.492-0.336q0.781 0 1.383 0.266 0.601 0.266 1.039 0.766l0.062-0.875h1.375v12.156h-1.5v-4.172q-0.437 0.469-1.023 0.711t-1.352 0.242q-0.828 0-1.484-0.336t-1.11-0.937q-0.453-0.602-0.687-1.414-0.234-0.813-0.234-1.766v-0.156m1.5 0.156q0 0.641 0.14 1.227 0.141 0.586 0.43 1.031t0.742 0.711q0.453 0.265 1.078 0.265 0.719 0 1.203-0.328 0.485-0.328 0.797-0.843v-4.329q-0.156-0.25-0.351-0.453-0.196-0.203-0.446-0.359t-0.547-0.242q-0.296-0.086-0.64-0.086-0.625 0-1.078 0.265-0.453 0.266-0.75 0.719t-0.438 1.039q-0.14 0.586-0.14 1.227v0.156"/>
<path d="m217.21 209q-0.437 0.64-1.093 1-0.657 0.359-1.516 0.359-0.703 0-1.258-0.211-0.554-0.211-0.953-0.664-0.398-0.453-0.617-1.156t-0.219-1.688v-5.218h1.5v5.234q0 0.719 0.117 1.188 0.118 0.468 0.344 0.75 0.227 0.281 0.555 0.39 0.328 0.11 0.765 0.11 0.907 0 1.469-0.368 0.563-0.367 0.844-1.007v-6.297h1.516v8.781h-1.375l-0.079-1.203"/>
<path d="m227.67 210.2q-0.078-0.172-0.133-0.43t-0.086-0.523q-0.219 0.219-0.5 0.422t-0.617 0.359-0.719 0.242-0.805 0.086q-0.703 0-1.265-0.203-0.563-0.203-0.961-0.547t-0.609-0.812q-0.211-0.469-0.211-1.032 0-0.718 0.289-1.257t0.812-0.907q0.524-0.367 1.266-0.539t1.664-0.172h1.641v-0.703q0-0.39-0.149-0.711-0.148-0.32-0.414-0.539-0.266-0.218-0.648-0.343-0.383-0.125-0.868-0.125-0.453 0-0.804 0.117-0.352 0.117-0.594 0.304-0.242 0.188-0.375 0.438t-0.133 0.531h-1.515q0.015-0.484 0.257-0.945 0.243-0.461 0.688-0.828t1.094-0.594q0.648-0.227 1.461-0.227 0.75 0 1.39 0.18 0.641 0.18 1.11 0.555 0.468 0.375 0.734 0.922t0.266 1.281v4.094q0 0.437 0.078 0.922 0.078 0.484 0.234 0.859v0.125h-1.578m-2.641-1.141q0.438 0 0.813-0.117t0.687-0.305q0.313-0.187 0.539-0.421 0.227-0.235 0.368-0.5v-1.766h-1.391q-1.328 0-2.055 0.383-0.726 0.383-0.726 1.226 0 0.328 0.109 0.602 0.109 0.273 0.328 0.469 0.219 0.195 0.555 0.312t0.773 0.117"/>
<path d="m232.54 197.75h4.484v11.156h2.875v1.297h-7.359v-1.297h2.984v-9.859h-2.984v-1.297"/>
<path d="m242.94 201.42h4.484v7.484h2.875v1.297h-7.359v-1.297h2.984v-6.172h-2.984v-1.312m2.797-2.297q0-0.375 0.218-0.633 0.219-0.258 0.688-0.258 0.437 0 0.664 0.258 0.226 0.258 0.226 0.633 0 0.359-0.226 0.601-0.227 0.243-0.664 0.243-0.469 0-0.688-0.243-0.218-0.242-0.218-0.601"/>
<path d="m255.36 210.2v-7.609h-2.422v-1.172h2.422v-0.61q0-0.843 0.242-1.484 0.243-0.641 0.696-1.07 0.453-0.43 1.086-0.649t1.414-0.219q0.531 0 1.039 0.094t1.039 0.235l-0.172 1.234q-0.344-0.109-0.781-0.195-0.438-0.086-0.938-0.086-1.062 0-1.593 0.531-0.532 0.531-0.532 1.609v0.61h3.391v1.172h-3.391v7.609h-1.5"/>
<path d="m266.74 207.09 0.39 1.062 2.672-6.734h1.688l-4.453 10.14q-0.157 0.328-0.399 0.711t-0.586 0.711-0.797 0.547-1.047 0.219q-0.093 0-0.226-0.016-0.133-0.015-0.258-0.031t-0.242-0.039q-0.117-0.024-0.195-0.039l0.25-1.235q0.062 0 0.156 8e-3t0.195 0.016q0.102 8e-3 0.203 0.016 0.102 7e-3 0.164 7e-3 0.297 0 0.555-0.172 0.258-0.171 0.453-0.406 0.195-0.234 0.344-0.484 0.148-0.25 0.226-0.422l0.594-1.156-3.781-8.375h1.687l2.407 5.672"/>
<path d="m289.57 197.93h-1.797v13.563h1.797v1.234h-3.219v-16.031h3.219v1.234"/>
<path d="m297.32 209.23q0-0.25 0.078-0.461t0.226-0.367q0.149-0.156 0.368-0.25 0.218-0.094 0.515-0.094 0.281 0 0.508 0.094t0.375 0.25 0.227 0.367q0.078 0.211 0.078 0.461 0 0.235-0.078 0.438-0.079 0.203-0.227 0.359t-0.375 0.242-0.508 0.086q-0.297 0-0.515-0.086-0.219-0.086-0.368-0.242-0.148-0.156-0.226-0.359t-0.078-0.438m0-7q0-0.25 0.078-0.461t0.226-0.367q0.149-0.156 0.368-0.25 0.218-0.094 0.515-0.094 0.281 0 0.508 0.094t0.375 0.25 0.227 0.367q0.078 0.211 0.078 0.461 0 0.235-0.078 0.438-0.079 0.203-0.227 0.359t-0.375 0.242-0.508 0.086q-0.297 0-0.515-0.086-0.219-0.086-0.368-0.242-0.148-0.156-0.226-0.359t-0.078-0.438"/>
<path d="m307.36 210.2v-7.609h-2.422v-1.172h2.422v-0.61q0-0.843 0.242-1.484 0.243-0.641 0.696-1.07 0.453-0.43 1.086-0.649t1.414-0.219q0.531 0 1.039 0.094t1.039 0.235l-0.172 1.234q-0.344-0.109-0.781-0.195-0.438-0.086-0.938-0.086-1.062 0-1.593 0.531-0.532 0.531-0.532 1.609v0.61h3.391v1.172h-3.391v7.609h-1.5"/>
<path d="m316.85 201.42 0.109 1.297q0.485-0.672 1.18-1.055t1.555-0.399q0.687 0 1.25 0.196 0.562 0.195 0.961 0.609 0.398 0.414 0.617 1.047t0.219 1.508v5.578h-1.5v-5.547q0-0.578-0.133-0.984-0.133-0.407-0.391-0.657t-0.625-0.359-0.836-0.109q-0.765 0-1.336 0.375-0.57 0.375-0.914 0.984v6.297h-1.5v-8.781h1.344"/>
<path d="m341.57 197.93h-1.797v13.563h1.797v1.234h-3.219v-16.031h3.219v1.234"/>
<path d="m349.32 209.23q0-0.25 0.078-0.461t0.226-0.367q0.149-0.156 0.368-0.25 0.218-0.094 0.515-0.094 0.281 0 0.508 0.094t0.375 0.25 0.227 0.367q0.078 0.211 0.078 0.461 0 0.235-0.078 0.438-0.079 0.203-0.227 0.359t-0.375 0.242-0.508 0.086q-0.297 0-0.515-0.086-0.219-0.086-0.368-0.242-0.148-0.156-0.226-0.359t-0.078-0.438m0-7q0-0.25 0.078-0.461t0.226-0.367q0.149-0.156 0.368-0.25 0.218-0.094 0.515-0.094 0.281 0 0.508 0.094t0.375 0.25 0.227 0.367q0.078 0.211 0.078 0.461 0 0.235-0.078 0.438-0.079 0.203-0.227 0.359t-0.375 0.242-0.508 0.086q-0.297 0-0.515-0.086-0.219-0.086-0.368-0.242-0.148-0.156-0.226-0.359t-0.078-0.438"/>
<path d="m359.73 206.11-1.093 1.063v3.031h-1.516v-12.453h1.516v7.625l0.984-1.063 2.875-2.89h1.828l-3.562 3.656 4.109 5.125h-1.906l-3.235-4.094"/>
<path d="m371.38 210.36q-0.922 0-1.695-0.312-0.773-0.313-1.32-0.883t-0.86-1.344q-0.312-0.773-0.312-1.695v-0.344q0-1.062 0.344-1.898 0.343-0.836 0.906-1.422 0.562-0.586 1.281-0.891t1.469-0.305q0.953 0 1.664 0.329 0.711 0.328 1.18 0.906 0.468 0.578 0.695 1.367 0.226 0.789 0.226 1.711v0.672h-6.265q0.031 0.594 0.234 1.125t0.563 0.922q0.359 0.39 0.867 0.617 0.508 0.226 1.117 0.226 0.797 0 1.422-0.328t1.031-0.859l0.922 0.719q-0.219 0.328-0.547 0.633-0.328 0.304-0.758 0.539-0.429 0.234-0.976 0.375-0.547 0.14-1.188 0.14m-0.187-7.859q-0.453 0-0.86 0.164-0.406 0.164-0.734 0.484-0.328 0.321-0.547 0.789-0.219 0.469-0.312 1.078h4.718v-0.109q-0.015-0.437-0.156-0.875-0.14-0.437-0.422-0.773-0.281-0.336-0.695-0.547t-0.992-0.211"/>
<path d="m381.14 207.09 0.39 1.062 2.672-6.734h1.688l-4.453 10.14q-0.157 0.328-0.399 0.711t-0.586 0.711-0.797 0.547-1.047 0.219q-0.093 0-0.226-0.016-0.133-0.015-0.258-0.031t-0.242-0.039q-0.117-0.024-0.195-0.039l0.25-1.235q0.062 0 0.156 8e-3t0.195 0.016q0.102 8e-3 0.203 0.016 0.102 7e-3 0.164 7e-3 0.297 0 0.555-0.172 0.258-0.171 0.453-0.406 0.195-0.234 0.344-0.484 0.148-0.25 0.226-0.422l0.594-1.156-3.781-8.375h1.687l2.407 5.672"/>
<path d="m389.63 207.03 0.188 1.25 0.219-1.25 1.406-5.609h0.953l1.406 5.609 0.235 1.375 0.218-1.375 0.969-5.609h1.328l-1.859 8.781h-1.188l-1.375-5.375-0.218-1.359-0.219 1.359-1.359 5.375h-1.188l-1.859-8.781h1.328l1.015 5.609"/>
<path d="m398.28 205.73q0-0.953 0.282-1.765 0.281-0.813 0.797-1.414 0.515-0.602 1.25-0.946 0.734-0.344 1.656-0.344 0.937 0 1.679 0.344 0.743 0.344 1.258 0.946 0.516 0.601 0.789 1.414 0.274 0.812 0.274 1.765v0.172q0 0.953-0.274 1.766-0.273 0.812-0.789 1.414-0.515 0.601-1.258 0.937-0.742 0.336-1.664 0.336-0.921 0-1.664-0.336-0.742-0.336-1.257-0.937-0.516-0.602-0.797-1.414-0.282-0.813-0.282-1.766v-0.172m1.5 0.172q0 0.656 0.157 1.242 0.156 0.586 0.468 1.032 0.313 0.445 0.782 0.71 0.468 0.266 1.093 0.266t1.086-0.266q0.461-0.265 0.774-0.71 0.312-0.446 0.469-1.032 0.156-0.586 0.156-1.242v-0.172q0-0.64-0.156-1.226-0.157-0.586-0.469-1.032-0.313-0.445-0.781-0.711-0.469-0.265-1.094-0.265t-1.086 0.265q-0.461 0.266-0.774 0.711-0.312 0.446-0.468 1.032-0.157 0.586-0.157 1.226v0.172"/>
<path d="m414.86 201.26q0.219 0 0.446 0.016 0.226 0.016 0.429 0.039 0.203 0.024 0.383 0.063t0.289 0.101l-0.203 1.453q-0.438-0.093-0.828-0.132-0.391-0.04-0.828-0.04-1.047 0-1.703 0.477-0.657 0.477-0.969 1.336v5.625h-1.5v-8.781h1.422l0.078 1.406q0.531-0.734 1.281-1.148 0.75-0.415 1.703-0.415"/>
<path d="m419.22 205.75q0-0.985 0.25-1.813t0.703-1.414 1.11-0.922q0.656-0.336 1.453-0.336 0.781 0 1.375 0.266 0.593 0.266 1.015 0.766v-4.547h1.5v12.453h-1.375l-0.062-0.922q-0.438 0.531-1.047 0.805-0.609 0.273-1.422 0.273-0.797 0-1.445-0.336-0.649-0.336-1.102-0.937-0.453-0.602-0.703-1.414-0.25-0.813-0.25-1.766v-0.156m1.5 0.156q0 0.641 0.141 1.219 0.14 0.578 0.429 1.015 0.289 0.438 0.735 0.696 0.445 0.258 1.07 0.258 0.375 0 0.688-0.094 0.312-0.094 0.562-0.258t0.445-0.391q0.196-0.226 0.336-0.523v-4.063q-0.297-0.531-0.789-0.875-0.492-0.343-1.226-0.343-0.641 0-1.086 0.258-0.446 0.257-0.735 0.695-0.289 0.437-0.429 1.023-0.141 0.586-0.141 1.227v0.156"/>
<path d="m431.78 196.7h3.219v16.031h-3.219v-1.234h1.797v-13.563h-1.797v-1.234"/>
<path d="m453.32 209.23q0-0.25 0.078-0.461t0.226-0.367q0.149-0.156 0.368-0.25 0.218-0.094 0.515-0.094 0.281 0 0.508 0.094t0.375 0.25 0.227 0.367q0.078 0.211 0.078 0.461 0 0.235-0.078 0.438-0.079 0.203-0.227 0.359t-0.375 0.242-0.508 0.086q-0.297 0-0.515-0.086-0.219-0.086-0.368-0.242-0.148-0.156-0.226-0.359t-0.078-0.438m0-7q0-0.25 0.078-0.461t0.226-0.367q0.149-0.156 0.368-0.25 0.218-0.094 0.515-0.094 0.281 0 0.508 0.094t0.375 0.25 0.227 0.367q0.078 0.211 0.078 0.461 0 0.235-0.078 0.438-0.079 0.203-0.227 0.359t-0.375 0.242-0.508 0.086q-0.297 0-0.515-0.086-0.219-0.086-0.368-0.242-0.148-0.156-0.226-0.359t-0.078-0.438"/>
<path d="m466.81 209q-0.437 0.64-1.093 1-0.657 0.359-1.516 0.359-0.703 0-1.258-0.211-0.554-0.211-0.953-0.664-0.398-0.453-0.617-1.156t-0.219-1.688v-5.218h1.5v5.234q0 0.719 0.117 1.188 0.118 0.468 0.344 0.75 0.227 0.281 0.555 0.39 0.328 0.11 0.765 0.11 0.907 0 1.469-0.368 0.563-0.367 0.844-1.007v-6.297h1.516v8.781h-1.375l-0.079-1.203"/>
<path d="m472.85 201.42 0.109 1.297q0.485-0.672 1.18-1.055t1.555-0.399q0.687 0 1.25 0.196 0.562 0.195 0.961 0.609 0.398 0.414 0.617 1.047t0.219 1.508v5.578h-1.5v-5.547q0-0.578-0.133-0.984-0.133-0.407-0.391-0.657t-0.625-0.359-0.836-0.109q-0.765 0-1.336 0.375-0.57 0.375-0.914 0.984v6.297h-1.5v-8.781h1.344"/>
<path d="m481.64 205.75q0-0.985 0.234-1.813t0.687-1.414q0.454-0.586 1.118-0.922t1.492-0.336q0.781 0 1.383 0.266 0.601 0.266 1.039 0.766l0.062-0.875h1.375v12.156h-1.5v-4.172q-0.437 0.469-1.023 0.711t-1.352 0.242q-0.828 0-1.484-0.336t-1.11-0.937q-0.453-0.602-0.687-1.414-0.234-0.813-0.234-1.766v-0.156m1.5 0.156q0 0.641 0.14 1.227 0.141 0.586 0.43 1.031t0.742 0.711q0.453 0.265 1.078 0.265 0.719 0 1.203-0.328 0.485-0.328 0.797-0.843v-4.329q-0.156-0.25-0.351-0.453-0.196-0.203-0.446-0.359t-0.546-0.242q-0.297-0.086-0.641-0.086-0.625 0-1.078 0.265-0.453 0.266-0.75 0.719t-0.438 1.039q-0.14 0.586-0.14 1.227v0.156"/>
<path d="m498.01 209q-0.437 0.64-1.093 1-0.657 0.359-1.516 0.359-0.703 0-1.258-0.211-0.554-0.211-0.953-0.664-0.398-0.453-0.617-1.156t-0.219-1.688v-5.218h1.5v5.234q0 0.719 0.117 1.188 0.118 0.468 0.344 0.75 0.227 0.281 0.555 0.39 0.328 0.11 0.765 0.11 0.907 0 1.469-0.368 0.563-0.367 0.844-1.007v-6.297h1.516v8.781h-1.375l-0.079-1.203"/>
<path d="m508.47 210.2q-0.078-0.172-0.133-0.43t-0.086-0.523q-0.219 0.219-0.5 0.422t-0.617 0.359-0.719 0.242-0.804 0.086q-0.704 0-1.266-0.203-0.563-0.203-0.961-0.547t-0.609-0.812q-0.211-0.469-0.211-1.032 0-0.718 0.289-1.257t0.812-0.907q0.524-0.367 1.266-0.539t1.664-0.172h1.641v-0.703q0-0.39-0.149-0.711-0.148-0.32-0.414-0.539-0.266-0.218-0.648-0.343-0.383-0.125-0.868-0.125-0.453 0-0.804 0.117-0.352 0.117-0.594 0.304-0.242 0.188-0.375 0.438t-0.133 0.531h-1.515q0.015-0.484 0.257-0.945 0.243-0.461 0.688-0.828t1.094-0.594q0.648-0.227 1.461-0.227 0.75 0 1.39 0.18 0.641 0.18 1.11 0.555 0.468 0.375 0.734 0.922t0.266 1.281v4.094q0 0.437 0.078 0.922 0.078 0.484 0.234 0.859v0.125h-1.578m-2.641-1.141q0.438 0 0.813-0.117t0.687-0.305q0.313-0.187 0.539-0.421 0.227-0.235 0.368-0.5v-1.766h-1.391q-1.328 0-2.055 0.383-0.726 0.383-0.726 1.226 0 0.328 0.109 0.602 0.109 0.273 0.328 0.469 0.219 0.195 0.555 0.312t0.773 0.117"/>
<path d="m513.34 197.75h4.484v11.156h2.875v1.297h-7.359v-1.297h2.984v-9.859h-2.984v-1.297"/>
<path d="m523.74 201.42h4.484v7.484h2.875v1.297h-7.359v-1.297h2.984v-6.172h-2.984v-1.312m2.797-2.297q0-0.375 0.218-0.633 0.219-0.258 0.688-0.258 0.437 0 0.664 0.258 0.226 0.258 0.226 0.633 0 0.359-0.226 0.601-0.227 0.243-0.664 0.243-0.469 0-0.688-0.243-0.218-0.242-0.218-0.601"/>
<path d="m536.16 210.2v-7.609h-2.422v-1.172h2.422v-0.61q0-0.843 0.242-1.484 0.243-0.641 0.696-1.07 0.453-0.43 1.086-0.649 0.632-0.219 1.414-0.219 0.531 0 1.039 0.094t1.039 0.235l-0.172 1.234q-0.344-0.109-0.781-0.195-0.438-0.086-0.938-0.086-1.062 0-1.593 0.531-0.532 0.531-0.532 1.609v0.61h3.391v1.172h-3.391v7.609h-1.5"/>
<path d="m544.54 201.42h4.484v7.484h2.875v1.297h-7.359v-1.297h2.984v-6.172h-2.984v-1.312m2.797-2.297q0-0.375 0.218-0.633 0.219-0.258 0.688-0.258 0.437 0 0.664 0.258 0.226 0.258 0.226 0.633 0 0.359-0.226 0.601-0.227 0.243-0.664 0.243-0.469 0-0.688-0.243-0.218-0.242-0.218-0.601"/>
<path d="m558.58 210.36q-0.922 0-1.695-0.312-0.774-0.313-1.32-0.883-0.547-0.57-0.86-1.344-0.312-0.773-0.312-1.695v-0.344q0-1.062 0.343-1.898 0.344-0.836 0.907-1.422 0.562-0.586 1.281-0.891t1.469-0.305q0.953 0 1.664 0.329 0.711 0.328 1.179 0.906 0.469 0.578 0.696 1.367 0.226 0.789 0.226 1.711v0.672h-6.265q0.031 0.594 0.234 1.125t0.563 0.922q0.359 0.39 0.867 0.617 0.508 0.226 1.117 0.226 0.797 0 1.422-0.328t1.031-0.859l0.922 0.719q-0.219 0.328-0.547 0.633-0.328 0.304-0.758 0.539-0.429 0.234-0.976 0.375-0.547 0.14-1.188 0.14m-0.187-7.859q-0.453 0-0.86 0.164-0.406 0.164-0.734 0.484-0.328 0.321-0.547 0.789-0.219 0.469-0.312 1.078h4.718v-0.109q-0.015-0.437-0.156-0.875-0.141-0.437-0.422-0.773t-0.695-0.547-0.992-0.211"/>
<path d="m564.82 205.75q0-0.985 0.25-1.813t0.703-1.414 1.11-0.922q0.656-0.336 1.453-0.336 0.781 0 1.375 0.266 0.593 0.266 1.015 0.766v-4.547h1.5v12.453h-1.375l-0.062-0.922q-0.438 0.531-1.047 0.805-0.609 0.273-1.422 0.273-0.797 0-1.445-0.336-0.649-0.336-1.102-0.937-0.453-0.602-0.703-1.414-0.25-0.813-0.25-1.766v-0.156m1.5 0.156q0 0.641 0.141 1.219 0.14 0.578 0.429 1.015 0.289 0.438 0.735 0.696 0.445 0.258 1.07 0.258 0.375 0 0.688-0.094 0.312-0.094 0.562-0.258t0.445-0.391q0.196-0.226 0.336-0.523v-4.063q-0.297-0.531-0.789-0.875-0.492-0.343-1.226-0.343-0.641 0-1.086 0.258-0.446 0.257-0.735 0.695-0.289 0.437-0.429 1.023-0.141 0.586-0.141 1.227v0.156"/>
<path d="m582.07 205.65h-6.203v-1.234h6.203v1.234"/>
<path d="m588.53 206.11-1.093 1.063v3.031h-1.516v-12.453h1.516v7.625l0.984-1.063 2.875-2.89h1.828l-3.563 3.656 4.11 5.125h-1.906l-3.235-4.094"/>
<path d="m600.18 210.36q-0.922 0-1.695-0.312-0.773-0.313-1.32-0.883t-0.86-1.344q-0.312-0.773-0.312-1.695v-0.344q0-1.062 0.344-1.898 0.343-0.836 0.906-1.422 0.562-0.586 1.281-0.891t1.469-0.305q0.953 0 1.664 0.329 0.711 0.328 1.18 0.906 0.468 0.578 0.695 1.367 0.226 0.789 0.226 1.711v0.672h-6.265q0.031 0.594 0.234 1.125t0.563 0.922q0.359 0.39 0.867 0.617 0.508 0.226 1.117 0.226 0.797 0 1.422-0.328t1.031-0.859l0.922 0.719q-0.219 0.328-0.547 0.633-0.328 0.304-0.758 0.539-0.429 0.234-0.976 0.375-0.547 0.14-1.188 0.14m-0.187-7.859q-0.453 0-0.86 0.164-0.406 0.164-0.734 0.484-0.328 0.321-0.547 0.789-0.219 0.469-0.312 1.078h4.718v-0.109q-0.015-0.437-0.156-0.875-0.14-0.437-0.422-0.773-0.281-0.336-0.695-0.547t-0.992-0.211"/>
<path d="m609.94 207.09 0.39 1.062 2.672-6.734h1.688l-4.454 10.14q-0.156 0.328-0.398 0.711t-0.586 0.711-0.797 0.547-1.047 0.219q-0.093 0-0.226-0.016-0.133-0.015-0.258-0.031t-0.242-0.039q-0.117-0.024-0.196-0.039l0.25-1.235q0.063 0 0.157 8e-3 0.093 8e-3 0.195 0.016t0.203 0.016q0.102 7e-3 0.164 7e-3 0.297 0 0.555-0.172 0.258-0.171 0.453-0.406 0.195-0.234 0.344-0.484 0.148-0.25 0.226-0.422l0.594-1.156-3.781-8.375h1.687l2.407 5.672"/>
<path d="m618.43 207.03 0.188 1.25 0.219-1.25 1.406-5.609h0.953l1.406 5.609 0.235 1.375 0.218-1.375 0.969-5.609h1.328l-1.859 8.781h-1.188l-1.375-5.375-0.218-1.359-0.219 1.359-1.359 5.375h-1.188l-1.859-8.781h1.328l1.015 5.609"/>
<path d="m627.08 205.73q0-0.953 0.282-1.765 0.281-0.813 0.797-1.414 0.515-0.602 1.25-0.946 0.734-0.344 1.656-0.344 0.937 0 1.679 0.344 0.743 0.344 1.258 0.946 0.516 0.601 0.789 1.414 0.274 0.812 0.274 1.765v0.172q0 0.953-0.274 1.766-0.273 0.812-0.789 1.414-0.515 0.601-1.258 0.937-0.742 0.336-1.664 0.336-0.921 0-1.664-0.336-0.742-0.336-1.257-0.937-0.516-0.602-0.797-1.414-0.282-0.813-0.282-1.766v-0.172m1.5 0.172q0 0.656 0.157 1.242 0.156 0.586 0.468 1.032 0.313 0.445 0.782 0.71 0.468 0.266 1.093 0.266t1.086-0.266q0.461-0.265 0.774-0.71 0.312-0.446 0.469-1.032 0.156-0.586 0.156-1.242v-0.172q0-0.64-0.156-1.226-0.157-0.586-0.469-1.032-0.313-0.445-0.781-0.711-0.469-0.265-1.094-0.265t-1.086 0.265q-0.461 0.266-0.774 0.711-0.312 0.446-0.468 1.032-0.157 0.586-0.157 1.226v0.172"/>
<path d="m643.66 201.26q0.219 0 0.446 0.016 0.226 0.016 0.429 0.039 0.203 0.024 0.383 0.063t0.289 0.101l-0.203 1.453q-0.438-0.093-0.828-0.132-0.391-0.04-0.828-0.04-1.047 0-1.703 0.477-0.657 0.477-0.969 1.336v5.625h-1.5v-8.781h1.422l0.078 1.406q0.531-0.734 1.281-1.148 0.75-0.415 1.703-0.415"/>
<path d="m648.02 205.75q0-0.985 0.25-1.813t0.703-1.414 1.109-0.922q0.657-0.336 1.454-0.336 0.781 0 1.375 0.266 0.593 0.266 1.015 0.766v-4.547h1.5v12.453h-1.375l-0.062-0.922q-0.438 0.531-1.047 0.805-0.61 0.273-1.422 0.273-0.797 0-1.445-0.336-0.649-0.336-1.102-0.937-0.453-0.602-0.703-1.414-0.25-0.813-0.25-1.766v-0.156m1.5 0.156q0 0.641 0.141 1.219 0.14 0.578 0.429 1.015 0.289 0.438 0.735 0.696 0.445 0.258 1.07 0.258 0.375 0 0.687-0.094 0.313-0.094 0.563-0.258t0.445-0.391q0.196-0.226 0.336-0.523v-4.063q-0.297-0.531-0.789-0.875-0.492-0.343-1.226-0.343-0.641 0-1.086 0.258-0.446 0.257-0.735 0.695-0.289 0.437-0.429 1.023-0.141 0.586-0.141 1.227v0.156"/>
<path d="m660.58 196.7h3.219v16.031h-3.219v-1.234h1.797v-13.563h-1.797v-1.234"/>
<path d="m674.59 205.48q0 1.172-0.188 2.188-0.187 1.015-0.492 1.89t-0.711 1.594-0.844 1.281q-0.437 0.563-0.89 0.953-0.453 0.391-0.86 0.625l-0.312-0.921q0.5-0.375 1-1.039 0.5-0.665 0.89-1.618 0.391-0.953 0.641-2.179 0.25-1.227 0.25-2.758v-0.11q0-1.515-0.258-2.75-0.258-1.234-0.672-2.187t-0.898-1.617-0.953-1.039l0.312-0.922q0.407 0.234 0.86 0.633 0.453 0.398 0.89 0.953 0.438 0.554 0.844 1.281t0.711 1.594 0.492 1.89q0.188 1.024 0.188 2.18v0.078"/>
</g>
</svg>
